<?xml version="1.0" encoding="UTF-8" standalone="no"?>
<!-- Created with Inkscape (http://www.inkscape.org/) -->

<svg
   xml:space="preserve"
   inkscape:version="1.2.2 (b0a8486541, 2022-12-01)"
   sodipodi:docname="BRIDGE01-CUT2.svg"
   id="SVGRoot"
   version="1.1"
   viewBox="0 0 298.45001 241.3"
   height="241.3mm"
   width="298.45001mm"
   xmlns:inkscape="http://www.inkscape.org/namespaces/inkscape"
   xmlns:sodipodi="http://sodipodi.sourceforge.net/DTD/sodipodi-0.dtd"
   xmlns="http://www.w3.org/2000/svg"
   xmlns:svg="http://www.w3.org/2000/svg"><sodipodi:namedview
     id="namedview5880"
     pagecolor="#ffffff"
     bordercolor="#000000"
     borderopacity="0.25"
     inkscape:showpageshadow="2"
     inkscape:pageopacity="0.0"
     inkscape:pagecheckerboard="0"
     inkscape:deskcolor="#d1d1d1"
     inkscape:document-units="in"
     showgrid="false"
     inkscape:zoom="0.87555458"
     inkscape:cx="531.66303"
     inkscape:cy="644.16316"
     inkscape:window-width="1920"
     inkscape:window-height="1168"
     inkscape:window-x="0"
     inkscape:window-y="0"
     inkscape:window-maximized="1"
     inkscape:current-layer="layer1"
     showguides="true"><inkscape:page
       x="0"
       y="0"
       width="298.45001"
       height="241.3"
       id="page42142" /><inkscape:page
       x="308.45001"
       y="0"
       width="279.40002"
       height="215.89999"
       id="page42144" /></sodipodi:namedview><defs
     id="defs5875"><clipPath
       clipPathUnits="userSpaceOnUse"
       id="clipPath18210"><path
         d="M 0,0 H 6600 V 5100 H 0 Z"
         id="path18208" /></clipPath><clipPath
       clipPathUnits="userSpaceOnUse"
       id="clipPath41298"><path
         d="M 0,0 H 6600 V 5100 H 0 Z"
         id="path41296" /></clipPath></defs><g
     inkscape:label="01"
     inkscape:groupmode="layer"
     id="layer1"><path
       id="path42728"
       style="vector-effect:non-scaling-stroke;fill:none;stroke:#000000;stroke-width:0.264583;stroke-linecap:round;stroke-linejoin:round;stroke-miterlimit:10;stroke-dasharray:none;stroke-opacity:1;-inkscape-stroke:hairline"
       d="m 223.76123,179.46496 0.35698,1.53376 m 1e-5,5e-5 h 0.80856 m -1.1e-4,0 0.37603,1.61581 m 15.67826,-2e-5 1.3228,-1.57478 m 2.05651,-2e-5 -2.05651,2e-5 m 3.37923,-1.57482 -1.32267,1.57482 m -103.22859,1.57251 v -1.5749 m -13.05503,1e-4 0.47852,1.5747 m -2.12438,-1.5747 h 1.64601 m -2.1244,-1.5748 0.47848,1.5747 m 13.126,-1.5747 v 1.5747 m 1.5748,1e-4 h -1.57493 m 84.20443,1.57692 -1.81845,-3.14943 m -29.79518,-1.7e-4 -0.67254,1.57497 m -1.7126,-1.7e-4 h 1.7126 m -2.38529,1.5748 0.67249,-1.57463 m -182.4674448,1.57251 4.1995868,-3.14958 m 258.476298,0.0224 c -0.0216,1.02934 -0.0216,2.07997 0,3.13267 m -22.86195,-0.003 v -3.14978 m -58.47068,0.017 c -0.53301,1.00778 -1.06073,2.0586 -1.56633,3.13267 m -42.6276,-1.57701 -2.09968,1.57489 m -0.52498,-1.57489 h 2.62471 m -0.52498,-1.5748 -2.09968,1.57489 m -14.52473,1.5748 -4.19934,-3.14951" /></g><g
     inkscape:groupmode="layer"
     id="layer3"
     inkscape:label="02" /></svg>
