<?xml version="1.0" encoding="UTF-8" standalone="no"?>
<!-- Created with Inkscape (http://www.inkscape.org/) -->

<svg
   xml:space="preserve"
   inkscape:version="1.2.2 (b0a8486541, 2022-12-01)"
   sodipodi:docname="BRIDGE01-CUT1.svg"
   id="SVGRoot"
   version="1.1"
   viewBox="0 0 298.45001 241.3"
   height="241.3mm"
   width="298.45001mm"
   xmlns:inkscape="http://www.inkscape.org/namespaces/inkscape"
   xmlns:sodipodi="http://sodipodi.sourceforge.net/DTD/sodipodi-0.dtd"
   xmlns="http://www.w3.org/2000/svg"
   xmlns:svg="http://www.w3.org/2000/svg"><sodipodi:namedview
     id="namedview5880"
     pagecolor="#ffffff"
     bordercolor="#000000"
     borderopacity="0.25"
     inkscape:showpageshadow="2"
     inkscape:pageopacity="0.0"
     inkscape:pagecheckerboard="0"
     inkscape:deskcolor="#d1d1d1"
     inkscape:document-units="in"
     showgrid="false"
     inkscape:zoom="0.53586916"
     inkscape:cx="1937.04"
     inkscape:cy="479.59468"
     inkscape:window-width="1920"
     inkscape:window-height="1168"
     inkscape:window-x="1920"
     inkscape:window-y="0"
     inkscape:window-maximized="1"
     inkscape:current-layer="SVGRoot"
     showguides="true"><inkscape:page
       x="0"
       y="0"
       width="298.45001"
       height="241.3"
       id="page42142" /><inkscape:page
       x="308.45001"
       y="0"
       width="279.40002"
       height="215.89999"
       id="page42144" /></sodipodi:namedview><defs
     id="defs5875"><clipPath
       clipPathUnits="userSpaceOnUse"
       id="clipPath18210"><path
         d="M 0,0 H 6600 V 5100 H 0 Z"
         id="path18208" /></clipPath><clipPath
       clipPathUnits="userSpaceOnUse"
       id="clipPath41298"><path
         d="M 0,0 H 6600 V 5100 H 0 Z"
         id="path41296" /></clipPath></defs><g
     inkscape:label="01"
     inkscape:groupmode="layer"
     id="layer1"><path
       id="path42722"
       style="vector-effect:non-scaling-stroke;fill:none;stroke:#000000;stroke-width:0.264583;stroke-linecap:round;stroke-linejoin:round;stroke-miterlimit:10;stroke-dasharray:none;stroke-opacity:1;-inkscape-stroke:hairline"
       d="m 241.00667,182.59342 c -5.20402,-0.97802 -10.52561,-0.97802 -15.66333,0 m 10.71033,-3.12846 v 1.57482 m 0,-2e-5 -1.5748,2e-5 m 0,-2e-5 v -1.57478 m -25.03955,-1.7e-4 0.47826,1.57497 m 1.3e-4,-1.7e-4 h -1.64605 m 1.9e-4,0 -0.47856,-1.57463 m -85.22289,1.57251 -2.09985,-1.57478 m -0.52481,1.57478 2.62455,2e-5 m -4.72428,-1.57482 2.09961,1.57482 m -51.076009,-0.42012 1.99983,-1.15468 m -5.14943,1.15468 h 3.1496 m -5.1496,-1.1547 2,1.15487 m -48.976397,-1.15487 -2.099613,1.57482 m -1.2e-4,-2e-5 -2.624546,2e-5 m -1.2e-4,-2e-5 2.099853,-1.57478 m 252.636242,0.002 -0.18313,0.78722 m -1.4e-4,1.8e-4 h 1.57494 m -1.4e-4,0 0.18344,-0.78758 m -0.18344,2.36238 0.18344,0.78722 m -1.75824,-0.78722 h 1.57494 m -1.39167,0.7874 -0.18313,-0.78758 m -93.4472,-0.78958 0.67272,-1.57471 m -2.38518,1.57471 h 1.7125 m 11.43859,-1.5748 -1.32261,1.57489 m 2.05649,-9e-5 1.32255,-1.57471 m -14.53483,-9e-5 -0.67257,1.57489 m 11.82825,-9e-5 h 2.05666" /></g><g
     inkscape:groupmode="layer"
     id="layer3"
     inkscape:label="02" /></svg>
