<?xml version="1.0" encoding="UTF-8" standalone="no"?>
<!-- Created with Inkscape (http://www.inkscape.org/) -->

<svg
   width="215.89999mm"
   height="279.39999mm"
   viewBox="0 0 215.89999 279.39999"
   version="1.1"
   id="svg1184"
   inkscape:version="1.1.2 (0a00cf5339, 2022-02-04)"
   sodipodi:docname="FontTest.svg"
   xmlns:inkscape="http://www.inkscape.org/namespaces/inkscape"
   xmlns:sodipodi="http://sodipodi.sourceforge.net/DTD/sodipodi-0.dtd"
   xmlns="http://www.w3.org/2000/svg"
   xmlns:svg="http://www.w3.org/2000/svg">
  <sodipodi:namedview
     id="namedview1186"
     pagecolor="#505050"
     bordercolor="#eeeeee"
     borderopacity="1"
     inkscape:pageshadow="0"
     inkscape:pageopacity="0"
     inkscape:pagecheckerboard="0"
     inkscape:document-units="mm"
     showgrid="false"
     inkscape:zoom="0.66958024"
     inkscape:cx="721.34745"
     inkscape:cy="508.52755"
     inkscape:window-width="1920"
     inkscape:window-height="1117"
     inkscape:window-x="1920"
     inkscape:window-y="0"
     inkscape:window-maximized="1"
     inkscape:current-layer="layer1" />
  <defs
     id="defs1181">
    <rect
       x="255.31982"
       y="390.7849"
       width="319.33085"
       height="273.60062"
       id="rect3170" />
    <rect
       x="255.31982"
       y="390.7849"
       width="319.33085"
       height="273.60062"
       id="rect19137" />
    <rect
       x="255.31982"
       y="390.7849"
       width="319.33085"
       height="273.60062"
       id="rect19143" />
  </defs>
  <g
     inkscape:label="Layer 1"
     inkscape:groupmode="layer"
     id="layer1"
     transform="translate(41.830866,25.68917)">
    <path
       style="vector-effect:non-scaling-stroke;fill:none;stroke:#000000;stroke-width:0.000325784;stroke-linecap:butt;stroke-linejoin:miter;stroke-miterlimit:4;stroke-dasharray:none;stroke-opacity:1;-inkscape-stroke:hairline"
       d="m 8.9691316,56.860824 v 8.367934 9.620786 9.13284 9.26512 10.425716 9.76347 8.11817 12.25096 10.76104 13.36218 13.23179 h 16.9532544 14.167247 13.213427 12.618108 13.537503 11.564173 11.271716 9.12558 11.84899 v -9.03255 -5.37336 -7.69697 -9.61772 -7.31968 -8.87341 -6.30708 -10.88211 -8.351796 -7.46075 -7.5985 -6.64778 -6.43202 -5.356558 -7.349722 h -6.9797 -9.69074 -10.423279 -6.877524 -12.329 H 65.559859 54.658161 43.445828 33.601737 20.865129 Z"
       id="path1000"
       sodipodi:nodetypes="ccccccccccccccccccccccccccccccccccccccccccccccc" />
    <path
       style="fill:#000000;stroke-width:0.294238"
       d="m 61.916424,161.31186 c -4.542895,-1.90511 -9.795511,-6.16393 -13.130927,-10.64654 -1.780113,-2.39237 -3.157239,-5.20583 -4.531897,-9.2586 l -1.151096,-3.39366 0.18454,4.11934 c 0.130858,2.92111 0.393221,4.92258 0.901955,6.88073 0.710021,2.73293 0.721542,3.41104 0.04649,2.73597 -0.191501,-0.1915 -0.433935,-0.34818 -0.538738,-0.34818 -0.104758,0 -0.276886,1.51176 -0.382412,3.35945 -0.218925,3.83306 -0.336205,4.29076 -1.099473,4.29076 -0.696509,0 -1.226595,-0.82572 -2.077806,-3.23663 -0.670742,-1.89979 -0.67648,-2.045 -0.859918,-21.77367 l -0.184662,-19.86112 -0.926332,-4.55498 c -0.760766,-3.74088 -1.086117,-4.7775 -1.820381,-5.79994 -1.415082,-1.97047 -2.663018,-4.912098 -2.849203,-6.716151 L 33.32532,95.449613 31.824107,94.76972 C 30.998441,94.395779 29.86873,93.745463 29.313634,93.324579 l -1.009261,-0.765251 -1.344653,0.778941 c -2.373732,1.375072 -3.644221,2.329639 -6.199589,4.657963 -3.106973,2.830928 -3.978813,3.381598 -5.356018,3.382988 -2.076205,0.002 -3.424573,-1.18785 -3.901212,-3.44283 -0.611068,-2.89098 3.570334,-12.228001 8.372512,-18.695729 5.671871,-7.639052 10.710211,-11.374708 17.129614,-12.700672 5.547508,-1.14587 10.674625,-0.15471 14.309369,2.766256 l 1.1937,0.959275 1.8928,-0.757743 c 7.160396,-2.866504 15.626667,-2.99063 22.72195,-0.333135 l 2.784001,1.042728 1.883181,-1.343816 c 3.036455,-2.166766 4.59632,-2.598554 9.440289,-2.613181 3.870207,-0.01169 4.263674,0.04108 6.505646,0.872502 6.008577,2.228234 10.607247,6.175524 15.731997,13.503605 3.51494,5.026161 7.34498,13.580843 7.3269,16.365178 -0.0156,2.398205 -1.72747,4.378662 -3.78488,4.378662 -1.44855,0 -2.21793,-0.44766 -4.78855,-2.786195 -1.34974,-1.227888 -3.72697,-3.102178 -5.28276,-4.165092 l -2.82868,-1.932575 -1.43778,1.020318 c -0.79077,0.561175 -1.9343,1.180033 -2.54116,1.375239 -0.975057,0.313641 -1.103402,0.465842 -1.103402,1.308536 0,1.969108 -1.829656,6.295559 -3.461427,8.184959 -0.420123,0.48646 -1.108781,3.39352 -1.973048,8.32881 -0.311139,1.77676 -0.460147,7.11942 -0.603172,21.62656 -0.201109,20.39832 -0.230858,20.82493 -1.645573,23.598 -0.555241,1.08837 -1.468351,1.48332 -1.882001,0.81404 -0.101311,-0.16402 -0.300085,-1.83348 -0.441598,-3.70991 -0.141523,-1.87643 -0.333413,-3.48781 -0.426439,-3.58084 -0.09308,-0.0931 -0.32583,-0.0125 -0.51733,0.17905 -0.707508,0.70752 -0.710566,0.28895 -0.01624,-2.22641 0.544621,-1.97298 0.739958,-3.53716 0.835965,-6.69394 l 0.125276,-4.11933 -1.117989,3.38374 c -1.864664,5.64365 -4.003312,8.98738 -8.425958,13.17378 -2.682991,2.53967 -5.090341,4.24585 -8.100763,5.74131 -1.706815,0.84788 -2.210522,0.95432 -4.854946,1.02587 -2.548417,0.069 -3.176167,-0.0148 -4.605995,-0.61438 z m 6.410373,-5.94898 c 0.783252,-1.20391 1.538657,-2.19063 1.678669,-2.19272 0.140022,-0.002 0.163598,0.72444 0.05238,1.61451 -0.111209,0.89007 -0.101534,1.61831 0.02146,1.61831 0.123007,0 0.666928,-0.29791 1.208713,-0.66203 0.710187,-0.47731 1.414192,-1.51766 2.52285,-3.72823 1.87156,-3.73174 2.397353,-4.09585 2.211879,-1.53173 -0.07173,0.99146 -0.03948,1.80265 0.07162,1.80265 0.375839,0 4.272736,-4.28223 5.635962,-6.19323 4.005058,-5.61445 6.599739,-13.03398 6.889214,-19.69978 l 0.121384,-2.79527 -0.692439,1.91255 c -0.90924,2.51136 -2.091507,4.81631 -3.370114,6.57043 -0.59849,0.82107 -1.143723,2.0015 -1.291129,2.79527 -0.469088,2.52609 -1.643627,4.37939 -4.807516,7.58574 -2.365635,2.39738 -3.425207,3.24401 -4.957135,3.96088 -5.248635,2.45613 -9.934378,2.33885 -15.333233,-0.38378 -1.19658,-0.60343 -2.695012,-1.8281 -4.728858,-3.86489 -3.135942,-3.14048 -4.048218,-4.58374 -4.541504,-7.18483 -0.201243,-1.06115 -0.744762,-2.18067 -1.761852,-3.62894 -1.347412,-1.91864 -3.252189,-6.10464 -3.252189,-7.1471 0,-0.23842 -0.14784,-0.52485 -0.328531,-0.63653 -0.421135,-0.26028 -0.09975,4.38557 0.520521,7.52428 1.390572,7.03662 5.325668,14.54803 10.092471,19.26475 l 2.073569,2.05178 v -1.85562 c 0,-1.3403 0.100754,-1.82203 0.362884,-1.73466 0.199585,0.0665 0.986373,1.36854 1.748429,2.89335 0.874364,1.74956 1.798895,3.13401 2.505936,3.75255 l 1.120402,0.98017 0.147129,-1.71577 0.147117,-1.71575 1.292597,1.91255 c 1.83108,2.70931 2.401645,3.29519 2.848125,2.92464 0.201887,-0.16755 1.007914,-1.28966 1.791155,-2.49355 z m 3.027593,-11.52218 1.633128,-0.78209 -2.501032,-0.29211 c -3.024367,-0.35323 -5.562031,-0.36791 -8.621707,-0.0498 -2.617033,0.27203 -2.600875,0.46184 0.128157,1.50562 1.674776,0.64056 2.183254,0.69971 4.800754,0.55849 2.348587,-0.12673 3.250565,-0.31263 4.5607,-0.94004 z m -8.738788,-4.72738 c 1.414649,-0.48677 1.838831,-0.95315 0.866925,-0.95315 -1.705491,0 -5.648306,-3.0815 -5.648306,-4.41442 0,-0.51512 0.196916,-0.58764 1.595729,-0.58764 1.287459,0 1.770637,-0.14716 2.501031,-0.76174 0.97601,-0.82125 1.153654,-1.60823 0.487772,-2.16086 -0.336506,-0.27928 -0.493499,-0.1915 -0.809153,0.45243 -0.893815,1.82337 -3.642163,2.62603 -4.947315,1.44489 -2.27023,-2.05454 -1.041178,-7.74996 2.206997,-10.22718 2.150892,-1.64039 3.931316,-2.06997 8.044357,-1.94091 2.871779,0.0901 3.656876,0.22066 4.855224,0.80733 2.646459,1.29563 4.334547,3.5555 4.915121,6.57993 0.533389,2.77867 -0.337706,4.9173 -2.192506,5.38283 -0.990845,0.24868 -3.191503,-0.81329 -3.715939,-1.79319 -0.447869,-0.83687 -0.982481,-0.81593 -1.110449,0.0435 -0.157293,1.05636 1.222414,1.97474 3.179336,2.1163 1.038809,0.0752 1.760951,0.26378 1.760306,0.45983 -0.0044,1.34129 -2.779386,3.81199 -4.926297,4.3862 -0.688391,0.18411 -1.251617,0.42875 -1.251617,0.54364 0,0.11487 0.604073,0.43957 1.342385,0.72154 1.614535,0.61658 4.26225,0.68211 5.841709,0.14454 1.611521,-0.54848 3.510949,-2.40203 4.324171,-4.21972 0.624191,-1.39517 0.688769,-1.96153 0.695364,-6.0987 0.0089,-5.39403 -0.385649,-7.30746 -2.516034,-12.21091 -0.77341,-1.78015 -1.273936,-3.28392 -1.112284,-3.34172 0.380956,-0.13621 1.488836,0.91245 2.489533,2.35646 0.43567,0.62867 0.833785,1.10138 0.884696,1.05046 0.05093,-0.0509 -0.0883,-0.77807 -0.309271,-1.61589 -0.604962,-2.29332 -0.881037,-4.69274 -0.497991,-4.32821 0.173452,0.16507 0.988698,2.06516 1.811652,4.22244 1.042244,2.73213 1.578135,4.64 1.766033,6.2875 0.148363,1.30086 0.330389,2.42582 0.404498,2.49993 0.357568,0.35758 1.352883,-3.99215 1.352672,-5.91145 -1.89e-4,-1.72458 -0.158761,-2.43734 -0.882716,-3.96765 -0.485358,-1.02597 -0.882483,-1.97158 -0.882483,-2.10133 0,-0.12976 0.327975,-0.31824 0.728826,-0.41885 0.515273,-0.12932 0.947573,-0.64531 1.475357,-1.76096 0.678004,-1.43318 3.525595,-4.55201 3.855194,-4.22242 0.07484,0.0748 8.78e-4,0.51859 -0.1646,0.98608 -0.599813,1.69544 2.297888,-1.97753 3.542888,-4.49079 1.624487,-3.279297 1.798451,-5.023515 0.71438,-7.162808 -1.013219,-1.999491 -3.448549,-4.441535 -6.433104,-6.450824 -3.51622,-2.367228 -4.627692,-2.780916 -6.857753,-2.552439 -1.024785,0.104992 -1.863241,0.07532 -1.863241,-0.06594 0,-0.478309 1.063586,-1.222791 2.020245,-1.414126 l 0.95181,-0.190361 -0.971116,-0.861487 -0.971105,-0.86149 1.691869,0.144379 c 0.930536,0.0794 1.691879,0.036 1.691879,-0.09647 0,-0.225072 -1.00539,-1.702537 -2.594624,-3.812942 -1.315807,-1.747298 1.574121,-0.604186 3.992258,1.579137 0.84961,0.767113 1.544751,1.307036 1.544751,1.199821 0,-0.439637 -1.815655,-2.753373 -3.284784,-4.185896 -3.144139,-3.065781 -9.21407,-5.992898 -11.527437,-5.558906 -1.251428,0.234769 -3.215613,1.848504 -3.928948,3.227944 l -0.460269,0.890059 -0.537892,-0.720827 c -1.557474,-2.087177 -1.959559,-2.469304 -3.154281,-2.997788 -1.79477,-0.793915 -3.281648,-0.515823 -6.781075,1.268266 -4.06649,2.0732 -7.283202,4.90089 -9.013338,7.923308 -0.282235,0.493032 -0.14724,0.396754 2.04034,-1.455152 1.161604,-0.983362 3.621444,-2.245281 3.877524,-1.989203 0.07462,0.07462 -0.598413,1.158865 -1.495642,2.409418 -1.54038,2.146971 -2.002607,3.064561 -1.336302,2.652759 0.409358,-0.252992 3.23583,-0.682676 3.23583,-0.491911 0,0.08542 -0.415897,0.502515 -0.924219,0.926882 l -0.92422,0.771576 1.213662,0.36362 c 0.667506,0.199991 1.338459,0.596829 1.491004,0.881858 0.253889,0.474386 0.0863,0.517074 -1.981311,0.504542 -2.624951,-0.01591 -4.040944,0.5914 -7.574835,3.248797 -6.043963,4.544911 -7.265754,7.86095 -4.734084,12.848744 1.546764,3.04737 4.251674,6.35273 3.429888,4.19125 -0.153823,-0.40458 -0.165722,-0.7356 -0.02647,-0.7356 0.532021,0 3.808497,3.83292 4.143068,4.84666 0.27028,0.81895 0.54789,1.10302 1.206722,1.23479 0.470622,0.0941 0.85568,0.20248 0.85568,0.24078 0,0.0383 -0.390229,0.93027 -0.867179,1.98217 -1.158013,2.55395 -1.357921,4.30138 -0.777124,6.79303 0.256891,1.10208 0.647955,2.34901 0.869026,2.77093 0.384715,0.73426 0.411149,0.67991 0.616751,-1.2682 0.118135,-1.11943 0.614692,-3.2932 1.103442,-4.8306 0.992723,-3.1227 2.590365,-6.7778 2.76514,-6.32613 0.06261,0.16183 -0.20638,1.61779 -0.597778,3.23548 -0.391387,1.61769 -0.671777,2.98108 -0.62309,3.02978 0.04871,0.0487 0.555775,-0.54663 1.126841,-1.32293 0.571067,-0.77631 1.381364,-1.73246 1.800642,-2.12479 1.048639,-0.98121 1.005212,-0.32083 -0.146684,2.23065 -2.40666,5.33082 -2.908933,7.56348 -2.902116,12.90038 0.0056,4.50682 0.409158,6.33764 1.764032,8.00582 2.226447,2.74128 5.417516,3.51134 9.182408,2.21585 z M 45.770427,103.5606 c -2.177071,-0.94038 -4.147828,-3.48602 -4.535289,-5.858268 -0.535691,-3.279758 3.791927,-6.703117 7.865757,-6.222204 0.779859,0.09207 1.872225,0.448157 2.427477,0.791323 0.555253,0.343164 1.00955,0.505502 1.00955,0.360748 0,-0.491712 -1.612899,-1.790776 -3.080294,-2.480939 -1.614589,-0.759386 -1.76105,-1.096758 -0.711799,-1.639555 1.529036,-0.791002 4.028767,-0.202086 5.668034,1.335347 0.465362,0.43645 1.230342,1.587992 1.699953,2.55898 0.788834,1.631027 0.850355,1.999467 0.808085,4.839538 -0.02747,1.843121 -0.222651,3.59329 -0.487527,4.37064 l -0.441775,1.29654 -0.674723,-0.83978 -0.674713,-0.83977 -0.979067,0.94136 c -0.538482,0.51775 -1.471331,1.14669 -2.073002,1.39764 -1.384489,0.57745 -4.471198,0.5713 -5.820667,-0.0116 z m 5.178283,-1.56398 c 1.251494,-0.56836 2.244619,-1.70201 2.602031,-2.970217 0.185084,-0.656729 0.102534,-0.619975 -0.770552,0.342822 -0.537825,0.59313 -1.267085,1.222065 -1.620561,1.397635 -0.91956,0.45673 -3.214388,0.39388 -4.198449,-0.11501 -0.955914,-0.49432 -2.073469,-2.133058 -2.073469,-3.040444 0,-0.915639 -0.544343,-1.070109 -0.758864,-0.215348 -0.412849,1.644902 0.883829,3.668032 2.953484,4.608152 1.501724,0.68214 2.351322,0.68047 3.86638,-0.008 z m -0.623901,-5.506959 c 0.573501,-0.573498 0.487426,-1.254719 -0.214366,-1.696675 -0.600002,-0.377856 -1.48919,0.04248 -1.633004,0.771939 -0.09019,0.457382 0.663113,1.401809 1.118087,1.401809 0.138722,0 0.466887,-0.214682 0.729283,-0.477073 z m 30.475831,7.214029 c -0.395879,-0.15811 -1.278818,-0.74555 -1.962071,-1.30541 -0.683254,-0.55988 -1.322568,-1.01796 -1.42071,-1.01796 -0.0982,0 -0.323861,0.36412 -0.501594,0.80915 l -0.323149,0.80916 -0.468421,-1.02983 c -0.723933,-1.59157 -0.837655,-7.331932 -0.179401,-9.055536 0.586413,-1.535508 2.19225,-3.429909 3.465631,-4.088403 0.902578,-0.466737 3.954002,-0.6497 4.56259,-0.273572 0.691505,0.427373 0.305378,0.976123 -1.174572,1.669299 -1.595451,0.747267 -3.191057,2.048288 -3.191057,2.60191 0,0.180116 0.553061,-0.03852 1.22903,-0.48585 1.052521,-0.696528 1.527903,-0.813047 3.310184,-0.811343 1.757615,0.0018 2.329226,0.13891 3.676783,0.882716 3.836455,2.117585 4.342353,5.652829 1.322501,9.241709 -1.297035,1.54145 -3.301821,2.38184 -5.630047,2.36009 -1.097737,-0.01 -2.319806,-0.14802 -2.715697,-0.30613 z m 4.599,-1.71825 c 2.08439,-0.94634 3.586103,-3.90538 2.621682,-5.165825 -0.437305,-0.571533 -0.450539,-0.564756 -0.459624,0.23529 -0.02291,2.019173 -1.70111,3.759695 -3.821454,3.963435 -1.849128,0.17767 -3.015948,-0.2892 -4.144502,-1.658345 -1.041522,-1.263552 -1.194789,-0.614249 -0.206158,0.873425 0.731896,1.10131 2.865384,2.32749 4.032193,2.31739 0.410748,-0.003 1.300793,-0.25797 1.977863,-0.56537 z m -1.980087,-5.443869 c 0.19407,-0.233838 0.309582,-0.730365 0.256702,-1.103396 -0.137542,-0.970288 -1.541826,-1.109234 -2.028074,-0.200665 -0.304355,0.568693 -0.261895,0.733893 0.307047,1.194592 0.797453,0.645737 1.006302,0.661349 1.464325,0.109473 z M 65.950208,94.318585 c -0.449215,-1.221759 -1.348391,-8.10876 -1.348435,-10.328013 -6.7e-5,-2.772324 0.368956,-4.24577 1.170813,-4.674911 1.069824,-0.572555 2.062426,1.691554 2.062515,4.704565 5.5e-5,1.934038 -1.094102,9.620541 -1.462958,10.277338 -0.227243,0.404646 -0.279922,0.407271 -0.421935,0.02101 z m 4.395655,31.941175 c 2.955785,-1.23502 0.356779,-2.96791 -4.420077,-2.94712 -3.040036,0.0132 -4.933703,0.68526 -5.093476,1.80756 -0.102423,0.71961 0.457422,1.11399 2.207074,1.55463 1.442428,0.36328 6.073234,0.1002 7.306479,-0.41507 z M 15.683224,96.598936 c 0.308903,-0.525953 1.383165,-2.412758 2.387266,-4.192904 3.446592,-6.110428 9.294695,-13.713074 12.471907,-16.213736 2.044044,-1.608778 5.328016,-3.161684 7.724934,-3.652915 2.513977,-0.515219 5.770858,-0.190681 7.43815,0.741189 1.577735,0.881807 1.881434,0.903471 2.535384,0.180857 0.478863,-0.529133 0.452229,-0.595693 -0.578384,-1.445205 -2.510996,-2.069776 -7.772242,-2.321352 -12.976793,-0.620508 -5.80629,1.897492 -13.386997,10.558108 -18.367175,20.983675 -1.488958,3.11699 -2.087871,5.175823 -1.505661,5.175823 0.169804,0 0.56148,-0.430324 0.870372,-0.956276 z M 117.4823,96.012161 c -0.44206,-1.757656 -4.23362,-9.122895 -6.03757,-11.728183 -5.27721,-7.621372 -9.88445,-11.724976 -14.918114,-13.287364 -1.574166,-0.488604 -2.822591,-0.641559 -5.296299,-0.648895 -3.659522,-0.0109 -5.392527,0.467811 -6.723524,1.857069 l -0.791726,0.826383 0.596344,0.539681 c 0.581097,0.525889 0.639526,0.517796 2.286433,-0.31669 1.556961,-0.788916 1.933446,-0.855027 4.779602,-0.839314 3.673668,0.02028 5.940295,0.755019 9.241004,2.995511 3.57062,2.423717 9.18452,9.510588 13.80489,17.42703 1.27831,2.190226 2.45686,4.146279 2.61899,4.346785 0.54182,0.670032 0.75824,0.0935 0.43997,-1.172013 z m -84.364139,-5.89754 c 0,-0.208374 -0.646376,-1.015516 -1.436389,-1.793651 -1.509977,-1.487268 -2.167029,-1.449941 -1.376782,0.07821 0.769895,1.488829 2.813171,2.734785 2.813171,1.715434 z m 67.214269,0.09196 c 1.21042,-0.4602 2.50724,-2.949723 1.53655,-2.949723 -0.48045,0 -2.890253,2.795381 -2.632238,3.053399 0.232826,0.232831 0.203255,0.235629 1.095688,-0.10368 z M 36.062436,87.292312 c 0.137765,-1.730095 0.23535,-1.94609 1.291863,-2.859378 0.966935,-0.835841 1.064009,-1.018175 0.630607,-1.184481 -0.281724,-0.108117 -1.127686,-0.05574 -1.879899,0.116397 -0.752225,0.172133 -1.41169,0.268943 -1.465504,0.215136 -0.05383,-0.05381 0.04148,-0.358065 0.211663,-0.676128 0.327397,-0.61174 2.294473,-1.531778 3.275008,-1.531778 1.038865,0 0.616773,-0.50241 -0.741626,-0.882736 -0.72827,-0.203905 -1.907279,-0.30501 -2.620002,-0.224675 -2.067753,0.233066 -4.413538,2.234808 -5.025685,4.288609 -0.190122,0.637872 -0.141179,0.668623 0.787044,0.494486 0.934362,-0.175286 1.018736,-0.12004 1.507052,0.986753 0.611579,1.386166 2.68199,3.357124 3.385939,3.223284 0.3817,-0.07258 0.528528,-0.521 0.64354,-1.965489 z m 61.78766,1.583167 c 1.004189,-0.519288 2.222004,-2.03345 2.670714,-3.320595 0.2886,-0.827867 0.38959,-0.887005 1.07186,-0.627614 0.91384,0.347444 1.08952,0.210675 0.86402,-0.672659 -0.28066,-1.099405 -1.97373,-2.917835 -3.261106,-3.502548 -1.644227,-0.746793 -5.204941,-0.634423 -5.204608,0.164249 6.7e-5,0.153908 0.595332,0.453388 1.322824,0.66551 1.158858,0.33791 2.773614,1.711287 2.423597,2.061308 -0.06684,0.06685 -0.671042,-0.02642 -1.342663,-0.207277 -1.241942,-0.33442 -2.369139,-0.186944 -2.369139,0.309966 0,0.150924 0.175532,0.27441 0.390064,0.27441 0.860052,0 1.751965,1.425411 1.881145,3.006347 0.20628,2.524628 0.218491,2.539157 1.553292,1.848903 z"
       id="path590272" />
  </g>
</svg>
