<?xml version="1.0" encoding="UTF-8" standalone="no"?>
<!-- Created with Inkscape (http://www.inkscape.org/) -->

<svg
   width="279.39999mm"
   height="241.3mm"
   viewBox="0 0 279.39999 241.3"
   version="1.1"
   id="SVGRoot"
   sodipodi:docname="Holes.svg"
   inkscape:version="1.2.2 (b0a8486541, 2022-12-01)"
   xmlns:inkscape="http://www.inkscape.org/namespaces/inkscape"
   xmlns:sodipodi="http://sodipodi.sourceforge.net/DTD/sodipodi-0.dtd"
   xmlns="http://www.w3.org/2000/svg"
   xmlns:svg="http://www.w3.org/2000/svg">
  <sodipodi:namedview
     id="namedview5880"
     pagecolor="#ffffff"
     bordercolor="#000000"
     borderopacity="0.25"
     inkscape:showpageshadow="2"
     inkscape:pageopacity="0.0"
     inkscape:pagecheckerboard="0"
     inkscape:deskcolor="#d1d1d1"
     inkscape:document-units="in"
     showgrid="false"
     inkscape:zoom="3.921542"
     inkscape:cx="114.24077"
     inkscape:cy="833.09065"
     inkscape:window-width="1920"
     inkscape:window-height="1008"
     inkscape:window-x="0"
     inkscape:window-y="0"
     inkscape:window-maximized="1"
     inkscape:current-layer="layer1" />
  <defs
     id="defs5875">
    <rect
       x="46.038715"
       y="813.68179"
       width="177.66145"
       height="72.822322"
       id="rect7348" />
    <inkscape:path-effect
       effect="tiling"
       id="path-effect7141"
       is_visible="true"
       lpeversion="1"
       unit="mm"
       seed="1;1"
       lpesatellites=""
       num_rows="5"
       num_cols="10"
       gapx="0"
       gapy="0"
       offset="0"
       offset_type="false"
       scale="0"
       rotate="0"
       mirrorrowsx="false"
       mirrorrowsy="false"
       mirrorcolsx="false"
       mirrorcolsy="false"
       mirrortrans="false"
       shrink_interp="false"
       split_items="false"
       link_styles="false"
       interpolate_scalex="false"
       interpolate_scaley="true"
       interpolate_rotatex="false"
       interpolate_rotatey="true"
       random_scale="false"
       random_rotate="false"
       random_gap_y="false"
       random_gap_x="false"
       transformorigin="" />
  </defs>
  <g
     inkscape:label="Layer 1"
     inkscape:groupmode="layer"
     id="layer1">
    <path
       id="path6119"
       style="vector-effect:non-scaling-stroke;stroke-width:0.172359;stroke-linecap:round;stroke-linejoin:bevel;-inkscape-stroke:hairline;fill:none;stroke:#000000"
       d="m 8.5649178,207.91061 c -1.471468,0 -2.6646277,1.19317 -2.6646277,2.66464 0,1.4334 1.1329884,2.59865 2.5517275,2.6582 v 0.0106 c -1.4187391,0.06 -2.5517275,1.22617 -2.5517275,2.65955 0,1.4334 1.1329884,2.59957 2.5517275,2.65913 v 0.0105 c -1.4187391,0.06 -2.5517275,1.22529 -2.5517275,2.65867 0,1.4334 1.1329884,2.59958 2.5517275,2.65914 v 0.0106 c -1.4187391,0.06 -2.5517275,1.22618 -2.5517275,2.65956 0,1.4334 1.1329884,2.59867 2.5517275,2.65819 v 0.0106 c -1.4187391,0.06 -2.5517275,1.2262 -2.5517275,2.65958 0,1.47148 1.1931597,2.66464 2.6646277,2.66464 1.4714682,0 2.6646272,-1.19316 2.6646272,-2.66464 0,1.47148 1.192242,2.66464 2.66371,2.66464 1.471467,0 2.664627,-1.19316 2.664627,-2.66464 0,1.47148 1.193162,2.66464 2.664628,2.66464 1.471468,0 2.663711,-1.19316 2.663711,-2.66464 0,1.47148 1.193159,2.66464 2.664626,2.66464 1.471469,0 2.664629,-1.19316 2.664629,-2.66464 0,1.47148 1.192241,2.66464 2.66371,2.66464 1.471467,0 2.664626,-1.19316 2.664626,-2.66464 0,1.47148 1.19316,2.66464 2.664628,2.66464 1.471468,0 2.66371,-1.19316 2.66371,-2.66464 0,1.47148 1.193157,2.66464 2.664628,2.66464 1.471467,0 2.664628,-1.19316 2.664628,-2.66464 0,1.47148 1.193159,2.66464 2.664627,2.66464 1.471468,0 2.66371,-1.19316 2.66371,-2.66464 0,1.47148 1.193158,2.66464 2.664628,2.66464 1.471468,0 2.664626,-1.19316 2.664626,-2.66464 0,1.47148 1.192243,2.66464 2.663711,2.66464 1.471468,0 2.664627,-1.19316 2.664627,-2.66464 0,-1.43307 -1.1325,-2.59911 -2.550809,-2.6591 v -0.0106 c 1.418309,-0.0599 2.550809,-1.2251 2.550809,-2.65819 0,-1.43307 -1.1325,-2.59909 -2.550809,-2.65911 v -0.0106 c 1.418309,-0.0599 2.550809,-1.22604 2.550809,-2.65914 0,-1.43306 -1.1325,-2.59818 -2.550809,-2.65819 v -0.0106 c 1.418309,-0.0599 2.550809,-1.22603 2.550809,-2.65913 0,-1.43307 -1.1325,-2.59908 -2.550809,-2.6591 v -0.0106 c 1.418309,-0.0599 2.550809,-1.22514 2.550809,-2.65821 0,-1.47146 -1.193159,-2.66463 -2.664627,-2.66463 -1.471468,0 -2.663711,1.19317 -2.663711,2.66463 0,-1.47146 -1.193158,-2.66463 -2.664626,-2.66463 -1.47147,0 -2.664628,1.19317 -2.664628,2.66463 0,-1.47146 -1.192242,-2.66463 -2.66371,-2.66463 -1.471468,0 -2.664627,1.19317 -2.664627,2.66463 0,-1.47146 -1.193161,-2.66463 -2.664628,-2.66463 -1.471471,0 -2.664628,1.19317 -2.664628,2.66463 0,-1.47146 -1.192242,-2.66463 -2.66371,-2.66463 -1.471468,0 -2.664628,1.19317 -2.664628,2.66463 0,-1.47146 -1.193159,-2.66463 -2.664626,-2.66463 -1.471469,0 -2.66371,1.19317 -2.66371,2.66463 0,-1.47146 -1.19316,-2.66463 -2.664629,-2.66463 -1.471467,0 -2.664626,1.19317 -2.664626,2.66463 0,-1.47146 -1.192243,-2.66463 -2.663711,-2.66463 -1.471466,0 -2.664628,1.19317 -2.664628,2.66463 0,-1.47146 -1.19316,-2.66463 -2.664627,-2.66463 -1.471468,0 -2.66371,1.19317 -2.66371,2.66463 0,-1.47146 -1.193159,-2.66463 -2.6646272,-2.66463 z" />
  </g>
</svg>
