<?xml version="1.0" encoding="UTF-8" standalone="no"?>
<!-- Created with Inkscape (http://www.inkscape.org/) -->

<svg
   width="279.39999mm"
   height="241.3mm"
   viewBox="0 0 279.39999 241.3"
   version="1.1"
   id="SVGRoot"
   sodipodi:docname="Hole.svg"
   inkscape:version="1.2.2 (b0a8486541, 2022-12-01)"
   xmlns:inkscape="http://www.inkscape.org/namespaces/inkscape"
   xmlns:sodipodi="http://sodipodi.sourceforge.net/DTD/sodipodi-0.dtd"
   xmlns="http://www.w3.org/2000/svg"
   xmlns:svg="http://www.w3.org/2000/svg">
  <sodipodi:namedview
     id="namedview5880"
     pagecolor="#ffffff"
     bordercolor="#000000"
     borderopacity="0.25"
     inkscape:showpageshadow="2"
     inkscape:pageopacity="0.0"
     inkscape:pagecheckerboard="0"
     inkscape:deskcolor="#d1d1d1"
     inkscape:document-units="in"
     showgrid="false"
     inkscape:zoom="4.1618292"
     inkscape:cx="59.709322"
     inkscape:cy="831.60549"
     inkscape:window-width="1920"
     inkscape:window-height="1008"
     inkscape:window-x="0"
     inkscape:window-y="0"
     inkscape:window-maximized="1"
     inkscape:current-layer="layer1" />
  <defs
     id="defs5875" />
  <g
     inkscape:label="Layer 1"
     inkscape:groupmode="layer"
     id="layer1">
    <path
       id="path6059"
       style="vector-effect:non-scaling-stroke;stroke-width:0.097037;stroke-linecap:round;stroke-linejoin:bevel;-inkscape-stroke:hairline"
       d="m 7.9374999,231.86248 a 1.5,1.5 0 0 0 1.5,1.5 1.5,1.5 0 0 0 1.5000001,-1.5 1.5,1.5 0 0 0 -1.5000001,-1.5 1.5,1.5 0 0 0 -1.5,1.5 z" />
    <path
       id="path14545"
       style="vector-effect:non-scaling-stroke;stroke-width:0.097037;stroke-linecap:round;stroke-linejoin:bevel;-inkscape-stroke:hairline"
       d="m 7.9374999,231.86248 a 1.5,1.5 0 0 0 1.5,1.5 1.5,1.5 0 0 0 1.5000001,-1.5 1.5,1.5 0 0 0 -1.5000001,-1.5 1.5,1.5 0 0 0 -1.5,1.5 z" />
  </g>
</svg>
