<?xml version="1.0" encoding="UTF-8" standalone="no"?>
<!-- Created with Inkscape (http://www.inkscape.org/) -->

<svg
   width="298.45001mm"
   height="241.3mm"
   viewBox="0 0 298.45001 241.3"
   version="1.1"
   id="SVGRoot"
   sodipodi:docname="NAME_ENGRAVE.svg"
   inkscape:version="1.1.2 (0a00cf5339, 2022-02-04)"
   xml:space="preserve"
   xmlns:inkscape="http://www.inkscape.org/namespaces/inkscape"
   xmlns:sodipodi="http://sodipodi.sourceforge.net/DTD/sodipodi-0.dtd"
   xmlns="http://www.w3.org/2000/svg"
   xmlns:svg="http://www.w3.org/2000/svg"><sodipodi:namedview
     id="namedview5880"
     pagecolor="#ffffff"
     bordercolor="#000000"
     borderopacity="0.25"
     inkscape:showpageshadow="2"
     inkscape:pageopacity="0.0"
     inkscape:pagecheckerboard="0"
     inkscape:deskcolor="#d1d1d1"
     inkscape:document-units="in"
     showgrid="false"
     inkscape:zoom="8.3757886"
     inkscape:cx="26.504967"
     inkscape:cy="678.44358"
     inkscape:window-width="1920"
     inkscape:window-height="1117"
     inkscape:window-x="1920"
     inkscape:window-y="0"
     inkscape:window-maximized="1"
     inkscape:current-layer="layer1"
     showguides="true"
     inkscape:pageshadow="2" /><defs
     id="defs5875"><clipPath
       clipPathUnits="userSpaceOnUse"
       id="clipPath18210"><path
         d="M 0,0 H 6600 V 5100 H 0 Z"
         id="path18208" /></clipPath></defs><g
     inkscape:label="01"
     inkscape:groupmode="layer"
     id="layer1"><path
       style="vector-effect:non-scaling-stroke;fill:none;stroke:#000000;stroke-width:0.0898164;stroke-linecap:round;stroke-linejoin:round;stroke-dasharray:none;stroke-opacity:1;-inkscape-stroke:hairline"
       d="M 1.5,182.625 V 179.45"
       id="path29697" /><g
       inkscape:label="Hershey Text"
       style="vector-effect:non-scaling-stroke;fill:none;stroke:#000000;stroke-width:0.00264583;stroke-linecap:round;stroke-linejoin:round;stroke-miterlimit:4;stroke-dasharray:none;-inkscape-stroke:hairline"
       id="g31002"
       transform="matrix(0.35799644,0,0,0.35799644,1.0683068,112.78266)"><g
         transform="translate(1.44098,194.193)"
         id="g31000"
         style="vector-effect:non-scaling-stroke;stroke-width:0.00264583;stroke-miterlimit:4;stroke-dasharray:none;-inkscape-stroke:hairline"><path
           d="M 132,31.5 V 646 h 177 l 72,-19 54,-29 37,-37 45,-73 15,-82 v -50 l -3,-66 -9,-76 -25,-53 -45,-66.5 -69,-40.9 -66,-19 -50,-3.1 H 135"
           style="vector-effect:non-scaling-stroke;stroke-width:0.250001;stroke-miterlimit:4;stroke-dasharray:none;-inkscape-stroke:hairline"
           transform="scale(0.0105833,-0.0105833)"
           id="path30990" /><path
           d="M 129,28.4 V 646 h 183 l 53,-3 54,-22 44,-41 13,-48 V 476 L 454,425 406,391 365,372 309,362 H 135 312 l 53,-9 63,-16 51,-35 28,-31 10,-44 V 164 L 491,104 447,66.1 369,34.6 312,28.4 H 135"
           style="vector-effect:non-scaling-stroke;stroke-width:0.250001;stroke-miterlimit:4;stroke-dasharray:none;-inkscape-stroke:hairline"
           transform="matrix(0.0105833,0,0,-0.0105833,6.63573,0)"
           id="path30992" /><path
           d="M 56.7,261 H 261"
           style="vector-effect:non-scaling-stroke;stroke-width:0.250001;stroke-miterlimit:4;stroke-dasharray:none;-inkscape-stroke:hairline"
           transform="matrix(0.0105833,0,0,-0.0105833,13.0069,0)"
           id="path30994" /><path
           d="m 246,18.9 60,12.6 63,63 28,66.5 13,75 6,104 -6,98 -23,94 -31,60 -50,38 -45,16 -37,-3 L 164,608 123,551 94.5,460 85,365 81.9,271 94.5,183 126,94.5 164,53.6 202,22.1 246,18.9"
           style="vector-effect:non-scaling-stroke;stroke-width:0.250001;stroke-miterlimit:4;stroke-dasharray:none;-inkscape-stroke:hairline"
           transform="matrix(0.0105833,0,0,-0.0105833,16.4782,0)"
           id="path30996" /><path
           d="m 246,18.9 60,12.6 63,63 28,66.5 13,75 6,104 -6,98 -23,94 -31,60 -50,38 -45,16 -37,-3 L 164,608 123,551 94.5,460 85,365 81.9,271 94.5,183 126,94.5 164,53.6 202,22.1 246,18.9"
           style="vector-effect:non-scaling-stroke;stroke-width:0.250001;stroke-miterlimit:4;stroke-dasharray:none;-inkscape-stroke:hairline"
           transform="matrix(0.0105833,0,0,-0.0105833,21.7804,0)"
           id="path30998" /></g></g></g><g
     inkscape:groupmode="layer"
     id="layer3"
     inkscape:label="02" /></svg>
