<?xml version="1.0" encoding="UTF-8" standalone="no"?>
<!-- Created using Krita: https://krita.org -->

<svg
   width="195.83981pt"
   height="245pt"
   viewBox="0 0 195.83981 245.00001"
   version="1.1"
   id="svg186"
   sodipodi:docname="cut.svg"
   inkscape:version="1.1.2 (0a00cf5339, 2022-02-04)"
   xmlns:inkscape="http://www.inkscape.org/namespaces/inkscape"
   xmlns:sodipodi="http://sodipodi.sourceforge.net/DTD/sodipodi-0.dtd"
   xmlns="http://www.w3.org/2000/svg"
   xmlns:svg="http://www.w3.org/2000/svg">
  <sodipodi:namedview
     id="namedview188"
     pagecolor="#505050"
     bordercolor="#eeeeee"
     borderopacity="1"
     inkscape:pageshadow="0"
     inkscape:pageopacity="0"
     inkscape:pagecheckerboard="0"
     inkscape:document-units="pt"
     showgrid="false"
     inkscape:zoom="0.74787004"
     inkscape:cx="230.65505"
     inkscape:cy="399.80208"
     inkscape:window-width="1920"
     inkscape:window-height="1003"
     inkscape:window-x="0"
     inkscape:window-y="0"
     inkscape:window-maximized="1"
     inkscape:current-layer="svg186" />
  <defs
     id="defs2" />
  <path
     id="path871-7"
     fill="none"
     stroke="#000000"
     stroke-width="0.140055"
     stroke-linecap="butt"
     stroke-linejoin="miter"
     stroke-miterlimit="2"
     d="m 20.795815,6.5397869 c 1.397065,0.1785232 6.695125,0.4446119 10.568205,1.6353321 2.581578,0.7936649 4.31313,2.520439 4.31313,2.520439 0,0 8.419937,-1.3976357 12.72073,-1.4166833 4.65282,0.051816 5.549246,0.4583674 12.760071,1.3348863 0,0 3.364161,-1.2762064 5.771973,-2.3086047 2.116101,-0.9073215 9.750307,-1.8613636 12.051291,-1.9304792 3.738258,-0.1123024 7.425668,-1.318823 8.142732,-0.5862768 1.732929,1.7710589 -0.928753,9.0390767 -0.775405,13.2970177 0.340983,9.487176 -3.042094,15.63254 -7.269958,15.682169 2.834343,5.905492 1.67656,11.035063 0.738744,16.482212 -0.618116,3.590037 -6.823325,8.469134 -6.823325,8.469134 0,0 2.313206,4.623647 3.502133,7.405957 2.805174,6.564721 1.719529,13.321027 4.725355,14.914413 16.121469,8.546398 7.488348,27.254257 -1.978129,27.186057 L 48.015893,109.00027 22.679411,108.81774 C 4.6834514,106.85815 11.116505,93.194952 6.2861734,86.80999 -1.9260642,75.954721 0.84427557,67.091382 6.4835127,63.453643 11.242769,60.383562 18.045393,61.035977 22.014188,67.354317 c -0.05113,-4.197904 2.352389,-5.957643 4.899554,-7.586898 0,0 -4.459975,-0.234554 -7.947244,-7.753256 C 14.774228,42.975638 18.632009,34.365458 18.632009,34.365458 11.087491,30.074756 12.304722,20.932868 11.500186,16.798746 10.980661,14.129102 8.9724152,7.0595803 10.051162,6.310826 11.274148,5.4619875 14.427801,5.7259967 20.795815,6.5397869 Z"
     sodipodi:nodetypes="cscccsssscscsscccssccscsss" />
  <path
     id="path58515"
     fill="none"
     stroke="#000000"
     stroke-width="0.1043"
     stroke-linecap="butt"
     stroke-linejoin="miter"
     stroke-miterlimit="2"
     d="m 120.24347,13.721652 c 2.71024,-2.811089 -0.4539,-8.4148947 2.96687,-10.2980004 2.85216,-1.5701027 9.79978,1.6568703 13.61428,1.2509165 4.60197,-0.4896814 7.00584,-4.87607778 11.62594,-4.61088029 4.53219,0.26015061 5.9947,5.07710989 10.53083,4.90610339 3.58847,-0.1352396 7.2944,-4.55413146 10.18867,-2.4292354 2.77245,2.0351855 1.62965,8.4699392 5.08329,11.9511782 4.05718,4.089736 6.23556,2.662076 11.34645,5.130715 3.69608,1.785284 6.75512,5.455584 9.65885,8.722611 2.20558,2.481528 -3.00859,6.943512 -5.86225,8.640298 -6.43581,3.436296 -13.18778,2.799654 -13.18778,2.799654 -0.2661,7.421332 -2.06171,13.144028 -5.27094,18.107484 0,0 3.54786,7.047232 4.73482,10.43583 1.43294,4.089895 2.4902,10.520586 2.4902,10.520586 7.23526,2.924222 14.00813,7.102813 13.77397,14.470533 -0.31932,6.496919 -4.10172,13.448755 -9.0025,14.620725 h -37.61716 -32.8978 c -11.72754,0 -12.30258,-12.0162 -11.43152,-18.602605 0.74364,-2.59782 2.84645,-6.233192 2.84645,-6.233192 -4.642673,-5.103796 -5.415339,-10.349501 -4.412828,-14.503254 1.050478,-4.35283 4.050088,-7.506877 6.588658,-8.043393 4.36808,-0.922835 10.26707,4.484888 11.61013,5.648982 2.11334,-4.326024 3.00468,-4.569248 4.83715,-8.300809 -4.32287,-5.091573 -4.47393,-10.626231 -5.18934,-18.809055 -3.37034,1.380788 -7.81664,0.563993 -11.89305,-1.491242 -3.32722,-1.677389 -6.408036,-4.179695 -8.456165,-6.984986 2.03922,-7.488821 13.329225,-12.908845 18.752915,-14.183079 2.16014,-0.459684 3.03898,-1.126013 4.57186,-2.715885 z"
     sodipodi:nodetypes="cssssscsscccscccccccsscccsccc" />
  <path
     id="path871-71"
     fill="none"
     stroke="#000000"
     stroke-width="0.140055"
     stroke-linecap="butt"
     stroke-linejoin="miter"
     stroke-miterlimit="2"
     d="m 19.733713,142.24423 c 1.397068,0.17852 6.695125,0.44462 10.568205,1.63534 2.581581,0.79366 4.31313,2.52043 4.31313,2.52043 0,0 8.419936,-1.39763 12.720729,-1.41668 4.65282,0.0518 5.549243,0.45837 12.760068,1.33489 0,0 3.364161,-1.27621 5.771976,-2.30861 2.116101,-0.90732 9.750304,-1.86136 12.051288,-1.93048 3.738262,-0.1123 7.425668,-1.31882 8.142728,-0.58628 1.732933,1.77107 -0.928749,9.03908 -0.775405,13.29702 0.340984,9.48718 -3.042087,15.63254 -7.269954,15.68217 2.834346,5.9055 1.67656,11.03507 0.738744,16.4822 -0.618116,3.59005 -6.823322,8.46915 -6.823322,8.46915 0,0 2.313202,4.62364 3.50213,7.40595 2.805174,6.56473 1.719529,13.32101 4.725352,14.91442 16.121472,8.54639 7.488351,27.25426 -1.978126,27.18604 L 46.95379,244.70456 21.617309,244.52217 C 3.6213464,242.56256 10.054403,228.89935 5.2240721,222.51438 c -8.212241,-10.85524 -5.44190087,-19.7186 0.1973393,-23.35632 4.7592556,-3.07009 11.5618826,-2.41766 15.5306736,3.90067 -0.05112,-4.19792 2.352389,-5.95766 4.899554,-7.58689 0,0 -4.459975,-0.23455 -7.947244,-7.75325 -4.192266,-9.03854 -0.334489,-17.64872 -0.334489,-17.64872 -7.544516,-4.29067 -6.327285,-13.43256 -7.131821,-17.56668 -0.5195254,-2.66965 -2.5277711,-9.73916 -1.4490248,-10.48792 1.2229868,-0.84884 4.3766378,-0.58483 10.7446528,0.22896 z"
     sodipodi:nodetypes="cscccsssscscsscccssccscsss" />
  <path
     id="path585151"
     fill="none"
     stroke="#000000"
     stroke-width="0.1043"
     stroke-linecap="butt"
     stroke-linejoin="miter"
     stroke-miterlimit="2"
     d="m 119.18136,149.42609 c 2.71025,-2.81108 -0.45389,-8.41489 2.96687,-10.29799 2.85217,-1.57011 9.79978,1.65687 13.61428,1.25091 4.60197,-0.48968 7.00584,-4.87608 11.62594,-4.61088 4.53219,0.26015 5.9947,5.07711 10.53083,4.90611 3.58847,-0.13524 7.2944,-4.55413 10.18866,-2.42924 2.77246,2.03519 1.62965,8.46994 5.0833,11.95118 4.05717,4.08973 6.23556,2.66207 11.34645,5.13071 3.69608,1.78529 6.75512,5.45559 9.65885,8.72261 2.20558,2.48153 -3.00859,6.94352 -5.86225,8.6403 -6.43581,3.43628 -13.18778,2.79965 -13.18778,2.79965 -0.2661,7.42134 -2.06171,13.14403 -5.27094,18.10748 0,0 3.54786,7.04725 4.73481,10.43584 1.43294,4.0899 2.49021,10.52057 2.49021,10.52057 7.23526,2.92422 14.00812,7.10283 13.77396,14.47054 -0.31932,6.49692 -4.10171,13.44876 -9.00249,14.62073 H 144.2549 111.35711 c -11.727546,0 -12.302582,-12.01619 -11.431522,-18.60262 0.743632,-2.59781 2.846452,-6.23318 2.846452,-6.23318 -4.642683,-5.1038 -5.415345,-10.34951 -4.412834,-14.50325 1.050478,-4.35281 4.050084,-7.50689 6.588654,-8.04339 4.36808,-0.92284 10.26707,4.48488 11.61013,5.64898 2.11334,-4.32601 3.00468,-4.56924 4.83715,-8.30081 -4.32287,-5.09158 -4.47393,-10.62625 -5.18934,-18.80905 -3.37034,1.38079 -7.81664,0.56399 -11.89305,-1.49124 -3.32722,-1.67739 -6.408036,-4.1797 -8.456161,-6.98499 2.039217,-7.48882 13.329221,-12.90885 18.752921,-14.18308 2.16013,-0.45968 3.03897,-1.12601 4.57185,-2.71589 z"
     sodipodi:nodetypes="cssssscsscccscccccccsscccsccc" />
</svg>
