<?xml version="1.0" encoding="UTF-8" standalone="no"?>
<!-- Created with Inkscape (http://www.inkscape.org/) -->

<svg
   width="99.999931mm"
   height="177.16806mm"
   viewBox="0 0 99.999931 177.16806"
   version="1.1"
   id="svg1296"
   inkscape:version="1.1.2 (0a00cf5339, 2022-02-04)"
   sodipodi:docname="New Hampshireup.svg"
   xmlns:inkscape="http://www.inkscape.org/namespaces/inkscape"
   xmlns:sodipodi="http://sodipodi.sourceforge.net/DTD/sodipodi-0.dtd"
   xmlns="http://www.w3.org/2000/svg"
   xmlns:svg="http://www.w3.org/2000/svg">
  <sodipodi:namedview
     id="namedview1298"
     pagecolor="#505050"
     bordercolor="#eeeeee"
     borderopacity="1"
     inkscape:pageshadow="0"
     inkscape:pageopacity="0"
     inkscape:pagecheckerboard="0"
     inkscape:document-units="mm"
     showgrid="false"
     inkscape:zoom="0.50877544"
     inkscape:cx="-184.75735"
     inkscape:cy="601.44413"
     inkscape:window-width="1920"
     inkscape:window-height="1003"
     inkscape:window-x="0"
     inkscape:window-y="0"
     inkscape:window-maximized="1"
     inkscape:current-layer="layer1" />
  <defs
     id="defs1293" />
  <g
     inkscape:label="Layer 1"
     inkscape:groupmode="layer"
     id="layer1"
     transform="translate(-25.52441,-22.822651)">
    <path
       style="vector-effect:non-scaling-stroke;fill:none;stroke:#000000;stroke-width:5.93531e-05;stroke-miterlimit:4;stroke-dasharray:none;stroke-opacity:1;-inkscape-stroke:hairline"
       d="m 104.25561,67.051125 c -0.38818,-0.0173 -2.63345,-0.0948 -3.53488,-0.1221 -1.607159,-0.0487 -2.59809,-0.0819 -3.018682,-0.10113 -0.271569,-0.0124 -0.690706,-0.0287 -0.931414,-0.036 -0.24116,-0.007 -0.502113,-0.0277 -0.581225,-0.0452 -0.370678,-0.082 -0.742715,-0.41046 -0.961993,-0.8493 -0.159054,-0.3183 -0.311769,-0.92704 -0.29077,-1.15904 0.01143,-0.12631 0.09882,-0.35206 0.164231,-0.42428 0.03022,-0.0334 0.02989,-0.0527 -0.0031,-0.17983 -0.05052,-0.19479 -0.02894,-0.38342 0.06449,-0.5637 0.06961,-0.13432 0.164804,-0.22621 0.392608,-0.37898 l 0.08946,-0.06 -0.03397,-0.097 c -0.07748,-0.2212 -0.0014,-0.54565 0.175003,-0.74638 0.06307,-0.0718 0.06844,-0.0894 0.05657,-0.18582 -0.0072,-0.0586 -0.03351,-0.16427 -0.05843,-0.23487 -0.0684,-0.19378 -0.06088,-0.39619 0.02416,-0.65048 0.05476,-0.16374 0.06814,-0.2386 0.06317,-0.35349 -0.01944,-0.44935 0.0064,-0.58417 0.15635,-0.81445 0.05437,-0.0835 0.05591,-0.0973 0.0597,-0.53814 0.0041,-0.48077 0.02962,-0.70592 0.14341,-1.26718 l 0.06518,-0.32147 -0.04685,-0.0793 c -0.0978,-0.1656 -0.06195,-0.59997 0.08845,-1.07151 0.07645,-0.23972 0.230353,-0.47868 0.433224,-0.67268 0.151664,-0.14504 0.167221,-0.18962 0.168209,-0.48208 7.68e-4,-0.21876 0.0085,-0.27452 0.05138,-0.36774 0.06331,-0.13773 0.429739,-0.5149 0.639066,-0.65779 0.201693,-0.13769 0.242664,-0.22209 0.268404,-0.55295 0.03386,-0.43519 0.138094,-0.7111 0.374816,-0.9921 l 0.129515,-0.15375 0.02506,-0.31507 c 0.03715,-0.46709 0.136973,-0.7569 0.413446,-1.20034 l 0.145598,-0.23353 -0.01044,-0.15099 c -0.0082,-0.11844 4.19e-4,-0.18168 0.03987,-0.29337 l 0.05031,-0.14237 -0.0948,-0.19993 c -0.112727,-0.23774 -0.13847,-0.41592 -0.08459,-0.58552 0.04445,-0.13992 0.05999,-0.26361 0.06422,-0.51131 0.0075,-0.43684 0.126987,-0.73046 0.412138,-1.01248 0.170939,-0.16907 0.213156,-0.19695 0.559591,-0.3696 0.348465,-0.17366 0.386005,-0.18731 0.536155,-0.19488 0.15066,-0.008 0.26783,0.0174 0.44456,0.0949 0.0277,0.0121 0.0395,-2.4e-4 0.05,-0.0529 0.0221,-0.11039 0.16147,-0.30684 0.27771,-0.39146 0.0591,-0.043 0.19324,-0.11052 0.29816,-0.15006 0.10493,-0.0395 0.2969,-0.12113 0.42661,-0.18129 l 0.23583,-0.10938 0.0754,-0.14532 c 0.0545,-0.10504 0.13123,-0.1978 0.27678,-0.33469 l 0.20136,-0.18937 -0.0257,-0.0779 c -0.0665,-0.20138 -0.0196,-0.43189 0.12364,-0.60761 0.0863,-0.10583 0.10006,-0.13699 0.10006,-0.22632 0,-0.0815 -0.0145,-0.12189 -0.0681,-0.1895 -0.0996,-0.12568 -0.18803,-0.33865 -0.2462,-0.59323 -0.0282,-0.12332 -0.0736,-0.26963 -0.10103,-0.32512 -0.0945,-0.19151 -0.13256,-0.34128 -0.13106,-0.51571 0.002,-0.28574 0.0841,-0.45673 0.4017,-0.84085 0.0816,-0.0987 0.1875,-0.25658 0.23541,-0.35095 0.0479,-0.0944 0.14457,-0.2659 0.2148,-0.38118 0.0702,-0.11529 0.12709,-0.2197 0.12635,-0.23203 -0.007,-0.12137 -0.0913,-0.4327 -0.14785,-0.54818 -0.0591,-0.12068 -0.0708,-0.17071 -0.0708,-0.3027 7e-5,-0.18293 0.0506,-0.30744 0.18842,-0.46447 0.0761,-0.0867 0.0867,-0.11359 0.0973,-0.2474 0.0143,-0.18023 0.10266,-0.3818 0.23896,-0.54496 0.11387,-0.1363 0.2528,-0.41622 0.40363,-0.81323 l 0.11303,-0.29751 -0.0595,-0.1173 c -0.0835,-0.16471 -0.0938,-0.35191 -0.0279,-0.50515 0.0611,-0.14202 0.21136,-0.2848 0.33444,-0.31791 0.0505,-0.0136 0.0918,-0.0334 0.0918,-0.044 0,-0.0418 0.17552,-0.24945 0.28116,-0.33269 0.12185,-0.096 0.515,-0.31832 0.63677,-0.36006 0.0982,-0.0337 0.27571,-0.0335 0.3891,3.5e-4 0.12237,0.0366 0.27361,0.17896 0.43287,0.4074 0.12931,0.18545 0.18636,0.2351 0.23537,0.20484 0.0127,-0.008 0.0481,-0.0636 0.0787,-0.12402 0.10685,-0.21066 0.31942,-0.362 0.55347,-0.39404 0.22543,-0.0309 0.47789,0.10668 0.57908,0.31551 0.047,0.0971 0.0857,0.45423 0.1226,1.13322 0.017,0.31299 0.0919,1.65737 0.14736,2.64585 0.0246,0.4378 0.0499,0.89689 0.0562,1.02022 0.006,0.12332 0.0261,0.48152 0.0439,0.79599 0.0178,0.31448 0.0376,0.68276 0.0441,0.81842 0.007,0.13566 0.0319,0.61998 0.0566,1.07628 0.0949,1.75575 0.11472,2.14717 0.1354,2.66827 0.0305,0.76867 0.0642,1.79886 0.0902,2.75795 0.0124,0.4563 0.0373,1.17774 0.0555,1.6032 0.0181,0.42547 0.0435,1.03088 0.0564,1.34535 0.0129,0.31447 0.0336,0.75844 0.0461,0.98658 0.0586,1.07473 0.0705,1.43397 0.0823,2.48745 0.008,0.74866 0.003,1.34166 -0.0153,1.75452 l -0.0279,0.62365 0.16385,0.19622 c 0.16505,0.19766 0.57022,0.60911 0.86808,0.88156 0.3273,0.29936 0.38247,0.59695 0.24186,1.30447 -0.005,0.0264 0.0805,0.11954 0.26502,0.28775 0.15003,0.13679 0.3825,0.36643 0.51659,0.5103 0.31495,0.33793 1.13111,1.33924 1.20381,1.4769 0.0448,0.0848 0.0577,0.14639 0.064,0.30534 0.008,0.19158 0.005,0.2054 -0.0747,0.36606 -0.16175,0.32698 -0.52074,0.61232 -0.86721,0.6893 -0.0788,0.0175 -0.27969,0.0385 -0.44633,0.0467 -0.16665,0.008 -0.45449,0.0355 -0.63965,0.0608 -0.56066,0.0766 -0.8747,0.0538 -1.16325,-0.0843 l -0.1084,-0.0519 -0.16093,0.11949 c -0.0885,0.0657 -0.23667,0.18182 -0.32925,0.25798 -0.18497,0.15217 -0.41527,0.27244 -0.60598,0.31647 -0.0679,0.0157 -0.22696,0.0281 -0.35349,0.0277 l -0.23005,-7e-4 -1.7e-4,0.11487 c -3.4e-4,0.3256 -0.18482,0.57708 -0.48111,0.65591 -0.0624,0.0166 -0.14887,0.0304 -0.19208,0.0307 -0.0639,3.4e-4 -0.0987,0.0209 -0.18648,0.10954 -0.11784,0.11902 -0.25669,0.20268 -0.45781,0.27587 -0.11187,0.0407 -0.18797,0.0481 -0.54522,0.053 -0.22837,0.003 -0.6071,-0.003 -0.84164,-0.0133 z"
       id="path1330"
       sodipodi:nodetypes="cscsssssssscssssssssscssscsssscssccccsscsssscssscsscsssssssssssscsssscsssssscssssssscscsscscscccssssssccsssscssccccscssscc" />
  </g>
</svg>
