<?xml version="1.0" encoding="UTF-8" standalone="no"?>
<!-- Created with Inkscape (http://www.inkscape.org/) -->

<svg
   width="99.999931mm"
   height="177.16806mm"
   viewBox="0 0 99.999931 177.16806"
   version="1.1"
   id="svg1296"
   inkscape:version="1.1.2 (0a00cf5339, 2022-02-04)"
   sodipodi:docname="New Hampshire.svg"
   xmlns:inkscape="http://www.inkscape.org/namespaces/inkscape"
   xmlns:sodipodi="http://sodipodi.sourceforge.net/DTD/sodipodi-0.dtd"
   xmlns="http://www.w3.org/2000/svg"
   xmlns:svg="http://www.w3.org/2000/svg">
  <sodipodi:namedview
     id="namedview1298"
     pagecolor="#505050"
     bordercolor="#eeeeee"
     borderopacity="1"
     inkscape:pageshadow="0"
     inkscape:pageopacity="0"
     inkscape:pagecheckerboard="0"
     inkscape:document-units="mm"
     showgrid="false"
     inkscape:zoom="0.99940672"
     inkscape:cx="-50.029682"
     inkscape:cy="218.12941"
     inkscape:window-width="1920"
     inkscape:window-height="1003"
     inkscape:window-x="0"
     inkscape:window-y="0"
     inkscape:window-maximized="1"
     inkscape:current-layer="layer1" />
  <defs
     id="defs1293" />
  <g
     inkscape:label="Layer 1"
     inkscape:groupmode="layer"
     id="layer1"
     transform="translate(-25.52441,-22.822651)">
    <path
       style="vector-effect:non-scaling-stroke;fill:none;stroke:#000000;stroke-width:0.00034915;stroke-miterlimit:4;stroke-dasharray:none;stroke-opacity:1;-inkscape-stroke:hairline"
       d="m 80.329432,199.90702 c -2.282419,-0.10145 -15.484163,-0.55787 -20.784398,-0.71858 -9.449755,-0.28651 -15.276217,-0.4819 -17.749214,-0.59519 -1.59677,-0.0731 -4.061209,-0.16862 -5.476524,-0.21214 -1.417969,-0.0436 -2.952319,-0.1631 -3.417481,-0.26611 -2.179505,-0.48265 -4.367006,-2.41573 -5.656318,-4.99844 -0.935206,-1.87337 -1.833135,-5.45603 -1.709666,-6.82143 0.06722,-0.7434 0.581019,-2.07201 0.965641,-2.49702 0.177704,-0.19634 0.175754,-0.3103 -0.01811,-1.0584 -0.297058,-1.14638 -0.170178,-2.25654 0.37916,-3.31759 0.40928,-0.79053 0.969012,-1.33133 2.308451,-2.23043 l 0.525995,-0.35308 -0.199714,-0.57068 c -0.455581,-1.30183 -0.0083,-3.21135 1.028983,-4.39274 0.370805,-0.42233 0.402437,-0.5263 0.332635,-1.09358 -0.04245,-0.34477 -0.197021,-0.96684 -0.343543,-1.38236 -0.402153,-1.14045 -0.357942,-2.3317 0.142068,-3.8283 0.321971,-0.96371 0.400626,-1.40429 0.371404,-2.08041 -0.114297,-2.64464 0.03786,-3.4381 0.919305,-4.79335 0.319702,-0.49158 0.32872,-0.5729 0.351025,-3.16715 0.02434,-2.82954 0.174148,-4.15461 0.843219,-7.45784 l 0.383224,-1.89198 -0.275482,-0.4669 c -0.575054,-0.97465 -0.364226,-3.53109 0.520081,-6.30628 0.44954,-1.41079 1.354426,-2.81715 2.547263,-3.95894 0.891754,-0.85359 0.983227,-1.11599 0.989038,-2.83724 0.0045,-1.28745 0.05016,-1.61565 0.30213,-2.1643 0.372262,-0.81059 2.52678,-3.03033 3.757577,-3.87134 1.18591,-0.81033 1.426812,-1.3071 1.578157,-3.25432 0.199066,-2.56127 0.811966,-4.18508 2.203845,-5.83889 l 0.761516,-0.90482 0.147345,-1.85432 c 0.218433,-2.74902 0.805368,-4.45468 2.430977,-7.0645 l 0.856082,-1.37441 -0.06139,-0.88862 c -0.04813,-0.69708 0.0025,-1.06925 0.234418,-1.72656 l 0.295817,-0.83792 -0.557403,-1.17667 c -0.662811,-1.39919 -0.814171,-2.44786 -0.497382,-3.445983 0.261382,-0.823522 0.352726,-1.551469 0.377624,-3.009255 0.04389,-2.571009 0.746658,-4.29907 2.423286,-5.958872 1.005087,-0.994999 1.253312,-1.159102 3.290281,-2.175224 2.048909,-1.022077 2.269656,-1.10239 3.152507,-1.146955 0.885848,-0.04471 1.574777,0.102454 2.613925,0.558394 0.163058,0.07154 0.231979,-0.0014 0.293964,-0.311391 0.12994,-0.649677 0.949397,-1.805863 1.632877,-2.303844 0.347281,-0.253028 1.136184,-0.650472 1.753118,-0.883207 0.616934,-0.232736 1.745689,-0.712848 2.508346,-1.066915 l 1.386649,-0.643759 0.443433,-0.855264 c 0.32053,-0.618217 0.771581,-1.164167 1.627396,-1.969796 l 1.183963,-1.114533 -0.15131,-0.458473 C 70.90306,75.683874 71.17885,74.327242 72.0212,73.293064 c 0.507324,-0.622858 0.588307,-0.806211 0.588307,-1.331988 0,-0.47992 -0.08523,-0.717318 -0.400403,-1.115255 -0.585835,-0.739676 -1.105533,-1.993115 -1.44758,-3.491363 -0.1657,-0.725804 -0.433011,-1.586872 -0.594023,-1.913484 -0.555655,-1.127133 -0.779448,-2.008548 -0.770638,-3.035181 0.01443,-1.681624 0.494755,-2.687999 2.361912,-4.948666 0.479572,-0.580643 1.102446,-1.510116 1.384163,-2.065497 0.281718,-0.55538 0.850077,-1.564908 1.263019,-2.243395 0.412943,-0.678487 0.747227,-1.292998 0.742854,-1.365579 -0.04304,-0.714284 -0.536747,-2.546594 -0.869301,-3.226237 -0.34753,-0.710246 -0.416287,-1.004689 -0.416018,-1.781519 3.96e-4,-1.076608 0.297371,-1.809419 1.107877,-2.733587 0.447438,-0.510183 0.509614,-0.668484 0.571901,-1.456062 0.08388,-1.060664 0.603592,-2.247003 1.405021,-3.207251 0.669516,-0.802191 1.486419,-2.449643 2.373264,-4.786168 l 0.664598,-1.750986 -0.349699,-0.690356 c -0.49104,-0.969381 -0.551707,-2.071087 -0.163714,-2.973003 0.359549,-0.835792 1.242757,-1.676147 1.966422,-1.87101 0.2969,-0.07995 0.539819,-0.196491 0.539819,-0.258985 0,-0.245756 1.032049,-1.468118 1.653155,-1.958003 0.716501,-0.565126 3.028097,-1.873469 3.744087,-2.11912 0.577482,-0.19813 1.621115,-0.196773 2.287817,0.003 0.719547,0.215581 1.608797,1.053279 2.54526,2.397695 0.760274,1.091479 1.095703,1.383695 1.383883,1.205591 0.07461,-0.04611 0.282978,-0.374571 0.463042,-0.729911 0.628252,-1.239791 1.878112,-2.130484 3.254285,-2.319109 1.325503,-0.181681 2.80991,0.62787 3.40488,1.856917 0.2766,0.571365 0.50378,2.673304 0.72085,6.669448 0.10007,1.84207 0.54032,9.75426 0.86645,15.571802 0.14445,2.576606 0.29326,5.278577 0.3307,6.004382 0.0375,0.725804 0.15357,2.833936 0.25806,4.684737 0.1045,1.850801 0.22113,4.018316 0.25918,4.816701 0.038,0.798385 0.18777,3.648815 0.33271,6.334291 0.55772,10.333301 0.67451,12.636931 0.79614,15.703767 0.17942,4.523934 0.37757,10.587043 0.53045,16.23162 0.0727,2.68548 0.21951,6.93144 0.32615,9.43546 0.10665,2.50402 0.25588,6.06706 0.33163,7.91787 0.0757,1.8508 0.19762,4.46369 0.27082,5.80643 0.3448,6.32514 0.41466,8.43943 0.48368,14.63954 0.049,4.40617 0.0185,7.89621 -0.0902,10.32605 l -0.16424,3.67037 0.96342,1.15485 c 0.97048,1.1633 3.35277,3.58486 5.10413,5.18829 1.92445,1.76188 2.24887,3.5133 1.42206,7.67733 -0.0309,0.15547 0.47339,0.70352 1.55829,1.69358 0.88216,0.80505 2.24901,2.15652 3.03743,3.00327 1.85183,1.98881 6.65072,7.8819 7.0782,8.69211 0.26339,0.49918 0.33931,0.86155 0.37652,1.79704 0.0448,1.12755 0.0283,1.20887 -0.43904,2.15442 -0.95109,1.92441 -3.06183,3.60371 -5.09904,4.05682 -0.46355,0.10309 -1.6445,0.22671 -2.62434,0.27469 -0.97984,0.048 -2.67228,0.20906 -3.76098,0.35795 -3.29654,0.45087 -5.14304,0.31686 -6.83969,-0.49635 l -0.63735,-0.3055 -0.94622,0.70329 c -0.52042,0.38681 -1.3916,1.07005 -1.93595,1.5183 -1.08757,0.89559 -2.44167,1.60342 -3.56304,1.86256 -0.399195,0.0922 -1.334491,0.16566 -2.078441,0.16314 l -1.352636,-0.004 -9.97e-4,0.67605 c -0.002,1.91624 -1.08669,3.39631 -2.828815,3.86025 -0.36713,0.0978 -0.87535,0.17915 -1.12938,0.18086 -0.375479,0.002 -0.580585,0.12311 -1.096481,0.64464 -0.692916,0.70051 -1.509273,1.19289 -2.691862,1.62363 -0.657727,0.23955 -1.105211,0.28305 -3.205774,0.31163 -1.342738,0.0183 -3.569638,-0.0169 -4.948666,-0.0782 z"
       id="path1330"
       sodipodi:nodetypes="cscsssssssscssssssssscssscsssscssccccsscsssscssscsscsssssssssssscsssscsssssscssssssscscsscscscccssssssccsssscssccccscssscc" />
  </g>
</svg>
