<?xml version="1.0" encoding="UTF-8" standalone="no"?>
<!-- Created with Inkscape (http://www.inkscape.org/) -->

<svg
   width="199.99992mm"
   height="278.17535mm"
   viewBox="0 0 199.99992 278.17534"
   version="1.1"
   id="svg59"
   sodipodi:docname="owl.svg"
   inkscape:version="1.1.2 (0a00cf5339, 2022-02-04)"
   xmlns:inkscape="http://www.inkscape.org/namespaces/inkscape"
   xmlns:sodipodi="http://sodipodi.sourceforge.net/DTD/sodipodi-0.dtd"
   xmlns="http://www.w3.org/2000/svg"
   xmlns:svg="http://www.w3.org/2000/svg">
  <sodipodi:namedview
     id="namedview61"
     pagecolor="#505050"
     bordercolor="#eeeeee"
     borderopacity="1"
     inkscape:pageshadow="0"
     inkscape:pageopacity="0"
     inkscape:pagecheckerboard="0"
     inkscape:document-units="mm"
     showgrid="false"
     inkscape:zoom="0.61527181"
     inkscape:cx="3.2505959"
     inkscape:cy="385.19561"
     inkscape:window-width="1920"
     inkscape:window-height="1003"
     inkscape:window-x="0"
     inkscape:window-y="0"
     inkscape:window-maximized="1"
     inkscape:current-layer="layer1" />
  <defs
     id="defs56" />
  <g
     inkscape:label="Layer 1"
     inkscape:groupmode="layer"
     id="layer1"
     transform="translate(-6.8224613,-14.562359)">
    <path
       style="fill:#000000;stroke-width:0.158948"
       d="m 63.403548,292.59887 c 0.05135,-0.15067 0.376288,-1.09605 0.722027,-2.10139 1.146065,-3.3327 1.530301,-6.08294 1.397596,-10.00358 -0.04902,-1.44806 -0.202123,-3.34813 -0.340217,-4.22234 -0.854209,-5.40703 -2.977028,-11.4 -6.526908,-18.42621 -2.103732,-4.16387 -2.422798,-4.70081 -2.7933,-4.70081 -0.346918,0 -1.218677,1.04999 -2.573333,3.09948 -2.53692,3.83817 -4.224634,8.52344 -4.989914,13.85246 -0.353976,2.46493 -0.402692,9.25073 -0.08356,11.63981 0.109536,0.82004 0.168586,1.52157 0.13125,1.55893 -0.09735,0.0973 -2.014864,-3.40197 -2.879496,-5.25469 -6.639543,-14.2273 -7.596455,-32.75593 -2.874827,-55.66519 0.303419,-1.47219 0.523121,-2.70531 0.488207,-2.74023 -0.03476,-0.0348 -0.312484,0.32578 -0.616855,0.8016 -2.569983,4.01753 -4.72375,9.86871 -5.983897,16.25664 -0.189691,0.96163 -0.397813,1.8043 -0.462452,1.87259 -0.0646,0.0683 -0.254796,-1.0404 -0.42254,-2.46371 -0.432998,-3.67373 -0.401932,-9.78052 0.06586,-12.95491 0.850361,-5.76999 2.362864,-10.49423 4.887706,-15.2665 0.570296,-1.07792 1.246836,-2.29092 1.503431,-2.69552 0.256587,-0.40459 0.43637,-0.76583 0.399503,-0.80267 -0.234623,-0.23466 -2.442935,1.0142 -4.294119,2.42835 l -0.624208,0.47684 0.308937,-0.53143 c 0.169911,-0.29228 0.992983,-1.44508 1.829047,-2.56174 3.84994,-5.14201 7.660815,-8.84431 12.308415,-11.95771 1.049063,-0.70276 1.941647,-1.30978 1.983515,-1.34892 0.149811,-0.14003 -0.782607,0.25734 -1.77162,0.75532 -12.02727,6.05432 -21.277496,16.26524 -23.604188,26.05562 -0.297148,1.25047 -0.417702,2.28678 -0.480654,4.13269 -0.09743,2.85638 0.105595,4.36431 0.99499,7.3911 1.465087,4.98591 1.792298,5.63504 4.798719,9.51975 2.393853,3.0932 2.868685,3.7983 3.543541,5.26186 0.650727,1.41126 0.945589,2.45997 0.945589,3.3632 v 0.59918 l -0.806002,-0.78877 c -0.8856,-0.86666 -2.806816,-3.08861 -6.042047,-6.98777 -3.700779,-4.46023 -6.103268,-6.81688 -8.635642,-8.47082 l -1.098821,-0.71767 -1.714893,0.19582 c -4.798975,0.54793 -7.759547,-1.09847 -9.290832,-5.1667 -0.622996,-1.65517 -0.9794103,-3.22583 -1.6642302,-7.33409 -0.7224449,-4.33393 -1.2118009,-6.4012 -1.9069391,-8.05566 -0.2559187,-0.60916 -0.4376821,-1.1352 -0.403879,-1.16902 0.033753,-0.0337 0.8013545,0.11706 1.7056688,0.33499 8.1163015,1.95695 13.4066435,6.24568 15.1575855,12.28782 0.611922,2.11159 0.802472,4.2524 0.489558,5.50011 -0.406193,1.61965 0.05239,2.59268 1.936118,4.10786 0.586542,0.47181 1.369956,1.13429 1.740898,1.47219 l 0.674448,0.6144 -0.23749,-0.77334 c -0.130604,-0.42534 -0.674278,-2.3827 -1.208181,-4.3497 -2.033145,-7.49041 -3.813795,-13.29297 -4.446427,-14.48947 -0.07668,-0.14497 -1.253945,-1.17514 -2.616222,-2.28927 -4.635531,-3.79121 -5.629792,-5.04702 -5.937262,-7.49912 -0.147987,-1.18034 -0.06199,-10.21398 0.09726,-10.21398 0.03336,0 0.969806,0.54627 2.080625,1.21396 5.159198,3.1011 7.259738,4.97154 8.424764,7.50191 0.584744,1.27005 0.677565,3.33724 0.216815,4.82893 -0.348709,1.12897 -0.821771,2.14721 -1.337762,2.87935 -0.25304,0.35902 -0.29679,0.59727 -0.21685,1.18056 0.149738,1.09255 1.133911,3.86083 2.090403,5.87994 0.824945,1.74144 1.187084,2.17352 1.187084,1.41634 0,-0.65716 0.472786,-5.37121 0.72789,-7.25769 0.412947,-3.05372 1.361732,-7.59066 2.069194,-9.89456 0.04701,-0.15304 0.02007,-0.27816 -0.05948,-0.27816 -0.24075,0 -1.465177,1.29679 -2.06053,2.18233 -0.307396,0.4572 -0.621231,0.79273 -0.697451,0.74565 -0.219108,-0.1353 -0.159592,-3.17348 0.09527,-4.86431 0.85078,-5.64406 4.59379,-15.45824 8.26183,-21.66247 0.397837,-0.67291 0.723335,-1.25818 0.723335,-1.30063 0,-0.19868 -1.195745,0.8145 -2.840708,2.40689 -2.177871,2.10823 -4.07805,4.36608 -6.054169,7.19373 -0.809513,1.15835 -1.49395,2.10607 -1.520978,2.10607 -0.02723,0 0.0215,-0.2682 0.107924,-0.59605 2.363387,-8.9686 6.405071,-16.3482 13.454968,-24.56708 0.735611,-0.85758 1.301317,-1.59541 1.257123,-1.63963 -0.08485,-0.0847 -1.906861,0.64639 -3.967073,1.59218 -0.677511,0.31105 -1.231848,0.5033 -1.231848,0.42724 0,-0.23516 4.412448,-4.72192 5.697634,-5.7934 0.669148,-0.55787 1.931904,-1.48916 2.806124,-2.06953 0.874217,-0.58038 1.851345,-1.23311 2.171393,-1.45055 0.346272,-0.23516 0.748549,-0.72972 0.993434,-1.22113 0.351934,-0.7062 0.409307,-1.02276 0.396261,-2.18541 -0.01612,-1.41537 -0.286686,-2.95441 -0.513185,-2.91661 -0.07206,0.0129 -1.197304,1.0289 -2.50047,2.25974 -1.30317,1.23081 -2.439385,2.23783 -2.524932,2.23783 -0.280773,0 -0.796803,-2.05258 -0.97157,-3.86478 -0.232186,-2.40742 0.0012,-6.01633 0.654177,-10.10623 0.172993,-1.08373 0.287438,-1.99744 0.254366,-2.0305 -0.08453,-0.0845 -4.004886,1.50582 -5.890392,2.38947 -0.86513,0.40545 -1.607656,0.7372 -1.650066,0.7372 -0.04242,0 -0.03766,-1.34115 0.01075,-2.9803 0.06389,-2.16752 0.180123,-3.40938 0.426319,-4.55371 0.608332,-2.82751 1.696669,-5.53314 3.07421,-7.64252 0.39854,-0.61028 0.709916,-1.12427 0.691965,-1.14224 -0.01792,-0.0183 -1.747907,0.32374 -3.844326,0.75934 -5.959471,1.23824 -5.957479,1.2379 -5.957479,0.99366 0,-0.4356 1.241362,-3.0688 1.947394,-4.13082 0.403101,-0.60636 1.554332,-1.96829 2.558283,-3.0265 1.003951,-1.05823 1.938716,-2.14321 2.077243,-2.41111 0.633101,-1.22429 0.05414,-2.52776 -2.160991,-4.86527 -1.400015,-1.47735 -1.521776,-1.65228 -1.201728,-1.72632 0.195889,-0.0454 1.589984,-0.2448 3.098001,-0.44339 1.508028,-0.1984 2.741872,-0.41419 2.741872,-0.47926 0,-0.0649 -0.447048,-0.3872 -0.993431,-0.71585 -1.741636,-1.04763 -4.605556,-3.01128 -6.000315,-4.11412 -1.114185,-0.88097 -1.267457,-1.05221 -0.874216,-0.97663 1.918556,0.36879 2.810703,0.4527 4.768459,0.44845 1.309709,-0.003 2.813864,-0.109 3.655822,-0.25813 1.389856,-0.24612 3.894239,-0.86788 3.894239,-0.9668 0,-0.0265 -1.055018,-1.1104 -2.344493,-2.407671 -2.653913,-2.669934 -3.528962,-3.774341 -3.116068,-3.932787 0.141856,-0.0545 0.507861,-0.05213 0.813333,0.005 0.346989,0.06518 0.532831,0.04432 0.495244,-0.05529 -0.03297,-0.08761 -0.630536,-0.615988 -1.327678,-1.173891 -3.242728,-2.595053 -5.459956,-5.47313 -6.463476,-8.389915 -0.162746,-0.473037 -0.295895,-0.890431 -0.295895,-0.927563 0,-0.03687 0.554334,0.429315 1.231859,1.036515 3.398533,3.045799 5.904957,4.415056 9.77534,5.340264 0.532993,0.127523 0.552338,-0.01827 0.07145,-0.538998 -2.698766,-2.920805 -5.061401,-6.690742 -6.02559,-9.614755 -0.753763,-2.285884 -0.989084,-3.783599 -0.994681,-6.330736 -0.0047,-2.169027 0.02007,-2.375361 0.309617,-2.587489 0.200906,-0.147051 0.481257,-0.193954 0.77489,-0.129601 0.571321,0.125373 0.502582,-0.005 -0.636079,-1.204524 -1.792653,-1.88896 -2.988387,-3.815227 -3.670459,-5.912897 -0.264363,-0.813017 -0.521921,-1.728554 -0.572364,-2.034542 l -0.09173,-0.556312 0.350966,0.464401 c 1.395357,1.846307 2.959253,3.687551 3.993266,4.701434 0.977042,0.958008 1.24469,1.145574 1.363016,0.955066 0.453207,-0.729695 0.507638,-4.297985 0.09603,-6.29757 -0.14594,-0.709092 -0.72934,-2.783379 -1.296405,-4.609502 -1.201632,-3.869608 -1.500625,-5.384007 -1.499095,-7.5929 0.0024,-3.284335 1.136967,-6.269855 3.639228,-9.575283 1.807563,-2.387777 1.829255,-2.394295 0.893218,-0.268734 -0.315207,0.715692 -0.748234,1.991842 -0.962343,2.83586 -1.723187,6.793026 -0.0875,13.475818 4.371926,17.861794 0.977414,0.961326 3.68305,2.876511 4.063731,2.876511 0.09592,0 -0.45411,-0.643002 -1.222259,-1.428906 -2.441327,-2.497753 -4.090304,-5.065615 -4.6714,-7.274537 -0.39438,-1.499116 -0.537114,-3.476644 -0.364009,-5.043137 0.212407,-1.922201 0.379309,-2.127704 0.498601,-0.614007 0.209398,2.656482 1.43006,5.849845 2.815993,7.366855 0.359415,0.393384 0.624921,0.643729 0.590025,0.556312 -0.03476,-0.08732 -0.189941,-0.435152 -0.344517,-0.772768 -1.840678,-4.020261 -2.093732,-8.800509 -0.695351,-13.135228 1.736093,-5.381585 6.327744,-10.631014 11.638014,-13.305222 1.274838,-0.641984 3.910456,-1.686686 4.008343,-1.588813 0.03608,0.03608 -0.240176,0.265545 -0.613498,0.510269 -6.138946,4.02469 -10.130997,11.911252 -8.958453,17.69798 0.455658,2.24876 1.156334,3.680768 2.824692,5.772963 2.368683,2.970446 3.232587,5.716879 2.828852,8.993237 -0.168263,1.365499 -0.26103,1.763103 -1.269983,5.443975 -1.905152,6.95035 -2.64463,12.435727 -2.494282,18.502373 0.107995,4.358683 0.565789,7.328634 1.674417,10.863393 0.171381,0.546408 0.257878,0.993445 0.192271,0.993445 -0.06564,0 -0.588843,-0.43025 -1.162734,-0.956134 -1.071636,-0.981943 -2.074952,-2.407301 -2.556524,-3.631933 -0.74995,-1.907076 -0.953955,-5.097214 -0.494463,-7.732133 0.216134,-1.239488 0.21685,-1.484598 0.0064,-2.206364 -0.384719,-1.319351 -0.852223,-1.948533 -4.254668,-5.726081 -0.76036,-0.844179 -1.744611,-2.015075 -2.187223,-2.602019 -1.096048,-1.453388 -2.327147,-3.985321 -2.644217,-5.438191 -0.419644,-1.922874 -0.518911,-1.971787 -0.530653,-0.261352 -0.02186,3.1996 0.874217,5.129512 4.586924,9.877748 1.075556,1.37556 1.885829,2.612991 2.423762,3.701521 0.444447,0.899371 0.776412,1.666871 0.7377,1.705591 -0.03884,0.03845 -0.995677,-0.473349 -2.126596,-1.137913 -2.382732,-1.400176 -2.453921,-1.433471 -2.452542,-1.146961 0.0018,0.344983 1.589232,3.38946 2.829501,5.426095 0.859146,1.41076 1.052477,1.825707 0.784105,1.68288 -1.176589,-0.626186 -2.940431,-2.577639 -5.123536,-5.668492 -0.697397,-0.987394 -1.289683,-1.730175 -1.316195,-1.650629 -0.07657,0.229929 1.288168,3.302615 2.201154,4.955878 2.106817,3.815066 4.700434,7.130248 8.642529,11.046921 3.162548,3.142179 5.639433,5.267569 12.962633,11.123159 2.928631,2.3417 5.588968,4.49464 5.911865,4.78431 0.668295,0.59954 0.463942,0.62032 3.148212,-0.32026 1.843691,-0.64602 3.264126,-0.84968 4.1724,-0.59823 0.771145,0.21355 0.765494,0.0993 -0.06485,-1.31015 -1.224886,-2.07926 -2.806031,-4.2856 -5.132475,-7.16192 -3.114603,-3.850817 -4.789987,-5.985192 -5.708061,-7.271901 -0.421031,-0.590101 -0.79182,-1.072912 -0.823985,-1.072912 -0.233942,0 1.221267,3.071788 2.560171,5.404243 0.768529,1.33883 1.89675,3.68812 2.061011,4.29162 0.05948,0.2185 -0.262464,-0.13895 -0.715485,-0.79474 -1.174901,-1.70051 -2.847538,-3.34835 -6.126523,-6.035723 -3.062034,-2.509564 -4.783379,-4.140428 -5.867237,-5.558828 -0.699432,-0.915329 -1.521429,-2.248107 -1.521429,-2.466856 0,-0.06908 0.524114,0.37244 1.164693,0.980904 0.64058,0.608482 1.491051,1.330896 1.889932,1.605338 0.917336,0.631142 2.952835,1.657695 3.153987,1.590662 0.08377,-0.02795 -0.331152,-0.419978 -0.922073,-0.871189 -1.757771,-1.342216 -3.693853,-3.228227 -4.685377,-4.564186 -0.511448,-0.689124 -0.904308,-1.278522 -0.873031,-1.30981 0.03153,-0.03153 0.825035,0.363261 1.763906,0.876693 1.468437,0.803089 2.2954,1.141066 3.817047,1.560026 0.431619,0.118888 0.358671,-0.02365 -1.727207,-3.365395 -2.76203,-4.42548 -3.656227,-6.336179 -4.127238,-8.819177 -0.413446,-2.179537 -0.347241,-2.317799 0.444439,-0.928548 1.666309,2.923988 3.315691,4.674421 5.309138,5.634414 0.635266,0.305927 1.221124,0.532792 1.301912,0.504113 0.08076,-0.02867 -0.426502,-0.51702 -1.12731,-1.085249 -2.724024,-2.208735 -4.541462,-4.816043 -5.152004,-7.391128 -0.229033,-0.966041 -0.316497,-3.437667 -0.128276,-3.625856 0.05633,-0.05633 0.329755,0.414499 0.607529,1.046418 0.878556,1.998701 1.957982,3.417699 3.661967,4.81399 0.8428,0.690611 1.084155,0.706749 0.455372,0.03046 -1.343072,-1.444528 -2.380919,-3.22158 -2.947357,-5.046635 -0.512587,-1.65151 -0.509717,-5.010442 0.0057,-6.914261 0.430505,-1.589515 1.120463,-3.417383 1.289945,-3.417383 0.204847,0 0.320797,0.446442 0.323448,1.244833 0.0012,0.408114 0.06586,0.842248 0.143432,0.964737 0.24634,0.389116 0.8458,-1.042093 0.930461,-2.221488 0.124263,-1.730382 -0.440963,-3.201163 -2.742007,-7.135432 -1.724803,-2.949045 -2.288199,-4.271495 -2.541572,-5.965928 -0.119031,-0.79594 0.135585,-2.161048 0.570741,-3.059952 0.407064,-0.840894 1.597523,-2.163893 2.581713,-2.869159 l 0.732426,-0.524866 -0.538095,1.081178 c -1.670164,3.3558 -1.08995,6.061478 2.593946,12.096209 0.70973,1.162654 1.540792,2.611091 1.84679,3.21871 0.306035,0.60765 0.627784,1.104801 0.715062,1.104801 0.08729,0 0.748001,-0.369853 1.468277,-0.82191 3.110263,-1.952081 10.579571,-6.30688 19.814533,-11.552367 0.796764,-0.452566 0.759944,-0.345592 -0.336742,0.978557 -0.783295,0.945754 -1.320652,1.831312 -1.190323,1.961648 0.04031,0.04042 1.56553,-0.582666 3.389381,-1.384403 1.823858,-0.801702 4.067132,-1.776476 4.985063,-2.166183 1.689971,-0.717466 5.140426,-1.956513 5.448417,-1.956513 0.09227,0 -0.665436,0.590101 -1.683812,1.311344 -1.018377,0.721221 -1.785082,1.333898 -1.703795,1.361514 0.0813,0.02759 0.832771,-0.09828 1.669974,-0.279591 1.956527,-0.423891 6.375872,-1.155668 10.01827,-1.658842 1.57359,-0.217423 3.96975,-0.547758 5.32478,-0.734206 5.48035,-0.753964 10.63014,-1.771993 13.98261,-2.764084 0.74042,-0.219 1.37446,-0.370125 1.409,-0.335559 0.12588,0.125947 -2.01676,1.399004 -4.30492,2.558008 -1.28947,0.653142 -2.34451,1.226348 -2.34451,1.273777 0,0.04744 0.62586,0.04511 1.39081,-0.005 0.76493,-0.05031 2.57099,-0.164501 4.01345,-0.253685 6.57095,-0.406179 11.34813,-1.204964 16.02893,-2.680231 l 1.4851,-0.468052 -0.37248,0.40089 c -1.35106,1.454095 -3.91621,2.729564 -8.71729,4.334486 -1.87956,0.628322 -3.47854,1.201711 -3.55328,1.274194 -0.23337,0.226309 2.25882,0.370713 4.66592,0.270274 3.69409,-0.154074 7.59651,-0.944091 9.96165,-2.016508 4.70469,-2.133204 5.4399,-5.395506 2.10978,-9.361636 -1.0443,-1.243769 -0.98762,-1.308767 0.49277,-0.564994 0.99494,0.49986 2.02894,1.572771 2.52095,2.615857 0.36404,0.771801 0.41236,1.074348 0.41236,2.582907 0,0.939784 0.0611,1.708693 0.13576,1.708693 0.0747,0 0.55724,-0.430745 1.07239,-0.957227 1.57258,-1.607116 2.3682,-3.570379 2.3682,-5.843725 0,-2.528855 -0.77849,-4.494648 -2.95706,-7.467083 l -0.2639,-0.360043 0.65427,0.280559 c 0.94759,0.406315 2.39587,1.507827 3.11731,2.370907 1.75804,2.103174 2.6772,4.614636 2.69623,7.367093 0.0147,2.10155 -0.25665,3.329363 -1.11872,5.065012 l -0.68169,1.372407 1.16281,-1.221263 c 1.19811,-1.258342 2.20341,-2.669755 3.22372,-4.52599 0.32198,-0.585772 0.61034,-0.990314 0.64078,-0.898955 0.0985,0.295608 -0.89276,2.782959 -1.55005,3.889348 -2.05158,3.453311 -5.09784,6.212883 -11.2183,10.16246 -8.58858,5.542274 -10.13523,6.665715 -12.49211,9.07388 -1.58665,1.621164 -2.5688,3.025382 -3.48803,4.986976 -0.63761,1.360625 -1.2461,3.725982 -1.24497,4.839541 0,0.519653 0.0482,0.467271 0.72354,-0.794747 1.06435,-1.989022 2.72822,-4.097434 5.14988,-6.525779 2.61993,-2.627176 4.16364,-3.962616 10.09619,-8.733999 8.81579,-7.090278 11.81682,-9.908904 14.46883,-13.589385 1.15128,-1.597753 2.35257,-4.102909 2.6828,-5.594601 1.09703,-4.955585 -1.19636,-9.742874 -6.9435,-14.494052 -0.67513,-0.558164 -1.22753,-1.037116 -1.22753,-1.064362 0,-0.115233 1.7543,0.472829 2.7816,0.932382 3.20252,1.43266 5.90183,3.990775 7.44806,7.058471 1.13333,2.248551 1.63895,5.747568 1.17269,8.115527 -0.1248,0.633797 -0.17246,1.152382 -0.10595,1.152382 0.31413,0 1.52198,-1.65652 2.15232,-2.951907 2.58775,-5.317813 2.24034,-13.009403 -0.79984,-17.709035 -0.38668,-0.597743 -0.96726,-1.379268 -1.2902,-1.736724 -0.32294,-0.357416 -0.55546,-0.649881 -0.51674,-0.649881 0.20625,0 2.79752,1.49453 3.6668,2.114847 1.38565,0.988777 3.47286,3.235088 4.26295,4.587913 3.69271,6.322781 2.30175,14.930561 -3.75102,23.212718 -1.25654,1.719332 -4.74034,5.229403 -6.43742,6.485917 -1.61032,1.192298 -1.8926,1.451279 -1.03316,0.947947 2.75718,-1.614755 5.57258,-3.763208 8.01039,-6.112767 5.52692,-5.326911 8.65065,-11.16701 9.51119,-17.781933 l 0.27041,-2.078766 0.36719,1.172408 c 0.72865,2.326585 0.91475,3.834179 0.91337,7.399756 -0.002,2.853332 -0.0546,3.60229 -0.36868,5.158798 -1.22727,6.082314 -4.27557,11.945098 -8.63145,16.600743 -0.71015,0.759023 -1.24403,1.427239 -1.18638,1.484884 0.0577,0.05762 0.65684,0.02365 1.33153,-0.07482 2.46671,-0.361337 5.00887,-1.813084 7.4316,-4.243959 2.03942,-2.046252 3.40419,-3.957112 5.55085,-7.771892 0.23753,-0.422117 0.46425,-0.735145 0.50377,-0.695591 0.1577,0.157765 -0.31209,3.776845 -0.66839,5.149173 -1.08391,4.174819 -3.70708,8.037885 -7.28096,10.722398 -0.70956,0.532975 -1.31395,1.03182 -1.34308,1.108499 -0.0837,0.220075 1.24825,0.162709 2.24476,-0.09699 1.69991,-0.442763 3.79926,-1.697037 6.50542,-3.886715 0.54008,-0.436975 1.0077,-0.768776 1.03916,-0.737334 0.10495,0.104806 -1.10474,3.17358 -1.79072,4.542519 -0.74995,1.496644 -2.05514,3.747048 -4.05621,6.993759 -1.71309,2.779438 -3.32784,5.943215 -3.88078,7.603514 -0.24136,0.724769 -0.40846,1.348164 -0.3713,1.385292 0.093,0.09305 2.66757,-1.536406 3.77947,-2.392005 0.50083,-0.385386 1.37621,-1.203585 1.94531,-1.818247 l 1.0347,-1.117601 0.11244,1.308764 c 0.31284,3.641947 1.41824,7.097527 3.62186,11.322505 0.64302,1.23287 1.38272,2.448243 3.60393,5.921476 3.72393,5.822997 7.34753,12.776621 12.77612,24.517211 0.82865,1.79214 1.72143,3.7016 1.98397,4.24323 0.26254,0.5416 0.44307,1.01904 0.40117,1.06092 -0.16171,0.16163 -1.52229,-0.37468 -2.75736,-1.08707 -0.71041,-0.40976 -1.32431,-0.71236 -1.36423,-0.67244 -0.0399,0.0399 0.17754,0.85017 0.48321,1.80057 1.41327,4.39422 2.41465,8.52349 3.05945,12.61599 0.22409,1.42226 0.28859,2.76268 0.2907,6.04005 0.002,3.73938 -0.0373,4.4088 -0.35286,5.96434 -1.00975,4.97571 -3.13522,8.69053 -6.7575,11.81038 -1.80081,1.551 -1.87216,1.76415 -1.00121,2.99047 0.3017,0.4248 1.18355,1.7022 1.95965,2.8387 4.72548,6.91963 7.66471,13.46223 9.01676,20.07085 0.38453,1.87951 0.92724,6.07498 0.80204,6.20018 -0.0373,0.0373 -0.33151,-0.45835 -0.65412,-1.10112 -2.11429,-4.21247 -4.25945,-7.72585 -6.68199,-10.94401 -1.52073,-2.02018 -4.78867,-5.65947 -4.94321,-5.50491 -0.0388,0.0388 0.2491,0.88203 0.63981,1.87381 2.19518,5.57183 3.71132,11.90713 4.24432,17.735 0.28425,3.10819 0.12354,9.69172 -0.30371,12.44052 -1.35267,8.70308 -4.59299,15.49626 -10.41187,21.82793 -1.91266,2.08122 -2.11449,2.18128 -1.58289,0.78476 3.46063,-9.09088 5.06878,-19.35505 4.51409,-28.81167 -0.10509,-1.79215 -0.24387,-3.65186 -0.30836,-4.13269 l -0.11728,-0.87421 -0.19388,0.95371 c -2.08796,10.26977 -4.03102,16.19125 -7.77142,23.68333 -3.58949,7.18985 -7.85895,13.47965 -13.70238,20.1865 -3.4512,3.96113 -9.75832,10.02892 -14.47342,13.92419 -1.34063,1.10753 -6.32214,5.01539 -7.6163,5.97476 -0.53386,0.39578 3.91791,-0.67249 8.49052,-2.03741 1.48617,-0.44363 3.59621,-1.07714 4.68899,-1.4078 2.07275,-0.62717 7.04611,-1.9114 8.62296,-2.22662 l 0.91396,-0.18274 v -0.91345 c 0,-2.24167 0.98817,-4.50672 2.71878,-6.23197 0.9917,-0.98859 1.51025,-1.35504 2.86225,-2.02263 1.77669,-0.87729 3.92192,-1.49192 6.177,-1.76983 1.73932,-0.21435 6.02832,-0.21299 8.13344,0.002 2.97046,0.30417 7.16747,1.25803 8.94409,2.03278 l 0.63288,0.27597 -0.87565,0.49418 c -1.31663,0.74307 -3.10768,2.22649 -4.34644,3.59994 -1.35328,1.50037 -3.25756,4.11542 -3.94481,5.41715 -0.68171,1.29124 -2.90954,3.52446 -4.17253,4.18264 -0.52688,0.27454 -1.59978,0.69215 -2.38423,0.92795 -1.22831,0.36918 -1.71307,0.42918 -3.49259,0.43218 -2.3444,0.005 -3.73487,-0.24974 -5.58136,-1.01848 -1.37423,-0.57208 -3.17144,-1.72822 -4.18442,-2.69181 l -0.7057,-0.67129 -1.28115,0.0967 c -2.39887,0.18095 -6.84687,1.49352 -10.81808,3.19254 -3.01056,1.28804 -6.91427,3.14602 -6.91427,3.2909 0,0.0764 0.16464,0.13871 0.36597,0.13871 0.2013,0 1.25631,0.26171 2.3445,0.58154 1.55584,0.45726 2.26914,0.58463 3.3389,0.59605 1.3397,0.0129 1.38923,0 3.25845,-0.89301 2.55789,-1.22302 4.17782,-1.60847 6.746,-1.60524 1.19434,0.002 2.43173,0.1004 3.10213,0.24795 6.22013,1.36876 11.17091,6.46644 12.70994,13.0871 0.11,0.47327 0.1823,0.8605 0.1607,0.8605 -0.0215,0 -0.45065,-0.24767 -0.95336,-0.55039 -1.37421,-0.82752 -2.29522,-1.06006 -4.56563,-1.1528 -2.26554,-0.0926 -3.24306,0.0183 -7.67215,0.86988 -2.69879,0.51893 -3.299,0.58145 -5.64268,0.58778 -2.96911,0.008 -3.49468,-0.13272 -4.75697,-1.27304 -1.42462,-1.28705 -2.07081,-2.99686 -2.09367,-5.53982 -0.019,-2.08857 -0.0963,-2.42942 -0.64573,-2.83964 -0.55112,-0.41148 -3.1506,-1.03462 -5.1916,-1.24453 -1.82543,-0.18772 -4.30336,-0.0276 -6.46545,0.41795 -4.90071,1.00984 -10.60556,3.8683 -18.17927,9.10889 -1.16907,0.80893 -2.14605,1.44974 -2.1711,1.42401 -0.15153,-0.15565 3.18336,-4.06394 8.05185,-9.4365 6.98783,-7.7113 9.81109,-11.47402 12.15609,-16.20097 1.09273,-2.20269 2.50176,-5.64117 2.36691,-5.77604 -0.0319,-0.0319 -0.75714,0.56494 -1.61195,1.32597 -2.09818,1.8681 -4.4014,3.69568 -9.59303,7.6121 -5.61906,4.23882 -8.14029,6.32544 -10.86265,8.99005 -3.55729,3.48187 -5.57776,6.15968 -7.26149,9.62391 -1.03565,2.1308 -1.59009,3.70363 -1.99822,5.66849 -0.15139,0.72888 -0.32406,1.38218 -0.3837,1.4518 -0.18622,0.21742 -1.27215,-1.53667 -1.59644,-2.57861 -0.43643,-1.40226 -0.41182,-3.97137 0.0606,-6.32987 0.19703,-0.98351 0.30897,-1.78816 0.24874,-1.78816 -0.26863,0 -3.24717,3.33812 -4.02139,4.50693 -1.42578,2.1524 -1.8673,3.58767 -1.86116,6.05025 l 0.004,1.60239 -0.7732,-0.8301 c -1.04229,-1.11896 -1.3469,-2.04847 -1.33395,-4.07053 l 0.01,-1.56266 -1.12173,1.08582 c -2.94399,2.84981 -3.80895,3.88987 -4.54004,5.45923 -0.48935,1.05044 -0.899261,3.06092 -0.766108,3.75745 0.112366,0.58768 -0.218284,0.37087 -0.754828,-0.49504 -0.839948,-1.35554 -0.730627,-3.27873 0.378837,-6.66467 0.246626,-0.75269 0.394745,-1.36849 0.329145,-1.36849 -0.361849,0 -5.559824,3.07291 -10.56578,6.24625 -10.373993,6.57618 -12.744553,7.97657 -17.008548,10.04761 -2.851881,1.38518 -4.715279,2.16074 -7.289217,3.0338 -1.330459,0.4513 -1.552957,0.49026 -1.473634,0.25816 z m 28.916006,-17.33629 c 5.131645,-3.17353 7.376165,-4.59399 10.523946,-6.66019 13.41746,-8.80715 21.15254,-16.67481 25.74568,-26.18689 1.01924,-2.11076 2.05964,-4.6732 1.94428,-4.78857 -0.0355,-0.0355 -0.33853,0.3839 -0.67387,0.93163 -0.33531,0.54773 -1.3244,2.06875 -2.19797,3.3801 -9.66267,14.50479 -20.52343,23.81434 -32.527134,27.88135 -0.743082,0.25189 -1.370354,0.44 -1.393927,0.41826 -0.06364,-0.0587 0.993416,-4.58322 1.714372,-7.33831 0.976669,-3.73229 2.825409,-8.85698 3.719978,-10.31175 0.107529,-0.17493 0.246841,-0.45696 0.309653,-0.62689 0.113083,-0.30604 0.110862,-0.30604 -0.227492,0 -0.566363,0.51224 -3.54716,4.51261 -4.924845,6.60934 -1.494767,2.27496 -3.577441,6.41421 -4.26765,8.48187 -0.262643,0.7868 -0.629218,2.11006 -0.814619,2.94055 -0.645119,2.88996 -0.777089,7.46217 -0.209075,7.24421 0.12394,-0.0475 1.599304,-0.93617 3.278652,-1.97471 z m -12.603092,-1.78955 c 4.143152,-3.1383 6.606851,-5.44572 7.462819,-6.98945 0.477641,-0.86138 0.880036,-1.12587 -4.130295,2.71475 -2.109859,1.61731 -3.933072,2.99535 -4.051584,3.06233 -0.270597,0.15278 -0.238887,-0.0787 0.57379,-4.19082 1.260431,-6.37772 3.013687,-11.21108 5.370399,-14.80497 0.994247,-1.51623 0.63648,-1.32212 -0.910572,0.49399 -3.831663,4.49807 -7.306337,11.557 -8.538804,17.34686 -0.296683,1.39371 -0.41871,5.04914 -0.187433,5.61377 0.102799,0.25082 0.259883,0.16321 1.192107,-0.66603 0.590559,-0.52525 2.039351,-1.68645 3.219548,-2.58043 z m 64.135798,-15.25495 c 11.97476,-8.01932 20.08397,-24.53937 22.24763,-45.3228 0.13397,-1.28697 0.24362,-2.73119 0.24362,-3.2093 0,-0.47815 0.062,-0.90769 0.13773,-0.9545 0.17196,-0.10634 0.41295,1.39252 0.81568,5.07326 0.1722,1.57358 0.36051,3.11139 0.41857,3.41738 l 0.10552,0.55631 0.19972,-0.65794 c 0.54659,-1.80036 1.36253,-7.77969 1.65632,-12.1374 0.0973,-1.44247 0.22122,-3.08759 0.27558,-3.65584 l 0.0987,-1.03316 0.13379,0.71528 c 0.67391,3.60351 0.82627,9.06522 0.36797,13.19274 -0.46897,4.22376 -1.48871,8.99978 -3.11687,14.59814 -0.44895,1.5437 -0.84727,2.91402 -0.88517,3.04514 -0.20259,0.70102 0.54744,-0.91322 1.52131,-3.27424 6.24934,-15.15051 7.68777,-29.88547 4.05606,-41.54927 -0.59749,-1.91895 -1.74928,-4.89487 -1.99937,-5.16584 -0.0898,-0.0973 -0.0971,0.42718 -0.0194,1.35105 0.0702,0.83052 0.11871,2.9048 0.10774,4.60953 -0.0158,2.45651 -0.0891,3.44205 -0.35322,4.75082 -0.18331,0.90821 -0.36098,1.67899 -0.39481,1.7128 -0.0337,0.0337 -0.10993,-0.42315 -0.16912,-1.01552 -0.44283,-4.4314 -1.59785,-9.78506 -3.01006,-13.95185 -0.94887,-2.79977 -2.74202,-6.92281 -3.87115,-8.90115 l -0.3629,-0.63578 0.10151,3.65817 c 0.10279,3.7059 -0.0305,5.74198 -0.489,7.46945 -0.24885,0.9376 -0.26555,0.89411 -0.6513,-1.69493 -0.35545,-2.38561 -1.52358,-6.53058 -1.77079,-6.28338 -0.0395,0.0393 0.0348,0.53151 0.16522,1.09346 0.13028,0.56194 0.35638,2.05451 0.50237,3.31687 0.32345,2.79685 0.24487,8.41714 -0.15876,11.35525 -1.10103,8.01463 -3.52525,14.48423 -7.02363,18.74412 -0.42542,0.51801 -0.84501,0.9651 -0.93244,0.99355 -0.10381,0.0337 -0.12222,-0.56875 -0.053,-1.73659 0.16443,-2.77702 0.14952,-8.12358 -0.029,-10.3882 -0.61075,-7.74882 -2.2185,-13.91495 -5.20704,-19.97018 -1.28959,-2.61294 -1.25277,-2.69108 0.35627,-0.75597 3.21604,3.86779 5.89251,9.17866 7.47631,14.83524 0.29783,1.06363 0.61545,2.1842 0.70587,2.49016 0.26307,0.8902 0.0698,-7.36563 -0.22166,-9.47282 -0.86267,-6.23538 -2.5133,-8.8048 -7.16031,-11.14589 -5.44621,-2.74374 -8.88821,-5.68121 -11.67259,-9.96162 -0.79042,-1.21511 -0.66617,-1.24606 -1.59963,0.39852 -0.69031,1.2162 -2.22409,2.77811 -3.30594,3.36652 -1.13081,0.61505 -2.66571,0.916 -3.81238,0.74747 -1.92896,-0.2835 -3.29124,-1.0318 -4.78476,-2.62838 -1.90175,-2.03298 -2.90157,-4.61794 -2.91793,-7.54409 -0.005,-0.91794 0.087,-2.09811 0.20467,-2.62264 l 0.21402,-0.95371 0.13805,0.87421 c 0.44269,2.80293 1.10432,4.34518 2.43485,5.67571 0.47624,0.47624 1.26296,1.04677 1.77299,1.28577 0.79469,0.3724 1.11803,0.42965 2.42686,0.42965 1.41844,0 1.571,-0.033 2.51552,-0.54518 0.55303,-0.29983 1.25247,-0.83367 1.55429,-1.1863 1.02705,-1.19986 1.79074,-3.14698 2.05655,-5.24343 l 0.0984,-0.77589 0.27085,0.45802 c 0.14898,0.25189 0.4657,0.92292 0.70383,1.49114 0.23809,0.56825 0.60677,1.31927 0.81921,1.66899 l 0.38629,0.63577 0.36726,-0.83072 c 0.20202,-0.45692 0.41264,-0.83242 0.46806,-0.83448 0.0554,-0.002 0.26443,0.40752 0.46448,0.91019 0.5766,1.44881 1.68284,3.64247 2.13739,4.23841 0.39876,0.52281 1.15985,1.13142 1.27316,1.01808 0.0297,-0.0297 -0.0455,-0.51819 -0.16719,-1.0856 -0.12161,-0.5674 -0.22273,-1.49657 -0.2247,-2.0648 l -0.004,-1.03317 0.67359,1.23414 c 0.87769,1.60811 1.81253,2.80301 2.80944,3.59103 2.48177,1.96175 5.46031,1.66387 7.94136,-0.7942 2.18364,-2.1634 3.498,-5.50303 3.52155,-8.94784 l 0.009,-1.28215 0.47278,1.43055 c 0.52616,1.59202 1.41195,3.43319 2.28333,4.74599 0.81443,1.22697 2.72969,2.99123 3.83809,3.53547 0.81604,0.40068 1.1178,0.46073 2.31545,0.46073 1.27735,0 1.42703,-0.0348 2.06634,-0.48355 0.915,-0.64195 1.67503,-2.11936 1.91189,-3.71656 0.22488,-1.51649 -0.004,-3.72082 -0.64568,-6.21103 -0.25895,-1.00536 -0.45536,-1.84344 -0.43646,-1.86239 0.0194,-0.0183 0.73013,0.81487 1.5805,1.853 3.2006,3.90729 6.02899,6.56859 6.70521,6.30909 0.36075,-0.13845 0.29095,-1.08073 -0.18213,-2.45825 -0.7317,-2.1306 -3.30805,-7.05498 -5.37772,-10.27888 -0.97379,-1.51682 -1.14409,-1.80834 -0.92867,-1.58949 0.0861,0.0873 0.97276,1.05198 1.97045,2.14346 0.99768,1.09147 3.88824,4.0978 6.42348,6.68075 8.55574,8.71674 11.62345,12.27416 15.03243,17.43199 0.79813,1.20761 1.48788,2.23137 1.53277,2.27509 0.045,0.0438 -0.24512,-0.57406 -0.64455,-1.37282 -2.10275,-4.20527 -5.72137,-9.44117 -10.33855,-14.95916 -1.18868,-1.42059 -2.11788,-2.58291 -2.06489,-2.58291 0.053,0 1.41974,0.82835 3.0372,1.8408 1.84541,1.15513 2.99675,1.78488 3.09096,1.69068 0.0942,-0.0941 -0.25175,-0.46907 -0.92883,-1.00632 -3.11221,-2.46965 -7.32423,-6.43377 -10.74989,-10.11725 -2.96726,-3.19058 -3.72048,-4.06378 -3.18574,-3.69326 4.40927,3.05523 5.69246,3.76224 7.81261,4.30447 1.20164,0.30733 3.4325,0.41005 3.80247,0.17493 0.13913,-0.0884 -0.0168,-0.33276 -0.53109,-0.83202 -1.11613,-1.08374 -3.49197,-3.82527 -5.24169,-6.04847 -0.86729,-1.10199 -2.47097,-3.12929 -3.56374,-4.50511 -1.09277,-1.37585 -2.09089,-2.6558 -2.21801,-2.84436 l -0.23118,-0.34283 0.39013,0.34014 c 0.21456,0.18718 1.1769,1.03615 2.13855,1.88682 3.02339,2.67453 4.49611,3.44382 6.57189,3.43298 1.92154,-0.0108 3.08972,-0.81743 2.80779,-1.94069 -0.10749,-0.42835 -1.26721,-2.12737 -2.20972,-3.23735 -0.34018,-0.40063 -0.57929,-0.76763 -0.53135,-0.81558 0.0479,-0.048 0.31998,0.0333 0.60454,0.18045 0.28458,0.14705 0.92084,0.30413 1.41395,0.34885 2.29516,0.20804 3.49373,-1.80034 2.55254,-4.27733 -0.17274,-0.45469 -0.28167,-0.85917 -0.242,-0.89888 0.0397,-0.0396 0.38013,0.0454 0.75655,0.1893 1.33878,0.51128 1.24132,0.24974 -0.3505,-0.94036 l -1.2627,-0.94409 0.82559,-0.12932 c 1.73982,-0.27267 2.22072,-0.46836 3.00235,-1.22175 1.02367,-0.98672 1.00594,-1.20709 -0.0917,-1.13865 -1.22285,0.0761 -3.25714,-0.3491 -4.49498,-0.93986 -1.02664,-0.48998 -3.08795,-2.25183 -2.87899,-2.46078 0.0524,-0.0524 0.80014,0.0511 1.6619,0.22971 2.32731,0.48226 3.25914,0.56241 3.93721,0.33857 0.57177,-0.18876 1.67668,-1.02397 1.67668,-1.26749 0,-0.0657 -1.05502,-0.15906 -2.34448,-0.20754 -3.67951,-0.13816 -5.19296,-0.53019 -14.42637,-3.73542 -2.84833,-0.98875 -5.48886,-1.71938 -7.30987,-2.0226 -0.73975,-0.12308 -0.82714,-0.22162 1.35106,1.52091 1.86199,1.48948 3.69434,3.06181 5.2453,4.50094 2.0584,1.90992 8.4328,8.08792 8.38935,8.13086 -0.0244,0.0236 -1.18896,-0.30055 -2.58771,-0.72172 -3.73143,-1.12347 -7.55825,-1.92984 -11.28536,-2.37802 -2.03011,-0.24405 -5.84511,-0.49403 -5.94942,-0.38975 -0.0483,0.0482 0.30496,0.41636 0.78498,0.8179 1.67453,1.40067 6.32216,6.18447 9.11226,9.37924 1.54606,1.77027 2.75611,3.21871 2.68899,3.21871 -0.0671,0 -1.37329,-0.43491 -2.90258,-0.96649 -3.66056,-1.27236 -6.68726,-2.2487 -8.74112,-2.81964 -2.01475,-0.56006 -4.87129,-1.18899 -5.06531,-1.11523 -0.0773,0.0294 0.33886,0.71945 0.92472,1.53349 0.58586,0.81404 1.53635,2.35187 2.11224,3.41741 1.01652,1.88082 2.58095,5.5508 2.4771,5.81092 -0.0283,0.0709 -2.83188,-0.64975 -6.23026,-1.60117 -3.39839,-0.95141 -6.21245,-1.6963 -6.25346,-1.65527 -0.041,0.0409 0.32234,1.24218 0.80748,2.66926 1.32461,3.89657 1.7574,5.68885 1.76423,7.30626 0.005,1.13296 -0.0473,1.43241 -0.297,1.70872 -0.69637,0.77047 -2.38077,0.30407 -6.69095,-1.85276 -3.28809,-1.64537 -6.78027,-3.24453 -6.87607,-3.14871 -0.0388,0.0388 0.21631,0.77248 0.5667,1.63055 0.9914,2.42759 1.93828,5.9003 1.93828,7.10861 0,0.3928 -0.0168,0.38825 -2.026,-0.56007 -2.48322,-1.17191 -4.41927,-2.26078 -6.38093,-3.58876 -0.82096,-0.55576 -1.5097,-0.99075 -1.53054,-0.96664 -0.0208,0.0237 -0.1244,0.90214 -0.23014,1.95122 -0.29063,2.8836 -0.86576,4.21213 -1.82337,4.21213 -0.64524,0 -1.798,-0.94922 -3.4354,-2.82882 -0.89126,-1.02309 -2.20104,-2.4611 -2.91065,-3.19559 l -1.2902,-1.33543 -0.14544,0.54069 c -1.16573,4.33423 -2.0675,6.81511 -3.62038,9.96019 -0.52925,1.07189 -1.0094,1.97802 -1.06698,2.01364 -0.11656,0.072 -3.24768,-5.68969 -3.83776,-7.06207 -0.20671,-0.4808 -0.41538,-0.92234 -0.46364,-0.98117 -0.0483,-0.0589 -1.05338,1.27149 -2.23357,2.95622 l -2.14581,3.06316 -0.0441,-2.2012 c -0.0244,-1.21066 -0.0958,-2.19995 -0.15895,-2.19842 -0.0632,0.002 -0.83012,0.67265 -1.70434,1.49141 l -1.58948,1.48864 -0.1042,-1.3722 c -0.0573,-0.75473 -0.17994,-1.56691 -0.27257,-1.80487 -0.21165,-0.54399 -0.791,-0.70347 -1.40398,-0.38649 -0.665396,0.34409 -2.299643,2.12726 -3.847744,4.19841 -0.735264,0.98367 -1.364019,1.76133 -1.397224,1.72812 -0.119891,-0.11993 0.430147,-3.3143 0.828525,-4.81151 0.224088,-0.84236 0.384605,-1.60023 0.356628,-1.68416 -0.06192,-0.18564 -2.234609,1.39754 -4.141668,3.01787 -0.769435,0.65377 -1.428167,1.15945 -1.463859,1.12376 -0.250639,-0.25053 1.126892,-4.29042 2.177538,-6.38588 0.34423,-0.68657 0.589914,-1.28428 0.545938,-1.32826 -0.128204,-0.12828 -4.053895,2.52739 -5.846975,3.95536 -2.150796,1.71284 -5.640977,5.13502 -7.660811,7.51156 -0.886564,1.04311 -1.774164,2.08025 -1.972429,2.30473 l -0.360473,0.40817 0.102729,-0.47687 c 0.280056,-1.29992 1.138772,-3.67847 1.893729,-5.2453 1.524818,-3.16456 3.772187,-6.17584 7.804734,-10.45766 7.122197,-7.56245 8.23104,-8.84284 9.98195,-11.52621 l 0.965371,-1.47948 0.04923,0.56426 c 0.0674,0.77203 -0.333158,2.24943 -1.002854,3.69891 -0.307468,0.66546 -0.516976,1.25193 -0.465601,1.30332 0.05135,0.0513 0.749348,-0.58684 1.551053,-1.41827 2.934423,-3.04319 4.370303,-6.49119 5.187423,-12.45662 0.5791,-4.22771 1.11066,-8.74114 1.03805,-8.81377 -0.0388,-0.0385 -0.46989,0.23129 -0.95813,0.59979 -1.80722,1.36448 -2.78991,3.22737 -3.745702,7.10074 -0.278086,1.12693 -0.560365,2.1101 -0.627308,2.18483 -0.201121,0.22448 -0.361691,-2.24055 -0.257017,-3.94598 0.05382,-0.8768 0.244225,-2.27366 0.423166,-3.10417 0.589248,-2.73499 0.621113,-2.58901 -0.34595,-1.5848 -0.465515,0.48341 -1.235076,1.55257 -1.710137,2.37594 -0.47505,0.82337 -0.893204,1.40863 -0.929214,1.30058 -0.252145,-0.75652 0.846114,-4.14392 1.803402,-5.56217 0.314741,-0.46628 0.534788,-0.88524 0.489013,-0.93099 -0.04579,-0.0459 -0.472807,0.13974 -0.948957,0.41207 -0.904415,0.51747 -2.513487,2.1118 -3.452078,3.42052 -0.687386,0.95842 -0.764717,0.70463 -0.322875,-1.0596 0.386017,-1.54133 1.17258,-3.19816 2.083323,-4.38832 0.358133,-0.46803 0.626827,-0.87528 0.597087,-0.90503 -0.135442,-0.13534 -1.509321,0.29862 -2.172284,0.6862 -0.403832,0.23624 -1.25282,0.9389 -1.886624,1.56172 -0.633808,0.62283 -1.152378,1.07255 -1.152378,0.99939 0,-0.49282 0.963576,-2.51321 1.762967,-3.69654 0.524063,-0.77574 0.921231,-1.44205 0.882608,-1.48069 -0.03845,-0.0384 -0.513866,0.15382 -1.056089,0.42743 -0.542223,0.27372 -1.027209,0.45633 -1.077734,0.4058 -0.155866,-0.15591 0.379227,-1.11119 1.158125,-2.06742 0.89252,-1.09578 0.846634,-1.08997 -1.908302,0.24143 -5.069864,2.4504 -7.020504,4.2912 -7.549222,7.1242 -0.08789,0.47089 -0.163283,2.36634 -0.167618,4.21212 -0.0043,1.84579 -0.06733,4.33209 -0.1401,5.52512 -0.118924,1.94984 -0.17826,2.25364 -0.587224,3.00497 -0.258378,0.47475 -0.863295,1.1857 -1.400186,1.64564 -1.854838,1.589 -2.829748,2.56638 -3.106633,3.11453 -0.75911,1.5028 -2.38758,8.08338 -3.127101,12.63643 -0.427785,2.63378 -0.474853,10.9089 -0.06059,10.65287 0.06768,-0.0417 0.285933,-0.52458 0.485101,-1.07284 1.105908,-3.04449 3.580773,-7.40216 6.209629,-10.93371 1.159276,-1.55737 4.358415,-5.53568 5.494031,-6.83219 0.947183,-1.08136 4.052491,-4.89181 5.273837,-6.47139 0.942662,-1.21916 1.396887,-1.69633 1.437404,-1.51002 0.130641,0.60079 -0.35609,2.92995 -0.874636,4.1854 -0.30263,0.73277 -0.593303,1.4396 -0.645875,1.57074 -0.172671,0.43067 1.229555,-1.01112 2.009625,-2.06632 0.420071,-0.56826 1.000888,-1.45679 1.290701,-1.97451 0.674841,-1.20551 0.780088,-0.89087 0.225414,0.67387 -1.34094,3.78266 -3.272023,6.45781 -8.683749,12.02966 -4.823278,4.96598 -5.610969,5.87093 -7.125128,8.18587 -2.433046,3.71974 -3.44302,6.87199 -3.637154,11.35194 l -0.102763,2.37135 -0.995244,-0.8289 C 65.19566,158.91344 59.807285,142.11728 63.61975,130.91296 c 0.487709,-1.43332 1.176933,-2.99764 1.750329,-3.97271 0.407931,-0.69368 0.424743,-0.70375 0.532892,-0.31893 0.06142,0.2185 0.118817,0.6697 0.127524,1.00251 0.01899,0.71479 0.326386,2.01753 0.476469,2.01753 0.05772,0 0.195316,-0.57386 0.30564,-1.27521 0.227779,-1.44763 0.881103,-3.40769 2.164373,-6.49348 0.486269,-1.1693 0.884131,-2.15281 0.884131,-2.18556 0,-0.033 -0.143038,-0.0594 -0.317894,-0.0594 -0.857763,0 0.09495,-1.01323 1.814628,-1.92989 0.531839,-0.2835 1.462902,-0.66686 2.069037,-0.85198 l 1.102057,-0.33653 -1.022587,-0.38789 c -1.507988,-0.57206 -3.249023,-0.54367 -4.431406,0.0722 -1.791958,0.93351 -3.616142,3.16774 -4.933688,6.04274 -0.634545,1.38463 -1.787045,4.54124 -2.500523,6.84874 l -0.442319,1.43055 -0.04518,-1.61736 c -0.05439,-1.94767 0.322803,-3.99189 1.246417,-6.75477 0.344661,-1.03105 0.626656,-1.92156 0.626656,-1.97894 0,-0.22241 -1.578336,0.0978 -2.399935,0.48672 -0.475329,0.22502 -1.506688,0.90717 -2.29191,1.51584 -1.78318,1.38216 -3.270866,2.38793 -3.532162,2.38793 -0.109858,0 0.474137,-0.60864 1.297778,-1.35251 2.345145,-2.11809 3.271528,-3.30887 2.879299,-3.70111 -0.203987,-0.20388 -1.421474,-0.0574 -2.748125,0.33065 -0.721232,0.2109 -1.311325,0.32273 -1.311325,0.24824 0,-0.0743 0.357631,-0.3923 0.794743,-0.70634 0.882476,-0.63398 1.051732,-1.18716 0.460105,-1.50378 -0.522637,-0.2797 -1.299322,-0.0441 -2.448364,0.74265 -0.948932,0.64975 -1.949902,1.17368 -2.242284,1.17368 -0.05948,0 0.130605,-0.16085 0.422306,-0.35763 0.291702,-0.19661 0.901058,-0.84079 1.354105,-1.4313 0.453039,-0.5905 1.011737,-1.22156 1.241547,-1.40232 0.229786,-0.18066 0.417842,-0.38252 0.417842,-0.44832 0,-0.0657 -0.311266,-0.52048 -0.691746,-1.01046 -0.793403,-1.02174 -1.853448,-3.00936 -2.224835,-4.17162 -0.427678,-1.33841 -0.739162,-3.53617 -0.740731,-5.22637 -0.0012,-1.50619 -0.03296,-1.66296 -0.493729,-2.46683 -1.057196,-1.84365 -3.900703,-4.263077 -7.218766,-6.142151 -2.05666,-1.164743 -2.935575,-1.545977 -2.935575,-1.273308 0,0.508652 1.569102,2.263231 3.52568,3.94241 1.164349,0.999279 2.215163,1.935599 2.335144,2.080749 0.196749,0.23802 0.157801,0.26375 -0.397372,0.26296 -0.338533,-4.7e-4 -0.888621,-0.0766 -1.222413,-0.16948 -0.823584,-0.22864 -1.127067,0.0183 -0.999999,0.81253 0.164322,1.02744 -0.475068,1.36909 -3.396827,1.81514 -0.916186,0.14003 -1.730399,0.31894 -1.809346,0.39787 -0.279269,0.27927 3.137132,2.26161 6.080558,3.52822 0.383935,0.16529 0.670026,0.3281 0.635793,0.362 -0.03404,0.0337 -0.760406,0.18045 -1.613737,0.32564 -3.130526,0.53264 -4.925465,1.25291 -5.013875,2.01199 -0.09295,0.79801 1.686152,1.82089 4.553945,2.61819 0.538045,0.14966 0.975756,0.31391 0.972681,0.36514 -0.0031,0.0513 -0.691359,0.48654 -1.529544,0.96737 -1.53043,0.87791 -3.240144,2.46172 -3.909733,3.62176 l -0.279017,0.48342 3.100366,-0.09 c 1.705204,-0.0495 3.100374,-0.0467 3.100374,0.005 0,0.0526 -0.482811,0.40832 -1.072901,0.79018 -1.418808,0.91812 -2.951961,2.35451 -3.677514,3.44539 -0.642672,0.9663 -1.025743,1.7558 -0.908715,1.87284 0.04124,0.0412 0.797793,-0.0396 1.681282,-0.17937 1.679914,-0.26608 2.558105,-0.31119 3.120268,-0.16034 0.291021,0.0782 0.113692,0.31062 -1.362962,1.78729 -1.573667,1.57367 -3.660562,4.13968 -3.660562,4.50097 0,0.0858 0.125194,0.11914 0.278157,0.074 0.672552,-0.19789 7.078899,-1.53658 7.126418,-1.48905 0.02902,0.029 -0.570099,0.85205 -1.331401,1.82894 -0.761306,0.97689 -1.591196,2.14723 -1.844215,2.60074 l -0.460022,0.82456 0.5395,-0.10613 c 1.494856,-0.29374 4.937088,-1.57919 7.089769,-2.64748 2.040695,-1.01274 2.362842,-1.13296 2.066332,-0.77123 -0.193166,0.2357 -0.87053,1.03923 -1.505176,1.7856 -1.353932,1.59228 -3.007033,3.98768 -3.718351,5.38801 -0.674113,1.32706 -1.55172,3.50704 -1.467011,3.64411 0.03726,0.0605 1.479101,-0.78807 3.203675,-1.88588 1.724566,-1.09784 3.211618,-2.02603 3.304532,-2.06266 0.10538,-0.0415 0.0598,0.45904 -0.121002,1.32978 -0.432396,2.08237 -0.674415,5.44109 -0.507201,7.0391 l 0.141354,1.35105 1.271596,-1.64645 c 1.172121,-1.51766 3.115232,-4.22149 3.500708,-4.87122 0.114588,-0.19317 0.144866,0.37793 0.102227,1.93008 -0.04364,1.58724 0.01254,2.60483 0.200798,3.63446 0.314347,1.72013 0.883876,3.73474 1.055838,3.73474 0.179478,0 1.086445,-1.54952 2.139825,-3.65582 l 0.914154,-1.82792 0.36699,1.37747 c 0.410271,1.53994 1.228326,3.79136 2.151718,5.92185 0.338067,0.78002 0.61468,1.45741 0.61468,1.50533 0,0.048 -0.405881,-0.32857 -0.90195,-0.83667 -1.741009,-1.78315 -1.959279,-1.76957 -3.017901,0.18801 -0.935327,1.72947 -2.236637,3.6858 -2.451735,3.6858 -0.257268,0 -0.888403,-1.52478 -1.348776,-3.25845 -0.511337,-1.92556 -0.902484,-2.73405 -1.441576,-2.97967 -0.346702,-0.15798 -0.508681,-0.12774 -1.096209,0.20492 -0.789031,0.44683 -2.71613,1.91894 -4.683027,3.57736 -1.452357,1.2246 -4.291614,4.11654 -4.291614,4.37125 0,0.0852 0.268232,0.0392 0.596056,-0.10273 2.385258,-1.03149 4.744728,-1.65389 6.26965,-1.65389 h 0.83906 l -0.792619,0.52758 c -0.435944,0.29016 -1.221787,0.76791 -1.74632,1.06165 -1.679412,0.94043 -3.158656,2.0031 -3.912391,2.8106 -0.807613,0.86519 -1.200764,1.48128 -0.945288,1.48128 0.08822,0 1.074227,-0.54538 2.191139,-1.21195 2.303968,-1.37502 2.37816,-1.41713 2.269176,-1.28815 -0.04371,0.0516 -1.045092,1.08246 -2.225286,2.2905 -2.14363,2.19422 -3.621843,3.86542 -3.41906,3.86542 0.05905,0 2.229435,-1.27803 4.823005,-2.84006 6.028442,-3.63076 9.080372,-5.23597 12.424588,-6.53488 l 0.87422,-0.33954 -2.003168,2.0359 c -2.173607,2.20913 -2.654831,2.73275 -4.062388,4.42032 -3.557497,4.26516 -6.435739,9.05005 -7.648854,12.7157 -0.500602,1.5127 -0.919003,3.54595 -0.801942,3.89712 0.03845,0.11523 0.704327,-0.78599 1.479818,-2.00274 5.779691,-9.06838 9.999457,-14.33509 13.626495,-17.00732 0.994022,-0.73236 2.352759,-1.49719 2.659743,-1.49719 0.08843,0 -0.270848,0.64634 -0.798405,1.43631 -2.931745,4.3901 -5.073956,9.63519 -5.073956,12.42332 0,1.11158 -0.263324,1.12305 2.640036,-0.11499 1.115253,-0.47551 2.053579,-0.83872 2.085164,-0.80715 0.116093,0.11602 -4.071166,3.13134 -6.819158,4.91051 -3.300957,2.13719 -5.977608,3.55468 -10.939829,5.79345 -0.390567,0.17622 -0.387819,0.17966 0.158948,0.20571 4.616327,0.22029 9.294836,-1.09224 14.257511,-3.99974 1.930277,-1.13092 4.56879,-2.95116 8.869523,-6.1189 4.237169,-3.12093 6.278469,-4.55748 6.278469,-4.41849 0,0.054 -0.885819,1.57565 -1.968487,3.38125 -2.59337,4.32502 -3.401069,5.95403 -3.814737,7.69373 -0.07181,0.30194 -0.0416,0.4369 0.09778,0.43645 0.25132,-0.002 3.451641,-2.65234 5.048438,-4.18274 0.654994,-0.62778 2.696957,-2.6096 4.537684,-4.40408 4.152568,-4.04823 7.970702,-7.2969 6.894644,-5.86635 -0.605332,0.80475 -1.593482,2.54716 -2.660044,4.69046 -2.589245,5.20314 -3.87297,9.9927 -3.145177,11.73455 0.450513,1.07824 1.255859,1.28051 2.89471,0.72706 0.88847,-0.30005 1.204437,-0.56903 4.680107,-3.98451 3.244479,-3.18826 7.103134,-6.59678 7.274271,-6.42566 0.03082,0.0312 -0.295536,0.58092 -0.72584,1.22184 -4.89059,7.28431 -6.893758,13.86648 -5.679234,18.66128 0.361142,1.42568 1.966212,4.47716 2.200422,4.18329 0.106061,-0.13297 2.322575,-4.91327 4.635272,-9.99653 5.241092,-11.51983 7.822392,-16.63016 10.854592,-21.48935 1.31438,-2.10633 1.49507,-2.37096 1.56866,-2.29739 0.0361,0.0361 -0.11234,0.77144 -0.32969,1.63421 -0.47264,1.87615 -0.94831,4.23157 -1.3221,6.54682 -0.34839,2.15784 -0.39389,8.55128 -0.0738,10.3604 0.27673,1.56373 1.10975,4.80168 1.27885,4.97079 0.1859,0.18589 2.10515,-2.8058 3.03042,-4.7237 1.98158,-4.10742 3.42062,-9.66168 4.16715,-16.08393 0.1057,-0.90928 0.24211,-1.59828 0.30313,-1.53117 0.061,0.067 0.23122,1.91024 0.37809,4.0958 0.54984,8.17828 0.98786,11.83478 1.83116,15.28634 0.80371,3.28945 2.16276,6.57571 3.73756,9.03751 0.69858,1.09208 0.66428,1.12284 1.34301,-1.20538 1.33634,-4.58403 1.55062,-9.56446 0.74162,-17.23739 -0.11061,-1.04905 -0.18438,-1.92976 -0.16403,-1.95711 0.0204,-0.0276 0.33932,0.86673 0.70875,1.98686 3.06769,9.30201 6.75821,15.06658 9.95658,15.55203 1.34032,0.20334 2.69782,-1.09106 3.314,-3.16018 1.1145,-3.74243 0.50419,-10.41232 -1.5962,-17.44487 -0.30295,-1.01435 -0.55083,-1.90424 -0.55083,-1.9775 0,-0.2806 1.20077,1.85405 2.31287,4.11167 3.97712,8.07381 5.67101,16.89432 5.42343,28.24141 -0.21238,9.73274 -1.2028,16.2751 -5.90505,39.00527 -0.4864,2.35122 -0.85617,4.30317 -0.82171,4.33764 0.10484,0.10481 2.62327,-2.65025 3.64477,-3.98715 4.37591,-5.72712 7.46427,-12.86102 10.05327,-23.22245 0.97024,-3.883 0.99572,-3.95559 1.11588,-3.17897 0.15067,0.97353 -0.14938,5.67756 -0.48665,7.62954 -0.13594,0.78679 -0.43096,2.20402 -0.6556,3.14941 -0.22466,0.94542 -0.37499,1.75233 -0.33416,1.79319 0.12741,0.12753 2.46995,-2.14926 3.685,-3.58143 2.20372,-2.59745 4.23381,-6.1209 5.40903,-9.38808 0.48472,-1.34759 1.50561,-5.27078 1.52968,-5.87853 l 0.0161,-0.39995 0.12727,0.39737 c 0.22563,0.70453 0.17378,4.95989 -0.0781,6.40402 -0.62117,3.56204 -2.20182,6.83216 -4.53789,9.38818 -1.31953,1.4438 -0.79399,1.22194 0.75982,-0.32072 2.81649,-2.79626 4.64332,-6.10294 5.76363,-10.43247 1.16663,-4.50855 1.38136,-9.27938 0.70525,-15.6693 -0.0668,-0.63062 -0.0532,-0.67833 0.0959,-0.33717 0.26085,0.597 1.0354,3.52626 1.40799,5.32477 0.68776,3.31982 0.86831,5.24228 0.86586,9.21903 -0.002,4.06987 -0.19922,6.15966 -0.93511,9.93377 -2.53229,12.98711 -10.09432,26.3917 -21.30513,37.76575 -1.17368,1.19076 -2.13397,2.19896 -2.13397,2.24039 0,0.10273 0.88903,-0.44433 2.78161,-1.71179 z m 15.81539,-112.55045 c -0.56824,-0.0811 -1.6769,-0.36232 -2.4637,-0.62506 -1.42963,-0.47747 -4.55663,-2.02091 -5.00689,-2.47137 -0.21198,-0.21198 -0.15024,-0.2271 0.55632,-0.13637 1.25899,0.16163 2.76634,0.51464 4.00385,0.93725 2.52512,0.86238 5.91083,2.22629 5.83419,2.35029 -0.10244,0.16583 -1.56989,0.13816 -2.92377,-0.0548 z M 53.102059,254.95082 c 1.001149,-1.40299 2.90049,-3.28407 4.361955,-4.32001 0.655464,-0.46462 2.514999,-1.70812 4.132294,-2.76333 2.48225,-1.61952 3.215005,-2.1939 4.70148,-3.68528 2.43186,-2.43984 4.115626,-5.10496 5.622299,-8.89909 0.572676,-1.44215 1.78228,-5.37212 1.683784,-5.47062 -0.03648,-0.0365 -0.365769,0.53117 -0.731734,1.26147 -1.405691,2.80488 -4.540011,6.99404 -6.761947,9.03758 -2.744297,2.52399 -5.814572,4.63792 -8.88497,6.11744 -2.844098,1.37048 -2.623532,1.34065 -2.617999,0.3539 0.0075,-1.31299 0.430658,-5.61872 0.70658,-7.18745 0.543767,-3.09148 1.589501,-6.64053 2.869442,-9.73852 l 0.704746,-1.70577 -0.647022,0.71209 c -1.59274,1.75301 -3.693323,5.4626 -4.983508,8.80077 -2.38539,6.17192 -3.522074,13.7172 -2.940398,19.51816 0.248275,2.4758 0.230646,2.46646 1.191474,0.63137 0.464634,-0.8874 1.18172,-2.08565 1.593524,-2.66274 z m 51.966721,-7.851 c 5.08782,-0.71923 11.26221,-3.47028 16.21277,-7.22372 9.25458,-7.01669 15.11627,-17.01451 16.28372,-27.77379 0.23433,-2.15983 0.20001,-6.84155 -0.0666,-9.08353 -0.20141,-1.69367 -0.40083,-2.56507 -0.40227,-1.75776 0,0.16765 -0.0749,1.12722 -0.16582,2.13255 -1.38138,15.27618 -8.93718,28.02058 -19.83987,33.46406 -1.47353,0.73572 -4.65793,1.91939 -5.92979,2.20418 l -0.42479,0.0952 0.38626,-1.2318 c 2.11906,-6.75751 3.53531,-14.785 4.04514,-22.92827 0.17858,-2.8521 0.19305,-13.12839 0.0211,-15.1796 -0.0986,-1.17835 -0.12118,-1.0301 -0.30826,2.02167 -0.64153,10.4655 -2.66879,18.87072 -6.23832,25.86453 -1.97746,3.87444 -4.11138,6.82984 -7.06795,9.78881 -1.910872,1.91243 -4.878154,4.3669 -5.279249,4.3669 -0.381308,0 -1.418191,-2.88623 -1.984633,-5.52426 -0.32592,-1.51787 -0.36589,-2.12353 -0.359061,-5.44319 0.0082,-3.8929 0.22219,-5.9014 1.018599,-9.55041 0.17672,-0.80966 0.28665,-1.50679 0.244261,-1.54918 -0.182022,-0.18199 -2.253513,4.57986 -3.203571,7.3643 -1.313769,3.8504 -1.710943,6.19396 -1.607298,9.484 0.06543,2.07746 0.139491,2.62983 0.501666,3.74282 1.109001,3.40805 3.847612,5.7866 7.567302,6.5724 1.535994,0.32449 4.814134,0.39615 6.596374,0.14419 z M 51.783754,227.9532 c 2.344163,-0.40879 4.566458,-1.343 6.588273,-2.76964 3.518301,-2.48255 6.413287,-6.2358 9.267203,-12.01463 1.49678,-3.03078 3.245465,-7.05685 3.119708,-7.1826 -0.03261,-0.0326 -0.371774,0.42097 -0.753978,1.0076 -3.523376,5.40787 -8.40126,10.38343 -13.336055,13.60308 -1.798321,1.17329 -5.374874,3.06543 -5.520012,2.92028 -0.196534,-0.19661 -0.239424,-6.89976 -0.0545,-8.52059 0.890617,-7.80654 4.056658,-14.13449 10.250332,-20.48728 2.012148,-2.06382 1.893568,-2.19419 -0.357774,-0.39325 -5.364139,4.291 -11.081584,12.84199 -13.536315,20.24488 -1.082346,3.2641 -1.351829,4.81675 -1.351829,7.78848 0,2.77482 0.11208,3.46092 0.837414,5.1261 l 0.398114,0.91394 h 1.546958 c 0.850823,0 2.156931,-0.10635 2.902457,-0.23648 z m 21.985858,-3.20236 c 0.473272,-0.49254 0.860601,-0.97535 0.86074,-1.07291 1.33e-4,-0.0975 0.125302,0.073 0.278158,0.37879 0.353654,0.70769 0.811054,0.91875 2.451549,1.13111 4.321046,0.55943 9.807083,-0.96424 14.307844,-3.97385 8.089829,-5.40957 14.483117,-16.34349 16.972197,-29.02623 0.26501,-1.3504 0.47772,-2.54658 0.47266,-2.6582 -0.005,-0.11158 -0.42112,0.97725 -0.92457,2.41972 -1.79989,5.15689 -3.61585,8.86462 -6.46152,13.19274 -1.876891,2.85466 -3.641428,5.0099 -6.188109,7.5582 -5.768039,5.77179 -11.618332,8.67922 -18.549054,9.21843 l -1.375886,0.10714 -0.170341,-0.85203 c -0.549561,-2.74927 -0.655206,-6.99814 -0.251213,-10.10267 0.396143,-3.04411 1.261416,-6.29812 2.569821,-9.66427 0.808718,-2.08062 3.02176,-6.54343 4.323762,-8.71929 0.620203,-1.03649 1.127648,-1.92241 1.127648,-1.96869 0,-0.0464 -0.416294,0.44406 -0.925087,1.08973 -7.145673,9.06809 -10.905667,16.79461 -11.6403,23.92004 -0.48658,4.7195 0.58497,9.91787 2.044392,9.91787 0.119211,0 0.604003,-0.403 1.077269,-0.89556 z M 184.61243,194.35398 c 0.23498,-1.91556 0.20513,-5.34592 -0.064,-7.368 -0.66752,-5.01478 -2.72616,-10.24412 -5.90259,-14.99376 -1.26325,-1.88888 -1.9549,-2.68984 -2.43007,-2.81409 -0.61085,-0.15985 -4.15009,1.35918 -4.15009,1.78106 0,0.061 0.54764,0.92858 1.21698,1.92765 2.77391,4.14046 5.01154,9.84 6.50103,16.559 0.24709,1.11463 0.5071,2.0266 0.57776,2.0266 0.35258,0 -0.0365,-5.17055 -0.58636,-7.78905 -0.25562,-1.21764 -1.40784,-5.86847 -1.59519,-6.43885 -0.29045,-0.88425 0.67998,0.71783 1.83053,3.02201 2.536,5.07881 3.77766,10.27283 3.83492,16.0417 l 0.0176,1.76055 0.29069,-1.17162 c 0.15988,-0.64441 0.3664,-1.78887 0.45892,-2.5432 z M 113.3467,147.20524 c 0.2434,-2.17136 1.10471,-7.32908 1.5405,-9.22508 l 0.21781,-0.94766 0.19754,1.19212 c 0.27271,1.6458 0.78298,3.68924 0.96725,3.87352 0.0981,0.098 0.39432,-0.34971 0.82523,-1.24773 0.53552,-1.11603 0.69701,-1.3395 0.79448,-1.09933 0.0673,0.16583 0.34347,0.88859 0.61381,1.60618 0.27031,0.71762 0.84,1.83861 1.26596,2.49113 0.78675,1.20518 2.82734,3.47975 3.39371,3.78287 0.27637,0.14784 0.29966,0.12466 0.2099,-0.20936 -0.48338,-1.79841 -2.00863,-9.79664 -2.0113,-10.54706 0,-0.0865 0.37495,0.46827 0.83392,1.23323 1.40851,2.34758 2.83841,4.25898 4.25188,5.68362 1.31339,1.32378 3.36925,2.84266 3.46378,2.55907 0.0258,-0.0774 -0.41583,-1.34722 -0.98134,-2.82204 -1.71852,-4.48185 -2.93021,-7.7653 -2.88377,-7.81437 0.0244,-0.0258 0.64299,0.38335 1.37505,0.90879 2.27883,1.63555 4.4974,2.6977 10.39111,4.97482 1.57359,0.60799 2.95049,1.14248 3.05976,1.18779 0.30568,0.12674 0.24817,-0.32323 -0.35588,-2.78317 -0.91238,-3.71575 -1.87874,-6.44289 -3.39304,-9.57541 -0.42024,-0.86931 -0.73894,-1.58057 -0.70821,-1.58057 0.0305,0 0.50334,0.37958 1.05025,0.84356 1.15057,0.97605 3.35501,2.36939 4.95663,3.13287 1.89481,0.90326 4.44789,1.88484 4.50374,1.73156 0.12634,-0.34674 -3.16404,-6.02399 -4.73227,-8.16514 -0.92844,-1.26765 -0.92134,-1.31151 0.0796,-0.49103 1.19871,0.9826 3.29739,1.98037 5.63269,2.67789 2.45769,0.73407 2.70213,0.78655 2.70213,0.57996 0,-0.39128 -2.01615,-3.04677 -3.96635,-5.22414 l -1.19852,-1.33812 0.79426,0.0993 c 0.43684,0.0545 2.00528,0.28024 3.48542,0.50138 1.48012,0.22108 2.71738,0.37585 2.74947,0.34373 0.0323,-0.0322 -0.38778,-0.61284 -0.93296,-1.29057 -1.16689,-1.45052 -2.41343,-2.51058 -4.45397,-3.78761 -1.38535,-0.867 -1.44187,-0.92235 -0.84843,-0.8307 4.07882,0.62975 13.59011,0.47801 13.59011,-0.21692 0,-0.24534 -2.91552,-1.46948 -5.99383,-2.51666 -2.48508,-0.84537 -3.02889,-1.07854 -2.5894,-1.11022 1.09641,-0.079 3.12923,-0.37742 4.82924,-0.70883 1.51364,-0.29507 1.69386,-0.36342 1.44254,-0.54719 -0.41619,-0.30435 -4.70278,-1.96397 -7.38442,-2.85904 l -2.30476,-0.76927 2.07749,-0.11079 c 3.5596,-0.19009 7.18184,-1.08759 10.73158,-2.65922 2.02576,-0.8969 2.3518,-1.08449 2.05263,-1.18101 -0.1311,-0.0422 -2.95644,-0.27081 -6.27847,-0.50784 -3.32202,-0.23702 -6.06902,-0.45705 -6.10445,-0.48904 -0.0355,-0.0323 0.46527,-0.28844 1.11264,-0.5699 2.36427,-1.02791 5.83015,-2.82913 7.29689,-3.792255 1.76795,-1.16088 3.29808,-2.375522 2.99259,-2.375522 -0.57028,0 -9.54326,0.82697 -11.19147,1.03143 -1.03161,0.128024 -1.89826,0.21015 -1.92585,0.182524 -0.0276,-0.02759 0.96949,-0.731104 2.21578,-1.563316 2.85736,-1.90804 4.76819,-3.388363 6.54624,-5.071451 1.36787,-1.294815 3.40919,-3.639232 3.1687,-3.639232 -0.0668,0 -1.69866,0.544029 -3.62629,1.208984 -3.65825,1.26191 -6.34536,2.308099 -7.72861,3.009058 -0.44807,0.227098 -0.84689,0.380642 -0.88625,0.341256 -0.10667,-0.106633 2.21158,-2.055038 3.50452,-2.945364 1.70666,-1.175192 3.83308,-2.361416 7.99993,-4.462712 5.92246,-2.986638 8.60752,-4.734932 10.73404,-6.989141 1.10149,-1.167635 2.719,-3.34949 2.58356,-3.484939 -0.0431,-0.04328 -0.51684,0.266011 -1.05267,0.686984 -2.80454,2.203368 -7.05591,4.461852 -14.20876,7.548194 -6.84106,2.951828 -9.78822,4.441489 -12.71106,6.424933 -1.98551,1.347353 -2.02049,1.358873 -1.038,0.341865 1.02422,-1.060166 2.95211,-2.377089 6.31635,-4.314621 1.33217,-0.767211 2.38668,-1.430364 2.34335,-1.473698 -0.14677,-0.146765 -2.05413,-0.01075 -4.24848,0.305532 -4.04699,0.581261 -8.62355,2.185901 -11.60826,4.070059 -1.64734,1.039929 0.0122,-0.564054 1.87226,-1.809644 2.74031,-1.834987 5.85174,-3.147481 12.74777,-5.377364 6.19203,-2.00224 7.81986,-2.605039 10.29979,-3.814102 4.40166,-2.146006 7.16393,-4.70602 8.97245,-8.315509 0.27819,-0.555211 0.47547,-1.03985 0.43837,-1.076924 -0.0373,-0.03687 -0.31829,0.238313 -0.62495,0.612129 -1.50135,1.829932 -4.16425,4.15777 -6.22688,5.443329 -1.73225,1.079691 -5.83494,2.786321 -6.69818,2.786321 -0.0722,0 0.43624,-0.389822 1.12978,-0.866259 1.636,-1.12386 3.2413,-2.727815 4.21971,-4.216197 0.76966,-1.170842 1.65691,-3.198454 1.83217,-4.187073 0.0891,-0.502471 0.0851,-0.500565 -0.59735,0.288907 -3.05642,3.535626 -6.13642,5.950047 -9.92674,7.78162 -0.82192,0.397189 -1.54283,0.722135 -1.60204,0.722135 -0.0592,0 0.31527,-0.298474 0.83218,-0.663314 6.41622,-4.52857 11.85646,-12.620689 13.17865,-19.602635 0.32452,-1.713724 0.47685,-3.961989 0.25935,-3.827532 -0.0988,0.06102 -0.17959,0.205205 -0.17959,0.32051 0,0.40887 -0.94867,3.283242 -1.56285,4.735301 -1.52195,3.598195 -3.42554,6.377378 -6.4639,9.437122 -2.40352,2.420448 -3.90394,3.644478 -6.75548,5.511061 -3.79392,2.483468 -7.08602,4.160924 -15.87258,8.087633 -6.44842,2.881803 -10.1316,4.632731 -9.90441,4.708471 0.0933,0.03117 0.90653,-0.154074 1.80718,-0.41145 1.75807,-0.502447 2.98858,-0.750133 2.98858,-0.601548 0,0.05056 -0.71763,0.452128 -1.59476,0.892282 -1.99179,0.999544 -2.21217,1.331294 -1.4243,2.144158 0.63598,0.656169 1.40787,0.942496 2.16022,0.801368 0.30302,-0.05686 1.13503,-0.38582 1.84889,-0.731025 1.29367,-0.625609 1.82239,-0.775792 1.62887,-0.462659 -0.0561,0.09076 -0.48274,0.379896 -0.94814,0.642536 -1.08317,0.611294 -1.67078,1.20223 -1.67078,1.680193 0,0.208824 0.24355,0.643732 0.54419,0.971749 0.47995,0.523612 0.62825,0.591949 1.25607,0.578839 0.4062,-0.0079 0.94719,-0.153824 1.2599,-0.338247 l 0.54804,-0.323376 -0.54718,0.813103 c -0.64978,0.965568 -0.63238,1.473931 0.0863,2.521241 0.25662,0.37401 0.72272,1.189535 1.03574,1.812278 0.92623,1.842677 1.14636,1.810371 3.38367,-0.496449 0.97505,-1.005359 1.85432,-1.827921 1.95395,-1.827921 0.0996,0 -0.31639,0.469331 -0.92446,1.042978 -2.21021,2.084999 -3.7805,4.371249 -3.40937,4.963829 0.35111,0.56064 1.71754,0.340683 4.2706,-0.687379 0.3017,-0.121503 0.30424,-0.112366 0.0506,0.177006 -0.14701,0.167905 -0.91117,0.653852 -1.69809,1.080107 -1.85267,1.003483 -2.32621,1.489993 -2.32621,2.389993 0,0.37421 0.10523,0.80721 0.23387,0.96218 0.23903,0.28798 0.50372,0.28787 2.78617,-0.001 0.59332,-0.0751 0.57178,-0.055 -0.32249,0.3002 -2.32057,0.92197 -3.37758,1.68885 -3.18108,2.30792 0.16109,0.50765 1.6306,1.12177 3.6887,1.54154 1.03466,0.2109 2.06002,0.38895 2.27858,0.39541 l 0.39737,0.0108 -0.39737,0.16192 c -0.27339,0.11133 -0.92028,0.10506 -2.07347,-0.0208 -3.38607,-0.36761 -4.49014,-0.19395 -4.99706,0.78638 -0.30779,0.59518 -0.3037,0.87452 0.0197,1.36839 0.53729,0.82001 2.31011,1.57066 5.79519,2.45387 2.52398,0.63964 2.91,0.82152 1.49389,0.7038 -1.6966,-0.14103 -3.99349,-0.64234 -6.12205,-1.33632 -2.10789,-0.68722 -2.39672,-0.67916 -2.99663,0.0834 -0.83907,1.0667 -0.26569,1.81136 2.52231,3.27583 2.11177,1.10924 2.59843,1.40133 2.4996,1.50014 -0.17149,0.17156 -2.69213,-0.7859 -3.5802,-1.35989 -2.29844,-1.48557 -2.8902,-1.48601 -4.22978,-0.003 -0.9538,1.05576 -0.69336,1.57223 1.64845,3.26924 0.96723,0.70091 1.41455,1.11208 1.24528,1.14466 -0.35898,0.0691 -1.02083,-0.29241 -2.22541,-1.21566 -1.9369,-1.48454 -2.72626,-1.64332 -3.99427,-0.80342 -0.97847,0.64811 -1.04306,0.98286 -0.4256,2.20602 0.27476,0.54424 0.46155,1.02753 0.41514,1.07393 -0.0464,0.0464 -0.47977,-0.27701 -0.96304,-0.71869 -1.27508,-1.16536 -1.6799,-1.25941 -3.21003,-0.74575 -0.683,0.22917 -1.33852,0.4971 -1.45668,0.59519 -0.25473,0.21144 -0.19102,0.65144 0.27858,1.92366 0.1893,0.51287 0.31313,0.96363 0.27508,1.00165 -0.038,0.038 -0.34556,-0.26694 -0.68346,-0.67773 -0.33789,-0.4108 -0.88164,-1.03 -1.20838,-1.37604 l -0.59408,-0.62912 -1.3133,0.10871 c -1.94296,0.16084 -2.4818,0.33151 -2.60566,0.82501 -0.0569,0.22656 -0.0637,1.02875 -0.0154,1.78248 0.11699,1.81759 -0.0702,2.3337 -0.41047,1.13197 -0.13616,-0.48084 -0.29471,-1.24896 -0.35236,-1.70698 -0.20843,-1.65662 -1.21628,-2.43142 -2.40488,-1.8489 -0.8456,0.41442 -1.20956,1.04556 -1.72558,2.99242 -0.48304,1.82242 -0.8582,2.59399 -0.86733,1.78383 -0.003,-0.24666 0.17607,-1.23513 0.39747,-2.19645 0.44281,-1.9228 0.41133,-2.62611 -0.13956,-3.1169 -0.37641,-0.33552 -1.85223,-0.99342 -2.22817,-0.99342 -0.6955,0 -1.09565,1.18041 -1.45483,4.29163 -0.81832,7.08808 -1.86822,11.37194 -3.7988,15.50006 -0.63093,1.3491 -2.09295,3.73729 -2.957521,4.83104 -0.34767,0.43984 -0.632127,0.84201 -0.632127,0.89374 0,0.16919 1.450678,-0.94143 2.290278,-1.75364 0.45185,-0.43711 1.19429,-1.24549 1.64986,-1.79643 0.45557,-0.55091 0.82832,-0.90188 0.82832,-0.77988 0,0.60773 -1.11268,3.21222 -2.17598,5.09341 -0.29386,0.51986 -0.50565,0.97378 -0.47069,1.00874 0.14673,0.14677 1.9367,-1.68014 2.89011,-2.94969 1.07698,-1.43412 1.76843,-2.6355 2.89312,-5.02669 0.79664,-1.69375 0.84717,-1.49033 0.35534,1.43053 -0.45483,2.70114 -1.5432,6.91676 -2.70122,10.46273 -0.20495,0.62762 -0.0151,0.49945 1.01969,-0.68737 1.79746,-2.06208 3.32594,-4.67914 4.40706,-7.54577 l 0.53789,-1.42622 0.11595,2.1415 c 0.22255,4.10989 0.76163,6.74951 1.76722,8.65327 l 0.50106,0.94857 0.11996,-1.26647 c 0.066,-0.69656 0.23226,-2.26784 0.36946,-3.49174 z m 78.31874,3.30289 c 2.12061,-1.111 4.08838,-3.45985 5.0262,-5.99955 0.77323,-2.09402 0.98878,-3.38295 1.07794,-6.44585 0.13154,-4.5197 -0.54313,-8.95587 -2.19533,-14.43432 -0.7712,-2.55717 -2.02292,-5.98876 -2.1413,-5.87039 -0.0323,0.0323 0.1951,1.23495 0.50516,2.67277 2.57369,11.9359 2.54504,19.46367 -0.0953,25.05869 -0.86572,1.83444 -1.75109,3.08808 -3.31988,4.70078 l -1.35757,1.3955 0.67856,-0.23935 c 0.37318,-0.13168 1.19291,-0.50888 1.82157,-0.83823 z m -3.33028,-1.30866 c 2.26987,-1.09137 3.94611,-3.25497 4.86994,-6.28586 0.54953,-1.80291 0.67194,-2.70891 0.75164,-5.56321 0.0835,-2.99169 -0.1933,-6.3635 -0.67211,-8.18584 l -0.22971,-0.87422 0.0739,1.00158 c 0.37908,5.14041 0.22642,8.94808 -0.46867,11.68818 -0.76029,2.99712 -1.79736,4.83106 -3.99218,7.05962 -0.88251,0.89605 -1.53811,1.62922 -1.45687,1.62922 0.0812,0 0.58706,-0.21119 1.12409,-0.46947 z M 72.001166,132.16332 c 0.731498,-2.27053 1.890014,-4.68983 2.739023,-5.71986 0.792733,-0.96173 1.990735,-1.84265 2.803609,-2.06155 0.666217,-0.17937 2.748157,-0.11968 3.422235,0.0983 0.357273,0.11552 0.369849,0.0952 0.261137,-0.41844 -0.168693,-0.79709 -0.877,-2.02964 -1.366774,-2.37839 -0.235733,-0.1679 -0.79155,-0.39807 -1.235115,-0.51159 l -0.806482,-0.2065 0.511738,-0.20596 c 0.771979,-0.31072 0.23928,-0.39575 -0.724407,-0.11552 -2.063565,0.59991 -3.950881,2.38958 -5.214253,4.94456 -0.978812,1.97946 -1.427282,3.68805 -1.460258,5.56321 -0.02616,1.4896 0.138918,2.94054 0.334664,2.94054 0.06245,0 0.393154,-0.86787 0.734905,-1.92864 z m -8.700618,-15.18573 c 0.792317,-0.37602 1.240272,-1.61974 0.901412,-2.50279 -0.10692,-0.27858 -0.67975,-0.32538 -1.414583,-0.11552 -0.701948,0.20048 -2.530593,-0.0709 -3.515016,-0.52158 -1.157782,-0.53005 -2.499657,-1.89983 -3.083028,-3.14711 -0.626086,-1.33864 -0.894737,-3.10462 -0.674444,-4.43359 0.208646,-1.25863 0.02902,-1.73434 -0.749309,-1.98683 -0.636914,-0.20649 -1.412437,-0.0404 -1.71276,0.36663 -0.280128,0.37982 -0.251392,3.21931 0.04547,4.50026 0.887223,3.82751 3.217473,6.74427 6.21049,7.77366 1.204315,0.41419 3.189729,0.44749 3.991732,0.067 z m 19.197516,-1.8966 c 1.297247,-1.61592 5.289001,-5.51088 7.709011,-7.52206 2.41894,-2.01028 5.661105,-4.44014 10.093245,-7.564414 10.20327,-7.19248 15.38258,-11.544907 19.54091,-16.421232 2.4205,-2.838444 4.14174,-4.080433 11.93093,-8.608902 1.39875,-0.813175 3.27224,-1.967591 4.16331,-2.565306 1.64305,-1.102139 4.578,-3.450445 4.45996,-3.568501 -0.0355,-0.03547 -1.16764,0.54802 -2.51597,1.296616 -3.36796,1.869898 -15.47305,7.892557 -15.52859,7.725953 -0.0247,-0.07431 0.32206,-1.202126 0.77084,-2.506095 2.16523,-6.291701 3.89117,-9.858454 6.14672,-12.702527 0.48532,-0.611954 3.34824,-3.565477 6.36205,-6.563381 3.01381,-2.997928 5.44884,-5.481572 5.4112,-5.519198 -0.0377,-0.03766 -0.63662,0.005 -1.33107,0.09284 -0.69443,0.08868 -4.98201,0.224769 -9.52794,0.302128 -8.80142,0.149918 -10.34185,0.271493 -13.19273,1.040062 -3.02048,0.814296 -4.96989,1.832615 -6.78359,3.543573 -1.87796,1.771581 -2.35043,2.693034 -1.79064,3.492267 0.32739,0.467429 0.88023,0.447482 1.3463,-0.04848 0.20764,-0.221078 0.91751,-0.708938 1.57746,-1.084227 4.89062,-2.781006 10.54371,-4.166943 17.73056,-4.346873 1.92328,-0.04823 3.46111,-0.05135 3.4174,-0.0079 -0.0437,0.04432 -1.8206,0.806342 -3.94862,1.693462 -7.12426,2.969901 -10.15595,4.701799 -12.66152,7.233026 -1.60922,1.625676 -2.45671,2.952563 -3.00318,4.701953 -0.40003,1.280658 -0.62129,2.590754 -0.42423,2.51204 0.0665,-0.02651 0.65734,-0.692069 1.31286,-1.478861 3.15137,-3.782374 7.33285,-7.066684 12.24401,-9.616945 1.1779,-0.611638 2.19178,-1.1121 2.25307,-1.1121 0.0613,0 -0.30668,0.347993 -0.81773,0.773259 -2.0153,1.677173 -3.84846,4.105804 -5.77506,7.651022 -4.02184,7.400724 -4.24161,7.733879 -6.80736,10.318663 -3.25348,3.277584 -6.37827,5.745221 -13.60566,10.744323 -11.027177,7.627345 -15.699,12.117045 -19.142314,18.396015 -0.371537,0.67752 -0.714707,1.23188 -0.762588,1.23188 -0.205671,0 0.166006,-2.21883 0.595303,-3.55414 0.717942,-2.23306 1.918109,-4.117478 4.809249,-7.551132 0.766982,-0.910897 1.36145,-1.68924 1.321043,-1.729651 -0.144507,-0.144471 -1.959963,1.384557 -3.200823,2.695847 -1.476249,1.560054 -2.749919,3.399292 -3.860683,5.574966 -0.43675,0.85549 -0.840012,1.48116 -0.896138,1.39035 -0.146263,-0.23674 0.04572,-1.44555 0.501536,-3.1582 0.217245,-0.816196 0.360358,-1.518592 0.318074,-1.560908 -0.109787,-0.109787 -0.934743,1.129177 -1.502023,2.255768 -0.992861,1.97182 -1.229343,3.0824 -1.217196,5.71657 0.0097,2.129 0.05772,2.53725 0.447675,3.81389 0.608894,1.99348 2.460482,5.83244 2.79363,5.79213 0.04712,-0.005 0.514787,-0.54495 1.039316,-1.19835 z m 9.298498,-14.12963 c 0,-0.21198 1.76216,-2.420739 2.731183,-3.42336 1.760305,-1.8213 3.902351,-3.541047 7.918375,-6.357226 2.79912,-1.962844 5.10758,-3.732518 6.31593,-4.841831 0.63255,-0.580687 1.22612,-1.008824 1.31905,-0.951415 0.23799,0.147051 0.0624,0.333553 -2.31189,2.45419 -2.32992,2.081005 -6.14161,5.258706 -10.727336,8.94302 -1.704731,1.369645 -3.582307,2.892933 -4.172411,3.385102 -0.590094,0.49217 -1.072901,0.84835 -1.072901,0.79152 z M 88.22394,99.411302 c 1.759577,-2.557774 4.763977,-5.591498 7.943717,-8.021201 0.874217,-0.668009 3.270364,-2.323253 5.324773,-3.678292 2.05442,-1.355068 4.8444,-3.195115 6.19996,-4.088964 2.90354,-1.914611 5.16171,-3.585732 6.89293,-5.100965 1.83149,-1.60302 2.00859,-1.686607 1.14147,-0.538816 -1.24349,1.646039 -6.01271,6.307292 -8.35326,8.164204 -1.96045,1.555386 -3.7026,2.801029 -11.444301,8.182697 -2.583527,1.795956 -5.844911,4.20879 -7.705289,5.700505 l -0.94996,0.76173 z m 31.34114,16.077538 c 1.45711,-0.37028 3.48436,-1.30772 4.98423,-2.30484 1.38817,-0.92286 3.87647,-3.28457 4.65716,-4.42024 2.37063,-3.44856 2.44188,-8.45228 0.18622,-13.07518 -1.14637,-2.349452 -2.70254,-4.059575 -4.50338,-4.948913 -1.12797,-0.557017 -1.30531,-0.597012 -2.6468,-0.596904 -1.32562,1.29e-4 -1.52443,0.04353 -2.54768,0.556336 -1.13009,0.566323 -3.4993,2.703045 -3.38324,3.051246 0.0305,0.09155 0.65519,0.339715 1.38811,0.551306 4.29612,1.240297 6.85944,3.772621 7.10204,7.016159 0.33098,4.42508 -3.85015,9.52352 -8.83662,10.77537 -1.56915,0.39393 -3.78403,0.25784 -5.01018,-0.30751 -2.84016,-1.30988 -4.93217,-4.231 -5.96644,-8.33104 -0.0937,-0.37158 -0.22631,-0.67554 -0.2946,-0.67554 -0.29181,0 -1.49088,1.19952 -1.79507,1.79578 -0.27433,0.53766 -0.31912,0.85541 -0.26143,1.85263 0.0585,1.01075 0.16748,1.3898 0.68014,2.36536 1.06157,2.02015 3.47247,4.26135 5.8839,5.46971 3.22614,1.61663 7.04788,2.06883 10.36363,1.22629 z m 60.32756,-2.27908 c 1.49688,-0.38472 3.45983,-1.15274 3.45698,-1.35259 -0.005,-0.36911 -4.28471,-2.65255 -6.43603,-3.43415 -0.87422,-0.31764 -1.73255,-0.63398 -1.90739,-0.70305 -0.23691,-0.0936 -0.0344,-0.17392 0.79475,-0.31527 1.56677,-0.26716 3.51202,-0.79621 4.47683,-1.21762 2.32474,-1.01532 0.92704,-1.97088 -4.87421,-3.33228 -4.66974,-1.09588 -6.71987,-1.65577 -7.00388,-1.91282 -0.39206,-0.3548 -0.39213,-1.030205 0,-1.798351 0.39341,-0.771149 2.20851,-2.631218 4.97544,-5.098702 1.98109,-1.766675 3.24763,-3.13366 3.06896,-3.312336 -0.0377,-0.03766 -0.2691,0.07431 -0.51454,0.248453 -0.8564,0.607909 -4.44093,2.409104 -7.20158,3.61874 -3.87131,1.696285 -3.76429,1.569232 -1.40031,1.662389 l 2.01708,0.07951 -1.12533,1.351055 c -1.42003,1.704914 -2.12057,2.466572 -2.96282,3.221372 -0.65035,0.58282 -0.65849,0.60228 -0.30704,0.73407 0.19851,0.0746 1.75579,0.64248 3.46052,1.26228 1.70473,0.61982 3.66284,1.33384 4.35137,1.58675 l 1.25187,0.45984 -1.01344,0.60872 c -0.5574,0.3348 -2.19366,1.40951 -3.63611,2.38822 -1.44246,0.97871 -3.25629,2.1209 -4.03072,2.53819 -0.93918,0.50607 -1.33615,0.79774 -1.19212,0.87593 0.28016,0.152 4.49886,1.34073 5.93811,1.67313 3.48401,0.80471 7.09739,0.86676 9.81384,0.1687 z m 4.09761,-5.02819 c 0.83962,-0.42836 1.66454,-1.42307 1.99082,-2.40058 0.7392,-2.21469 -0.0706,-6.642306 -1.86743,-10.209764 -0.36612,-0.726901 -0.50119,-0.695484 -0.28245,0.06571 0.0863,0.300194 0.33814,1.353456 0.55972,2.340612 0.47836,2.131202 0.54564,4.798552 0.15823,6.271732 -0.29102,1.10671 -1.14565,2.83599 -1.81754,3.67777 -0.27125,0.33983 -0.49321,0.65182 -0.49321,0.69322 0,0.14705 1.18606,-0.14992 1.75189,-0.43867 z m -65.97087,-8.551991 c 0.82404,-0.609579 1.01627,-2.247065 0.35627,-3.034928 -0.46045,-0.549608 -1.29539,-0.805693 -1.93655,-0.593902 -1.50713,0.497824 -1.74816,3.057605 -0.36115,3.835221 0.5298,0.29704 1.38355,0.20624 1.9414,-0.206495 z M 161.8747,94.98105 c 1.79374,-0.413514 3.47839,-1.616059 5.4914,-3.91983 1.86001,-2.128692 1.83472,-2.207485 -0.31403,-0.978192 -1.74268,0.997018 -2.55203,1.525715 -5.37964,3.514192 l -2.20737,1.552308 0.8563,-0.0026 c 0.47095,-0.0021 1.16996,-0.0761 1.55333,-0.164501 z M 80.932172,92.010288 c 0.932543,-1.680196 1.829,-3.03344 2.904728,-4.384782 0.545333,-0.685053 0.966336,-1.270725 0.93556,-1.30149 -0.137914,-0.137914 -2.212595,0.694886 -2.747382,1.102792 -0.679338,0.51814 -1.445431,1.649453 -1.67392,2.471915 -0.154038,0.554513 -0.225199,3.184477 -0.08617,3.184477 0.03942,0 0.339644,-0.482811 0.66717,-1.072912 z M 70.567524,89.626059 c -0.975304,-2.043364 -1.086764,-4.232468 -0.335882,-6.596987 0.446722,-1.406747 0.363655,-1.497844 -0.677883,-0.743358 -0.457471,0.331367 -0.802612,0.769927 -1.076097,1.367298 -0.557964,1.218737 -0.47878,3.028406 0.192055,4.387935 0.413356,0.837791 1.771584,2.340118 2.11565,2.340118 0.0784,0 -0.01971,-0.339751 -0.217818,-0.755006 z m 22.732762,-0.44071 c 1.012468,-1.727648 2.878955,-3.342109 6.122116,-5.295443 l 1.672658,-1.007441 -0.95167,0.1095 c -3.801769,0.437969 -6.978435,2.240597 -7.550777,4.284789 -0.245121,0.875575 -0.09087,2.627337 0.231398,2.627337 0.0301,0 0.244548,-0.32352 0.476279,-0.718874 z m -16.126115,0.04328 c 0.0012,-0.818728 0.284069,-1.627811 0.876065,-2.507499 l 0.54868,-0.815347 -0.462968,-0.389546 C 77.339933,84.846445 77.114006,83.963833 77.23494,81.996266 l 0.104986,-1.708481 -0.462667,0.498899 c -0.254473,0.274395 -0.630289,0.918146 -0.835165,1.43055 -0.320259,0.800999 -0.372952,1.210209 -0.375661,2.918484 -0.0029,2.068023 0.164895,2.82066 0.914187,4.090601 0.38884,0.659036 0.592418,0.659821 0.593547,0.0023 z m 90.051679,-2.837827 c 1.25055,-0.398232 3.15267,-1.488819 4.51126,-2.586501 1.05964,-0.856172 2.36501,-2.407283 2.18087,-2.591409 -0.0512,-0.0511 -1.32231,0.714026 -2.82467,1.700535 -1.50235,0.986508 -3.43325,2.23854 -4.29089,2.782307 -2.00785,1.273043 -1.90769,1.437458 0.42343,0.695068 z M 88.715856,85.352138 c 0.339357,-0.580326 1.042856,-1.479696 1.563351,-1.998621 0.909296,-0.906541 3.270264,-2.509432 3.696257,-2.509432 0.112905,0 0.205313,-0.08084 0.205313,-0.179371 0,-0.124083 -0.28217,-0.148878 -0.913957,-0.08005 -1.200066,0.130604 -1.448645,-0.02974 -0.874611,-0.564965 1.111602,-1.036149 3.63562,-2.447433 6.636505,-3.710755 0.786796,-0.331259 1.491246,-0.655019 1.565456,-0.719576 0.27712,-0.240894 -0.832586,-0.313595 -2.287193,-0.149667 -3.57919,0.403602 -6.986013,2.208033 -8.906448,4.717281 -0.993681,1.298362 -1.443947,2.507504 -1.539871,4.135265 -0.06743,1.144613 0.01648,2.114955 0.182668,2.114955 0.03046,0 0.333122,-0.474807 0.672505,-1.055154 z M 65.358484,83.030581 c 0.238958,-0.34484 0.748854,-0.895669 1.133054,-1.22408 l 0.698555,-0.597113 -0.758672,-0.104018 c -0.988812,-0.135585 -1.338238,-0.460882 -1.338238,-1.245983 0,-0.699264 0.394996,-1.557468 1.301378,-2.827437 0.342116,-0.479343 0.548608,-0.896013 0.458862,-0.925918 -0.334341,-0.111578 -1.814693,0.858781 -2.568166,1.683193 -1.790496,1.959092 -1.840276,4.96672 -0.122148,7.379636 l 0.35179,0.494048 0.204525,-1.002671 c 0.112761,-0.552844 0.399471,-1.284001 0.639039,-1.629697 z M 105.6506,80.346985 c 4.74906,-2.670715 10.57818,-7.990305 13.49948,-12.319495 0.862,-1.277454 1.78898,-3.152046 1.69623,-3.430264 -0.0297,-0.08997 -1.25371,1.257922 -2.71944,2.995112 -4.81852,5.710885 -8.34622,9.255759 -11.70703,11.763968 -2.59304,1.935236 -2.70481,2.079181 -0.76924,0.990679 z M 80.882231,78.411021 c 0.223371,-0.38115 0.889484,-1.145158 1.48028,-1.697822 0.954618,-0.892985 1.021945,-0.99313 0.604866,-0.899607 -1.516867,0.340146 -1.554791,0.338892 -1.349621,-0.04457 0.470811,-0.879713 2.509907,-2.764316 4.080977,-3.77176 0.90759,-0.581992 1.625027,-1.083289 1.594302,-1.114028 -0.09116,-0.09126 -2.581964,0.414241 -3.313283,0.672283 -2.198513,0.775656 -3.526983,1.808178 -4.270997,3.319481 -0.781837,1.588129 -0.796341,3.753508 -0.03687,5.492157 l 0.243043,0.556311 0.280558,-0.9098 c 0.154289,-0.500358 0.463305,-1.221608 0.686659,-1.602734 z m -9.698475,-0.433718 c 0.138344,-1.168076 0.817249,-2.271627 2.17121,-3.529263 0.657613,-0.610825 1.052609,-1.069393 0.877767,-1.018993 -0.568784,0.164 -1.743098,0.413432 -1.964352,0.417423 -0.53673,0.01075 0.457722,-2.118136 1.831318,-3.918396 0.555205,-0.72766 0.929573,-1.323028 0.831926,-1.323028 -0.473657,0 -2.214068,1.135462 -3.103097,2.024488 -2.042049,2.042053 -2.90557,4.967864 -2.006103,6.797168 0.245945,0.5002 0.976138,1.351055 1.159458,1.351055 0.05891,0 0.149739,-0.3602 0.201909,-0.800454 z M 58.806494,73.665526 c -0.187934,-0.592161 -0.09958,-2.463388 0.15712,-3.327905 0.285216,-0.960459 0.98113,-2.241715 1.874054,-3.450441 0.678701,-0.918719 0.899331,-0.9808 0.618049,-0.173925 -0.253362,0.726772 -0.218928,1.963084 0.07385,2.651893 l 0.251177,0.590935 0.684688,-1.430521 c 1.879461,-3.926792 4.555185,-6.951626 8.429347,-9.529212 1.685206,-1.121201 3.576341,-2.231316 3.576341,-2.099339 0,0.03547 -0.911961,0.76682 -2.026587,1.626145 -2.888203,2.226601 -4.517889,3.885285 -5.15916,5.250966 -0.689263,1.467861 -0.777472,2.794221 -0.284392,4.275927 0.194062,0.58306 0.406631,1.000092 0.472449,0.926749 0.06582,-0.07324 0.206101,-0.490973 0.311731,-0.928107 0.790924,-3.272757 3.168704,-6.354405 7.639643,-9.901057 3.105913,-2.463828 2.982041,-2.315663 1.827911,-2.186312 -0.52453,0.05866 -1.776253,0.313881 -2.781605,0.566946 -5.101941,1.284151 -10.535105,4.05525 -13.713519,6.994333 -3.53066,3.264807 -4.355669,6.398909 -2.55522,9.706917 0.431723,0.793235 0.802365,1.06074 0.604079,0.43599 z m 34.950938,-4.230328 c 1.145125,-1.559973 2.838705,-2.939578 6.136867,-4.999102 2.199671,-1.373578 2.166701,-1.506239 -0.229786,-0.924298 -1.758545,0.427015 -3.036515,0.959055 -4.315234,1.796451 -2.128244,1.393762 -3.098553,2.859979 -3.206745,4.84569 -0.09173,1.683142 0.04783,1.885625 0.601559,0.873042 0.249242,-0.455802 0.705248,-1.172092 1.013331,-1.591783 z m 6.376458,1.622652 c 0.51356,-0.783794 2.56052,-2.8216 3.82225,-3.80516 1.55388,-1.211306 3.01902,-2.162509 5.00689,-3.250649 l 1.51001,-0.826551 -1.11709,0.08997 c -2.88955,0.232581 -7.18986,1.93586 -9.00235,3.56542 -1.385516,1.2457 -1.768598,2.662348 -1.083219,4.005792 0.376758,0.738503 0.503317,0.770937 0.863509,0.221079 z M 81.81248,67.396191 c 0.92858,-1.204316 2.050118,-2.234054 4.539466,-4.167986 1.070576,-0.83171 1.917217,-1.541462 1.881421,-1.577257 -0.108425,-0.108497 -1.902536,0.395623 -3.221734,0.905135 -2.527479,0.976236 -4.499428,2.457913 -5.316372,3.994603 -0.312412,0.587621 -0.374088,0.938558 -0.375031,2.13383 -6.02e-4,0.919425 0.0765,1.566988 0.216134,1.812464 0.212837,0.374089 0.230717,0.356162 0.874221,-0.876352 0.361336,-0.692044 0.99218,-1.693021 1.401903,-2.224437 z m -3.879354,-6.000494 c 3.123083,-2.980669 7.65889,-5.314294 15.373449,-7.90948 l 2.543177,-0.85552 -1.112638,-0.04902 c -2.264629,-0.09961 -6.196817,0.533548 -8.90113,1.43342 -4.125193,1.372668 -7.177019,3.483581 -8.910471,6.163214 -0.722741,1.117238 -1.490238,2.937854 -1.497314,3.55184 -0.0024,0.201263 0.251785,0.0129 0.82506,-0.615469 0.455626,-0.498509 1.211571,-1.27208 1.679867,-1.719042 z m 14.834601,1.310695 c 0.913775,-1.380333 2.951166,-3.313122 4.85061,-4.601547 2.940953,-1.994917 5.716323,-3.189199 14.205763,-6.112975 1.44246,-0.496786 2.72994,-0.972065 2.86108,-1.05615 0.33165,-0.212766 -3.68455,-0.02759 -6.10672,0.28192 -8.33222,1.063735 -14.26037,3.989234 -15.985231,7.888565 -0.437957,0.990084 -0.710622,2.747633 -0.570397,3.676625 0.124048,0.821782 0.15214,0.81889 0.744895,-0.07639 z M 26.202279,259.90946 c -2.362717,-0.73876 -3.767902,-2.81724 -6.024243,-8.91074 -1.137182,-3.07107 -2.16268,-5.26637 -3.025855,-6.47752 -0.296093,-0.41547 -0.53835,-0.78051 -0.53835,-0.8112 0,-0.0305 0.375501,0.048 0.834479,0.17468 1.128913,0.31169 4.180108,0.30291 6.550034,-0.0183 4.748699,-0.64485 6.940089,-0.0925 8.60835,2.16984 0.372325,0.5049 0.82989,1.32746 1.016868,1.82792 0.483259,1.29354 0.990109,1.87853 2.11417,2.44013 1.112415,0.55579 1.628102,0.97882 1.951905,1.60115 0.32764,0.6297 0.298868,0.65718 -0.578531,0.55328 -0.886761,-0.10505 -1.526502,0.10115 -1.664628,0.53626 -0.04862,0.15304 -0.154325,0.68381 -0.235017,1.17927 -0.311731,1.91536 -1.392504,3.58059 -3.0363,4.67827 -1.75258,1.17032 -4.216917,1.60668 -5.972922,1.05761 z M 64.143738,103.95124 c -2.113231,-1.57601 -4.763887,-4.023911 -7.458361,-6.887828 l -2.162277,-2.298245 1.112637,0.779676 c 5.647005,3.957005 7.583861,5.640217 9.330356,8.108437 0.589004,0.83242 0.978489,1.51002 0.86795,1.51002 -0.03583,0 -0.79642,-0.54544 -1.690305,-1.21206 z"
       id="path1030" />
  </g>
</svg>
