<?xml version="1.0" encoding="UTF-8" standalone="no"?>
<!-- Created with Inkscape (http://www.inkscape.org/) -->

<svg
   width="200mm"
   height="259mm"
   viewBox="0 0 200 259"
   version="1.1"
   id="svg193"
   inkscape:version="1.1.2 (0a00cf5339, 2022-02-04)"
   sodipodi:docname="printTest2.svg"
   xmlns:inkscape="http://www.inkscape.org/namespaces/inkscape"
   xmlns:sodipodi="http://sodipodi.sourceforge.net/DTD/sodipodi-0.dtd"
   xmlns="http://www.w3.org/2000/svg"
   xmlns:svg="http://www.w3.org/2000/svg">
  <sodipodi:namedview
     id="namedview195"
     pagecolor="#505050"
     bordercolor="#eeeeee"
     borderopacity="1"
     inkscape:pageshadow="0"
     inkscape:pageopacity="0"
     inkscape:pagecheckerboard="0"
     inkscape:document-units="mm"
     showgrid="false"
     units="mm"
     inkscape:zoom="0.77827899"
     inkscape:cx="150.97414"
     inkscape:cy="583.33838"
     inkscape:window-width="1920"
     inkscape:window-height="1003"
     inkscape:window-x="0"
     inkscape:window-y="0"
     inkscape:window-maximized="1"
     inkscape:current-layer="layer1"
     height="500mm" />
  <defs
     id="defs190" />
  <g
     inkscape:label="Layer 1"
     inkscape:groupmode="layer"
     id="layer1"
     transform="translate(-8.6024475,-10.852448)">
    <path
       id="path871-7"
       fill="none"
       stroke="#000000"
       stroke-width="0.143204"
       stroke-linecap="butt"
       stroke-linejoin="miter"
       stroke-miterlimit="2"
       d="m 33.935236,23.261301 c 1.363691,0.174267 6.535174,0.433991 10.315723,1.596265 2.519904,0.774702 4.210089,2.460219 4.210089,2.460219 0,0 8.218778,-1.36424 12.416823,-1.382836 4.541661,0.0506 5.416671,0.447415 12.455225,1.302999 0,0 3.283787,-1.24572 5.634077,-2.253452 2.065546,-0.885645 9.517364,-1.816895 11.763375,-1.88436 3.648951,-0.109622 7.248265,-1.287315 7.948195,-0.572271 1.691527,1.728749 -0.906562,8.823128 -0.75688,12.979343 0.332843,9.260518 -2.969413,15.25907 -7.096272,15.307509 2.76663,5.764405 1.636506,10.77143 0.721094,16.08844 -0.603349,3.504275 -6.660308,8.266806 -6.660308,8.266806 0,0 2.25794,4.513185 3.418463,7.229017 2.738156,6.407886 1.678449,13.002787 4.612462,14.5581 15.736328,8.34221 7.309448,26.60313 -1.93087,26.53657 L 60.505011,123.27393 35.773833,123.09577 C 18.20781,121.18299 24.487173,107.84621 19.772242,101.61379 11.756201,91.017869 14.460356,82.366273 19.964867,78.815449 c 4.645554,-2.996736 11.285659,-2.359909 15.159636,3.807482 -0.04991,-4.097618 2.296188,-5.815317 4.782499,-7.405647 0,0 -4.353422,-0.228943 -7.757378,-7.568022 C 28.057511,58.82667 31.823131,50.422194 31.823131,50.422194 24.458853,46.233999 25.647003,37.310519 24.861688,33.275163 24.354575,30.669298 22.394307,23.768675 23.447282,23.037812 c 1.193768,-0.82856 4.272078,-0.570859 10.487954,0.223489 z"
       sodipodi:nodetypes="cscccsssscscsscccssccscsss"
       style="stroke-width:0.0954648;stroke-miterlimit:2;stroke-dasharray:none" />
    <g
       id="group0"
       transform="matrix(0.33677871,0,0,0.33677871,20.087489,25.767131)"
       fill="none"
       style="stroke-width:0.283465;stroke-miterlimit:2;stroke-dasharray:none">
      <path
         id="path8110-3"
         transform="matrix(1.1425565,0,0,1.1425565,152.58368,66.75759)"
         fill="none"
         stroke="#000000"
         stroke-width="0.264583"
         stroke-linecap="butt"
         stroke-linejoin="miter"
         stroke-miterlimit="2"
         d="M 3.65782,0.0147758 C 2.00694,0.202786 -0.256807,2.04947 0.0237629,4.10241 0.304343,6.15536 1.84904,8.27903 3.7589,8.19627 5.27117,8.12677 8.18651,7.21671 8.09864,3.84333 8.02454,0.998126 5.0702,-0.146064 3.65782,0.0147758 Z"
         sodipodi:nodetypes="cscss"
         style="stroke-width:0.248097;stroke-miterlimit:2;stroke-dasharray:none" />
      <path
         id="path871"
         transform="scale(1.1425565)"
         fill="none"
         stroke="#000000"
         stroke-width="0.264583"
         stroke-linecap="butt"
         stroke-linejoin="miter"
         stroke-miterlimit="2"
         d="m 30.7565,2.73471 c 0,0 6.914,1.38255 11.1003,1.43143 4.1863,0.0489 10.9948,0.83052 15.0776,2.5573 4.0829,1.72678 8.5459,5.06566 10.6986,8.10896 2.1528,3.0433 2.2013,2.9616 2.2013,2.9616 0,0 18.628,-6.7532 27.4183,-6.6553 8.7904,0.0979 22.9284,-1.14663 34.1334,2.4156 11.206,3.5623 13.029,4.5486 13.029,4.5486 0,0 5.724,-9.70241 12.778,-11.56292 7.054,-1.8605 8.838,-2.53961 13.223,-2.59944 4.385,-0.0598 18.78,-1.40345 20.919,-2.45049 2.139,-1.047051 4.944,-1.260141 4.944,-1.260141 0,0 1.783,0.975791 0.822,3.483281 -0.962,2.5075 -6.994,9.59841 -7.436,12.63461 -0.443,3.0363 -0.287,14.34 -0.028,15.7014 0.259,1.3614 -1.22,17.6369 -8.848,20.6042 -7.628,2.9673 -12.386,3.5111 -12.386,3.5111 0,0 5.159,18.4832 5.815,22.2387 0.656,3.7555 2.289,17.5113 -1.226,23.8708 -3.515,6.359 -6.426,13.637 -14.626,17.59 -8.199,3.953 -9.896,5.018 -9.896,5.018 0,0 12.044,14.967 15.375,25.255 3.33,10.287 3.634,14.945 3.634,14.945 0,0 0.043,11.975 0.087,13.737 0.291,4.493 3.599,11.586 6.419,15.199 2.447,3.137 4.956,2.207 7.549,4.381 0.333,-0.164 -7.63,-4.49 -15.152,3.548 -8.783,9.384 -7.651,21.306 -6.877,24.793 0.465,2.098 1.53,4.313 1.77,4.945 0.24,0.633 -10.425,-1.213 -10.425,-1.213 l 2.434,-6.775 c 0,0 -13.843,2.886 -24.093,-2.925 -1.412,-0.801 -3.165,-1.91 -3.165,-1.91 0,0 2.533,-19.588 3.624,-24.465 1.092,-4.877 6.973,-21.918 2.424,-32.908 -4.55,-10.989 -16.425,-17.132 -25.781,-17.034 -9.3567,0.099 -18.1056,4.426 -22.0324,13.55 -3.9268,9.125 -4.2644,9.025 -1.2358,29.468 3.0287,20.444 5.3599,31.055 5.3599,31.055 0,0 -9.2957,6.56 -18.6464,5.856 -9.3506,-0.704 -9.3781,-0.757 -9.3781,-0.757 l 2.795,7.152 c 0,0 -6.5036,0.574 -7.5887,0.499 -1.085,-0.074 -1.2666,-0.324 -1.2666,-0.324 0.2263,0.857 4.4838,-13.722 -2.1683,-24.25 -3.2044,-5.072 -5.7993,-6.623 -7.6329,-7.782 -1.3677,-0.865 -6.696,-1.962 -6.797,-1.634 0,0 5.9235,-5.468 5.8676,-9.087 -0.0558,-3.62 -1.6707,-6.497 -3.6774,-9.068 -0.6478,-0.83 -2.9425,-2.171 -2.9425,-2.171 0,0 -0.4041,7.876 -3.3413,10.768 -1.968,1.938 -4.6888,4.464 -9.2969,4.481 -7.3817,0.027 -13.181,-4.998 -14.204,-10.766 -1.13884,-6.422 1.8071,-9.711 1.8071,-9.711 0,0 1.7967,-4.05 8.621,-6.264 2.026,-0.658 6.2007,-1.544 6.2007,-1.544 0,0 -0.4332,-2.704 -1.0904,-3.873 -1.3317,-2.37 -3.3634,-4.363 -5.5562,-5.97 -1.7718,-1.299 -3.8032,-2.373 -5.9522,-2.828 C 9.52537,150.279 0,151.627 0,151.627 c 0,0 3.65229,-1.05 5.50872,-1.447 2.25596,-0.484 4.52548,-0.981 6.82718,-1.139 1.8309,-0.125 3.6924,-0.14 5.5033,0.157 2.1138,0.347 4.2611,0.861 6.145,1.881 2.2679,1.227 4.2969,2.969 5.9408,4.956 1.8661,2.255 2.6249,5.252 4.2633,7.678 0.4128,0.611 0.8517,1.218 1.3935,1.719 2.8371,2.622 7.9368,5.206 9.5498,6.567 1.6131,1.36 2.0094,1.649 2.0094,1.649 0,0 0.4185,-23.982 8.8798,-34.116 8.4613,-10.133 10.6823,-13.933 10.6823,-13.933 0,0 -21.0059,-7.688 -25.6387,-23.083 C 36.4316,87.122 39.8512,77.3693 39.8512,77.3693 l 5.2856,-21.6906 c 0,0 -13.2492,1.0999 -17.7587,-9.7385 -4.5096,-10.8384 -2.7766,-28.9903 -2.7766,-28.9903 0,0 -1.6752,-5.2867 -2.5695,-6.3959 -0.8944,-1.10925 -4.7379,-5.9639 -4.7379,-5.9639 0,0 -2.1255,-3.772911 0.9206,-4.489591 3.046,-0.71667 12.5418,2.634201 12.5418,2.634201 z"
         sodipodi:nodetypes="ccsscsscssscsssscssscsccscsssccscssssscsccscsscsscssscsccccccccccccscscsccscscscc"
         style="stroke-width:0.248097;stroke-miterlimit:2;stroke-dasharray:none" />
      <path
         id="path3509"
         transform="matrix(1.1425565,0,0,1.1425565,20.30663,196.44611)"
         fill="none"
         stroke="#000000"
         stroke-width="0.264583"
         stroke-linecap="butt"
         stroke-linejoin="miter"
         stroke-miterlimit="2"
         d="m 5.78227,0.285897 c 0,0 -6.90214,2.724473 -5.624507,7.658503 1.277627,4.934 5.150187,4.869 5.150187,4.869 0,0 6.39365,-0.2667 6.48555,-8.16423 0.019,-1.62764 -0.132,-3.32187 -0.9108,-3.839073 -2.1643,-1.43724 -5.10043,-0.5242 -5.10043,-0.5242 z"
         sodipodi:nodetypes="cscssc"
         style="stroke-width:0.248097;stroke-miterlimit:2;stroke-dasharray:none" />
      <path
         id="path4399"
         transform="matrix(1.1425565,0,0,1.1425565,88.83845,127.75538)"
         fill="none"
         stroke="#000000"
         stroke-width="0.264583"
         stroke-linecap="butt"
         stroke-linejoin="miter"
         stroke-miterlimit="2"
         d="m 0,0.07984 c 0,0 8.43544,10.92176 23.1299,11.49566 C 38.6394,12.1813 38.138,11.4618 46.1807,8.7427 53.9394,6.11964 58.0727,0 58.0727,0"
         sodipodi:nodetypes="cssc"
         style="stroke-width:0.248097;stroke-miterlimit:2;stroke-dasharray:none" />
      <path
         id="path5387"
         transform="matrix(1.1425565,0,0,1.1425565,153.20037,126.58494)"
         fill="none"
         stroke="#000000"
         stroke-width="0.264583"
         stroke-linecap="butt"
         stroke-linejoin="miter"
         stroke-miterlimit="2"
         d="M 0,0 C 0,0 2.10891,0.67725 3.18878,2.36059"
         sodipodi:nodetypes="cc"
         style="stroke-width:0.248097;stroke-miterlimit:2;stroke-dasharray:none" />
      <path
         id="path5730"
         transform="matrix(1.1425565,0,0,1.1425565,67.944189,40.188673)"
         fill="none"
         stroke="#000000"
         stroke-width="0.264583"
         stroke-linecap="butt"
         stroke-linejoin="miter"
         stroke-miterlimit="2"
         d="m 0,12.8299 c 0.8373,-1.4866 5.34538,-6.63774 10.7081,-8.14509 5.3628,-1.50734 7.7962,-0.48892 7.7962,-0.48892 0,0 -0.5719,-3.560884 -4.9132,-4.1358839 C 9.21917,-0.519054 5.56146,3.24753 4.30065,4.70567 3.19867,5.98011 0.64093,9.95327 0.02159,12.6783"
         sodipodi:nodetypes="cscssc"
         style="stroke-width:0.248097;stroke-miterlimit:2;stroke-dasharray:none" />
      <path
         id="path6734"
         transform="matrix(1.1425565,0,0,1.1425565,155.02159,39.968845)"
         fill="none"
         stroke="#000000"
         stroke-width="0.264583"
         stroke-linecap="butt"
         stroke-linejoin="miter"
         stroke-miterlimit="2"
         d="m 0,4.11464 c 1.39256,-0.23367 7.8519,-0.29982 12.7899,3.38388 4.5441,3.38988 5.7196,5.88868 5.7196,5.88868 0,0 -2.2674,-6.5476 -5.0312,-9.37228 C 10.4266,0.896056 6.9137,-0.0456938 5.90085,0.00168617 4.34438,0.0744862 2.57739,0.560166 0.73537,2.7182 0.46781,3.03166 0,4.11464 0,4.11464 Z"
         sodipodi:nodetypes="cscsssc"
         style="stroke-width:0.248097;stroke-miterlimit:2;stroke-dasharray:none" />
      <path
         id="path8110"
         transform="matrix(1.1425565,0,0,1.1425565,82.218532,66.796974)"
         fill="none"
         stroke="#000000"
         stroke-width="0.264583"
         stroke-linecap="butt"
         stroke-linejoin="miter"
         stroke-miterlimit="2"
         d="M 3.65782,0.0147758 C 2.00694,0.202786 -0.256807,2.04947 0.0237629,4.10241 0.304343,6.15536 1.84904,8.27903 3.7589,8.19627 5.27117,8.12677 8.18651,7.21671 8.09864,3.84333 8.02454,0.998126 5.0702,-0.146064 3.65782,0.0147758 Z"
         sodipodi:nodetypes="cscss"
         style="stroke-width:0.248097;stroke-miterlimit:2;stroke-dasharray:none" />
      <path
         id="path9000"
         transform="matrix(1.1425565,0,0,1.1425565,75.724709,64.038136)"
         fill="none"
         stroke="#000000"
         stroke-width="0.264583"
         stroke-linecap="butt"
         stroke-linejoin="miter"
         stroke-miterlimit="2"
         d="M 4.65349,0.670614 C 3.97179,1.0455 -0.451646,3.62734 0.0377035,9.84592 0.527054,16.0645 0.0277035,15.6715 3.44837,19.9526 5.78404,22.876 12.588,23.0162 15.4037,18.075 17.2904,14.764 18.0376,8.28808 14.4716,3.46163 10.9056,-1.36481 5.73357,0.0766441 4.65349,0.670614 Z"
         sodipodi:nodetypes="csssss"
         style="stroke-width:0.248097;stroke-miterlimit:2;stroke-dasharray:none" />
      <path
         id="path9000-6"
         transform="matrix(1.1425565,0,0,1.1425565,149.12318,64.148998)"
         fill="none"
         stroke="#000000"
         stroke-width="0.264583"
         stroke-linecap="butt"
         stroke-linejoin="miter"
         stroke-miterlimit="2"
         d="M 12.1758,0.670614 C 12.8575,1.0455 17.2809,3.62734 16.7916,9.84592 16.3022,16.0645 14.7821,18.5415 13.386,19.8604 10.5974,22.4947 4.55421,23.2138 1.73856,18.2727 -0.148189,14.9616 -1.20837,8.28808 2.35763,3.46163 5.92363,-1.36481 11.0957,0.0766441 12.1758,0.670614 Z"
         sodipodi:nodetypes="csssss"
         style="stroke-width:0.248097;stroke-miterlimit:2;stroke-dasharray:none" />
      <path
         id="path10696"
         transform="matrix(1.1425565,0,0,1.1425565,130.70612,99.583584)"
         fill="none"
         stroke="#000000"
         stroke-width="0.264583"
         stroke-linecap="butt"
         stroke-linejoin="miter"
         stroke-miterlimit="2"
         d="M 2.03329,0.213022 C 0.684585,0.877472 -0.931975,4.07827 0.661365,8.90563 2.13339,13.3654 4.62837,14.6384 5.76671,15.0337 6.90505,15.429 11.76,16.9232 10.3568,8.41393 9.78593,4.51175 6.79734,-1.17317 2.03329,0.213022 Z"
         sodipodi:nodetypes="csscc"
         style="stroke-width:0.248097;stroke-miterlimit:2;stroke-dasharray:none" />
      <path
         id="path10696-7"
         transform="matrix(1.1425565,0,0,1.1425565,101.17934,99.54432)"
         fill="none"
         stroke="#000000"
         stroke-width="0.264583"
         stroke-linecap="butt"
         stroke-linejoin="miter"
         stroke-miterlimit="2"
         d="M 8.06548,0.0774176 C 9.79639,0.510018 11.7507,3.43623 9.94775,8.89851 8.47574,13.3583 5.98075,14.6313 4.84241,15.0266 3.70407,15.4219 -1.15086,16.9161 0.252333,8.40681 1.66198,-0.141592 6.92147,-0.208502 8.06548,0.0774176 Z"
         sodipodi:nodetypes="cssss"
         style="stroke-width:0.248097;stroke-miterlimit:2;stroke-dasharray:none" />
      <path
         id="path11560"
         transform="matrix(1.1425565,0,0,1.1425565,100.98448,249.68052)"
         fill="none"
         stroke="#000000"
         stroke-width="0.264583"
         stroke-linecap="butt"
         stroke-linejoin="miter"
         stroke-miterlimit="2"
         d="m 0,0 0.62672,3.94595 c 0,0 8.32596,4.58906 13.47048,4.63166 5.1445,0.04257 14.221,-0.86109 17.5796,-3.21805 3.3587,-2.35699 5.9641,-5.02518 5.9641,-5.02518"
         sodipodi:nodetypes="ccssc"
         style="stroke-width:0.248097;stroke-miterlimit:2;stroke-dasharray:none" />
      <path
         id="path11562"
         transform="matrix(1.1425565,0,0,1.1425565,141.77768,250.06257)"
         fill="none"
         stroke="#000000"
         stroke-width="0.264583"
         stroke-linecap="butt"
         stroke-linejoin="miter"
         stroke-miterlimit="2"
         d="m 1.93744,0 c 0,0 -2.236893,11.5837 -1.9035731,15.5729 0.2176001,2.6042 1.1416031,4.7226 4.3908331,3.6384 1.00704,-0.336 1.6095,-0.7802 2.48318,-1.2814 1.94528,-1.1158 3.26732,-2.2887 4.69372,-1.963 2.0669,0.472 3.2823,6.0984 5.3395,6.8865 2.0571,0.7881 3.743,-0.3536 5.4754,-3.4353 1.7323,-3.0817 4.345,-7.8084 4.345,-7.8084"
         sodipodi:nodetypes="cssssssc"
         style="stroke-width:0.248097;stroke-miterlimit:2;stroke-dasharray:none" />
      <path
         id="path11692"
         transform="matrix(1.1425565,0,0,1.1425565,72.158405,254.18898)"
         fill="none"
         stroke="#000000"
         stroke-width="0.264583"
         stroke-linecap="butt"
         stroke-linejoin="miter"
         stroke-miterlimit="2"
         d="m 25.8562,0 c 0,0 1.0065,9.09667 0.8871,11.2131 -0.1194,2.1165 -0.4223,6.0186 -4.6838,4.1591 -4.2616,-1.8594 -3.7157,-2.5215 -5.1591,-2.9741 -1.4435,-0.4527 -3.8689,0.2577 -5.4397,4.8677 C 9.89003,21.8759 5.87986,17.913 5.53504,17.3827 5.19023,16.8524 0,8.30501 0,8.30501"
         sodipodi:nodetypes="ccccccc"
         style="stroke-width:0.248097;stroke-miterlimit:2;stroke-dasharray:none" />
      <path
         id="path11864"
         transform="matrix(1.1425565,0,0,1.1425565,19.12705,225.41222)"
         fill="none"
         stroke="#000000"
         stroke-width="0.264583"
         stroke-linecap="butt"
         stroke-linejoin="miter"
         stroke-miterlimit="2"
         d="m 37.5594,33.6666 c 0,0 -4.8144,8.0724 -10.632,8.8913 C 21.1098,43.3767 13.8159,43.2968 8.31862,36.8184 2.82134,30.34 -0.683723,21.856 0.112427,14.7703 0.375807,12.4262 1.69226,10.191 2.65211,8.85167 4.59367,6.14252 6.71419,4.5972 7.23577,4.61986 c 1.12401,0.04884 2.6775,1.69685 3.01713,2.12512 0.3397,0.42826 4.4808,6.04582 6.2935,6.08052 1.8127,0.0347 0.1591,-6.16944 0.1072,-8.80159 C 16.6088,1.75395 16.546,0.505661 18.1654,0.07358 18.4238,0.00464 20.6008,0.03362 20.9612,0"
         sodipodi:nodetypes="csssssssssc"
         style="stroke-width:0.248097;stroke-miterlimit:2;stroke-dasharray:none" />
      <path
         id="path13868"
         transform="matrix(1.1425565,0,0,1.1425565,184.20072,226.68215)"
         fill="none"
         stroke="#000000"
         stroke-width="0.264583"
         stroke-linecap="butt"
         stroke-linejoin="miter"
         stroke-miterlimit="2"
         d="m 20.3155,0 c 0,0 -0.3374,8.02241 -0.5154,9.12176 -0.178,1.09934 -0.3509,4.60514 3.0266,1.13154 3.3774,-3.47351 5.0976,-6.51949 6.1981,-6.67319 1.1005,-0.1537 6.1411,3.01847 7.3966,8.13889 1.2749,5.1993 0.7838,11.0596 -2.2026,16.8978 C 31.5859,33.7641 26.1252,40.2033 18.4945,41.9314 13.7246,43.0117 9.42417,42.1923 5.99444,40.0144 2.92443,38.0649 0,33.1958 0,33.1958"
         sodipodi:nodetypes="csssssssc"
         style="stroke-width:0.248097;stroke-miterlimit:2;stroke-dasharray:none" />
      <path
         id="path16130"
         transform="matrix(1.1425565,0,0,1.1425565,102.75097,263.30002)"
         fill="none"
         stroke="#000000"
         stroke-width="0.264583"
         stroke-linecap="butt"
         stroke-linejoin="miter"
         stroke-miterlimit="2"
         d="m 0,0.795496 c 0,0 10.2887,2.605904 15.4137,2.337194 C 20.5388,2.86398 26.8198,2.79371 30.2997,1.57247 33.7797,0.351234 34.3714,0 34.3714,0"
         sodipodi:nodetypes="cccc"
         style="stroke-width:0.248097;stroke-miterlimit:2;stroke-dasharray:none" />
      <path
         id="path16245"
         transform="matrix(1.1425565,0,0,1.1425565,179.57612,7.7236537)"
         fill="none"
         stroke="#000000"
         stroke-width="0.264583"
         stroke-linecap="butt"
         stroke-linejoin="miter"
         stroke-miterlimit="2"
         d="M 0.352899,20.2801 C 3.36131,24.2345 7.86183,30.3893 9.3749,35.2738 c 1.6007,5.1676 0.33882,8.1967 8.0471,5.3041 8.0689,-3.028 9.5788,-11.802 8.8965,-21.7922 C 25.6363,8.79552 31.0053,5.09383 32.5947,2.53066 33.0954,1.72304 33.8107,0.348453 33.027,0.121353 31.7362,-0.252697 23.4942,0.157653 16.978,2.49108 10.1892,4.92214 4.63658,10.8349 2.73745,13.9199 c -1.840611,2.99 -3.479871,4.9204 -2.384551,6.3602 z"
         sodipodi:nodetypes="cssssssss"
         style="stroke-width:0.248097;stroke-miterlimit:2;stroke-dasharray:none" />
      <path
         id="path16245-5"
         transform="matrix(1.1425565,0,0,1.1425565,27.356559,7.5631569)"
         fill="none"
         stroke="#000000"
         stroke-width="0.264583"
         stroke-linecap="butt"
         stroke-linejoin="miter"
         stroke-miterlimit="2"
         d="m 32.2275,20.1388 c -3.1127,3.8728 -7.5089,10.1092 -9.022,14.9938 -1.6007,5.1676 -0.7861,8.8732 -8.2888,5.483 C 7.33423,37.1894 6.23902,29.5731 6.54863,19.0708 6.63463,16.1551 6.57493,13.7714 6.03323,11.9344 4.65521,7.26085 1.57543,5.12833 0.656982,3.0177 0.277802,2.14634 -0.429588,0.304325 0.354102,0.0772248 1.64492,-0.296825 8.74547,0.702485 15.3542,2.75919 22.8009,5.07667 28.0139,10.94 29.843,13.7786 c 2.2019,3.4172 3.7573,4.6522 2.3845,6.3602 z"
         sodipodi:nodetypes="csssssssss"
         style="stroke-width:0.248097;stroke-miterlimit:2;stroke-dasharray:none" />
      <path
         id="path18679"
         transform="matrix(1.1425565,0,0,1.1425565,94.230731,84.034285)"
         fill="none"
         stroke="#000000"
         stroke-width="0.264583"
         stroke-linecap="butt"
         stroke-linejoin="miter"
         stroke-miterlimit="2"
         d="M 3.6723,11.2632 C 3.47507,11.2336 10.9875,0.37651 22.6176,0.0141198 33.8385,-0.33552 41.9779,5.86735 45.5216,12.0571 48.7432,17.6844 50.4527,25.3667 44.9872,32.384 39.6966,39.1767 25.1262,32.101 24.7037,31.9487 23.4376,31.4924 17.4323,34.9175 13.3816,35.5255 3.63576,36.9884 -0.107268,27.512 0.00233228,21.6312 0.120842,15.2722 3.6723,11.2632 3.6723,11.2632 Z"
         sodipodi:nodetypes="cssssssc"
         style="stroke-width:0.248097;stroke-miterlimit:2;stroke-dasharray:none" />
      <path
         id="path19691"
         transform="matrix(1.1425565,0,0,1.1425565,175.13535,204.02322)"
         fill="none"
         stroke="#000000"
         stroke-width="0.264583"
         stroke-linecap="butt"
         stroke-linejoin="miter"
         stroke-miterlimit="2"
         d="M 14.269,0 C 13.2135,10.2209 4.69471,37.921 0,45.1299"
         sodipodi:nodetypes="cc"
         style="stroke-width:0.248097;stroke-miterlimit:2;stroke-dasharray:none" />
      <path
         id="path19693"
         transform="matrix(1.1425565,0,0,1.1425565,53.86122,198.4021)"
         fill="none"
         stroke="#000000"
         stroke-width="0.264583"
         stroke-linecap="butt"
         stroke-linejoin="miter"
         stroke-miterlimit="2"
         d="M 0,0 C 0.55127,6.33083 7.11474,36.2189 13.2192,49.9794"
         sodipodi:nodetypes="cc"
         style="stroke-width:0.248097;stroke-miterlimit:2;stroke-dasharray:none" />
    </g>
    <circle
       id="path42256"
       r="0.16113822"
       cx="20.508265"
       cy="18.757301"
       fill="#000000"
       stroke="#000000"
       stroke-width="0.106645"
       stroke-linecap="butt"
       stroke-linejoin="miter"
       stroke-miterlimit="2"
       style="stroke-width:0.0954648;stroke-miterlimit:2;stroke-dasharray:none" />
    <g
       id="g582"
       transform="matrix(0.3847887,0,0,0.3847887,160.9665,136.28134)"
       fill="none"
       style="stroke-width:0.248097;stroke-miterlimit:2;stroke-dasharray:none">
      <path
         id="path6734-0"
         transform="translate(14.191811,-253.35679)"
         fill="none"
         stroke="#000000"
         stroke-width="0.264583"
         stroke-linecap="butt"
         stroke-linejoin="miter"
         stroke-miterlimit="2"
         d="M 4.98694,5.1079 C 6.3795,4.87423 12.201,4.57525 17.4592,8.98931 21.8014,12.6343 23.1789,14.878 23.1789,14.878 23.8471,14.7279 20.7032,8.72968 17.6764,5.46611 15.7522,3.39143 12.9886,1.58543 10.3686,0.697216 8.22477,-0.0295839 6.10927,-0.0324339 5.19615,0.0190461 2.13714,0.191496 -0.746646,5.69486 0.174231,6.21137 0.68703,6.499 5.25339,4.86547 4.98694,5.1079 Z"
         sodipodi:nodetypes="cscssssc"
         style="stroke-width:0.248097;stroke-miterlimit:2;stroke-dasharray:none" />
      <path
         id="path8110-3-8"
         transform="translate(13.127508,-225.58498)"
         fill="none"
         stroke="#000000"
         stroke-width="0.264583"
         stroke-linecap="butt"
         stroke-linejoin="miter"
         stroke-miterlimit="2"
         d="M 3.65782,0.0108484 C 2.00694,0.198848 -0.256807,2.04554 0.0237629,4.09848 0.304343,6.15143 1.82389,8.03315 3.73375,7.95039 5.23352,7.74591 8.02342,6.62085 8.09864,3.8394 8.16206,1.49424 5.0702,-0.149992 3.65782,0.0108484 Z"
         sodipodi:nodetypes="cscss"
         style="stroke-width:0.248097;stroke-miterlimit:2;stroke-dasharray:none" />
      <path
         id="path9000-6-7"
         transform="translate(9.828005,-228.16219)"
         fill="none"
         stroke="#000000"
         stroke-width="0.264583"
         stroke-linecap="butt"
         stroke-linejoin="miter"
         stroke-miterlimit="2"
         d="m 12.4465,0.960778 c 0.5481,0.552182 4.5362,2.938012 4.6158,9.175322 0.086,6.736 -2.0655,8.6365 -3.4056,10.0145 C 10.6402,23.2524 4.3669,23.9257 1.66837,18.7005 -0.0803169,15.3145 -1.23224,8.3971 2.30631,3.55049 5.8788,-1.34262 11.4103,-0.0833123 12.4465,0.960778 Z"
         sodipodi:nodetypes="csssss"
         style="stroke-width:0.248097;stroke-miterlimit:2;stroke-dasharray:none" />
      <path
         id="path8110-3-8-9"
         transform="translate(-42.581385,-225.62212)"
         fill="none"
         stroke="#000000"
         stroke-width="0.264583"
         stroke-linecap="butt"
         stroke-linejoin="miter"
         stroke-miterlimit="2"
         d="M 4.44276,0.0147758 C 6.09364,0.202786 8.3596,2.04977 8.07682,4.10241 7.79449,6.15179 6.0984,7.96628 4.34168,8.19627 2.82941,8.12677 -0.0859278,7.21671 0.00194224,3.84333 0.0760422,0.998126 3.03038,-0.146064 4.44276,0.0147758 Z"
         sodipodi:nodetypes="cscss"
         style="stroke-width:0.248097;stroke-miterlimit:2;stroke-dasharray:none" />
      <path
         id="path9000-6-7-2"
         transform="translate(-48.699685,-228.11055)"
         fill="none"
         stroke="#000000"
         stroke-width="0.264583"
         stroke-linecap="butt"
         stroke-linejoin="miter"
         stroke-miterlimit="2"
         d="M 4.40948,0.549443 C 3.72778,0.924333 -0.4496,4.88357 0.0397503,11.1022 0.5291,17.3207 2.49161,18.9841 3.75255,20.4327 6.40755,23.483 12.9664,23.8751 15.8195,18.8173 17.6919,15.4981 18.456,8.4934 14.89,3.66695 11.324,-1.15949 5.48956,-0.0445267 4.40948,0.549443 Z"
         sodipodi:nodetypes="csssss"
         style="stroke-width:0.248097;stroke-miterlimit:2;stroke-dasharray:none" />
      <path
         id="path20089"
         transform="translate(-122.76259,-297.63053)"
         fill="none"
         stroke="#000000"
         stroke-width="0.264583"
         stroke-linecap="butt"
         stroke-linejoin="miter"
         stroke-miterlimit="2"
         d="m 75.8238,19.4171 c 2.753,1.7768 6.9786,2.8962 7.5433,2.6192 0,0 9.0945,-3.0731 10.3197,-3.1894 1.2252,-0.1163 3.55,-0.764 3.55,-0.764 0,0 -4.1914,-3.6653 -6.3629,-4.4051 -2.2659,-0.7719 4.4421,-1.3531 8.041,-0.9036 2.7101,0.3386 4.4821,1.1151 8.4481,2.4463 0.991,0.3327 -0.904,-4.3737 6.051,-12.48353 0.885,-1.0326 5.397,-3.76587 4.555,-2.327615 0,0 -1.296,1.793885 -1.654,2.824275 -1.01,2.90367 -1.296,6.92757 -1.286,9.13307 0.01,2.2055 0.141,3.6341 0.141,3.6341 0,0 8.669,-4.4781 12.261,-3.9939 3.592,0.4842 5.77,0.6868 7.723,1.4987 0.239,0.3613 -6.77,2.142 -8.061,3.9192 2.595,1.6779 7.984,2.7788 14.838,5.4318 3.876,-0.8947 8.479,-3.0428 13.33,-8.542 2.585,-2.9306 2.918,-5.28325 4.744,-6.7579 0,0 1.18,-1.11005 2.902,4.9647 1.721,6.0748 -0.445,13.5758 -1.152,15.2511 -0.768,1.8212 -3.52,5.6394 -3.595,5.5471 l 8.31,9.8154 c 0.381,0.4501 23.308,-9.524 41.954,8.9983 9.695,8.8517 14.597,12.2976 14.597,12.2976 0,0 -8.715,6.8885 -16.04,9.4505 -7.326,2.562 -15.698,2.4148 -19.426,1.6101 -3.728,-0.8047 -10.982,-4.8834 -11.75,-5.9974 -0.769,-1.1141 -0.298,10.8967 -2.053,16.2551 -1.754,5.3584 -3.661,12.9964 -3.252,16.2798 0.358,2.878 0.229,11.997 -4.65,20.764 -2.884,5.182 -10.414,10.351 -10.415,10.351 -0.134,0.001 4.408,6.283 9.497,14.701 3.444,5.695 4.962,12.711 6.494,16.85 3.068,8.283 3.888,22.742 3.367,33.044 -0.261,5.151 2.275,7.863 2.275,7.863 0,0 2.894,-2.4 6.445,-3.017 1.683,-0.293 5.833,-1.184 7.5,-0.142 2.109,1.318 0.761,9.915 0.737,11.76 -0.025,1.907 0.601,1.878 1.495,1.95 1.077,0.087 6.369,-9.348 8.677,-9.871 1.207,-0.274 5.815,2.686 8.738,8.373 2.931,5.702 0.385,17.471 -1.275,20.345 -1.472,2.55 -5.044,12.466 -16.783,16.342 -12.62,4.166 -22.149,-7.345 -21.335,-7.357 l -12.956,-0.812 c 0,0 0.753,5.686 -0.603,7.985 -0.905,1.531 -3.615,3.148 -5.897,3.452 -2.301,0.308 -5.764,1.141 -7.195,0.343 -1.74,-0.97 -1.93,-5.465 -2.617,-5.179 -0.927,0.385 -0.209,5.043 -1.363,5.207 -4.492,0.639 -12.214,-0.061 -14.289,-2.567 -2.358,-2.848 -0.843,-9.292 -0.843,-9.292 -2.571,1.079 -16.517,2.451 -28.9936,-0.058 0.3863,6.802 1.704,10.939 -7.3944,11.765 -1.2712,0.018 -4.7526,0.639 -7.7853,0.057 -1.8316,-0.352 -0.2984,-5.5 -1.3151,-5.219 -1.1234,0.311 -1.1423,5.531 -3.099,5.535 -2.9095,0.006 -7.8102,-0.642 -10.6015,-2.145 -2.5438,-1.37 -2.5982,-3.751 -2.6006,-3.749 0,0 -0.326,-5.544 -0.0593,-6.099 0.2666,-0.554 -12.9923,1.025 -12.9923,1.025 0,0 -5.9519,7.585 -13.7847,7.695 -9.6275,0.136 -14.4095,-3.527 -18.1297,-7.854 -3.7999,-4.42 -8.4931,-12.518 -8.5182,-18.917 -0.0183,-4.664 0.7153,-12.35 5.2314,-16.171 4.4509,-3.766 5.959,-2.854 8.0264,0.372 2.0673,3.226 4.6994,6.3 4.9243,6.393 0.225,0.094 1.8491,1.691 1.7134,-1.521 -0.1357,-3.213 -0.0822,-9.049 -0.0106,-9.818 0.0717,-0.769 -0.0495,-2.639 2.959,-2.605 2.8764,0.033 3.9683,0.053 7.1067,0.983 2.4278,0.72 6.3032,3.797 6.3032,3.797 0,0 -2.4679,-7.849 -8.5615,-12.549 -6.0936,-4.701 -7.0708,-5.068 -7.0708,-5.068 0,0 -8.7109,3.431 -17.342,-2.698 -8.63104,-6.129 -8.59231,-16.436 -8.38242,-17.626 0.2099,-1.189 0.76613,-6.164 1.06429,-6.496 0.29816,-0.331 0.88538,3.214 1.3512,4.371 0.46583,1.156 2.20221,2.856 2.02351,0.652 -0.16085,-1.984 -0.0411,-6.204 1.28392,-8.396 1.1609,-1.92 2.9693,-2.327 2.9693,-2.327 0,0 0.5679,-0.115 0.733,-0.326 0.4064,-0.517 0.1039,-1.332 0.3502,-1.942 0.1477,-0.366 0.3287,-0.767 0.6577,-0.984 0.1384,-0.092 0.3647,-0.203 0.4891,-0.093 -0.6884,6.19 4.3981,10.748 9.7105,12.9 7.4683,2.948 9.6401,8.086 9.4897,11.576 -0.1043,2.421 -0.255,5.45 -0.255,5.45 4.2706,1.87 8.5224,3.787 12.4318,6.573 0,0 1.3178,-20.758 4.0147,-26.749 2.6968,-5.991 5.4024,-15.952 11.8266,-23.87 6.4241,-7.918 5.0354,-6.137 5.0354,-6.137 0.0909,-0.053 -9.4118,-3.929 -13.102,-17.645 -2.6692,-9.921 -1.1625,-11.575 -4.0867,-24.7147 -2.8803,-12.9431 -3.0132,-14.3531 -2.8699,-17.3245 0.1432,-2.9713 0.1715,-7.1461 0.1715,-7.1461 0.2033,0.4703 -4.7008,9.5211 -18.6656,9.7891 C 16.4697,76.0626 5.64394,68.0961 2.32963,66.3341 0.50301,65.363 0,64.7764 0,64.7764 c 0,0 15.0651,-9.976 19.7,-16.4869 4.6349,-6.5109 20.5647,-8.6875 25.4008,-7.2847 4.8361,1.4027 13.9813,0.7066 13.9813,0.7066 1.586,-3.1226 5.2202,-5.3931 7.5416,-9.0775 0,0 -6.1919,-4.2817 -6.0799,-14.7988 0.073,-6.8545 1.1486,-10.60119 3.124,-10.27725 0.7348,0.12051 1.3586,1.40915 2.164,2.81915 1.7338,3.0354 5.8256,7.3139 9.992,9.0401 z"
         sodipodi:nodetypes="ccscssssssccscccscssccccsssssscssscssssssssccsssssscccsssscscsssssssssscscsssssscsssccsccsscssscsscssccsssc"
         style="stroke-width:0.248097;stroke-miterlimit:2;stroke-dasharray:none" />
      <path
         id="path48696"
         transform="translate(19.168522,-274.77391)"
         fill="none"
         stroke="#000000"
         stroke-width="0.264583"
         stroke-linecap="butt"
         stroke-linejoin="miter"
         stroke-miterlimit="2"
         d="M 0,0 C 0,0 6.43898,2.34165 16.2292,10.4629"
         sodipodi:nodetypes="cc"
         style="stroke-width:0.248097;stroke-miterlimit:2;stroke-dasharray:none" />
      <path
         id="path48731"
         transform="translate(-56.138879,-275.59427)"
         fill="none"
         stroke="#000000"
         stroke-width="0.264583"
         stroke-linecap="butt"
         stroke-linejoin="miter"
         stroke-miterlimit="2"
         d="M 16.7434,0 C 16.7434,0 6.39707,5.19016 0,10.5977"
         sodipodi:nodetypes="cc"
         style="stroke-width:0.248097;stroke-miterlimit:2;stroke-dasharray:none" />
      <path
         id="path48733"
         transform="translate(-71.317072,-275.59492)"
         fill="none"
         stroke="#000000"
         stroke-width="0.264583"
         stroke-linecap="butt"
         stroke-linejoin="miter"
         stroke-miterlimit="2"
         d="m 31.9216,6.5143e-4 c 0,0 1.7041,-0.07170003 2.2593,1.28933857 0.5552,1.36101 4.1554,8.45951 5.0945,9.73081 0.9391,1.2713 6.3536,5.9915 10.2878,7.1752 3.9342,1.1837 9.3835,6.2388 9.7709,8.1114 0.3874,1.8727 1.8397,5.6396 -0.8316,11.7282 -2.6712,6.0886 -2.4466,7.8551 -1.8304,9.2176 0.6162,1.3625 2.2204,9.7238 1.8029,13.4018 -0.2916,2.5694 -4.0607,6.6615 -5.3891,7.8923 -1.3283,1.2307 -7.1353,6.0578 -8.8646,5.9986 -6.3464,-0.2174 -9.04,0.2804 -13.7027,2.2247 -3.6104,1.808 -14.7645,3.3967 -18.4459,1.2056 C 8.27071,75.7134 7.87736,74.5385 6.49965,71.6725 5.12194,68.8065 0,69.5036 0,69.5036"
         sodipodi:nodetypes="cssssssssscssc"
         style="stroke-width:0.248097;stroke-miterlimit:2;stroke-dasharray:none" />
      <path
         id="path48735"
         transform="translate(26.832441,-200.69413)"
         fill="none"
         stroke="#000000"
         stroke-width="0.264583"
         stroke-linecap="butt"
         stroke-linejoin="miter"
         stroke-miterlimit="2"
         d="m 21.2537,0.210405 c 0,0 -8.1042,-1.260405 -9.2719,2.388555 -1.1677,3.64897 -2.64301,9.87134 -4.09473,11.35944 -1.45169,1.4881 -2.618,3.3407 -5.48838,3.5555 -2.870388,0.2147 -2.3642933,0.27 -2.3642933,0.27 0,0 2.9925133,4.2348 3.8788133,7.4107 0.88633,3.1759 0.82741,8.8841 0.55375,9.513 -0.27363,0.629 -1.21002,2.7005 -1.21002,2.7005 l 2.58318,-1.2002"
         sodipodi:nodetypes="ccccccccc"
         style="stroke-width:0.248097;stroke-miterlimit:2;stroke-dasharray:none" />
      <path
         id="path48770"
         transform="translate(27.435969,-160.05146)"
         fill="none"
         stroke="#000000"
         stroke-width="0.264583"
         stroke-linecap="butt"
         stroke-linejoin="miter"
         stroke-miterlimit="2"
         d="m 8.07026,0 c 0,0 0.08186,4.12246 -1.64585,5.42588 C 4.69671,6.7293 0.26645,14.64 0.0356269,19.0659 c -0.2308219,4.4259 0.5855501,7.854 4.6532831,9.2586 4.06773,1.4045 8.57219,4.7238 8.86309,6.9436 0.2908,2.2198 -1.4147,8.725 -0.4211,10.9866 0.9937,2.2617 0.403,6.371 3.8539,7.9112 3.451,1.5401 4.9773,2.3865 6.2366,2.5652 1.2593,0.1788 1.4568,0.0266 1.4568,0.0266"
         sodipodi:nodetypes="ccccccccc"
         style="stroke-width:0.248097;stroke-miterlimit:2;stroke-dasharray:none" />
      <path
         id="path48805"
         transform="translate(7.4510011,-104.25702)"
         fill="none"
         stroke="#000000"
         stroke-width="0.264583"
         stroke-linecap="butt"
         stroke-linejoin="miter"
         stroke-miterlimit="2"
         d="m 5.30648,0 c 0,0 3.33015,1.42377 3.58204,2.37443 0.25191,0.95065 0.42672,1.74968 0.42672,1.74968 0,0 -2.41533,3.69518 -2.59319,4.5664 -0.17785,0.87122 -0.09694,3.17369 2.13659,3.28529 2.23356,0.1117 6.89676,-0.7554 7.82306,-0.3574 0.9262,0.3981 2.1973,0.0774 2.1445,3.6751 -0.0527,3.5977 -3.1695,4.2545 -4.52,4.4753 -1.3505,0.2208 -4.81343,0.7527 -5.43501,3.0548 -0.62156,2.3021 0.50088,4.6325 0.6573,5.7748 0.15645,1.1423 1.67191,3.5429 -3.85966,3.1189 C 0.137264,31.2933 -0.57002,29.4049 0.323107,26.7377 1.21621,24.0705 5.05351,2.69528 5.30648,0 Z"
         sodipodi:nodetypes="ccccccccccccc"
         style="stroke-width:0.248097;stroke-miterlimit:2;stroke-dasharray:none" />
      <path
         id="path48840"
         transform="translate(-37.678289,-140.30956)"
         fill="none"
         stroke="#000000"
         stroke-width="0.264583"
         stroke-linecap="butt"
         stroke-linejoin="miter"
         stroke-miterlimit="2"
         d="m 50.4358,36.0525 c 0,0 4.8175,-17.7999 -5.9995,-27.45739 C 33.6193,-1.06239 22.5141,-1.86792 14.4666,2.65353 6.41924,7.17498 -1.19523,17.0383 0.156763,28.0722 1.50878,39.1061 4.53067,46.0755 5.43459,52.3552 c 0.90392,6.2798 2.36673,20.543 2.70735,21.4794 0.34065,0.9363 5.66836,6.0841 16.08956,5.9272 10.4213,-0.1569 18.8268,-3.4167 19.7202,-6.4149 0.8934,-2.9982 1.2212,-9.0153 1.2212,-9.0153"
         sodipodi:nodetypes="ccccccccc"
         style="stroke-width:0.248097;stroke-miterlimit:2;stroke-dasharray:none" />
      <path
         id="path48875"
         transform="translate(-46.614424,-109.62319)"
         fill="none"
         stroke="#000000"
         stroke-width="0.264583"
         stroke-linecap="butt"
         stroke-linejoin="miter"
         stroke-miterlimit="2"
         d="m 9.45839,0 c 0,0 -4.38745,0.91522 -4.06889,3.61479 0.31858,2.69956 2.02687,9.08651 -1.52175,11.18501 -3.54862,2.0985 -4.701516,4.1341 -3.267289,6.5985 1.434229,2.4643 4.896509,4.4553 8.139189,2.8423 3.24265,-1.6129 5.55955,-2.8738 5.55955,-2.8738"
         sodipodi:nodetypes="cccccc"
         style="stroke-width:0.248097;stroke-miterlimit:2;stroke-dasharray:none" />
      <path
         id="path48877"
         transform="translate(-3.9902455,-140.15381)"
         fill="none"
         stroke="#000000"
         stroke-width="0.264583"
         stroke-linecap="butt"
         stroke-linejoin="miter"
         stroke-miterlimit="2"
         d="m 14.5096,12.7958 c 0,0 0.9751,-6.44042 -0.6969,-9.50021 C 12.1406,0.235809 9.77281,-0.349161 7.34536,0.166609 4.91789,0.682379 0,1.56949 0,1.56949"
         sodipodi:nodetypes="cccc"
         style="stroke-width:0.248097;stroke-miterlimit:2;stroke-dasharray:none" />
      <path
         id="path48879"
         transform="translate(-24.775284,-150.01698)"
         fill="none"
         stroke="#000000"
         stroke-width="0.264583"
         stroke-linecap="butt"
         stroke-linejoin="miter"
         stroke-miterlimit="2"
         d="m 17.3008,10.3704 c 0,0 -2.3344,-2.34768 -3.0404,-5.83928 C 13.5544,1.03952 11.8243,-0.586505 7.23382,0.190955 2.64327,0.968415 -0.146043,4.08999 0.00590726,6.45404 0.157858,8.8181 0.799155,12.7669 0.799155,12.7669"
         sodipodi:nodetypes="ccccc"
         style="stroke-width:0.248097;stroke-miterlimit:2;stroke-dasharray:none" />
      <path
         id="path49045"
         transform="translate(-75.33835,-159.92778)"
         fill="none"
         stroke="#000000"
         stroke-width="0.264583"
         stroke-linecap="butt"
         stroke-linejoin="miter"
         stroke-miterlimit="2"
         d="m 17.0357,0 c 0,0 -0.7957,2.59349 1.5133,5.49811 2.3091,2.90461 6.1933,9.05199 6.145,12.45479 -0.0483,3.4028 0.6834,8.0016 -3.0258,9.6288 -3.7092,1.6273 -10.0016,4.0026 -10.293,7.1677 -0.2915,3.165 0.8532,7.7951 0.6027,9.7643 -0.2505,1.9692 -1.4161,8.4033 -4.21975,9.7812 -2.80361,1.3779 -6.56638,2.5417 -7.196511,2.4838 -0.6301054,-0.0579 -0.55925039,-4.876 -0.55925039,-4.876"
         sodipodi:nodetypes="ccccccccc"
         style="stroke-width:0.248097;stroke-miterlimit:2;stroke-dasharray:none" />
      <path
         id="path49229"
         transform="translate(48.375811,-251.27804)"
         fill="none"
         stroke="#000000"
         stroke-width="0.264583"
         stroke-linecap="butt"
         stroke-linejoin="miter"
         stroke-miterlimit="2"
         d="m 2.09951,2.25592 c 0,0 7.58441,-3.194142 12.91249,-1.980922 C 24.8224,1.0194 35.6728,13.2731 47.3064,19.0985 c 1.5191,0.7607 -2.524,2.4429 -5.9467,4.3918 -6.2262,3.5453 -6.8112,3.2741 -14.2598,4.6801 C 17.7157,29.9417 11.7958,26.3755 8.73287,23.6968 5.70289,21.0469 4.97275,20.5643 4.0537,17.3805 3.14726,14.2404 3.07416,11.8734 2.09203,9.96056 1.10992,8.04771 -0.416707,4.36721 0.106242,3.69689 0.629191,3.02658 2.09951,2.25592 2.09951,2.25592 Z"
         sodipodi:nodetypes="ccsssssssc"
         style="stroke-width:0.248097;stroke-miterlimit:2;stroke-dasharray:none" />
      <path
         id="path49229-6"
         transform="translate(-117.58451,-251.12444)"
         fill="none"
         stroke="#000000"
         stroke-width="0.264583"
         stroke-linecap="butt"
         stroke-linejoin="miter"
         stroke-miterlimit="2"
         d="m 44.5612,1.74315 c 0,0 -7.8708,-2.637272 -13.1989,-1.424052 C 21.552,1.0635 12.0454,12.7691 0.411794,18.5945 c -1.519104,0.7607 1.406066,2.4937 4.828756,4.4426 6.22625,3.5453 6.83985,3.5472 14.28845,4.9532 9.3842,1.7713 15.8294,-1.5493 18.8924,-4.2281 3.0299,-2.6499 3.2666,-3.7106 4.1856,-6.8945 0.9065,-3.1401 0.9796,-5.5071 1.9617,-7.41991 C 45.5508,7.53494 47.0775,3.85444 46.5545,3.18412 46.0316,2.51381 44.5612,1.74315 44.5612,1.74315 Z"
         sodipodi:nodetypes="ccsssssssc"
         style="stroke-width:0.248097;stroke-miterlimit:2;stroke-dasharray:none" />
      <path
         id="path6734-0-3"
         transform="translate(-57.591118,-253.471)"
         fill="none"
         stroke="#000000"
         stroke-width="0.264583"
         stroke-linecap="butt"
         stroke-linejoin="miter"
         stroke-miterlimit="2"
         d="M 18.2826,5.1079 C 16.8901,4.87423 11.0685,4.57525 5.81032,8.98931 1.46821,12.6343 0.0906941,14.878 0.0906941,14.878 -0.577543,14.7279 2.56641,8.72968 5.59318,5.46611 7.51733,3.39143 10.281,1.58543 12.9009,0.697216 15.0448,-0.0295839 17.1603,-0.0324339 18.0734,0.0190461 21.1324,0.191496 24.0162,5.69486 23.0953,6.21137 22.5825,6.499 18.0162,4.86547 18.2826,5.1079 Z"
         sodipodi:nodetypes="cscssssc"
         style="stroke-width:0.248097;stroke-miterlimit:2;stroke-dasharray:none" />
      <path
         id="path55664"
         transform="translate(-76.27848,-91.042072)"
         fill="none"
         stroke="#000000"
         stroke-width="0.264583"
         stroke-linecap="butt"
         stroke-linejoin="miter"
         stroke-miterlimit="2"
         d="M 0,0 C 0,0 5.57267,6.81536 7.00659,12.2463 8.51166,17.9467 9.28396,23.0898 8.07934,28.5355 6.87484,33.9806 4.1788,37.6454 4.1788,37.6454"
         sodipodi:nodetypes="cssc"
         style="stroke-width:0.248097;stroke-miterlimit:2;stroke-dasharray:none" />
      <path
         id="path55664-7"
         transform="translate(44.279027,-92.039694)"
         fill="none"
         stroke="#000000"
         stroke-width="0.264583"
         stroke-linecap="butt"
         stroke-linejoin="miter"
         stroke-miterlimit="2"
         d="M 10.0264,0.0106806 C 9.75243,-0.248416 5.15579,4.2379 2.93656,10.0471 0.832543,15.5546 -0.793844,23.4663 0.410778,28.912 1.61527,34.3572 4.22542,38.3937 4.22542,38.3937"
         sodipodi:nodetypes="cssc"
         style="stroke-width:0.248097;stroke-miterlimit:2;stroke-dasharray:none" />
      <path
         id="path56607"
         transform="translate(2.7410719,-66.931092)"
         fill="none"
         stroke="#000000"
         stroke-width="0.264583"
         stroke-linecap="butt"
         stroke-linejoin="miter"
         stroke-miterlimit="2"
         d="m 32.8076,12.4737 c 0,0 -0.6986,-8.31686 -0.9399,-8.55051 C 31.6265,3.68954 30.0132,5.7186 28.281,6.0067 26.5487,6.29484 19.7695,8.35234 14.4022,6.59157 9.03486,4.83082 6.46134,3.72859 4.97861,1.96321 3.49589,0.197829 3.54441,0 3.54441,0 3.54441,0 1.39457,5.67362 1.07847,7.11912 0.76237,8.56464 0,12.4227 0,12.4227"
         sodipodi:nodetypes="cccccccc"
         style="stroke-width:0.248097;stroke-miterlimit:2;stroke-dasharray:none" />
      <path
         id="path56642"
         transform="translate(-59.050671,-66.280695)"
         fill="none"
         stroke="#000000"
         stroke-width="0.264583"
         stroke-linecap="butt"
         stroke-linejoin="miter"
         stroke-miterlimit="2"
         d="m 32.7985,11.7143 c 0,0 -2.4112,-10.07949 -2.978,-11.009263 C 29.2538,-0.224708 29.2368,-0.0991899 28.9631,0.308639 28.6895,0.716467 27.1978,2.60895 25.75,3.21406 24.3021,3.81918 21.2233,5.37671 20.4476,5.56768 19.672,5.75869 15.9038,6.65083 12.2115,6.40644 8.51924,6.16204 4.67759,5.91519 3.47689,4.88085 2.27621,3.84652 0.941175,2.14133 0.941175,2.14133 L 0,11.775"
         sodipodi:nodetypes="ccccccccc"
         style="stroke-width:0.248097;stroke-miterlimit:2;stroke-dasharray:none" />
      <path
         id="path56677"
         transform="translate(-96.074819,-114.5988)"
         fill="none"
         stroke="#000000"
         stroke-width="0.264583"
         stroke-linecap="butt"
         stroke-linejoin="miter"
         stroke-miterlimit="2"
         d="m 8.30699,0 c 0,0 -4.72136,0.13527 -6.03705,0.5175 -1.315697,0.38224 -2.74614,0.69537 -2.116882,1.59662 0.629259,0.90125 3.084482,2.5 3.410162,2.7456 0.32568,0.24561 0.60082,1.07994 0.60082,1.07994"
         sodipodi:nodetypes="ccccc"
         style="stroke-width:0.248097;stroke-miterlimit:2;stroke-dasharray:none" />
      <path
         id="path56712"
         transform="translate(-54.45933,-164.78153)"
         fill="none"
         stroke="#000000"
         stroke-width="0.264583"
         stroke-linecap="butt"
         stroke-linejoin="miter"
         stroke-miterlimit="2"
         d="M 0,0 C 0,0 12.2899,7.8549 35.0931,8.51059 57.8963,9.16627 72.9488,5.80416 75.9082,4.93444 78.8675,4.06473 84.5487,1.49551 84.5487,1.49551"
         sodipodi:nodetypes="cccc"
         style="stroke-width:0.248097;stroke-miterlimit:2;stroke-dasharray:none" />
      <path
         id="path56747"
         transform="translate(-30.528483,-173.19487)"
         fill="#000000"
         stroke="#000000"
         stroke-width="0.264583"
         stroke-linecap="butt"
         stroke-linejoin="miter"
         stroke-miterlimit="2"
         d="M 0,0 C 0,0 3.45461,3.7796 9.04259,6.0718 14.6306,8.36399 21.0885,9.3119 23.876,8.62191 26.6636,7.93192 31.0321,6.83566 34.123,4.34053 c 3.0909,-2.49514 5.4167,-4.01311 5.4167,-4.01311 0,0 -7.0937,4.34391 -8.1673,4.62758 C 30.2987,5.23867 22.5624,8.31111 18.22,7.36881 13.8776,6.42651 9.70804,5.57743 6.49512,3.75713 3.28221,1.93684 0,0 0,0 Z"
         sodipodi:nodetypes="ccccccccc"
         style="stroke-width:0.248097;stroke-miterlimit:2;stroke-dasharray:none" />
      <path
         id="path56815"
         transform="translate(-29.919463,-193.08895)"
         fill="none"
         stroke="#000000"
         stroke-width="0.264583"
         stroke-linecap="butt"
         stroke-linejoin="miter"
         stroke-miterlimit="2"
         d="m 2.5001,0.339095 c 0,0 -2.4729739,0.893025 -2.49810889,2.063805 C -0.0231389,3.57368 0.165839,4.90585 1.95104,4.80953 3.73623,4.71323 6.12727,4.49305 7.15775,3.74242 8.18824,2.99179 8.7563,0.0066448 5.77403,1.04802e-4 2.79175,-0.0068952 2.5001,0.339095 2.5001,0.339095 Z"
         sodipodi:nodetypes="cssscc"
         style="stroke-width:0.248097;stroke-miterlimit:2;stroke-dasharray:none" />
      <path
         id="path56815-5"
         transform="translate(0.97179276,-193.08815)"
         fill="none"
         stroke="#000000"
         stroke-width="0.264583"
         stroke-linecap="butt"
         stroke-linejoin="miter"
         stroke-miterlimit="2"
         d="m 6.2188,0.415005 c 0,0 2.28391,1.196615 2.30904,2.367395 C 8.55297,3.95318 7.09758,5.00177 5.31239,4.90545 3.52719,4.80915 2.25922,4.41834 1.17551,3.74685 -0.12996,2.93795 -1.10651,-0.133775 2.55923,0.00452515 5.54151,-0.00247485 6.2188,0.415005 6.2188,0.415005 Z"
         sodipodi:nodetypes="cssscc"
         style="stroke-width:0.248097;stroke-miterlimit:2;stroke-dasharray:none" />
      <path
         id="path57598"
         transform="translate(-52.755217,-198.72973)"
         fill="none"
         stroke="#000000"
         stroke-width="0.264583"
         stroke-linecap="butt"
         stroke-linejoin="miter"
         stroke-miterlimit="2"
         d="M 79.6221,15.8195 C 79.1834,16.0892 71.6267,4.98996 59.0367,2.16625 45.681,-0.829179 31.0641,-1.07603 21.1984,3.71369 11.3327,8.50342 6.45242,12.8069 3.67921,17.2845 1.44374,20.8939 0.0585144,24.3459 0.00369345,29.2673 -0.0511266,34.1888 0.522435,35.0806 0.522435,35.0806"
         sodipodi:nodetypes="cssssc"
         style="stroke-width:0.248097;stroke-miterlimit:2;stroke-dasharray:none" />
      <path
         id="path58077"
         transform="translate(-74.945129,-103.3313)"
         fill="none"
         stroke="#000000"
         stroke-width="0.264583"
         stroke-linecap="butt"
         stroke-linejoin="miter"
         stroke-miterlimit="2"
         d="M 0.0313107,0 C -0.708266,3.35773 11.8512,33.7479 16.8356,39.1919"
         sodipodi:nodetypes="cc"
         style="stroke-width:0.248097;stroke-miterlimit:2;stroke-dasharray:none" />
      <path
         id="path58112"
         transform="translate(34.522874,-103.29372)"
         fill="none"
         stroke="#000000"
         stroke-width="0.264583"
         stroke-linecap="butt"
         stroke-linejoin="miter"
         stroke-miterlimit="2"
         d="M 17.5913,0 C 18.4683,2.28221 4.5151,35.7097 0,40.2676"
         sodipodi:nodetypes="cc"
         style="stroke-width:0.248097;stroke-miterlimit:2;stroke-dasharray:none" />
    </g>
    <path
       id="path58515"
       fill="none"
       stroke="#000000"
       stroke-width="0.106645"
       stroke-linecap="butt"
       stroke-linejoin="miter"
       stroke-miterlimit="2"
       d="m 131.00701,30.271582 c 2.64551,-2.743927 -0.44304,-8.213852 2.896,-10.051968 2.78403,-1.532594 9.56566,1.617286 13.28903,1.221031 4.49202,-0.477984 6.83846,-4.759586 11.34819,-4.500723 4.42391,0.253921 5.85148,4.955812 10.27924,4.788891 3.50273,-0.132021 7.12013,-4.445329 9.94525,-2.371198 2.70622,1.986564 1.59071,8.267586 4.96185,11.665657 3.96025,3.992024 6.08658,2.598476 11.07537,5.008133 3.60778,1.742634 6.59374,5.325248 9.42809,8.514222 2.1529,2.422248 -2.93671,6.777631 -5.72219,8.433879 -6.28206,3.354204 -12.87272,2.732767 -12.87272,2.732767 -0.25974,7.244033 -2.01244,12.830015 -5.14501,17.674884 0,0 3.4631,6.878871 4.62169,10.186508 1.39872,3.992186 2.43072,10.269247 2.43072,10.269247 7.06241,2.854361 13.67347,6.933128 13.4449,14.124818 -0.31168,6.3417 -4.00372,13.12745 -8.78742,14.27143 h -36.71847 -32.11184 c -11.44736,0 -12.00866,-11.72913 -11.15841,-18.15818 0.72587,-2.53576 2.77844,-6.084278 2.77844,-6.084278 -4.53176,-4.981861 -5.28596,-10.102241 -4.3074,-14.156757 1.02539,-4.248834 3.95332,-7.327537 6.43125,-7.851228 4.26373,-0.900797 10.02177,4.37774 11.33275,5.51402 2.06286,-4.222668 2.9329,-4.460089 4.72159,-8.102492 -4.21959,-4.969937 -4.36704,-10.372369 -5.06536,-18.359701 -3.28983,1.347801 -7.6299,0.550517 -11.60892,-1.45561 -3.24772,-1.637317 -6.25494,-4.079842 -8.25414,-6.818108 1.9905,-7.309914 13.01078,-12.600451 18.3049,-13.844243 2.10853,-0.448704 2.96638,-1.099106 4.46262,-2.651001 z"
       sodipodi:nodetypes="cssssscsscccscccccccsscccsccc"
       style="stroke-width:0.0954648;stroke-miterlimit:2;stroke-dasharray:none" />
    <path
       id="path871-71"
       fill="none"
       stroke="#000000"
       stroke-width="0.143204"
       stroke-linecap="butt"
       stroke-linejoin="miter"
       stroke-miterlimit="2"
       d="m 32.898509,155.72367 c 1.363691,0.17426 6.535174,0.434 10.315723,1.59626 2.519904,0.77471 4.210088,2.46022 4.210088,2.46022 0,0 8.218778,-1.36424 12.416823,-1.38283 4.54166,0.0506 5.41667,0.44741 12.455224,1.303 0,0 3.283786,-1.24572 5.634076,-2.25346 2.065545,-0.88564 9.517363,-1.81689 11.763374,-1.88435 3.648951,-0.10962 7.248264,-1.28732 7.948195,-0.57227 1.691531,1.72874 -0.906563,8.82312 -0.756879,12.97934 0.332841,9.26051 -2.969415,15.25906 -7.096273,15.30751 2.76663,5.7644 1.636506,10.77143 0.721094,16.08844 -0.603349,3.50426 -6.660307,8.26679 -6.660307,8.26679 0,0 2.257939,4.51319 3.418462,7.22903 2.738157,6.40788 1.678449,13.00278 4.612462,14.55809 15.736319,8.34222 7.309445,26.60314 -1.93087,26.53657 L 59.468282,255.7363 34.737106,255.55814 c -17.566025,-1.91279 -11.286659,-15.24956 -16.001591,-21.48198 -8.016043,-10.59593 -5.311888,-19.24752 0.192626,-22.79835 4.645553,-2.99674 11.285659,-2.35991 15.159635,3.80748 -0.04991,-4.09761 2.296187,-5.81531 4.782499,-7.40564 0,0 -4.353421,-0.22895 -7.757377,-7.56802 -4.092113,-8.82259 -0.326494,-17.22707 -0.326494,-17.22707 -7.364277,-4.18819 -6.176127,-13.11167 -6.961443,-17.14703 -0.507113,-2.60586 -2.46738,-9.50648 -1.414406,-10.23735 1.193769,-0.82856 4.272078,-0.57086 10.487954,0.22349 z"
       sodipodi:nodetypes="cscccsssscscsscccssccscsss"
       style="stroke-width:0.0954648;stroke-miterlimit:2;stroke-dasharray:none" />
    <g
       id="g706"
       fill="none"
       transform="matrix(0.38478867,0,0,0.38478867,159.92977,268.74371)"
       style="stroke-width:0.248097;stroke-miterlimit:2;stroke-dasharray:none">
      <path
         id="path8110-31"
         transform="translate(-232.5746,-228.77928)"
         fill="none"
         stroke="#000000"
         stroke-width="0.264583"
         stroke-linecap="butt"
         stroke-linejoin="miter"
         stroke-miterlimit="2"
         d="M 3.65782,0.0147758 C 2.00694,0.202786 -0.256807,2.04947 0.0237629,4.10241 0.304343,6.15536 1.84904,8.27903 3.7589,8.19627 5.27117,8.12677 8.18651,7.21671 8.09864,3.84333 8.02454,0.998126 5.0702,-0.146064 3.65782,0.0147758 Z"
         sodipodi:nodetypes="cscss"
         style="stroke-width:0.248097;stroke-miterlimit:2;stroke-dasharray:none" />
      <path
         id="path8711"
         transform="translate(-366.12046,-287.20754)"
         fill="none"
         stroke="#000000"
         stroke-width="0.264583"
         stroke-linecap="butt"
         stroke-linejoin="miter"
         stroke-miterlimit="2"
         d="m 30.7565,2.73471 c 0,0 6.914,1.38255 11.1003,1.43143 4.1863,0.0489 10.9948,0.83052 15.0776,2.5573 4.0829,1.72678 8.5459,5.06566 10.6986,8.10896 2.1528,3.0433 2.2013,2.9616 2.2013,2.9616 0,0 18.628,-6.7532 27.4183,-6.6553 8.7904,0.0979 22.9284,-1.14663 34.1334,2.4156 11.206,3.5623 13.029,4.5486 13.029,4.5486 0,0 5.724,-9.70241 12.778,-11.56292 7.054,-1.8605 8.838,-2.53961 13.223,-2.59944 4.385,-0.0598 18.78,-1.40345 20.919,-2.45049 2.139,-1.047051 4.944,-1.260141 4.944,-1.260141 0,0 1.783,0.975791 0.822,3.483281 -0.962,2.5075 -6.994,9.59841 -7.436,12.63461 -0.443,3.0363 -0.287,14.34 -0.028,15.7014 0.259,1.3614 -1.22,17.6369 -8.848,20.6042 -7.628,2.9673 -12.386,3.5111 -12.386,3.5111 0,0 5.159,18.4832 5.815,22.2387 0.656,3.7555 2.289,17.5113 -1.226,23.8708 -3.515,6.359 -6.426,13.637 -14.626,17.59 -8.199,3.953 -9.896,5.018 -9.896,5.018 0,0 12.044,14.967 15.375,25.255 3.33,10.287 3.634,14.945 3.634,14.945 0,0 0.043,11.975 0.087,13.737 0.291,4.493 3.599,11.586 6.419,15.199 2.447,3.137 4.956,2.207 7.549,4.381 0.333,-0.164 -7.63,-4.49 -15.152,3.548 -8.783,9.384 -7.651,21.306 -6.877,24.793 0.465,2.098 1.53,4.313 1.77,4.945 0.24,0.633 -10.425,-1.213 -10.425,-1.213 l 2.434,-6.775 c 0,0 -13.843,2.886 -24.093,-2.925 -1.412,-0.801 -3.165,-1.91 -3.165,-1.91 0,0 2.533,-19.588 3.624,-24.465 1.092,-4.877 6.973,-21.918 2.424,-32.908 -4.55,-10.989 -16.425,-17.132 -25.781,-17.034 -9.3567,0.099 -18.1056,4.426 -22.0324,13.55 -3.9268,9.125 -4.2644,9.025 -1.2358,29.468 3.0287,20.444 5.3599,31.055 5.3599,31.055 0,0 -9.2957,6.56 -18.6464,5.856 -9.3506,-0.704 -9.3781,-0.757 -9.3781,-0.757 l 2.795,7.152 c 0,0 -6.5036,0.574 -7.5887,0.499 -1.085,-0.074 -1.2666,-0.324 -1.2666,-0.324 0.2263,0.857 4.4838,-13.722 -2.1683,-24.25 -3.2044,-5.072 -5.7993,-6.623 -7.6329,-7.782 -1.3677,-0.865 -6.696,-1.962 -6.797,-1.634 0,0 5.9235,-5.468 5.8676,-9.087 -0.0558,-3.62 -1.6707,-6.497 -3.6774,-9.068 -0.6478,-0.83 -2.9425,-2.171 -2.9425,-2.171 0,0 -0.4041,7.876 -3.3413,10.768 -1.968,1.938 -4.6888,4.464 -9.2969,4.481 -7.3817,0.027 -13.181,-4.998 -14.204,-10.766 -1.13884,-6.422 1.8071,-9.711 1.8071,-9.711 0,0 1.7967,-4.05 8.621,-6.264 2.026,-0.658 6.2007,-1.544 6.2007,-1.544 0,0 -0.4332,-2.704 -1.0904,-3.873 -1.3317,-2.37 -3.3634,-4.363 -5.5562,-5.97 -1.7718,-1.299 -3.8032,-2.373 -5.9522,-2.828 C 9.52537,150.279 0,151.627 0,151.627 c 0,0 3.65229,-1.05 5.50872,-1.447 2.25596,-0.484 4.52548,-0.981 6.82718,-1.139 1.8309,-0.125 3.6924,-0.14 5.5033,0.157 2.1138,0.347 4.2611,0.861 6.145,1.881 2.2679,1.227 4.2969,2.969 5.9408,4.956 1.8661,2.255 2.6249,5.252 4.2633,7.678 0.4128,0.611 0.8517,1.218 1.3935,1.719 2.8371,2.622 7.9368,5.206 9.5498,6.567 1.6131,1.36 2.0094,1.649 2.0094,1.649 0,0 0.4185,-23.982 8.8798,-34.116 8.4613,-10.133 10.6823,-13.933 10.6823,-13.933 0,0 -21.0059,-7.688 -25.6387,-23.083 C 36.4316,87.122 39.8512,77.3693 39.8512,77.3693 l 5.2856,-21.6906 c 0,0 -13.2492,1.0999 -17.7587,-9.7385 -4.5096,-10.8384 -2.7766,-28.9903 -2.7766,-28.9903 0,0 -1.6752,-5.2867 -2.5695,-6.3959 -0.8944,-1.10925 -4.7379,-5.9639 -4.7379,-5.9639 0,0 -2.1255,-3.772911 0.9206,-4.489591 3.046,-0.71667 12.5418,2.634201 12.5418,2.634201 z"
         sodipodi:nodetypes="ccsscsscssscsssscssscsccscsssccscssssscsccscsscsscssscsccccccccccccscscsccscscsc"
         style="stroke-width:0.248097;stroke-miterlimit:2;stroke-dasharray:none" />
      <path
         id="path35091"
         transform="translate(-348.34748,-115.27196)"
         fill="none"
         stroke="#000000"
         stroke-width="0.264583"
         stroke-linecap="butt"
         stroke-linejoin="miter"
         stroke-miterlimit="2"
         d="m 5.78227,0.285897 c 0,0 -6.90214,2.724473 -5.624506,7.658503 1.277626,4.934 5.150186,4.869 5.150186,4.869 0,0 6.39365,-0.2667 6.48555,-8.16423 0.019,-1.62764 -0.132,-3.32187 -0.9108,-3.839073 -2.1643,-1.43724 -5.10043,-0.5242 -5.10043,-0.5242 z"
         sodipodi:nodetypes="cscssc"
         style="stroke-width:0.248097;stroke-miterlimit:2;stroke-dasharray:none" />
      <path
         id="path43991"
         transform="translate(-288.36636,-175.39216)"
         fill="none"
         stroke="#000000"
         stroke-width="0.264583"
         stroke-linecap="butt"
         stroke-linejoin="miter"
         stroke-miterlimit="2"
         d="m 0,0.07984 c 0,0 8.43544,10.92176 23.1299,11.49566 C 38.6394,12.1813 38.138,11.4618 46.1807,8.7427 53.9394,6.11964 58.0727,0 58.0727,0"
         sodipodi:nodetypes="cssc"
         style="stroke-width:0.248097;stroke-miterlimit:2;stroke-dasharray:none" />
      <path
         id="path53871"
         transform="translate(-232.03486,-176.41657)"
         fill="none"
         stroke="#000000"
         stroke-width="0.264583"
         stroke-linecap="butt"
         stroke-linejoin="miter"
         stroke-miterlimit="2"
         d="M 0,0 C 0,0 2.10891,0.67725 3.18878,2.36059"
         sodipodi:nodetypes="cc"
         style="stroke-width:0.248097;stroke-miterlimit:2;stroke-dasharray:none" />
      <path
         id="path57301"
         transform="translate(-306.65365,-252.0332)"
         fill="none"
         stroke="#000000"
         stroke-width="0.264583"
         stroke-linecap="butt"
         stroke-linejoin="miter"
         stroke-miterlimit="2"
         d="m 0,12.8299 c 0.8373,-1.4866 5.34538,-6.63774 10.7081,-8.14509 5.3628,-1.50734 7.7962,-0.48892 7.7962,-0.48892 0,0 -0.5719,-3.560884 -4.9132,-4.1358839 C 9.21917,-0.519054 5.56146,3.24753 4.30065,4.70567 3.19867,5.98011 0.64093,9.95327 0.02159,12.6783"
         sodipodi:nodetypes="cscssc"
         style="stroke-width:0.248097;stroke-miterlimit:2;stroke-dasharray:none" />
      <path
         id="path67341"
         transform="translate(-230.44087,-252.2256)"
         fill="none"
         stroke="#000000"
         stroke-width="0.264583"
         stroke-linecap="butt"
         stroke-linejoin="miter"
         stroke-miterlimit="2"
         d="m 0,4.11464 c 1.39256,-0.23367 7.8519,-0.29982 12.7899,3.38388 4.5441,3.38988 5.7196,5.88868 5.7196,5.88868 0,0 -2.2674,-6.5476 -5.0312,-9.37228 C 10.4266,0.896056 6.9137,-0.0456938 5.90085,0.00168617 4.34438,0.0744862 2.57739,0.560166 0.73537,2.7182 0.46781,3.03166 0,4.11464 0,4.11464 Z"
         sodipodi:nodetypes="cscsssc"
         style="stroke-width:0.248097;stroke-miterlimit:2;stroke-dasharray:none" />
      <path
         id="path81101"
         transform="translate(-294.16031,-228.74481)"
         fill="none"
         stroke="#000000"
         stroke-width="0.264583"
         stroke-linecap="butt"
         stroke-linejoin="miter"
         stroke-miterlimit="2"
         d="M 3.65782,0.0147758 C 2.00694,0.202786 -0.256807,2.04947 0.0237629,4.10241 0.304343,6.15536 1.84904,8.27903 3.7589,8.19627 5.27117,8.12677 8.18651,7.21671 8.09864,3.84333 8.02454,0.998126 5.0702,-0.146064 3.65782,0.0147758 Z"
         sodipodi:nodetypes="cscss"
         style="stroke-width:0.248097;stroke-miterlimit:2;stroke-dasharray:none" />
      <path
         id="path90001"
         transform="translate(-299.8439,-231.15943)"
         fill="none"
         stroke="#000000"
         stroke-width="0.264583"
         stroke-linecap="butt"
         stroke-linejoin="miter"
         stroke-miterlimit="2"
         d="M 4.65349,0.670616 C 3.97179,1.0455 -0.451646,3.62734 0.0377035,9.84592 0.527054,16.0645 0.0277035,15.6715 3.44837,19.9526 5.78404,22.876 12.588,23.0162 15.4037,18.075 17.2904,14.764 18.0376,8.28808 14.4716,3.46163 10.9056,-1.36481 5.73357,0.0766458 4.65349,0.670616 Z"
         sodipodi:nodetypes="csssss"
         style="stroke-width:0.248097;stroke-miterlimit:2;stroke-dasharray:none" />
      <path
         id="path9000-61"
         transform="translate(-235.60334,-231.0624)"
         fill="none"
         stroke="#000000"
         stroke-width="0.264583"
         stroke-linecap="butt"
         stroke-linejoin="miter"
         stroke-miterlimit="2"
         d="M 12.1758,0.670616 C 12.8575,1.0455 17.2809,3.62734 16.7916,9.84592 16.3022,16.0645 14.7821,18.5415 13.386,19.8604 10.5974,22.4947 4.55421,23.2138 1.73856,18.2727 -0.148188,14.9616 -1.20837,8.28808 2.35763,3.46163 5.92363,-1.36481 11.0957,0.0766458 12.1758,0.670616 Z"
         sodipodi:nodetypes="csssss"
         style="stroke-width:0.248097;stroke-miterlimit:2;stroke-dasharray:none" />
      <path
         id="path106961"
         transform="translate(-251.72251,-200.04897)"
         fill="none"
         stroke="#000000"
         stroke-width="0.264583"
         stroke-linecap="butt"
         stroke-linejoin="miter"
         stroke-miterlimit="2"
         d="M 2.03329,0.213023 C 0.684585,0.877473 -0.931975,4.07827 0.661365,8.90563 2.13339,13.3654 4.62837,14.6384 5.76671,15.0337 6.90505,15.429 11.76,16.9232 10.3568,8.41393 9.78593,4.51175 6.79734,-1.17317 2.03329,0.213023 Z"
         sodipodi:nodetypes="csscc"
         style="stroke-width:0.248097;stroke-miterlimit:2;stroke-dasharray:none" />
      <path
         id="path10696-71"
         transform="translate(-277.56524,-200.08334)"
         fill="none"
         stroke="#000000"
         stroke-width="0.264583"
         stroke-linecap="butt"
         stroke-linejoin="miter"
         stroke-miterlimit="2"
         d="M 8.06548,0.0774174 C 9.79639,0.510018 11.7507,3.43623 9.94775,8.89851 8.47574,13.3583 5.98075,14.6313 4.84241,15.0266 3.70407,15.4219 -1.15086,16.9161 0.252334,8.40681 1.66198,-0.141592 6.92147,-0.208502 8.06548,0.0774174 Z"
         sodipodi:nodetypes="cssss"
         style="stroke-width:0.248097;stroke-miterlimit:2;stroke-dasharray:none" />
      <path
         id="path115601"
         transform="translate(-277.73579,-68.67959)"
         fill="none"
         stroke="#000000"
         stroke-width="0.264583"
         stroke-linecap="butt"
         stroke-linejoin="miter"
         stroke-miterlimit="2"
         d="m 0,0 0.62672,3.94595 c 0,0 8.32596,4.58906 13.47048,4.63166 5.1445,0.04257 14.221,-0.86109 17.5796,-3.21805 3.3587,-2.35699 5.9641,-5.02518 5.9641,-5.02518"
         sodipodi:nodetypes="ccssc"
         style="stroke-width:0.248097;stroke-miterlimit:2;stroke-dasharray:none" />
      <path
         id="path115621"
         transform="translate(-242.03235,-68.34521)"
         fill="none"
         stroke="#000000"
         stroke-width="0.264583"
         stroke-linecap="butt"
         stroke-linejoin="miter"
         stroke-miterlimit="2"
         d="m 1.93744,0 c 0,0 -2.236893,11.5837 -1.9035732,15.5729 0.2176002,2.6042 1.1416032,4.7226 4.3908332,3.6384 1.00704,-0.336 1.6095,-0.7802 2.48318,-1.2814 1.94528,-1.1158 3.26732,-2.2887 4.69372,-1.963 2.0669,0.472 3.2823,6.0984 5.3395,6.8865 2.0571,0.7881 3.743,-0.3536 5.4754,-3.4353 1.7323,-3.0817 4.345,-7.8084 4.345,-7.8084"
         sodipodi:nodetypes="cssssssc"
         style="stroke-width:0.248097;stroke-miterlimit:2;stroke-dasharray:none" />
      <path
         id="path116921"
         transform="translate(-302.96524,-64.733648)"
         fill="none"
         stroke="#000000"
         stroke-width="0.264583"
         stroke-linecap="butt"
         stroke-linejoin="miter"
         stroke-miterlimit="2"
         d="m 25.8562,0 c 0,0 1.0065,9.09667 0.8871,11.2131 -0.1194,2.1165 -0.4223,6.0186 -4.6838,4.1591 -4.2616,-1.8594 -3.7157,-2.5215 -5.1591,-2.9741 -1.4435,-0.4527 -3.8689,0.2577 -5.4397,4.8677 C 9.89003,21.8759 5.87986,17.913 5.53504,17.3827 5.19023,16.8524 0,8.30501 0,8.30501"
         sodipodi:nodetypes="ccccccc"
         style="stroke-width:0.248097;stroke-miterlimit:2;stroke-dasharray:none" />
      <path
         id="path118641"
         transform="translate(-349.37989,-89.919945)"
         fill="none"
         stroke="#000000"
         stroke-width="0.264583"
         stroke-linecap="butt"
         stroke-linejoin="miter"
         stroke-miterlimit="2"
         d="m 37.5594,33.6666 c 0,0 -4.8144,8.0724 -10.632,8.8913 C 21.1098,43.3767 13.8159,43.2968 8.31862,36.8184 2.82134,30.34 -0.683723,21.856 0.112427,14.7703 0.375807,12.4262 1.69226,10.191 2.65211,8.85167 4.59367,6.14252 6.71419,4.5972 7.23577,4.61986 c 1.12401,0.04884 2.6775,1.69685 3.01713,2.12512 0.3397,0.42826 4.4808,6.04582 6.2935,6.08052 1.8127,0.0347 0.1591,-6.16944 0.1072,-8.80159 C 16.6088,1.75395 16.546,0.505661 18.1654,0.07358 18.4238,0.00464 20.6008,0.03362 20.9612,0"
         sodipodi:nodetypes="csssssssssc"
         style="stroke-width:0.248097;stroke-miterlimit:2;stroke-dasharray:none" />
      <path
         id="path138681"
         transform="translate(-204.90242,-88.808461)"
         fill="none"
         stroke="#000000"
         stroke-width="0.264583"
         stroke-linecap="butt"
         stroke-linejoin="miter"
         stroke-miterlimit="2"
         d="m 20.3155,0 c 0,0 -0.3374,8.02241 -0.5154,9.12176 -0.178,1.09934 -0.3509,4.60514 3.0266,1.13154 3.3774,-3.47351 5.0976,-6.51949 6.1981,-6.67319 1.1005,-0.1537 6.1411,3.01847 7.3966,8.13889 1.2749,5.1993 0.7838,11.0596 -2.2026,16.8978 C 31.5859,33.7641 26.1252,40.2033 18.4945,41.9314 13.7246,43.0117 9.42417,42.1923 5.99444,40.0144 2.92443,38.0649 0,33.1958 0,33.1958"
         sodipodi:nodetypes="csssssssc"
         style="stroke-width:0.248097;stroke-miterlimit:2;stroke-dasharray:none" />
      <path
         id="path161301"
         transform="translate(-276.1897,-56.759397)"
         fill="none"
         stroke="#000000"
         stroke-width="0.264583"
         stroke-linecap="butt"
         stroke-linejoin="miter"
         stroke-miterlimit="2"
         d="m 0,0.795496 c 0,0 10.2887,2.605904 15.4137,2.337194 C 20.5388,2.86398 26.8198,2.79371 30.2997,1.57247 33.7797,0.351234 34.3714,0 34.3714,0"
         sodipodi:nodetypes="cccc"
         style="stroke-width:0.248097;stroke-miterlimit:2;stroke-dasharray:none" />
      <path
         id="path162451"
         transform="translate(-208.95001,-280.44756)"
         fill="none"
         stroke="#000000"
         stroke-width="0.264583"
         stroke-linecap="butt"
         stroke-linejoin="miter"
         stroke-miterlimit="2"
         d="M 0.352899,20.2801 C 3.36131,24.2345 7.86183,30.3893 9.3749,35.2738 c 1.6007,5.1676 0.33882,8.1967 8.0471,5.3041 8.0689,-3.028 9.5788,-11.802 8.8965,-21.7922 C 25.6363,8.79552 31.0053,5.09383 32.5947,2.53066 33.0954,1.72304 33.8107,0.348453 33.027,0.121353 31.7362,-0.252697 23.4942,0.157653 16.978,2.49108 10.1892,4.92214 4.63658,10.8349 2.73745,13.9199 c -1.840611,2.99 -3.479871,4.9204 -2.384551,6.3602 z"
         sodipodi:nodetypes="cssssssss"
         style="stroke-width:0.248097;stroke-miterlimit:2;stroke-dasharray:none" />
      <path
         id="path16245-51"
         transform="translate(-342.17717,-280.58803)"
         fill="none"
         stroke="#000000"
         stroke-width="0.264583"
         stroke-linecap="butt"
         stroke-linejoin="miter"
         stroke-miterlimit="2"
         d="m 32.2275,20.1388 c -3.1127,3.8728 -7.5089,10.1092 -9.022,14.9938 -1.6007,5.1676 -0.7861,8.8732 -8.2888,5.483 C 7.33423,37.1894 6.23902,29.5731 6.54863,19.0708 6.63463,16.1551 6.57493,13.7714 6.03323,11.9344 4.65521,7.26085 1.57543,5.12833 0.656982,3.0177 0.277802,2.14634 -0.429588,0.304325 0.354102,0.0772248 1.64492,-0.296825 8.74547,0.702485 15.3542,2.75919 22.8009,5.07667 28.0139,10.94 29.843,13.7786 c 2.2019,3.4172 3.7573,4.6522 2.3845,6.3602 z"
         sodipodi:nodetypes="csssssssss"
         style="stroke-width:0.248097;stroke-miterlimit:2;stroke-dasharray:none" />
      <path
         id="path186791"
         transform="translate(-283.64687,-213.65819)"
         fill="none"
         stroke="#000000"
         stroke-width="0.264583"
         stroke-linecap="butt"
         stroke-linejoin="miter"
         stroke-miterlimit="2"
         d="M 3.6723,11.2632 C 3.47507,11.2336 10.9875,0.37651 22.6176,0.0141198 33.8385,-0.33552 41.9779,5.86735 45.5216,12.0571 48.7432,17.6844 50.4527,25.3667 44.9872,32.384 39.6966,39.1767 25.1262,32.101 24.7037,31.9487 23.4376,31.4924 17.4323,34.9175 13.3816,35.5255 3.63576,36.9884 -0.107268,27.512 0.0023323,21.6312 0.120842,15.2722 3.6723,11.2632 3.6723,11.2632 Z"
         sodipodi:nodetypes="cssssssc"
         style="stroke-width:0.248097;stroke-miterlimit:2;stroke-dasharray:none" />
      <path
         id="path196911"
         transform="translate(-212.8367,-108.64024)"
         fill="none"
         stroke="#000000"
         stroke-width="0.264583"
         stroke-linecap="butt"
         stroke-linejoin="miter"
         stroke-miterlimit="2"
         d="M 14.269,0 C 13.2135,10.2209 4.69471,37.921 0,45.1299"
         sodipodi:nodetypes="cc"
         style="stroke-width:0.248097;stroke-miterlimit:2;stroke-dasharray:none" />
      <path
         id="path196931"
         transform="translate(-318.97949,-113.56002)"
         fill="none"
         stroke="#000000"
         stroke-width="0.264583"
         stroke-linecap="butt"
         stroke-linejoin="miter"
         stroke-miterlimit="2"
         d="M 0,0 C 0.55127,6.33083 7.11474,36.2189 13.2192,49.9794"
         sodipodi:nodetypes="cc"
         style="stroke-width:0.248097;stroke-miterlimit:2;stroke-dasharray:none" />
      <circle
         id="path422561"
         transform="translate(-383.25278,-323.51038)"
         r="0.41877067"
         cx="0.41877067"
         cy="0.41877067"
         fill="#000000"
         stroke="#000000"
         stroke-width="0.264583"
         stroke-linecap="butt"
         stroke-linejoin="miter"
         stroke-miterlimit="2"
         style="stroke-width:0.248097;stroke-miterlimit:2;stroke-dasharray:none" />
    </g>
    <g
       id="g5821"
       fill="none"
       transform="matrix(0.38478867,0,0,0.38478867,159.92977,268.74371)"
       style="stroke-width:0.248097;stroke-miterlimit:2;stroke-dasharray:none">
      <path
         id="path6734-01"
         transform="translate(14.191812,-253.35679)"
         fill="none"
         stroke="#000000"
         stroke-width="0.264583"
         stroke-linecap="butt"
         stroke-linejoin="miter"
         stroke-miterlimit="2"
         d="M 4.98694,5.1079 C 6.3795,4.87423 12.201,4.57525 17.4592,8.98931 21.8014,12.6343 23.1789,14.878 23.1789,14.878 23.8471,14.7279 20.7032,8.72968 17.6764,5.46611 15.7522,3.39143 12.9886,1.58543 10.3686,0.697216 8.22477,-0.0295839 6.10927,-0.0324339 5.19615,0.0190461 2.13714,0.191496 -0.746646,5.69486 0.174231,6.21137 0.68703,6.499 5.25339,4.86547 4.98694,5.1079 Z"
         sodipodi:nodetypes="cscssssc"
         style="stroke-width:0.248097;stroke-miterlimit:2;stroke-dasharray:none" />
      <path
         id="path8110-3-81"
         transform="translate(13.127508,-225.58498)"
         fill="none"
         stroke="#000000"
         stroke-width="0.264583"
         stroke-linecap="butt"
         stroke-linejoin="miter"
         stroke-miterlimit="2"
         d="M 3.65782,0.0108484 C 2.00694,0.198848 -0.256807,2.04554 0.0237629,4.09848 0.304343,6.15143 1.82389,8.03315 3.73375,7.95039 5.23352,7.74591 8.02342,6.62085 8.09864,3.8394 8.16206,1.49424 5.0702,-0.149992 3.65782,0.0108484 Z"
         sodipodi:nodetypes="cscss"
         style="stroke-width:0.248097;stroke-miterlimit:2;stroke-dasharray:none" />
      <path
         id="path9000-6-71"
         transform="translate(9.8280041,-228.16219)"
         fill="none"
         stroke="#000000"
         stroke-width="0.264583"
         stroke-linecap="butt"
         stroke-linejoin="miter"
         stroke-miterlimit="2"
         d="m 12.4465,0.960777 c 0.5481,0.552183 4.5362,2.938013 4.6158,9.175323 0.086,6.736 -2.0655,8.6365 -3.4056,10.0145 C 10.6402,23.2524 4.3669,23.9257 1.66837,18.7005 -0.080316,15.3145 -1.23224,8.3971 2.30631,3.55049 5.8788,-1.34262 11.4103,-0.0833133 12.4465,0.960777 Z"
         sodipodi:nodetypes="csssss"
         style="stroke-width:0.248097;stroke-miterlimit:2;stroke-dasharray:none" />
      <path
         id="path8110-3-8-91"
         transform="translate(-42.581385,-225.62212)"
         fill="none"
         stroke="#000000"
         stroke-width="0.264583"
         stroke-linecap="butt"
         stroke-linejoin="miter"
         stroke-miterlimit="2"
         d="M 4.44276,0.0147758 C 6.09364,0.202786 8.3596,2.04977 8.07682,4.10241 7.79449,6.15179 6.0984,7.96628 4.34168,8.19627 2.82941,8.12677 -0.0859278,7.21671 0.00194225,3.84333 0.0760422,0.998126 3.03038,-0.146064 4.44276,0.0147758 Z"
         sodipodi:nodetypes="cscss"
         style="stroke-width:0.248097;stroke-miterlimit:2;stroke-dasharray:none" />
      <path
         id="path9000-6-7-21"
         transform="translate(-48.699685,-228.11055)"
         fill="none"
         stroke="#000000"
         stroke-width="0.264583"
         stroke-linecap="butt"
         stroke-linejoin="miter"
         stroke-miterlimit="2"
         d="M 4.40948,0.549444 C 3.72778,0.924334 -0.4496,4.88357 0.0397503,11.1022 0.5291,17.3207 2.49161,18.9841 3.75255,20.4327 6.40755,23.483 12.9664,23.8751 15.8195,18.8173 17.6919,15.4981 18.456,8.4934 14.89,3.66695 11.324,-1.15949 5.48956,-0.0445255 4.40948,0.549444 Z"
         sodipodi:nodetypes="csssss"
         style="stroke-width:0.248097;stroke-miterlimit:2;stroke-dasharray:none" />
      <path
         id="path200891"
         transform="translate(-122.76259,-297.63052)"
         fill="none"
         stroke="#000000"
         stroke-width="0.264583"
         stroke-linecap="butt"
         stroke-linejoin="miter"
         stroke-miterlimit="2"
         d="m 75.8238,19.4171 c 2.753,1.7768 6.9786,2.8962 7.5433,2.6192 0,0 9.0945,-3.0731 10.3197,-3.1894 1.2252,-0.1163 3.55,-0.764 3.55,-0.764 0,0 -4.1914,-3.6653 -6.3629,-4.4051 -2.2659,-0.7719 4.4421,-1.3531 8.041,-0.9036 2.7101,0.3386 4.4821,1.1151 8.4481,2.4463 0.991,0.3327 -0.904,-4.3737 6.051,-12.48353 0.885,-1.0326 5.397,-3.76587 4.555,-2.327617 0,0 -1.296,1.793887 -1.654,2.824277 -1.01,2.90367 -1.296,6.92757 -1.286,9.13307 0.01,2.2055 0.141,3.6341 0.141,3.6341 0,0 8.669,-4.4781 12.261,-3.9939 3.592,0.4842 5.77,0.6868 7.723,1.4987 0.239,0.3613 -6.77,2.142 -8.061,3.9192 2.595,1.6779 7.984,2.7788 14.838,5.4318 3.876,-0.8947 8.479,-3.0428 13.33,-8.542 2.585,-2.9306 2.918,-5.28325 4.744,-6.7579 0,0 1.18,-1.11005 2.902,4.9647 1.721,6.0748 -0.445,13.5758 -1.152,15.2511 -0.768,1.8212 -3.52,5.6394 -3.595,5.5471 l 8.31,9.8154 c 0.381,0.4501 23.308,-9.524 41.954,8.9983 9.695,8.8517 14.597,12.2976 14.597,12.2976 0,0 -8.715,6.8885 -16.04,9.4505 -7.326,2.562 -15.698,2.4148 -19.426,1.6101 -3.728,-0.8047 -10.982,-4.8834 -11.75,-5.9974 -0.769,-1.1141 -0.298,10.8967 -2.053,16.2551 -1.754,5.3584 -3.661,12.9964 -3.252,16.2798 0.358,2.878 0.229,11.997 -4.65,20.764 -2.884,5.182 -10.414,10.351 -10.415,10.351 -0.134,0.001 4.408,6.283 9.497,14.701 3.444,5.695 4.962,12.711 6.494,16.85 3.068,8.283 3.888,22.742 3.367,33.044 -0.261,5.151 2.275,7.863 2.275,7.863 0,0 2.894,-2.4 6.445,-3.017 1.683,-0.293 5.833,-1.184 7.5,-0.142 2.109,1.318 0.761,9.915 0.737,11.76 -0.025,1.907 0.601,1.878 1.495,1.95 1.077,0.087 6.369,-9.348 8.677,-9.871 1.207,-0.274 5.815,2.686 8.738,8.373 2.931,5.702 0.385,17.471 -1.275,20.345 -1.472,2.55 -5.044,12.466 -16.783,16.342 -12.62,4.166 -22.149,-7.345 -21.335,-7.357 l -12.956,-0.812 c 0,0 0.753,5.686 -0.603,7.985 -0.905,1.531 -3.615,3.148 -5.897,3.452 -2.301,0.308 -5.764,1.141 -7.195,0.343 -1.74,-0.97 -1.93,-5.465 -2.617,-5.179 -0.927,0.385 -0.209,5.043 -1.363,5.207 -4.492,0.639 -12.214,-0.061 -14.289,-2.567 -2.358,-2.848 -0.843,-9.292 -0.843,-9.292 -2.571,1.079 -16.517,2.451 -28.9936,-0.058 0.3863,6.802 1.704,10.939 -7.3944,11.765 -1.2712,0.018 -4.7526,0.639 -7.7853,0.057 -1.8316,-0.352 -0.2984,-5.5 -1.3151,-5.219 -1.1234,0.311 -1.1423,5.531 -3.099,5.535 -2.9095,0.006 -7.8102,-0.642 -10.6015,-2.145 -2.5438,-1.37 -2.5982,-3.751 -2.6006,-3.749 0,0 -0.326,-5.544 -0.0593,-6.099 0.2666,-0.554 -12.9923,1.025 -12.9923,1.025 0,0 -5.9519,7.585 -13.7847,7.695 -9.6275,0.136 -14.4095,-3.527 -18.1297,-7.854 -3.7999,-4.42 -8.4931,-12.518 -8.5182,-18.917 -0.0183,-4.664 0.7153,-12.35 5.2314,-16.171 4.4509,-3.766 5.959,-2.854 8.0264,0.372 2.0673,3.226 4.6994,6.3 4.9243,6.393 0.225,0.094 1.8491,1.691 1.7134,-1.521 -0.1357,-3.213 -0.0822,-9.049 -0.0106,-9.818 0.0717,-0.769 -0.0495,-2.639 2.959,-2.605 2.8764,0.033 3.9683,0.053 7.1067,0.983 2.4278,0.72 6.3032,3.797 6.3032,3.797 0,0 -2.4679,-7.849 -8.5615,-12.549 -6.0936,-4.701 -7.0708,-5.068 -7.0708,-5.068 0,0 -8.7109,3.431 -17.342,-2.698 -8.63104,-6.129 -8.59231,-16.436 -8.38242,-17.626 0.2099,-1.189 0.76613,-6.164 1.06429,-6.496 0.29816,-0.331 0.88538,3.214 1.3512,4.371 0.46583,1.156 2.20221,2.856 2.02351,0.652 -0.16085,-1.984 -0.0411,-6.204 1.28392,-8.396 1.1609,-1.92 2.9693,-2.327 2.9693,-2.327 0,0 0.5679,-0.115 0.733,-0.326 0.4064,-0.517 0.1039,-1.332 0.3502,-1.942 0.1477,-0.366 0.3287,-0.767 0.6577,-0.984 0.1384,-0.092 0.3647,-0.203 0.4891,-0.093 -0.6884,6.19 4.3981,10.748 9.7105,12.9 7.4683,2.948 9.6401,8.086 9.4897,11.576 -0.1043,2.421 -0.255,5.45 -0.255,5.45 4.2706,1.87 8.5224,3.787 12.4318,6.573 0,0 1.3178,-20.758 4.0147,-26.749 2.6968,-5.991 5.4024,-15.952 11.8266,-23.87 6.4241,-7.918 5.0354,-6.137 5.0354,-6.137 0.0909,-0.053 -9.4118,-3.929 -13.102,-17.645 -2.6692,-9.921 -1.1625,-11.575 -4.0867,-24.7147 -2.8803,-12.9431 -3.0132,-14.3531 -2.8699,-17.3245 0.1432,-2.9713 0.1715,-7.1461 0.1715,-7.1461 0.2033,0.4703 -4.7008,9.5211 -18.6656,9.7891 C 16.4697,76.0626 5.64394,68.0961 2.32963,66.3341 0.50301,65.363 0,64.7764 0,64.7764 c 0,0 15.0651,-9.976 19.7,-16.4869 4.6349,-6.5109 20.5647,-8.6875 25.4008,-7.2847 4.8361,1.4027 13.9813,0.7066 13.9813,0.7066 1.586,-3.1226 5.2202,-5.3931 7.5416,-9.0775 0,0 -6.1919,-4.2817 -6.0799,-14.7988 0.073,-6.8545 1.1486,-10.60119 3.124,-10.27725 0.7348,0.12051 1.3586,1.40915 2.164,2.81915 1.7338,3.0354 5.8256,7.3139 9.992,9.0401 z"
         sodipodi:nodetypes="ccscssssssccscccscssccccsssssscssscssssssssccsssssscccsssscscsssssssssscscsssssscsssccsccsscssscsscssccsssc"
         style="stroke-width:0.248097;stroke-miterlimit:2;stroke-dasharray:none" />
      <path
         id="path486961"
         transform="translate(19.168522,-274.77391)"
         fill="none"
         stroke="#000000"
         stroke-width="0.264583"
         stroke-linecap="butt"
         stroke-linejoin="miter"
         stroke-miterlimit="2"
         d="M 0,0 C 0,0 6.43898,2.34165 16.2292,10.4629"
         sodipodi:nodetypes="cc"
         style="stroke-width:0.248097;stroke-miterlimit:2;stroke-dasharray:none" />
      <path
         id="path487311"
         transform="translate(-56.138879,-275.59427)"
         fill="none"
         stroke="#000000"
         stroke-width="0.264583"
         stroke-linecap="butt"
         stroke-linejoin="miter"
         stroke-miterlimit="2"
         d="M 16.7434,0 C 16.7434,0 6.39707,5.19016 0,10.5977"
         sodipodi:nodetypes="cc"
         style="stroke-width:0.248097;stroke-miterlimit:2;stroke-dasharray:none" />
      <path
         id="path487331"
         transform="translate(-71.317072,-275.59492)"
         fill="none"
         stroke="#000000"
         stroke-width="0.264583"
         stroke-linecap="butt"
         stroke-linejoin="miter"
         stroke-miterlimit="2"
         d="m 31.9216,6.51432e-4 c 0,0 1.7041,-0.071700032 2.2593,1.289338568 0.5552,1.36101 4.1554,8.45951 5.0945,9.73081 0.9391,1.2713 6.3536,5.9915 10.2878,7.1752 3.9342,1.1837 9.3835,6.2388 9.7709,8.1114 0.3874,1.8727 1.8397,5.6396 -0.8316,11.7282 -2.6712,6.0886 -2.4466,7.8551 -1.8304,9.2176 0.6162,1.3625 2.2204,9.7238 1.8029,13.4018 -0.2916,2.5694 -4.0607,6.6615 -5.3891,7.8923 -1.3283,1.2307 -7.1353,6.0578 -8.8646,5.9986 -6.3464,-0.2174 -9.04,0.2804 -13.7027,2.2247 -3.6104,1.808 -14.7645,3.3967 -18.4459,1.2056 C 8.27071,75.7134 7.87736,74.5385 6.49965,71.6725 5.12194,68.8065 0,69.5036 0,69.5036"
         sodipodi:nodetypes="cssssssssscssc"
         style="stroke-width:0.248097;stroke-miterlimit:2;stroke-dasharray:none" />
      <path
         id="path487351"
         transform="translate(26.832441,-200.69412)"
         fill="none"
         stroke="#000000"
         stroke-width="0.264583"
         stroke-linecap="butt"
         stroke-linejoin="miter"
         stroke-miterlimit="2"
         d="m 21.2537,0.210403 c 0,0 -8.1042,-1.260403 -9.2719,2.388557 -1.1677,3.64897 -2.64301,9.87134 -4.09473,11.35944 -1.45169,1.4881 -2.618,3.3407 -5.48838,3.5555 -2.870388,0.2147 -2.3642934,0.27 -2.3642934,0.27 0,0 2.9925134,4.2348 3.8788134,7.4107 0.88633,3.1759 0.82741,8.8841 0.55375,9.513 -0.27363,0.629 -1.21002,2.7005 -1.21002,2.7005 l 2.58318,-1.2002"
         sodipodi:nodetypes="ccccccccc"
         style="stroke-width:0.248097;stroke-miterlimit:2;stroke-dasharray:none" />
      <path
         id="path487701"
         transform="translate(27.435969,-160.05146)"
         fill="none"
         stroke="#000000"
         stroke-width="0.264583"
         stroke-linecap="butt"
         stroke-linejoin="miter"
         stroke-miterlimit="2"
         d="m 8.07026,0 c 0,0 0.08186,4.12246 -1.64585,5.42588 C 4.69671,6.7293 0.26645,14.64 0.0356268,19.0659 c -0.2308218,4.4259 0.5855502,7.854 4.6532832,9.2586 4.06773,1.4045 8.57219,4.7238 8.86309,6.9436 0.2908,2.2198 -1.4147,8.725 -0.4211,10.9866 0.9937,2.2617 0.403,6.371 3.8539,7.9112 3.451,1.5401 4.9773,2.3865 6.2366,2.5652 1.2593,0.1788 1.4568,0.0266 1.4568,0.0266"
         sodipodi:nodetypes="ccccccccc"
         style="stroke-width:0.248097;stroke-miterlimit:2;stroke-dasharray:none" />
      <path
         id="path488051"
         transform="translate(7.4510012,-104.25702)"
         fill="none"
         stroke="#000000"
         stroke-width="0.264583"
         stroke-linecap="butt"
         stroke-linejoin="miter"
         stroke-miterlimit="2"
         d="m 5.30648,0 c 0,0 3.33015,1.42377 3.58204,2.37443 0.25191,0.95065 0.42672,1.74968 0.42672,1.74968 0,0 -2.41533,3.69518 -2.59319,4.5664 -0.17785,0.87122 -0.09694,3.17369 2.13659,3.28529 2.23356,0.1117 6.89676,-0.7554 7.82306,-0.3574 0.9262,0.3981 2.1973,0.0774 2.1445,3.6751 -0.0527,3.5977 -3.1695,4.2545 -4.52,4.4753 -1.3505,0.2208 -4.81343,0.7527 -5.43501,3.0548 -0.62156,2.3021 0.50088,4.6325 0.6573,5.7748 0.15645,1.1423 1.67191,3.5429 -3.85966,3.1189 C 0.137264,31.2933 -0.57002,29.4049 0.323107,26.7377 1.21621,24.0705 5.05351,2.69528 5.30648,0 Z"
         sodipodi:nodetypes="ccccccccccccc"
         style="stroke-width:0.248097;stroke-miterlimit:2;stroke-dasharray:none" />
      <path
         id="path488401"
         transform="translate(-37.678288,-140.30956)"
         fill="none"
         stroke="#000000"
         stroke-width="0.264583"
         stroke-linecap="butt"
         stroke-linejoin="miter"
         stroke-miterlimit="2"
         d="m 50.4358,36.0525 c 0,0 4.8175,-17.7999 -5.9995,-27.45739 C 33.6193,-1.06239 22.5141,-1.86792 14.4666,2.65353 6.41924,7.17498 -1.19523,17.0383 0.156762,28.0722 1.50878,39.1061 4.53067,46.0755 5.43459,52.3552 c 0.90392,6.2798 2.36673,20.543 2.70735,21.4794 0.34065,0.9363 5.66836,6.0841 16.08956,5.9272 10.4213,-0.1569 18.8268,-3.4167 19.7202,-6.4149 0.8934,-2.9982 1.2212,-9.0153 1.2212,-9.0153"
         sodipodi:nodetypes="ccccccccc"
         style="stroke-width:0.248097;stroke-miterlimit:2;stroke-dasharray:none" />
      <path
         id="path488751"
         transform="translate(-46.614424,-109.62319)"
         fill="none"
         stroke="#000000"
         stroke-width="0.264583"
         stroke-linecap="butt"
         stroke-linejoin="miter"
         stroke-miterlimit="2"
         d="m 9.45839,0 c 0,0 -4.38745,0.91522 -4.06889,3.61479 0.31858,2.69956 2.02687,9.08651 -1.52175,11.18501 -3.54862,2.0985 -4.701516,4.1341 -3.267289,6.5985 1.434229,2.4643 4.896509,4.4553 8.139189,2.8423 3.24265,-1.6129 5.55955,-2.8738 5.55955,-2.8738"
         sodipodi:nodetypes="cccccc"
         style="stroke-width:0.248097;stroke-miterlimit:2;stroke-dasharray:none" />
      <path
         id="path488771"
         transform="translate(-3.9902455,-140.15381)"
         fill="none"
         stroke="#000000"
         stroke-width="0.264583"
         stroke-linecap="butt"
         stroke-linejoin="miter"
         stroke-miterlimit="2"
         d="m 14.5096,12.7958 c 0,0 0.9751,-6.44042 -0.6969,-9.50021 C 12.1406,0.235809 9.77281,-0.349161 7.34536,0.166609 4.91789,0.682379 0,1.56949 0,1.56949"
         sodipodi:nodetypes="cccc"
         style="stroke-width:0.248097;stroke-miterlimit:2;stroke-dasharray:none" />
      <path
         id="path488791"
         transform="translate(-24.775284,-150.01697)"
         fill="none"
         stroke="#000000"
         stroke-width="0.264583"
         stroke-linecap="butt"
         stroke-linejoin="miter"
         stroke-miterlimit="2"
         d="m 17.3008,10.3704 c 0,0 -2.3344,-2.34768 -3.0404,-5.83928 C 13.5544,1.03952 11.8243,-0.586505 7.23382,0.190955 2.64327,0.968415 -0.146043,4.08999 0.00590729,6.45404 0.157858,8.8181 0.799155,12.7669 0.799155,12.7669"
         sodipodi:nodetypes="ccccc"
         style="stroke-width:0.248097;stroke-miterlimit:2;stroke-dasharray:none" />
      <path
         id="path490451"
         transform="translate(-75.33835,-159.92778)"
         fill="none"
         stroke="#000000"
         stroke-width="0.264583"
         stroke-linecap="butt"
         stroke-linejoin="miter"
         stroke-miterlimit="2"
         d="m 17.0357,0 c 0,0 -0.7957,2.59349 1.5133,5.49811 2.3091,2.90461 6.1933,9.05199 6.145,12.45479 -0.0483,3.4028 0.6834,8.0016 -3.0258,9.6288 -3.7092,1.6273 -10.0016,4.0026 -10.293,7.1677 -0.2915,3.165 0.8532,7.7951 0.6027,9.7643 -0.2505,1.9692 -1.4161,8.4033 -4.21975,9.7812 -2.80361,1.3779 -6.56638,2.5417 -7.196511,2.4838 -0.6301054,-0.0579 -0.55925039,-4.876 -0.55925039,-4.876"
         sodipodi:nodetypes="ccccccccc"
         style="stroke-width:0.248097;stroke-miterlimit:2;stroke-dasharray:none" />
      <path
         id="path492291"
         transform="translate(48.375812,-251.27804)"
         fill="none"
         stroke="#000000"
         stroke-width="0.264583"
         stroke-linecap="butt"
         stroke-linejoin="miter"
         stroke-miterlimit="2"
         d="m 2.09951,2.25592 c 0,0 7.58441,-3.194143 12.91249,-1.980923 C 24.8224,1.0194 35.6728,13.2731 47.3064,19.0985 c 1.5191,0.7607 -2.524,2.4429 -5.9467,4.3918 -6.2262,3.5453 -6.8112,3.2741 -14.2598,4.6801 C 17.7157,29.9417 11.7958,26.3755 8.73287,23.6968 5.70289,21.0469 4.97275,20.5643 4.0537,17.3805 3.14726,14.2404 3.07416,11.8734 2.09203,9.96056 1.10992,8.04771 -0.416707,4.36721 0.106242,3.69689 0.629191,3.02658 2.09951,2.25592 2.09951,2.25592 Z"
         sodipodi:nodetypes="ccsssssssc"
         style="stroke-width:0.248097;stroke-miterlimit:2;stroke-dasharray:none" />
      <path
         id="path49229-61"
         transform="translate(-117.58452,-251.12444)"
         fill="none"
         stroke="#000000"
         stroke-width="0.264583"
         stroke-linecap="butt"
         stroke-linejoin="miter"
         stroke-miterlimit="2"
         d="m 44.5612,1.74315 c 0,0 -7.8708,-2.637272 -13.1989,-1.424052 C 21.552,1.0635 12.0454,12.7691 0.411796,18.5945 c -1.519106,0.7607 1.406064,2.4937 4.828754,4.4426 6.22625,3.5453 6.83985,3.5472 14.28845,4.9532 9.3842,1.7713 15.8294,-1.5493 18.8924,-4.2281 3.0299,-2.6499 3.2666,-3.7106 4.1856,-6.8945 0.9065,-3.1401 0.9796,-5.5071 1.9617,-7.41991 C 45.5508,7.53494 47.0775,3.85444 46.5545,3.18412 46.0316,2.51381 44.5612,1.74315 44.5612,1.74315 Z"
         sodipodi:nodetypes="ccsssssssc"
         style="stroke-width:0.248097;stroke-miterlimit:2;stroke-dasharray:none" />
      <path
         id="path6734-0-31"
         transform="translate(-57.591118,-253.471)"
         fill="none"
         stroke="#000000"
         stroke-width="0.264583"
         stroke-linecap="butt"
         stroke-linejoin="miter"
         stroke-miterlimit="2"
         d="M 18.2826,5.1079 C 16.8901,4.87423 11.0685,4.57525 5.81032,8.98931 1.46821,12.6343 0.0906941,14.878 0.0906941,14.878 -0.577543,14.7279 2.56641,8.72968 5.59318,5.46611 7.51733,3.39143 10.281,1.58543 12.9009,0.697216 15.0448,-0.0295839 17.1603,-0.0324339 18.0734,0.0190461 21.1324,0.191496 24.0162,5.69486 23.0953,6.21137 22.5825,6.499 18.0162,4.86547 18.2826,5.1079 Z"
         sodipodi:nodetypes="cscssssc"
         style="stroke-width:0.248097;stroke-miterlimit:2;stroke-dasharray:none" />
      <path
         id="path556641"
         transform="translate(-76.27848,-91.042072)"
         fill="none"
         stroke="#000000"
         stroke-width="0.264583"
         stroke-linecap="butt"
         stroke-linejoin="miter"
         stroke-miterlimit="2"
         d="M 0,0 C 0,0 5.57267,6.81536 7.00659,12.2463 8.51166,17.9467 9.28396,23.0898 8.07934,28.5355 6.87484,33.9806 4.1788,37.6454 4.1788,37.6454"
         sodipodi:nodetypes="cssc"
         style="stroke-width:0.248097;stroke-miterlimit:2;stroke-dasharray:none" />
      <path
         id="path55664-71"
         transform="translate(44.279026,-92.039694)"
         fill="none"
         stroke="#000000"
         stroke-width="0.264583"
         stroke-linecap="butt"
         stroke-linejoin="miter"
         stroke-miterlimit="2"
         d="M 10.0264,0.0106806 C 9.75243,-0.248416 5.15579,4.2379 2.93656,10.0471 0.832543,15.5546 -0.793844,23.4663 0.410778,28.912 1.61527,34.3572 4.22542,38.3937 4.22542,38.3937"
         sodipodi:nodetypes="cssc"
         style="stroke-width:0.248097;stroke-miterlimit:2;stroke-dasharray:none" />
      <path
         id="path566071"
         transform="translate(2.7410719,-66.931092)"
         fill="none"
         stroke="#000000"
         stroke-width="0.264583"
         stroke-linecap="butt"
         stroke-linejoin="miter"
         stroke-miterlimit="2"
         d="m 32.8076,12.4737 c 0,0 -0.6986,-8.31686 -0.9399,-8.55051 C 31.6265,3.68954 30.0132,5.7186 28.281,6.0067 26.5487,6.29484 19.7695,8.35234 14.4022,6.59157 9.03486,4.83082 6.46134,3.72859 4.97861,1.96321 3.49589,0.197829 3.54441,0 3.54441,0 3.54441,0 1.39457,5.67362 1.07847,7.11912 0.76237,8.56464 0,12.4227 0,12.4227"
         sodipodi:nodetypes="cccccccc"
         style="stroke-width:0.248097;stroke-miterlimit:2;stroke-dasharray:none" />
      <path
         id="path566421"
         transform="translate(-59.050671,-66.280695)"
         fill="none"
         stroke="#000000"
         stroke-width="0.264583"
         stroke-linecap="butt"
         stroke-linejoin="miter"
         stroke-miterlimit="2"
         d="m 32.7985,11.7143 c 0,0 -2.4112,-10.07949 -2.978,-11.009263 C 29.2538,-0.224708 29.2368,-0.0991898 28.9631,0.308639 28.6895,0.716467 27.1978,2.60895 25.75,3.21406 24.3021,3.81918 21.2233,5.37671 20.4476,5.56768 19.672,5.75869 15.9038,6.65083 12.2115,6.40644 8.51924,6.16204 4.67759,5.91519 3.47689,4.88085 2.27621,3.84652 0.941175,2.14133 0.941175,2.14133 L 0,11.775"
         sodipodi:nodetypes="ccccccccc"
         style="stroke-width:0.248097;stroke-miterlimit:2;stroke-dasharray:none" />
      <path
         id="path566771"
         transform="translate(-96.07482,-114.5988)"
         fill="none"
         stroke="#000000"
         stroke-width="0.264583"
         stroke-linecap="butt"
         stroke-linejoin="miter"
         stroke-miterlimit="2"
         d="m 8.30699,0 c 0,0 -4.72136,0.13527 -6.03705,0.5175 -1.315697,0.38224 -2.74614,0.69537 -2.116882,1.59662 0.629259,0.90125 3.084482,2.5 3.410162,2.7456 0.32568,0.24561 0.60082,1.07994 0.60082,1.07994"
         sodipodi:nodetypes="ccccc"
         style="stroke-width:0.248097;stroke-miterlimit:2;stroke-dasharray:none" />
      <path
         id="path567121"
         transform="translate(-54.45933,-164.78153)"
         fill="none"
         stroke="#000000"
         stroke-width="0.264583"
         stroke-linecap="butt"
         stroke-linejoin="miter"
         stroke-miterlimit="2"
         d="M 0,0 C 0,0 12.2899,7.8549 35.0931,8.51059 57.8963,9.16627 72.9488,5.80416 75.9082,4.93444 78.8675,4.06473 84.5487,1.49551 84.5487,1.49551"
         sodipodi:nodetypes="cccc"
         style="stroke-width:0.248097;stroke-miterlimit:2;stroke-dasharray:none" />
      <path
         id="path567471"
         transform="translate(-30.528483,-173.19487)"
         fill="#000000"
         stroke="#000000"
         stroke-width="0.264583"
         stroke-linecap="butt"
         stroke-linejoin="miter"
         stroke-miterlimit="2"
         d="M 0,0 C 0,0 3.45461,3.7796 9.04259,6.0718 14.6306,8.36399 21.0885,9.3119 23.876,8.62191 26.6636,7.93192 31.0321,6.83566 34.123,4.34053 c 3.0909,-2.49514 5.4167,-4.01311 5.4167,-4.01311 0,0 -7.0937,4.34391 -8.1673,4.62758 C 30.2987,5.23867 22.5624,8.31111 18.22,7.36881 13.8776,6.42651 9.70804,5.57743 6.49512,3.75713 3.28221,1.93684 0,0 0,0 Z"
         sodipodi:nodetypes="ccccccccc"
         style="stroke-width:0.248097;stroke-miterlimit:2;stroke-dasharray:none" />
      <path
         id="path568151"
         transform="translate(-29.919463,-193.08895)"
         fill="none"
         stroke="#000000"
         stroke-width="0.264583"
         stroke-linecap="butt"
         stroke-linejoin="miter"
         stroke-miterlimit="2"
         d="m 2.5001,0.339095 c 0,0 -2.4729739,0.893025 -2.49810889,2.063805 C -0.0231389,3.57368 0.165839,4.90585 1.95104,4.80953 3.73623,4.71323 6.12727,4.49305 7.15775,3.74242 8.18824,2.99179 8.7563,0.0066448 5.77403,1.04802e-4 2.79175,-0.0068952 2.5001,0.339095 2.5001,0.339095 Z"
         sodipodi:nodetypes="cssscc"
         style="stroke-width:0.248097;stroke-miterlimit:2;stroke-dasharray:none" />
      <path
         id="path56815-51"
         transform="translate(0.97179444,-193.08815)"
         fill="none"
         stroke="#000000"
         stroke-width="0.264583"
         stroke-linecap="butt"
         stroke-linejoin="miter"
         stroke-miterlimit="2"
         d="m 6.2188,0.415005 c 0,0 2.28391,1.196615 2.30904,2.367395 C 8.55297,3.95318 7.09758,5.00177 5.31239,4.90545 3.52719,4.80915 2.25922,4.41834 1.17551,3.74685 -0.129962,2.93795 -1.10651,-0.133775 2.55923,0.00452515 5.54151,-0.00247485 6.2188,0.415005 6.2188,0.415005 Z"
         sodipodi:nodetypes="cssscc"
         style="stroke-width:0.248097;stroke-miterlimit:2;stroke-dasharray:none" />
      <path
         id="path575981"
         transform="translate(-52.755217,-198.72973)"
         fill="none"
         stroke="#000000"
         stroke-width="0.264583"
         stroke-linecap="butt"
         stroke-linejoin="miter"
         stroke-miterlimit="2"
         d="M 79.6221,15.8195 C 79.1834,16.0892 71.6267,4.98996 59.0367,2.16625 45.681,-0.829179 31.0641,-1.07603 21.1984,3.71369 11.3327,8.50342 6.45242,12.8069 3.67921,17.2845 1.44374,20.8939 0.0585144,24.3459 0.00369345,29.2673 -0.0511266,34.1888 0.522435,35.0806 0.522435,35.0806"
         sodipodi:nodetypes="cssssc"
         style="stroke-width:0.248097;stroke-miterlimit:2;stroke-dasharray:none" />
      <path
         id="path580771"
         transform="translate(-74.945129,-103.3313)"
         fill="none"
         stroke="#000000"
         stroke-width="0.264583"
         stroke-linecap="butt"
         stroke-linejoin="miter"
         stroke-miterlimit="2"
         d="M 0.0313107,0 C -0.708266,3.35773 11.8512,33.7479 16.8356,39.1919"
         sodipodi:nodetypes="cc"
         style="stroke-width:0.248097;stroke-miterlimit:2;stroke-dasharray:none" />
      <path
         id="path581121"
         transform="translate(34.522874,-103.29372)"
         fill="none"
         stroke="#000000"
         stroke-width="0.264583"
         stroke-linecap="butt"
         stroke-linejoin="miter"
         stroke-miterlimit="2"
         d="M 17.5913,0 C 18.4683,2.28221 4.5151,35.7097 0,40.2676"
         sodipodi:nodetypes="cc"
         style="stroke-width:0.248097;stroke-miterlimit:2;stroke-dasharray:none" />
    </g>
    <path
       id="path585151"
       fill="none"
       stroke="#000000"
       stroke-width="0.106645"
       stroke-linecap="butt"
       stroke-linejoin="miter"
       stroke-miterlimit="2"
       d="m 129.97028,162.73395 c 2.6455,-2.74393 -0.44305,-8.21385 2.89599,-10.05197 2.78403,-1.53259 9.56566,1.61729 13.28903,1.22103 4.49202,-0.47798 6.83846,-4.75958 11.34818,-4.50071 4.42392,0.25391 5.85149,4.95581 10.27925,4.78888 3.50273,-0.13201 7.12012,-4.44532 9.94524,-2.3712 2.70622,1.98657 1.59072,8.26759 4.96185,11.66566 3.96025,3.99203 6.08659,2.59848 11.07538,5.00814 3.60777,1.74263 6.59373,5.32524 9.42809,8.51422 2.1529,2.42224 -2.93671,6.77763 -5.72219,8.43387 -6.28206,3.35421 -12.87272,2.73277 -12.87272,2.73277 -0.25974,7.24404 -2.01245,12.83001 -5.14501,17.67489 0,0 3.4631,6.87886 4.6217,10.1865 1.3987,3.99219 2.4307,10.26924 2.4307,10.26924 7.06241,2.85437 13.67347,6.93313 13.44491,14.12483 -0.31169,6.3417 -4.00373,13.12745 -8.78743,14.27143 H 154.4448 122.33296 c -11.44737,0 -12.00867,-11.72913 -11.15842,-18.15818 0.72587,-2.53576 2.77845,-6.08428 2.77845,-6.08428 -4.53177,-4.98186 -5.28597,-10.10224 -4.30741,-14.15677 1.02538,-4.24883 3.95333,-7.32752 6.43125,-7.85122 4.26373,-0.90079 10.02178,4.37775 11.33276,5.51403 2.06285,-4.22268 2.93289,-4.46009 4.72158,-8.10251 -4.21959,-4.96992 -4.36704,-10.37235 -5.06535,-18.35969 -3.28984,1.3478 -7.62991,0.55052 -11.60893,-1.45561 -3.24773,-1.63731 -6.25494,-4.07984 -8.25414,-6.81811 1.9905,-7.30991 13.01078,-12.60045 18.3049,-13.84424 2.10853,-0.44869 2.96638,-1.0991 4.46263,-2.651 z"
       sodipodi:nodetypes="cssssscsscccscccccccsscccsccc"
       style="stroke-width:0.0954648;stroke-miterlimit:2;stroke-dasharray:none" />
    <circle
       id="path422562"
       r="0.16113822"
       cx="201.37808"
       cy="263.61511"
       fill="#000000"
       stroke="#000000"
       stroke-width="0.106645"
       stroke-linecap="butt"
       stroke-linejoin="miter"
       stroke-miterlimit="2"
       style="stroke-width:0.0954648;stroke-miterlimit:2;stroke-dasharray:none" />
    <rect
       style="vector-effect:non-scaling-stroke;fill:#000000;stroke:#000000;stroke-width:0.00224376;stroke-miterlimit:4;stroke-dasharray:none;-inkscape-stroke:hairline"
       id="rect1932"
       width="15"
       height="15"
       x="101.10245"
       y="132.85245" />
    <rect
       style="vector-effect:non-scaling-stroke;fill:none;stroke:#000000;stroke-width:0.00347263;stroke-miterlimit:4;stroke-dasharray:none;-inkscape-stroke:hairline"
       id="rect2178"
       width="200"
       height="259"
       x="8.6024475"
       y="10.852448" />
  </g>
</svg>
