<?xml version="1.0" encoding="UTF-8" standalone="no"?>
<!-- Created with Inkscape (http://www.inkscape.org/) -->

<svg
   width="215.89999mm"
   height="279.39999mm"
   viewBox="0 0 215.9 279.4"
   version="1.1"
   id="svg3741"
   inkscape:version="1.1.2 (0a00cf5339, 2022-02-04)"
   sodipodi:docname="spiral.svg"
   xmlns:inkscape="http://www.inkscape.org/namespaces/inkscape"
   xmlns:sodipodi="http://sodipodi.sourceforge.net/DTD/sodipodi-0.dtd"
   xmlns="http://www.w3.org/2000/svg"
   xmlns:svg="http://www.w3.org/2000/svg">
  <sodipodi:namedview
     id="namedview3743"
     pagecolor="#505050"
     bordercolor="#eeeeee"
     borderopacity="1"
     inkscape:pageshadow="0"
     inkscape:pageopacity="0"
     inkscape:pagecheckerboard="0"
     inkscape:document-units="mm"
     showgrid="false"
     units="mm"
     inkscape:zoom="0.53443432"
     inkscape:cx="232.9566"
     inkscape:cy="421.0059"
     inkscape:window-width="1920"
     inkscape:window-height="1003"
     inkscape:window-x="0"
     inkscape:window-y="0"
     inkscape:window-maximized="1"
     inkscape:current-layer="layer1" />
  <defs
     id="defs3738" />
  <g
     inkscape:label="Layer 1"
     inkscape:groupmode="layer"
     id="layer1">
    <path
       sodipodi:type="spiral"
       style="fill:none;fill-rule:evenodd;stroke:#000000"
       id="path3768"
       sodipodi:cx="370.74127"
       sodipodi:cy="513.29517"
       sodipodi:expansion="1"
       sodipodi:revolution="12.903052"
       sodipodi:radius="1711.3961"
       sodipodi:argument="-18.163694"
       sodipodi:t0="0"
       d="m 370.74127,513.29517 c 15.43903,12.63533 -9.41511,27.04533 -21.00076,25.66068 -31.39639,-3.75232 -40.26308,-42.60172 -30.3206,-67.6622 17.78477,-44.82732 74.52359,-55.53708 114.32364,-34.98053 58.40817,30.16757 71.21062,106.8593 39.64044,160.98508 C 431.30592,669.43935 334.0446,684.34941 265.73748,641.59857 179.77993,587.801 162.75992,469.71088 216.77719,387.29061 282.19934,287.46863 421.25147,268.33716 517.74658,333.6704 631.46274,410.66337 652.70702,570.75512 576.02672,681.30124 487.49628,808.9311 306.31563,832.28939 181.73444,744.24129 40.177378,644.19545 14.704066,441.89265 114.13446,303.28758 225.68035,147.79363 449.12882,120.20443 601.74962,231.02768 771.18763,354.06248 800.89342,598.67391 678.66944,765.30427 544.15401,948.69181 278.36659,980.51479 97.731406,846.88402 -99.609918,700.89433 -133.55059,413.92081 11.491742,219.28454 168.95071,7.9860573 477.11832,-28.072728 685.75266,128.38496 911.01102,297.30922 949.18828,626.67735 781.31216,849.30731 600.92582,1088.5278 250.35194,1128.8238 13.72837,949.52674 -239.45607,757.68097 -281.87114,385.89699 -91.150981,135.28151 112.15202,-131.86843 505.14972,-176.40277 769.75569,25.742233 1050.8724,240.50061 1097.5262,654.7151 883.95489,933.31034 657.74271,1228.395 222.30881,1277.1685 -70.274665,1052.1695 -379.32823,814.50483 -430.22147,357.84928 -193.7937,51.27847 55.322227,-271.74481 533.20137,-324.75798 853.75873,-76.90049 1193.6885,185.93594 1248.1612,679.83419 986.59761,1017.3134 712.2113,1371.3369 197.30949,1427.9074 -154.2777,1154.8122 -522.39554,868.87678 -581.06395,332.97007 -296.43643,-32.724566 1.0473673,-414.93717 557.96018,-475.70361 937.76176,-179.54321 1334.0696,129.48835 1396.9341,707.40833 1089.2403,1101.3164 768.66156,1511.7198 169.73345,1576.6825 -238.28074,1257.4549 -662.78005,925.32943 -729.84103,305.39233 -399.07915,-116.7276 -55.407406,-555.32315 585.53945,-624.48245 1021.7648,-282.18594 1474.4569,73.031666 1545.7145,734.98898 1191.8831,1185.3195 825.11996,1652.1083 142.15155,1725.4644 -322.28377,1360.0976 -803.16964,981.78938 -878.6242,277.8093 -501.72187,-200.73064 -111.86877,-695.71373 613.12351,-773.26681 1105.7678,-384.82866 1614.8483,16.569024 1694.5,762.57398 1294.5258,1269.3225 881.58377,1792.5006 114.56569,1874.2508 -406.28681,1462.7404 -943.56268,1038.2543 -1027.4115,250.22264 -604.36459,-284.73367 -168.33462,-836.10745 640.71089,-922.05496 1189.7709,-487.47138 1755.2427,-39.897736 1843.2889,790.16204 1397.1685,1353.3255 938.05136,1932.8955 86.977017,2023.0405 -490.28984,1565.3831 -1083.9582,1094.7226 -1176.2018,222.6334 -707.00732,-368.73671 -224.80369,-976.50345 668.30067,-1070.8459 1273.7739,-590.1141 1895.6392,-96.367461 1992.0804,817.75231 1499.8112,1437.3286 994.5217,2073.2924 59.386279,2171.8324 -574.29288,1668.0258 -1224.3555,1151.1935 -1324.9943,195.04223 -809.65004,-452.73974 -281.27513,-1116.9011 695.89224,-1219.6388 1357.7769,-692.75683 2036.0372,-152.83939 2140.8737,845.34426 1602.4539,1521.3316 1050.9941,2213.6908 31.793979,2320.6262 -658.29592,1770.6685 -1364.7541,1207.6663 -1473.7884,167.4496 -912.29276,-536.74278 -337.74836,-1257.3001 723.48519,-1368.4333 1441.78,-795.39955 c 431.1097,343.92626 670.7857,889.858029 635.3231,1439.86659"
       transform="matrix(0.07028422,0,0,0.07028422,84.106661,101.29639)" />
  </g>
</svg>
