<?xml version="1.0" encoding="utf-8"?>
<!-- Generator: Adobe Illustrator 16.0.0, SVG Export Plug-In . SVG Version: 6.00 Build 0)  -->
<!DOCTYPE svg PUBLIC "-//W3C//DTD SVG 1.1//EN" "http://www.w3.org/Graphics/SVG/1.1/DTD/svg11.dtd">
<svg version="1.1" id="Laag_1" xmlns="http://www.w3.org/2000/svg" xmlns:xlink="http://www.w3.org/1999/xlink" x="0px" y="0px"
	 width="566.93px" height="566.93px" viewBox="0 0 566.93 566.93" enable-background="new 0 0 566.93 566.93" xml:space="preserve">
<circle fill="none" stroke="#FF0000" stroke-width="0.15" stroke-miterlimit="10" cx="282.471" cy="282.583" r="255.118"/>
<path fill="none" stroke="#FF0000" stroke-width="0.15" stroke-miterlimit="10" d="M282.471,42.555"/>
<path fill="none" stroke="#FF0000" stroke-width="0.15" stroke-miterlimit="10" d="M171.422,69.615
	c8.982-4.673,18.295-8.797,27.896-12.327"/>
<path fill="none" stroke="#FF0000" stroke-width="0.15" stroke-miterlimit="10" d="M106.925,118.459
	c3.761-3.999,7.656-7.869,11.68-11.603"/>
<path fill="none" stroke="#FF0000" stroke-width="0.15" stroke-miterlimit="10" d="M56.884,198.668
	c3.556-9.452,7.689-18.621,12.356-27.465"/>
<path fill="none" stroke="#FF0000" stroke-width="0.15" stroke-miterlimit="10" d="M41.525,283.5"/>
<path fill="none" stroke="#FF0000" stroke-width="0.15" stroke-miterlimit="10" d="M69.214,395.748
	c-4.664-8.843-8.794-18.011-12.348-27.461"/>
<path fill="none" stroke="#FF0000" stroke-width="0.15" stroke-miterlimit="10" d="M118.548,460.092
	c-4.008-3.723-7.89-7.58-11.637-11.565"/>
<path fill="none" stroke="#FF0000" stroke-width="0.15" stroke-miterlimit="10" d="M199.261,509.69
	c-9.59-3.529-18.895-7.651-27.867-12.321"/>
<path fill="none" stroke="#FF0000" stroke-width="0.15" stroke-miterlimit="10" d="M394.571,496.834
	c-9.011,4.744-18.358,8.935-27.998,12.525"/>
<path fill="none" stroke="#FF0000" stroke-width="0.15" stroke-miterlimit="10" d="M459.028,447.458
	c-3.958,4.261-8.069,8.378-12.324,12.343"/>
<path fill="none" stroke="#FF0000" stroke-width="0.15" stroke-miterlimit="10" d="M508.494,367.164
	c-3.575,9.655-7.751,19.019-12.482,28.045"/>
<path fill="none" stroke="#FF0000" stroke-width="0.15" stroke-miterlimit="10" d="M523.415,283.5"/>
<path fill="none" stroke="#FF0000" stroke-width="0.15" stroke-miterlimit="10" d="M495.981,171.739
	c4.735,9.027,8.914,18.391,12.492,28.047"/>
<path fill="none" stroke="#FF0000" stroke-width="0.15" stroke-miterlimit="10" d="M446.646,107.145
	c4.271,3.978,8.396,8.108,12.369,12.384"/>
<path fill="none" stroke="#FF0000" stroke-width="0.15" stroke-miterlimit="10" d="M366.52,57.62
	c9.646,3.591,19.001,7.783,28.018,12.529"/>
<g>
	<path fill="none" stroke="#FF0000" stroke-width="0.15" stroke-miterlimit="10" d="M171.423,69.618
		c9.448,18.168,28.154,30.756,49.812,31.438c-0.554-17.696-8.999-33.428-21.918-43.769"/>
	<path fill="none" stroke="#FF0000" stroke-width="0.15" stroke-miterlimit="10" d="M224.932,101.056
		c30.642-0.964,55.378-25.762,56.343-56.479C250.629,45.542,225.894,70.338,224.932,101.056z"/>
</g>
<g>
	<path fill="none" stroke="#FF0000" stroke-width="0.15" stroke-miterlimit="10" d="M341.312,101.056
		c-0.963-30.717-25.698-55.514-56.342-56.479C285.934,75.293,310.669,100.091,341.312,101.056z"/>
	<path fill="none" stroke="#FF0000" stroke-width="0.15" stroke-miterlimit="10" d="M366.517,57.617
		c-12.688,10.345-20.96,25.93-21.509,43.438c21.447-0.675,39.999-13.023,49.532-30.905"/>
</g>
<g>
	<path fill="none" stroke="#FF0000" stroke-width="0.15" stroke-miterlimit="10" d="M106.927,118.462
		c6.648,24.088,28.346,41.963,54.272,42.78c-0.813-25.959-18.605-47.691-42.592-54.383"/>
	<path fill="none" stroke="#FF0000" stroke-width="0.15" stroke-miterlimit="10" d="M56.882,198.667
		c10.302,13.395,26.271,22.193,44.279,22.76c-0.687-21.937-13.497-40.853-31.925-50.227"/>
	<path fill="none" stroke="#FF0000" stroke-width="0.15" stroke-miterlimit="10" d="M104.858,221.427
		c30.643-0.964,55.378-25.762,56.341-56.479C130.556,165.912,105.819,190.708,104.858,221.427z"/>
</g>
<g>
	<path fill="none" stroke="#FF0000" stroke-width="0.15" stroke-miterlimit="10" d="M281.275,161.242
		c-0.964-30.718-25.701-55.516-56.343-56.48C225.894,135.48,250.629,160.276,281.275,161.242z"/>
	<path fill="none" stroke="#FF0000" stroke-width="0.15" stroke-miterlimit="10" d="M221.236,104.762
		c-30.643,0.964-55.378,25.762-56.341,56.48C195.537,160.276,220.274,135.48,221.236,104.762z"/>
	<path fill="none" stroke="#FF0000" stroke-width="0.15" stroke-miterlimit="10" d="M221.236,221.427
		c-0.961-30.718-25.699-55.515-56.341-56.479C165.857,195.665,190.593,220.463,221.236,221.427z"/>
	<path fill="none" stroke="#FF0000" stroke-width="0.15" stroke-miterlimit="10" d="M224.932,221.427
		c30.642-0.964,55.378-25.762,56.343-56.479C250.629,165.912,225.894,190.708,224.932,221.427z"/>
</g>
<g>
	<path fill="none" stroke="#FF0000" stroke-width="0.15" stroke-miterlimit="10" d="M401.349,161.242
		c-0.963-30.718-25.696-55.516-56.341-56.48C345.97,135.48,370.704,160.276,401.349,161.242z"/>
	<path fill="none" stroke="#FF0000" stroke-width="0.15" stroke-miterlimit="10" d="M341.312,104.762
		c-30.643,0.964-55.378,25.762-56.342,56.48C315.613,160.276,340.349,135.48,341.312,104.762z"/>
	<path fill="none" stroke="#FF0000" stroke-width="0.15" stroke-miterlimit="10" d="M341.312,221.427
		c-0.963-30.718-25.698-55.515-56.342-56.479C285.934,195.665,310.669,220.463,341.312,221.427z"/>
	<path fill="none" stroke="#FF0000" stroke-width="0.15" stroke-miterlimit="10" d="M345.008,221.427
		c30.645-0.964,55.378-25.762,56.341-56.479C370.704,165.912,345.97,190.708,345.008,221.427z"/>
</g>
<g>
	<path fill="none" stroke="#FF0000" stroke-width="0.15" stroke-miterlimit="10" d="M446.647,107.145
		c-23.485,7.006-40.799,28.496-41.603,54.097c25.543-0.805,46.981-18.168,53.968-41.717"/>
	<path fill="none" stroke="#FF0000" stroke-width="0.15" stroke-miterlimit="10" d="M461.386,221.427
		c-0.962-30.718-25.698-55.515-56.341-56.479C406.009,195.665,430.741,220.463,461.386,221.427z"/>
	<path fill="none" stroke="#FF0000" stroke-width="0.15" stroke-miterlimit="10" d="M495.98,171.735
		c-17.875,9.547-30.225,28.165-30.898,49.691c17.502-0.551,33.076-8.876,43.395-21.638"/>
</g>
<g>
	<path fill="none" stroke="#FF0000" stroke-width="0.15" stroke-miterlimit="10" d="M161.199,281.614
		c-0.962-30.719-25.698-55.517-56.341-56.482C105.819,255.849,130.556,280.647,161.199,281.614z"/>
	<path fill="none" stroke="#FF0000" stroke-width="0.15" stroke-miterlimit="10" d="M101.161,225.131
		c-30.643,0.965-55.379,25.763-56.342,56.482C75.463,280.647,100.199,255.849,101.161,225.131z"/>
	<path fill="none" stroke="#FF0000" stroke-width="0.15" stroke-miterlimit="10" d="M101.161,341.797
		c-0.962-30.717-25.698-55.516-56.342-56.479C45.782,316.037,70.518,340.83,101.161,341.797z"/>
	<path fill="none" stroke="#FF0000" stroke-width="0.15" stroke-miterlimit="10" d="M104.858,341.797
		c30.643-0.967,55.378-25.76,56.341-56.479C130.556,286.281,105.819,311.08,104.858,341.797z"/>
</g>
<g>
	<path fill="none" stroke="#FF0000" stroke-width="0.15" stroke-miterlimit="10" d="M281.275,281.614
		c-0.964-30.719-25.701-55.517-56.343-56.482C225.894,255.849,250.629,280.647,281.275,281.614z"/>
	<path fill="none" stroke="#FF0000" stroke-width="0.15" stroke-miterlimit="10" d="M221.236,225.131
		c-30.643,0.965-55.378,25.763-56.341,56.482C195.537,280.647,220.274,255.849,221.236,225.131z"/>
	<path fill="none" stroke="#FF0000" stroke-width="0.15" stroke-miterlimit="10" d="M221.236,341.797
		c-0.961-30.717-25.699-55.516-56.341-56.479C165.857,316.037,190.593,340.83,221.236,341.797z"/>
	<path fill="none" stroke="#FF0000" stroke-width="0.15" stroke-miterlimit="10" d="M224.932,341.797
		c30.642-0.967,55.378-25.76,56.343-56.479C250.629,286.281,225.894,311.08,224.932,341.797z"/>
</g>
<g>
	<path fill="none" stroke="#FF0000" stroke-width="0.15" stroke-miterlimit="10" d="M401.349,281.614
		c-0.963-30.719-25.696-55.517-56.341-56.482C345.97,255.849,370.704,280.647,401.349,281.614z"/>
	<path fill="none" stroke="#FF0000" stroke-width="0.15" stroke-miterlimit="10" d="M341.312,225.131
		c-30.643,0.965-55.378,25.763-56.342,56.482C315.613,280.647,340.349,255.849,341.312,225.131z"/>
	<path fill="none" stroke="#FF0000" stroke-width="0.15" stroke-miterlimit="10" d="M341.312,341.797
		c-0.963-30.717-25.698-55.516-56.342-56.479C285.934,316.037,310.669,340.83,341.312,341.797z"/>
	<path fill="none" stroke="#FF0000" stroke-width="0.15" stroke-miterlimit="10" d="M345.008,341.797
		c30.645-0.967,55.378-25.76,56.341-56.479C370.704,286.281,345.97,311.08,345.008,341.797z"/>
</g>
<g>
	<path fill="none" stroke="#FF0000" stroke-width="0.15" stroke-miterlimit="10" d="M521.422,281.614
		c-0.96-30.719-25.695-55.517-56.34-56.482C466.044,255.849,490.78,280.647,521.422,281.614z"/>
	<path fill="none" stroke="#FF0000" stroke-width="0.15" stroke-miterlimit="10" d="M461.386,225.131
		c-30.645,0.965-55.377,25.763-56.341,56.482C435.688,280.647,460.424,255.849,461.386,225.131z"/>
	<path fill="none" stroke="#FF0000" stroke-width="0.15" stroke-miterlimit="10" d="M461.386,341.797
		c-0.962-30.717-25.698-55.516-56.341-56.479C406.009,316.037,430.741,340.83,461.386,341.797z"/>
	<path fill="none" stroke="#FF0000" stroke-width="0.15" stroke-miterlimit="10" d="M465.082,341.797
		c30.645-0.967,55.38-25.76,56.34-56.479C490.78,286.281,466.044,311.08,465.082,341.797z"/>
</g>
<g>
	<path fill="none" stroke="#FF0000" stroke-width="0.15" stroke-miterlimit="10" d="M161.199,401.984
		c-0.962-30.719-25.698-55.516-56.341-56.482C105.819,376.219,130.556,401.016,161.199,401.984z"/>
	<path fill="none" stroke="#FF0000" stroke-width="0.15" stroke-miterlimit="10" d="M69.211,395.742
		c18.441-9.373,31.262-28.295,31.95-50.24c-18.019,0.568-33.995,9.377-44.296,22.784"/>
	<path fill="none" stroke="#FF0000" stroke-width="0.15" stroke-miterlimit="10" d="M118.546,460.089
		c24.018-6.673,41.839-28.418,42.653-54.401c-25.946,0.817-47.659,18.722-54.288,42.839"/>
</g>
<g>
	<path fill="none" stroke="#FF0000" stroke-width="0.15" stroke-miterlimit="10" d="M281.275,401.984
		c-0.964-30.719-25.701-55.516-56.343-56.482C225.894,376.219,250.629,401.016,281.275,401.984z"/>
	<path fill="none" stroke="#FF0000" stroke-width="0.15" stroke-miterlimit="10" d="M221.236,345.502
		c-30.643,0.967-55.378,25.764-56.341,56.482C195.537,401.016,220.274,376.219,221.236,345.502z"/>
	<path fill="none" stroke="#FF0000" stroke-width="0.15" stroke-miterlimit="10" d="M221.236,462.168
		c-0.961-30.717-25.699-55.516-56.341-56.48C165.857,436.408,190.593,461.203,221.236,462.168z"/>
	<path fill="none" stroke="#FF0000" stroke-width="0.15" stroke-miterlimit="10" d="M224.932,462.168
		c30.642-0.965,55.378-25.76,56.343-56.48C250.629,406.652,225.894,431.451,224.932,462.168z"/>
</g>
<g>
	<path fill="none" stroke="#FF0000" stroke-width="0.15" stroke-miterlimit="10" d="M401.349,401.984
		c-0.963-30.719-25.696-55.516-56.341-56.482C345.97,376.219,370.704,401.016,401.349,401.984z"/>
	<path fill="none" stroke="#FF0000" stroke-width="0.15" stroke-miterlimit="10" d="M341.312,345.502
		c-30.643,0.967-55.378,25.764-56.342,56.482C315.613,401.016,340.349,376.219,341.312,345.502z"/>
	<path fill="none" stroke="#FF0000" stroke-width="0.15" stroke-miterlimit="10" d="M341.312,462.168
		c-0.963-30.717-25.698-55.516-56.342-56.48C285.934,436.408,310.669,461.203,341.312,462.168z"/>
	<path fill="none" stroke="#FF0000" stroke-width="0.15" stroke-miterlimit="10" d="M345.008,462.168
		c30.645-0.965,55.378-25.76,56.341-56.48C370.704,406.652,345.97,431.451,345.008,462.168z"/>
</g>
<g>
	<path fill="none" stroke="#FF0000" stroke-width="0.15" stroke-miterlimit="10" d="M508.496,367.164
		c-10.318-12.774-25.902-21.109-43.414-21.662c0.674,21.537,13.037,40.164,30.93,49.708"/>
	<path fill="none" stroke="#FF0000" stroke-width="0.15" stroke-miterlimit="10" d="M461.386,345.502
		c-30.645,0.967-55.377,25.764-56.341,56.482C435.688,401.016,460.424,376.219,461.386,345.502z"/>
	<path fill="none" stroke="#FF0000" stroke-width="0.15" stroke-miterlimit="10" d="M459.029,447.461
		c-6.969-23.577-28.422-40.969-53.984-41.773c0.805,25.624,18.146,47.126,41.659,54.115"/>
</g>
<g>
	<path fill="none" stroke="#FF0000" stroke-width="0.15" stroke-miterlimit="10" d="M281.275,522.354
		c-0.964-30.721-25.701-55.514-56.343-56.479C225.894,496.592,250.629,521.389,281.275,522.354z"/>
	<path fill="none" stroke="#FF0000" stroke-width="0.15" stroke-miterlimit="10" d="M199.259,509.69
		c12.952-10.341,21.422-26.093,21.977-43.815c-21.681,0.683-40.404,13.294-49.843,31.494"/>
</g>
<g>
	<path fill="none" stroke="#FF0000" stroke-width="0.15" stroke-miterlimit="10" d="M394.569,496.832
		c-9.526-17.91-28.093-30.281-49.562-30.957c0.549,17.535,8.846,33.141,21.565,43.485"/>
	<path fill="none" stroke="#FF0000" stroke-width="0.15" stroke-miterlimit="10" d="M341.312,465.875
		c-30.643,0.965-55.378,25.758-56.342,56.479C315.613,521.389,340.349,496.592,341.312,465.875z"/>
</g>
</svg>
