<?xml version="1.0" encoding="UTF-8" standalone="no"?>
<!-- Created with Inkscape (http://www.inkscape.org/) -->

<svg
   width="8.2677164in"
   height="11.692913in"
   viewBox="0 0 210 297"
   version="1.1"
   id="svg136"
   sodipodi:docname="tux.svg"
   inkscape:version="1.1.2 (0a00cf5339, 2022-02-04)"
   xmlns:inkscape="http://www.inkscape.org/namespaces/inkscape"
   xmlns:sodipodi="http://sodipodi.sourceforge.net/DTD/sodipodi-0.dtd"
   xmlns="http://www.w3.org/2000/svg"
   xmlns:svg="http://www.w3.org/2000/svg">
  <sodipodi:namedview
     id="namedview138"
     pagecolor="#505050"
     bordercolor="#eeeeee"
     borderopacity="1"
     inkscape:pageshadow="0"
     inkscape:pageopacity="0"
     inkscape:pagecheckerboard="0"
     inkscape:document-units="mm"
     showgrid="false"
     inkscape:zoom="0.56961385"
     inkscape:cx="206.2801"
     inkscape:cy="431.87152"
     inkscape:window-width="1920"
     inkscape:window-height="1003"
     inkscape:window-x="0"
     inkscape:window-y="0"
     inkscape:window-maximized="1"
     inkscape:current-layer="layer1"
     units="in" />
  <defs
     id="defs133" />
  <g
     inkscape:label="Layer 1"
     inkscape:groupmode="layer"
     id="layer1">
    <path
       d="m 162.62522,201.26447 c -2.21539,0.17096 -4.24557,0.66248 -5.81273,1.41044 -2.33649,1.10413 -3.94638,2.68554 -5.08614,4.98641 -0.90468,1.83072 -1.39619,3.7398 -1.63127,6.37547 -0.11397,1.18962 -0.0926,4.69435 0.0356,6.55357 0.17808,2.74965 0.20658,4.86531 0.0712,6.05493 -0.39178,3.36226 -1.18961,5.79136 -2.77813,8.46265 -0.59837,0.99728 -1.08277,1.66689 -2.25814,3.12719 -5.58478,6.92399 -9.23198,13.99756 -10.1794,19.7533 -0.24932,1.53866 -0.32768,2.97047 -0.22082,4.35243 l 0.0926,1.2181 -0.4559,0.47015 c -0.25644,0.26356 -0.84057,0.99015 -1.30359,1.61702 -1.35346,1.83072 -1.62415,2.03018 -3.70419,2.77814 -1.74525,0.62686 -2.34361,0.96879 -3.09157,1.78799 -1.16112,1.26796 -1.3677,2.5217 -0.93318,5.54916 0.13535,0.95454 0.21371,1.78798 0.21371,2.29374 0,0.72659 -0.0214,0.86907 -0.24932,1.55291 -0.49152,1.46031 -0.63398,2.17977 -0.63398,3.24117 -0.008,0.72659 0.0285,1.05427 0.12109,1.35345 0.37754,1.19674 1.2466,2.02306 2.62855,2.50033 0.80495,0.27069 1.78799,0.46302 3.49049,0.66961 5.16449,0.63398 6.05492,0.84769 8.46265,1.99456 2.87787,1.37483 4.68723,1.86634 7.06645,1.93757 0.86194,0.0285 1.53155,0.007 1.91621,-0.0427 2.32224,-0.34192 4.18146,-1.53154 5.15737,-3.29815 l 0.26357,-0.48439 h 0.4274 c 0.52001,0 0.96879,-0.0641 3.15569,-0.46303 4.25982,-0.77645 5.84834,-0.84769 8.9043,-0.39178 2.24388,0.32767 3.29103,0.4274 4.65873,0.46302 l 1.23236,0.0285 0.16384,0.46302 c 0.44877,1.28222 1.63126,2.82801 2.74252,3.58309 3.25541,2.20827 7.86428,1.37483 11.71806,-2.11566 0.31343,-0.27782 0.96879,-0.96167 1.46031,-1.50305 1.71675,-1.90908 2.74965,-2.61431 6.70315,-4.58749 2.15129,-1.07565 2.56445,-1.30359 3.31953,-1.86635 0.81919,-0.61261 1.2751,-1.21098 1.5173,-2.00881 0.44877,-1.43893 -0.19946,-3.08445 -2.11567,-5.36395 -0.98303,-1.18249 -1.17536,-1.6099 -1.73099,-3.93926 -0.15672,-0.6696 -0.37043,-1.46743 -0.47015,-1.78086 -0.46302,-1.43181 -1.21098,-2.37211 -2.4006,-2.99897 -0.37754,-0.19946 -0.47727,-0.28494 -0.44166,-0.37042 0.14247,-0.35617 0.61262,-2.37923 0.71947,-3.11294 0.16385,-1.06852 0.18522,-4.06037 0.0427,-5.05765 -0.47015,-3.15568 -1.23948,-5.59189 -2.75677,-8.69059 -1.52442,-3.10583 -3.89652,-6.66042 -6.48233,-9.7235 -1.07564,-1.2751 -2.71403,-3.4335 -3.5261,-4.65161 -1.67401,-2.49321 -2.57157,-4.75846 -2.84938,-7.13769 -0.0356,-0.35617 -0.0713,-2.24388 -0.0713,-4.23844 0,-5.42807 -0.19945,-7.80018 -0.89043,-10.59969 -1.54579,-6.27575 -5.15025,-9.58815 -11.00572,-10.12241 -0.7622,-0.0713 -2.46471,-0.0855 -3.20555,-0.0285 z m 4.72284,12.75808 c 1.55291,0.55563 2.79952,2.17265 3.2198,4.18146 0.15672,0.74796 0.16383,2.24389 0.008,2.92774 -0.18521,0.86193 -0.72659,2.12278 -1.11125,2.57868 l -0.13535,0.16384 -0.98304,-0.38467 c -0.54138,-0.2137 -1.05427,-0.41315 -1.13975,-0.43452 l -0.15671,-0.0499 0.20658,-0.33481 c 0.68385,-1.1255 0.7622,-2.98472 0.17809,-4.14584 -0.54139,-1.06852 -1.37483,-1.45318 -2.22965,-1.02577 -0.43452,0.2137 -0.72659,0.52713 -1.01152,1.097 -0.32055,0.63399 -0.42741,1.13975 -0.42741,2.00881 0,0.42029 -0.0142,0.76933 -0.0285,0.76933 -0.0142,0 -0.22795,-0.0926 -0.47727,-0.20657 -0.24932,-0.11398 -0.69097,-0.27782 -0.97591,-0.3633 -0.27781,-0.0855 -0.53426,-0.1852 -0.55563,-0.22083 -0.0926,-0.14959 -0.0356,-1.90195 0.0784,-2.45046 0.31343,-1.49592 1.16112,-2.87787 2.21539,-3.59733 0.41316,-0.28495 1.0044,-0.55563 1.39619,-0.64112 0.4844,-0.0997 1.46031,-0.0356 1.93046,0.12823 z m -11.70382,0.80495 c 0.34193,0.0855 0.85482,0.42028 1.21811,0.7907 0.96167,0.98303 1.56004,2.72828 1.56004,4.55188 v 0.47727 l -0.26357,0.0926 c -0.30631,0.0926 -1.37482,0.61262 -1.47455,0.71235 -0.13535,0.1211 -0.14959,0.057 -0.15672,-0.59837 -0.0214,-1.99457 -1.27509,-3.40501 -2.26525,-2.54307 -0.98304,0.86906 -0.90468,3.66145 0.12822,4.62311 0.0997,0.0997 0.18521,0.19946 0.18521,0.22796 0,0.057 -0.97591,0.77645 -1.0614,0.77645 -0.14959,0 -0.61261,-0.65536 -0.94029,-1.31784 -0.52001,-1.06851 -0.66248,-1.74524 -0.6696,-3.13431 0,-0.96879 0.0285,-1.23235 0.16384,-1.73812 0.3348,-1.22523 0.87618,-2.10141 1.61702,-2.60718 0.60549,-0.42029 1.18249,-0.51288 1.95894,-0.31343 z m 15.41513,15.20855 c 0.7266,2.55732 1.65976,5.2286 2.92774,8.39854 1.23235,3.0702 1.79511,4.3168 3.38363,7.47961 1.61702,3.22692 2.19402,4.55188 2.92061,6.73165 0.44166,1.31072 1.0614,3.63296 1.1825,4.38092 l 0.0427,0.29206 0.7907,0.0926 c 1.31783,0.15671 1.18961,0.19234 1.37482,-0.39179 0.97592,-3.09157 0.51289,-6.64617 -1.33208,-10.272 -0.80495,-1.57428 -1.7025,-2.8565 -2.86363,-4.09598 -0.77645,-0.82632 -0.95453,-1.10413 -0.80494,-1.25372 0.0926,-0.0855 0.14246,-0.0713 0.38466,0.12109 0.71234,0.56988 2.15128,2.29375 3.11295,3.75406 1.78085,2.68554 2.79951,5.20011 3.24829,8.04948 0.14246,0.87619 0.12109,3.1272 -0.0356,3.98913 -0.0712,0.39179 -0.13534,0.74796 -0.14247,0.7907 0,0.0499 0.50577,0.34193 1.13263,0.65536 2.56444,1.28934 3.91789,2.46471 4.32393,3.74693 0.11398,0.34193 0.13535,0.56276 0.10685,1.04002 -0.0499,0.82633 -0.0641,0.85481 -0.47727,0.85481 h -0.34192 l 0.0356,-0.59124 c 0.0285,-0.48439 0.008,-0.65535 -0.1211,-0.99728 -0.32768,-0.86194 -1.4888,-1.83073 -3.24829,-2.68554 -2.69266,-1.32495 -4.64448,-1.64551 -5.98369,-0.99728 -0.81208,0.39179 -1.28934,1.09701 -1.50304,2.22964 l -0.11398,0.59124 -0.577,0.29919 c -1.1255,0.577 -1.90196,1.38907 -2.50033,2.6143 -0.84769,1.73812 -1.20386,3.76118 -1.4603,8.3273 -0.0926,1.6384 -0.37042,2.99185 -1.11839,5.49218 l -0.12822,0.42741 -0.81919,0.5485 c -0.97592,0.65535 -2.85651,1.63127 -3.98913,2.08005 -2.34362,0.91179 -4.48065,1.32496 -6.85275,1.32496 -2.94198,-0.007 -5.55629,-0.74796 -8.09223,-2.30088 -0.5485,-0.32767 -0.63398,-0.42028 -1.08276,-1.07564 -0.2707,-0.39891 -0.8477,-1.17536 -1.28222,-1.73812 -0.42741,-0.56275 -0.78358,-1.03289 -0.78358,-1.05426 0,-0.0142 0.13534,-0.0285 0.30631,-0.0285 0.39891,0 1.1255,-0.17809 1.48168,-0.3633 1.04002,-0.52713 1.48167,-1.63127 1.17536,-2.93486 -0.16384,-0.69097 -0.70522,-1.78798 -1.29647,-2.6143 -0.61974,-0.86906 -2.56444,-2.81376 -3.69706,-3.68994 -0.47015,-0.3633 -1.65264,-1.19674 -2.63568,-1.85209 -1.57427,-1.04003 -1.87346,-1.27511 -2.60718,-2.0017 -1.16824,-1.16824 -1.82359,-2.20114 -2.2795,-3.5902 -1.29646,-3.96776 -0.0142,-8.88294 4.11735,-15.81404 0.37042,-0.61263 0.6981,-1.11839 0.74084,-1.11839 0.22083,0 -0.0784,0.70522 -1.4603,3.45487 -0.63399,1.25372 -1.26798,2.60718 -1.41757,3.00609 -1.4603,4.03899 -1.56715,7.28728 -0.3348,10.09392 0.27069,0.60549 0.98303,1.8236 1.07564,1.8236 0.0214,0 0.0641,-0.44165 0.0855,-0.98303 0.1211,-2.51458 0.82632,-5.76287 1.86634,-8.56238 0.37754,-1.01865 0.8192,-2.01593 2.0658,-4.70147 3.45486,-7.45112 4.98641,-11.94602 5.38532,-15.81404 0.0499,-0.44878 0.0926,-0.82632 0.0997,-0.84057 0.0499,-0.057 1.70962,1.09701 2.19402,1.52442 1.06851,0.94029 1.63839,1.37482 2.10854,1.62414 1.7951,0.94029 3.99625,0.87618 6.0763,-0.17096 0.3063,-0.15671 1.03289,-0.577 1.60989,-0.94029 0.72659,-0.4559 1.29647,-0.74796 1.85922,-0.96167 1.57428,-0.59837 2.62855,-1.26084 3.40501,-2.12991 0.22794,-0.24932 0.41315,-0.44165 0.42028,-0.43452 0.008,0.008 0.15672,0.53425 0.34192,1.16111 z"
       id="path4"
       style="stroke-width:0.00712344"
       sodipodi:nodetypes="ccccccccccccccccsccccccccccsccccccccccccccccccccccsccccccccccccccccssscccccccccsccccccsscccccscccccccccccccsccccsccccccccccccccccccssccccccccscccscccccccccccsss" />
    <path
       d="m 102.93649,154.70632 c -2.21539,0.17096 -4.245561,0.66248 -5.812712,1.41044 -2.336491,1.10413 -3.946381,2.68554 -5.086141,4.98641 -0.90468,1.83072 -1.39619,3.7398 -1.63127,6.37547 -0.11397,1.18962 -0.0926,4.69435 0.0356,6.55357 0.17808,2.74965 0.20658,4.86531 0.0712,6.05493 -0.39178,3.36226 -1.18961,5.79136 -2.77813,8.46265 -0.59837,0.99728 -1.08277,1.66689 -2.25814,3.12719 -5.58478,6.92399 -9.23198,13.99756 -10.1794,19.7533 -0.24932,1.53866 -0.32768,2.97047 -0.22082,4.35243 l 0.0926,1.2181 -0.4559,0.47015 c -0.25644,0.26356 -0.84057,0.99015 -1.30359,1.61702 -1.35346,1.83072 -1.62415,2.03018 -3.70419,2.77814 -1.74525,0.62686 -2.34361,0.96879 -3.09157,1.78799 -1.16112,1.26796 -1.3677,2.5217 -0.93318,5.54916 0.13535,0.95454 0.21371,1.78798 0.21371,2.29374 0,0.72659 -0.0214,0.86907 -0.24932,1.55291 -0.49152,1.46031 -0.63398,2.17977 -0.63398,3.24117 -0.008,0.72659 0.0285,1.05427 0.12109,1.35345 0.37754,1.19674 1.2466,2.02306 2.62855,2.50033 0.80495,0.27069 1.78799,0.46302 3.49049,0.66961 5.16449,0.63398 6.05492,0.84769 8.46265,1.99456 2.87787,1.37483 4.68723,1.86634 7.06645,1.93757 0.86194,0.0285 1.53155,0.007 1.91621,-0.0427 2.32224,-0.34192 4.18146,-1.53154 5.15737,-3.29815 l 0.26357,-0.48439 h 0.4274 c 0.52001,0 0.96879,-0.0641 3.155688,-0.46303 4.259805,-0.77645 5.848325,-0.84769 8.904285,-0.39178 2.24388,0.32767 3.29103,0.4274 4.65873,0.46302 l 1.23236,0.0285 0.16384,0.46302 c 0.44877,1.28222 1.63126,2.82801 2.74252,3.58309 3.25541,2.20827 7.86428,1.37483 11.71806,-2.11566 0.31343,-0.27782 0.96879,-0.96167 1.46031,-1.50305 1.71675,-1.90908 2.74965,-2.61431 6.70315,-4.58749 2.15129,-1.07565 2.56445,-1.30359 3.31953,-1.86635 0.81919,-0.61261 1.2751,-1.21098 1.5173,-2.00881 0.44877,-1.43893 -0.19946,-3.08445 -2.11567,-5.36395 -0.98303,-1.18249 -1.17536,-1.6099 -1.73099,-3.93926 -0.15672,-0.6696 -0.37043,-1.46743 -0.47015,-1.78086 -0.46302,-1.43181 -1.21098,-2.37211 -2.4006,-2.99897 -0.37754,-0.19946 -0.47727,-0.28494 -0.44166,-0.37042 0.14247,-0.35617 0.61262,-2.37923 0.71947,-3.11294 0.16385,-1.06852 0.18522,-4.06037 0.0427,-5.05765 -0.47015,-3.15568 -1.23948,-5.59189 -2.75677,-8.69059 -1.52442,-3.10583 -3.89652,-6.66042 -6.48233,-9.7235 -1.07564,-1.2751 -2.71403,-3.4335 -3.5261,-4.65161 -1.67401,-2.49321 -2.57157,-4.75846 -2.84938,-7.13769 -0.0356,-0.35617 -0.0713,-2.24388 -0.0713,-4.23844 0,-5.42807 -0.19945,-7.80018 -0.89043,-10.59969 -1.54579,-6.27575 -5.15025,-9.58815 -11.00572,-10.12241 -0.7622,-0.0713 -2.46471,-0.0855 -3.20555,-0.0285 z m 4.72284,12.75808 c 1.55291,0.55563 2.79952,2.17265 3.2198,4.18146 0.15672,0.74796 0.16383,2.24389 0.008,2.92774 -0.18521,0.86193 -0.72659,2.12278 -1.11125,2.57868 l -0.13535,0.16384 -0.98304,-0.38467 c -0.54138,-0.2137 -1.05427,-0.41315 -1.13975,-0.43452 l -0.15671,-0.0499 0.20658,-0.33481 c 0.68385,-1.1255 0.7622,-2.98472 0.17809,-4.14584 -0.54139,-1.06852 -1.37483,-1.45318 -2.22965,-1.02577 -0.43452,0.2137 -0.72659,0.52713 -1.01152,1.097 -0.32055,0.63399 -0.42741,1.13975 -0.42741,2.00881 0,0.42029 -0.0142,0.76933 -0.0285,0.76933 -0.0142,0 -0.22795,-0.0926 -0.47727,-0.20657 -0.24932,-0.11398 -0.69097,-0.27782 -0.97591,-0.3633 -0.27781,-0.0855 -0.53426,-0.1852 -0.55563,-0.22083 -0.0926,-0.14959 -0.0356,-1.90195 0.0784,-2.45046 0.31343,-1.49592 1.16112,-2.87787 2.21539,-3.59733 0.41316,-0.28495 1.0044,-0.55563 1.39619,-0.64112 0.4844,-0.0997 1.46031,-0.0356 1.93046,0.12823 z m -11.703803,0.80495 c 0.341934,0.0855 0.854824,0.42028 1.218111,0.7907 0.961664,0.98303 1.560031,2.72828 1.560031,4.55188 v 0.47727 l -0.26357,0.0926 c -0.306307,0.0926 -1.374811,0.61262 -1.474541,0.71235 -0.13535,0.1211 -0.14959,0.057 -0.15672,-0.59837 -0.0214,-1.99457 -1.275091,-3.40501 -2.265251,-2.54307 -0.98304,0.86906 -0.90468,3.66145 0.12822,4.62311 0.0997,0.0997 0.18521,0.19946 0.18521,0.22796 0,0.057 -0.97591,0.77645 -1.0614,0.77645 -0.14959,0 -0.61261,-0.65536 -0.94029,-1.31784 -0.52001,-1.06851 -0.66248,-1.74524 -0.6696,-3.13431 0,-0.96879 0.0285,-1.23235 0.16384,-1.73812 0.3348,-1.22523 0.87618,-2.10141 1.61702,-2.60718 0.60549,-0.42029 1.18249,-0.51288 1.95894,-0.31343 z m 15.415113,15.20855 c 0.7266,2.55732 1.65976,5.2286 2.92774,8.39854 1.23235,3.0702 1.79511,4.3168 3.38363,7.47961 1.61702,3.22692 2.19402,4.55188 2.92061,6.73165 0.44166,1.31072 1.0614,3.63296 1.1825,4.38092 l 0.0427,0.29206 0.7907,0.0926 c 1.31783,0.15671 1.18961,0.19234 1.37482,-0.39179 0.97592,-3.09157 0.51289,-6.64617 -1.33208,-10.272 -0.80495,-1.57428 -1.7025,-2.8565 -2.86363,-4.09598 -0.77645,-0.82632 -0.95453,-1.10413 -0.80494,-1.25372 0.0926,-0.0855 0.14246,-0.0713 0.38466,0.12109 0.71234,0.56988 2.15128,2.29375 3.11295,3.75406 1.78085,2.68554 2.79951,5.20011 3.24829,8.04948 0.14246,0.87619 0.12109,3.1272 -0.0356,3.98913 -0.0712,0.39179 -0.13534,0.74796 -0.14247,0.7907 0,0.0499 0.50577,0.34193 1.13263,0.65536 2.56444,1.28934 3.91789,2.46471 4.32393,3.74693 0.11398,0.34193 0.13535,0.56276 0.10685,1.04002 -0.0499,0.82633 -0.0641,0.85481 -0.47727,0.85481 h -0.34192 l 0.0356,-0.59124 c 0.0285,-0.48439 0.008,-0.65535 -0.1211,-0.99728 -0.32768,-0.86194 -1.4888,-1.83073 -3.24829,-2.68554 -2.69266,-1.32495 -4.64448,-1.64551 -5.98369,-0.99728 -0.81208,0.39179 -1.28934,1.09701 -1.50304,2.22964 l -0.11398,0.59124 -0.577,0.29919 c -1.1255,0.577 -1.90196,1.38907 -2.50033,2.6143 -0.84769,1.73812 -1.20386,3.76118 -1.4603,8.3273 -0.0926,1.6384 -0.37042,2.99185 -1.11839,5.49218 l -0.12822,0.42741 -0.81919,0.5485 c -0.97592,0.65535 -2.85651,1.63127 -3.98913,2.08005 -2.34362,0.91179 -4.48065,1.32496 -6.85275,1.32496 -2.941974,-0.007 -5.556269,-0.74796 -8.092213,-2.30088 -0.5485,-0.32767 -0.63398,-0.42028 -1.08276,-1.07564 -0.2707,-0.39891 -0.8477,-1.17536 -1.28222,-1.73812 -0.42741,-0.56275 -0.78358,-1.03289 -0.78358,-1.05426 0,-0.0142 0.13534,-0.0285 0.30631,-0.0285 0.39891,0 1.1255,-0.17809 1.48168,-0.3633 1.04002,-0.52713 1.48167,-1.63127 1.17536,-2.93486 -0.16384,-0.69097 -0.70522,-1.78798 -1.29647,-2.6143 -0.61974,-0.86906 -2.56444,-2.81376 -3.69706,-3.68994 -0.47015,-0.3633 -1.65264,-1.19674 -2.63568,-1.85209 -1.57427,-1.04003 -1.87346,-1.27511 -2.60718,-2.0017 -1.16824,-1.16824 -1.82359,-2.20114 -2.2795,-3.5902 -1.29646,-3.96776 -0.0142,-8.88294 4.11735,-15.81404 0.37042,-0.61263 0.6981,-1.11839 0.74084,-1.11839 0.22083,0 -0.0784,0.70522 -1.4603,3.45487 -0.63399,1.25372 -1.26798,2.60718 -1.41757,3.00609 -1.4603,4.03899 -1.56715,7.28728 -0.3348,10.09392 0.27069,0.60549 0.98303,1.8236 1.07564,1.8236 0.0214,0 0.0641,-0.44165 0.0855,-0.98303 0.1211,-2.51458 0.82632,-5.76287 1.86634,-8.56238 0.37754,-1.01865 0.8192,-2.01593 2.0658,-4.70147 3.45486,-7.45112 4.98641,-11.94602 5.38532,-15.81404 0.0499,-0.44878 0.0926,-0.82632 0.0997,-0.84057 0.0499,-0.057 1.70962,1.09701 2.19402,1.52442 1.068514,0.94029 1.638391,1.37482 2.108538,1.62414 1.795091,0.94029 3.996235,0.87618 6.076285,-0.17096 0.3063,-0.15671 1.03289,-0.577 1.60989,-0.94029 0.72659,-0.4559 1.29647,-0.74796 1.85922,-0.96167 1.57428,-0.59837 2.62855,-1.26084 3.40501,-2.12991 0.22794,-0.24932 0.41315,-0.44165 0.42028,-0.43452 0.008,0.008 0.15672,0.53425 0.34192,1.16111 z"
       id="path4-3"
       style="stroke-width:0.00712344"
       sodipodi:nodetypes="ccccccccccccccccsccccccccccsccccccccccccccccccccccsccccccccccccccccssscccccccccsccccccsscccccscccccccccccccsccccsccccccccccccccccccssccccccccscccscccccccccccsss" />
    <path
       d="m 42.38271,205.8487 c -2.21539,0.17096 -4.24557,0.66248 -5.81273,1.41044 -2.33649,1.10413 -3.94638,2.68554 -5.08614,4.98641 -0.90468,1.83072 -1.39619,3.7398 -1.63127,6.37547 -0.11397,1.18962 -0.0926,4.69435 0.0356,6.55357 0.17808,2.74965 0.20658,4.86531 0.0712,6.05493 -0.39178,3.36226 -1.18961,5.79136 -2.77813,8.46265 -0.59837,0.99728 -1.08277,1.66689 -2.25814,3.12719 -5.58478,6.92399 -9.23198,13.99756 -10.1794,19.7533 -0.24932,1.53866 -0.32768,2.97047 -0.22082,4.35243 l 0.0926,1.2181 -0.4559,0.47015 c -0.25644,0.26356 -0.84057,0.99015 -1.30359,1.61702 -1.35346,1.83072 -1.62415,2.03018 -3.70419,2.77814 -1.74525,0.62686 -2.34361,0.96879 -3.09157,1.78799 -1.16112,1.26796 -1.3677,2.5217 -0.93318,5.54916 0.13535,0.95454 0.21371,1.78798 0.21371,2.29374 0,0.72659 -0.0214,0.86907 -0.24932,1.55291 -0.49152,1.46031 -0.63398,2.17977 -0.63398,3.24117 -0.008,0.72659 0.0285,1.05427 0.12109,1.35345 0.37754,1.19674 1.2466,2.02306 2.62855,2.50033 0.80495,0.27069 1.78799,0.46302 3.49049,0.66961 5.16449,0.63398 6.05492,0.84769 8.46265,1.99456 2.87787,1.37483 4.68723,1.86634 7.06645,1.93757 0.86194,0.0285 1.53155,0.007 1.91621,-0.0427 2.32224,-0.34192 4.18146,-1.53154 5.15737,-3.29815 l 0.26357,-0.48439 h 0.4274 c 0.52001,0 0.96879,-0.0641 3.15569,-0.46303 4.25982,-0.77645 5.84834,-0.84769 8.9043,-0.39178 2.24388,0.32767 3.29103,0.4274 4.65873,0.46302 l 1.23236,0.0285 0.16384,0.46302 c 0.44877,1.28222 1.63126,2.82801 2.74252,3.58309 3.25541,2.20827 7.86428,1.37483 11.71806,-2.11566 0.31343,-0.27782 0.96879,-0.96167 1.46031,-1.50305 1.71675,-1.90908 2.74965,-2.61431 6.70315,-4.58749 2.15129,-1.07565 2.56445,-1.30359 3.31953,-1.86635 0.81919,-0.61261 1.2751,-1.21098 1.5173,-2.00881 0.44877,-1.43893 -0.19946,-3.08445 -2.11567,-5.36395 -0.98303,-1.18249 -1.17536,-1.6099 -1.73099,-3.93926 -0.15672,-0.6696 -0.37043,-1.46743 -0.47015,-1.78086 -0.46302,-1.43181 -1.21098,-2.37211 -2.4006,-2.99897 -0.37754,-0.19946 -0.47727,-0.28494 -0.44166,-0.37042 0.14247,-0.35617 0.61262,-2.37923 0.71947,-3.11294 0.16385,-1.06852 0.18522,-4.06037 0.0427,-5.05765 -0.47015,-3.15568 -1.23948,-5.59189 -2.75677,-8.69059 -1.52442,-3.10583 -3.89652,-6.66042 -6.48233,-9.7235 -1.07564,-1.2751 -2.71403,-3.4335 -3.5261,-4.65161 -1.67401,-2.49321 -2.57157,-4.75846 -2.84938,-7.13769 -0.0356,-0.35617 -0.0713,-2.24388 -0.0713,-4.23844 0,-5.42807 -0.19945,-7.80018 -0.89043,-10.59969 -1.54579,-6.27575 -5.15025,-9.58815 -11.00572,-10.12241 -0.7622,-0.0713 -2.46471,-0.0855 -3.20555,-0.0285 z m 4.72284,12.75808 c 1.55291,0.55563 2.79952,2.17265 3.2198,4.18146 0.15672,0.74796 0.16383,2.24389 0.008,2.92774 -0.18521,0.86193 -0.72659,2.12278 -1.11125,2.57868 l -0.13535,0.16384 -0.98304,-0.38467 c -0.54138,-0.2137 -1.05427,-0.41315 -1.13975,-0.43452 l -0.15671,-0.0499 0.20658,-0.33481 c 0.68385,-1.1255 0.7622,-2.98472 0.17809,-4.14584 -0.54139,-1.06852 -1.37483,-1.45318 -2.22965,-1.02577 -0.43452,0.2137 -0.72659,0.52713 -1.01152,1.097 -0.32055,0.63399 -0.42741,1.13975 -0.42741,2.00881 0,0.42029 -0.0142,0.76933 -0.0285,0.76933 -0.0142,0 -0.22795,-0.0926 -0.47727,-0.20657 -0.24932,-0.11398 -0.69097,-0.27782 -0.97591,-0.3633 -0.27781,-0.0855 -0.53426,-0.1852 -0.55563,-0.22083 -0.0926,-0.14959 -0.0356,-1.90195 0.0784,-2.45046 0.31343,-1.49592 1.16112,-2.87787 2.21539,-3.59733 0.41316,-0.28495 1.0044,-0.55563 1.39619,-0.64112 0.4844,-0.0997 1.46031,-0.0356 1.93046,0.12823 z m -11.70382,0.80495 c 0.34193,0.0855 0.85482,0.42028 1.21811,0.7907 0.96167,0.98303 1.56004,2.72828 1.56004,4.55188 v 0.47727 l -0.26357,0.0926 c -0.30631,0.0926 -1.37482,0.61262 -1.47455,0.71235 -0.13535,0.1211 -0.14959,0.057 -0.15672,-0.59837 -0.0214,-1.99457 -1.27509,-3.40501 -2.26525,-2.54307 -0.98304,0.86906 -0.90468,3.66145 0.12822,4.62311 0.0997,0.0997 0.18521,0.19946 0.18521,0.22796 0,0.057 -0.97591,0.77645 -1.0614,0.77645 -0.14959,0 -0.61261,-0.65536 -0.94029,-1.31784 -0.52001,-1.06851 -0.66248,-1.74524 -0.6696,-3.13431 0,-0.96879 0.0285,-1.23235 0.16384,-1.73812 0.3348,-1.22523 0.87618,-2.10141 1.61702,-2.60718 0.60549,-0.42029 1.18249,-0.51288 1.95894,-0.31343 z m 15.41513,15.20855 c 0.7266,2.55732 1.65976,5.2286 2.92774,8.39854 1.23235,3.0702 1.79511,4.3168 3.38363,7.47961 1.61702,3.22692 2.19402,4.55188 2.92061,6.73165 0.44166,1.31072 1.0614,3.63296 1.1825,4.38092 l 0.0427,0.29206 0.7907,0.0926 c 1.31783,0.15671 1.18961,0.19234 1.37482,-0.39179 0.97592,-3.09157 0.51289,-6.64617 -1.33208,-10.272 -0.80495,-1.57428 -1.7025,-2.8565 -2.86363,-4.09598 -0.77645,-0.82632 -0.95453,-1.10413 -0.80494,-1.25372 0.0926,-0.0855 0.14246,-0.0713 0.38466,0.12109 0.71234,0.56988 2.15128,2.29375 3.11295,3.75406 1.78085,2.68554 2.79951,5.20011 3.24829,8.04948 0.14246,0.87619 0.12109,3.1272 -0.0356,3.98913 -0.0712,0.39179 -0.13534,0.74796 -0.14247,0.7907 0,0.0499 0.50577,0.34193 1.13263,0.65536 2.56444,1.28934 3.91789,2.46471 4.32393,3.74693 0.11398,0.34193 0.13535,0.56276 0.10685,1.04002 -0.0499,0.82633 -0.0641,0.85481 -0.47727,0.85481 h -0.34192 l 0.0356,-0.59124 c 0.0285,-0.48439 0.008,-0.65535 -0.1211,-0.99728 -0.32768,-0.86194 -1.4888,-1.83073 -3.24829,-2.68554 -2.69266,-1.32495 -4.64448,-1.64551 -5.98369,-0.99728 -0.81208,0.39179 -1.28934,1.09701 -1.50304,2.22964 l -0.11398,0.59124 -0.577,0.29919 c -1.1255,0.577 -1.90196,1.38907 -2.50033,2.6143 -0.84769,1.73812 -1.20386,3.76118 -1.4603,8.3273 -0.0926,1.6384 -0.37042,2.99185 -1.11839,5.49218 l -0.12822,0.42741 -0.81919,0.5485 c -0.97592,0.65535 -2.85651,1.63127 -3.98913,2.08005 -2.34362,0.91179 -4.48065,1.32496 -6.85275,1.32496 -2.94198,-0.007 -5.55629,-0.74796 -8.09223,-2.30088 -0.5485,-0.32767 -0.63398,-0.42028 -1.08276,-1.07564 -0.2707,-0.39891 -0.8477,-1.17536 -1.28222,-1.73812 -0.42741,-0.56275 -0.78358,-1.03289 -0.78358,-1.05426 0,-0.0142 0.13534,-0.0285 0.30631,-0.0285 0.39891,0 1.1255,-0.17809 1.48168,-0.3633 1.04002,-0.52713 1.48167,-1.63127 1.17536,-2.93486 -0.16384,-0.69097 -0.70522,-1.78798 -1.29647,-2.6143 -0.61974,-0.86906 -2.56444,-2.81376 -3.69706,-3.68994 -0.47015,-0.3633 -1.65264,-1.19674 -2.63568,-1.85209 -1.57427,-1.04003 -1.87346,-1.27511 -2.60718,-2.0017 -1.16824,-1.16824 -1.82359,-2.20114 -2.2795,-3.5902 -1.29646,-3.96776 -0.0142,-8.88294 4.11735,-15.81404 0.37042,-0.61263 0.6981,-1.11839 0.74084,-1.11839 0.22083,0 -0.0784,0.70522 -1.4603,3.45487 -0.63399,1.25372 -1.26798,2.60718 -1.41757,3.00609 -1.4603,4.03899 -1.56715,7.28728 -0.3348,10.09392 0.27069,0.60549 0.98303,1.8236 1.07564,1.8236 0.0214,0 0.0641,-0.44165 0.0855,-0.98303 0.1211,-2.51458 0.82632,-5.76287 1.86634,-8.56238 0.37754,-1.01865 0.8192,-2.01593 2.0658,-4.70147 3.45486,-7.45112 4.98641,-11.94602 5.38532,-15.81404 0.0499,-0.44878 0.0926,-0.82632 0.0997,-0.84057 0.0499,-0.057 1.70962,1.09701 2.19402,1.52442 1.06851,0.94029 1.63839,1.37482 2.10854,1.62414 1.7951,0.94029 3.99625,0.87618 6.0763,-0.17096 0.3063,-0.15671 1.03289,-0.577 1.60989,-0.94029 0.72659,-0.4559 1.29647,-0.74796 1.85922,-0.96167 1.57428,-0.59837 2.62855,-1.26084 3.40501,-2.12991 0.22794,-0.24932 0.41315,-0.44165 0.42028,-0.43452 0.008,0.008 0.15672,0.53425 0.34192,1.16111 z"
       id="path4-6"
       style="stroke-width:0.00712344"
       sodipodi:nodetypes="ccccccccccccccccsccccccccccsccccccccccccccccccccccsccccccccccccccccssscccccccccsccccccsscccccscccccccccccccsccccsccccccccccccccccccssccccccccscccscccccccccccsss" />
    <path
       d="m 39.979881,113.24259 c -2.21539,0.17096 -4.24557,0.66248 -5.81273,1.41044 -2.33649,1.10413 -3.94638,2.68554 -5.08614,4.98641 -0.90468,1.83072 -1.39619,3.7398 -1.63127,6.37547 -0.11397,1.18962 -0.0926,4.69435 0.0356,6.55357 0.17808,2.74965 0.20658,4.86531 0.0712,6.05493 -0.39178,3.36226 -1.18961,5.79136 -2.77813,8.46265 -0.59837,0.99728 -1.08277,1.66689 -2.25814,3.12719 -5.58478,6.92399 -9.23198,13.99756 -10.1794,19.7533 -0.24932,1.53866 -0.32768,2.97047 -0.22082,4.35243 l 0.0926,1.2181 -0.4559,0.47015 c -0.25644,0.26356 -0.840571,0.99015 -1.303591,1.61702 -1.3534599,1.83072 -1.6241499,2.03018 -3.7041899,2.77814 -1.74525,0.62686 -2.34361,0.96879 -3.09157,1.78799 -1.16112,1.26796 -1.3677,2.5217 -0.93318,5.54916 0.13535,0.95454 0.21371,1.78798 0.21371,2.29374 0,0.72659 -0.0214,0.86907 -0.24932,1.55291 -0.49152,1.46031 -0.6339801,2.17977 -0.6339801,3.24117 -0.008,0.72659 0.0285,1.05427 0.1210901,1.35345 0.37754,1.19674 1.2466,2.02306 2.62855,2.50033 0.80495,0.27069 1.78799,0.46302 3.49049,0.66961 5.1644909,0.63398 6.0549209,0.84769 8.4626509,1.99456 2.87787,1.37483 4.68723,1.86634 7.06645,1.93757 0.86194,0.0285 1.53155,0.007 1.91621,-0.0427 2.32224,-0.34192 4.18146,-1.53154 5.15737,-3.29815 l 0.26357,-0.48439 h 0.4274 c 0.52001,0 0.96879,-0.0641 3.15569,-0.46303 4.25982,-0.77645 5.84834,-0.84769 8.9043,-0.39178 2.24388,0.32767 3.29103,0.4274 4.65873,0.46302 l 1.23236,0.0285 0.16384,0.46302 c 0.44877,1.28222 1.63126,2.82801 2.74252,3.58309 3.25541,2.20827 7.86428,1.37483 11.71806,-2.11566 0.31343,-0.27782 0.96879,-0.96167 1.46031,-1.50305 1.71675,-1.90908 2.74965,-2.61431 6.70315,-4.58749 2.15129,-1.07565 2.56445,-1.30359 3.31953,-1.86635 0.81919,-0.61261 1.2751,-1.21098 1.5173,-2.00881 0.44877,-1.43893 -0.19946,-3.08445 -2.11567,-5.36395 -0.98303,-1.18249 -1.17536,-1.6099 -1.73099,-3.93926 -0.15672,-0.6696 -0.37043,-1.46743 -0.47015,-1.78086 -0.46302,-1.43181 -1.21098,-2.37211 -2.4006,-2.99897 -0.37754,-0.19946 -0.47727,-0.28494 -0.44166,-0.37042 0.14247,-0.35617 0.61262,-2.37923 0.71947,-3.11294 0.16385,-1.06852 0.18522,-4.06037 0.0427,-5.05765 -0.47015,-3.15568 -1.23948,-5.59189 -2.75677,-8.69059 -1.52442,-3.10583 -3.89652,-6.66042 -6.48233,-9.7235 -1.07564,-1.2751 -2.71403,-3.4335 -3.5261,-4.65161 -1.67401,-2.49321 -2.57157,-4.75846 -2.84938,-7.13769 -0.0356,-0.35617 -0.0713,-2.24388 -0.0713,-4.23844 0,-5.42807 -0.19945,-7.80018 -0.89043,-10.59969 -1.54579,-6.27575 -5.15025,-9.58815 -11.00572,-10.12241 -0.7622,-0.0713 -2.46471,-0.0855 -3.20555,-0.0285 z m 4.72284,12.75808 c 1.55291,0.55563 2.79952,2.17265 3.2198,4.18146 0.15672,0.74796 0.16383,2.24389 0.008,2.92774 -0.18521,0.86193 -0.72659,2.12278 -1.11125,2.57868 l -0.13535,0.16384 -0.98304,-0.38467 c -0.54138,-0.2137 -1.05427,-0.41315 -1.13975,-0.43452 l -0.15671,-0.0499 0.20658,-0.33481 c 0.68385,-1.1255 0.7622,-2.98472 0.17809,-4.14584 -0.54139,-1.06852 -1.37483,-1.45318 -2.22965,-1.02577 -0.43452,0.2137 -0.72659,0.52713 -1.01152,1.097 -0.32055,0.63399 -0.42741,1.13975 -0.42741,2.00881 0,0.42029 -0.0142,0.76933 -0.0285,0.76933 -0.0142,0 -0.22795,-0.0926 -0.47727,-0.20657 -0.24932,-0.11398 -0.69097,-0.27782 -0.97591,-0.3633 -0.27781,-0.0855 -0.53426,-0.1852 -0.55563,-0.22083 -0.0926,-0.14959 -0.0356,-1.90195 0.0784,-2.45046 0.31343,-1.49592 1.16112,-2.87787 2.21539,-3.59733 0.41316,-0.28495 1.0044,-0.55563 1.39619,-0.64112 0.4844,-0.0997 1.46031,-0.0356 1.93046,0.12823 z m -11.70382,0.80495 c 0.34193,0.0855 0.85482,0.42028 1.21811,0.7907 0.96167,0.98303 1.56004,2.72828 1.56004,4.55188 v 0.47727 l -0.26357,0.0926 c -0.30631,0.0926 -1.37482,0.61262 -1.47455,0.71235 -0.13535,0.1211 -0.14959,0.057 -0.15672,-0.59837 -0.0214,-1.99457 -1.27509,-3.40501 -2.26525,-2.54307 -0.98304,0.86906 -0.90468,3.66145 0.12822,4.62311 0.0997,0.0997 0.18521,0.19946 0.18521,0.22796 0,0.057 -0.97591,0.77645 -1.0614,0.77645 -0.14959,0 -0.61261,-0.65536 -0.94029,-1.31784 -0.52001,-1.06851 -0.66248,-1.74524 -0.6696,-3.13431 0,-0.96879 0.0285,-1.23235 0.16384,-1.73812 0.3348,-1.22523 0.87618,-2.10141 1.61702,-2.60718 0.60549,-0.42029 1.18249,-0.51288 1.95894,-0.31343 z m 15.41513,15.20855 c 0.7266,2.55732 1.65976,5.2286 2.92774,8.39854 1.23235,3.0702 1.79511,4.3168 3.38363,7.47961 1.61702,3.22692 2.19402,4.55188 2.92061,6.73165 0.44166,1.31072 1.0614,3.63296 1.1825,4.38092 l 0.0427,0.29206 0.7907,0.0926 c 1.31783,0.15671 1.18961,0.19234 1.37482,-0.39179 0.97592,-3.09157 0.51289,-6.64617 -1.33208,-10.272 -0.80495,-1.57428 -1.7025,-2.8565 -2.86363,-4.09598 -0.77645,-0.82632 -0.95453,-1.10413 -0.80494,-1.25372 0.0926,-0.0855 0.14246,-0.0713 0.38466,0.12109 0.71234,0.56988 2.15128,2.29375 3.11295,3.75406 1.78085,2.68554 2.79951,5.20011 3.24829,8.04948 0.14246,0.87619 0.12109,3.1272 -0.0356,3.98913 -0.0712,0.39179 -0.13534,0.74796 -0.14247,0.7907 0,0.0499 0.50577,0.34193 1.13263,0.65536 2.56444,1.28934 3.91789,2.46471 4.32393,3.74693 0.11398,0.34193 0.13535,0.56276 0.10685,1.04002 -0.0499,0.82633 -0.0641,0.85481 -0.47727,0.85481 h -0.34192 l 0.0356,-0.59124 c 0.0285,-0.48439 0.008,-0.65535 -0.1211,-0.99728 -0.32768,-0.86194 -1.4888,-1.83073 -3.24829,-2.68554 -2.69266,-1.32495 -4.64448,-1.64551 -5.98369,-0.99728 -0.81208,0.39179 -1.28934,1.09701 -1.50304,2.22964 l -0.11398,0.59124 -0.577,0.29919 c -1.1255,0.577 -1.90196,1.38907 -2.50033,2.6143 -0.84769,1.73812 -1.20386,3.76118 -1.4603,8.3273 -0.0926,1.6384 -0.37042,2.99185 -1.11839,5.49218 l -0.12822,0.42741 -0.81919,0.5485 c -0.97592,0.65535 -2.85651,1.63127 -3.98913,2.08005 -2.34362,0.91179 -4.48065,1.32496 -6.85275,1.32496 -2.94198,-0.007 -5.55629,-0.74796 -8.09223,-2.30088 -0.5485,-0.32767 -0.63398,-0.42028 -1.08276,-1.07564 -0.2707,-0.39891 -0.8477,-1.17536 -1.28222,-1.73812 -0.42741,-0.56275 -0.78358,-1.03289 -0.78358,-1.05426 0,-0.0142 0.13534,-0.0285 0.30631,-0.0285 0.39891,0 1.1255,-0.17809 1.48168,-0.3633 1.04002,-0.52713 1.48167,-1.63127 1.17536,-2.93486 -0.16384,-0.69097 -0.70522,-1.78798 -1.29647,-2.6143 -0.61974,-0.86906 -2.56444,-2.81376 -3.69706,-3.68994 -0.47015,-0.3633 -1.65264,-1.19674 -2.63568,-1.85209 -1.57427,-1.04003 -1.87346,-1.27511 -2.60718,-2.0017 -1.16824,-1.16824 -1.82359,-2.20114 -2.2795,-3.5902 -1.29646,-3.96776 -0.0142,-8.88294 4.11735,-15.81404 0.37042,-0.61263 0.6981,-1.11839 0.74084,-1.11839 0.22083,0 -0.0784,0.70522 -1.4603,3.45487 -0.63399,1.25372 -1.26798,2.60718 -1.41757,3.00609 -1.4603,4.03899 -1.56715,7.28728 -0.3348,10.09392 0.27069,0.60549 0.98303,1.8236 1.07564,1.8236 0.0214,0 0.0641,-0.44165 0.0855,-0.98303 0.1211,-2.51458 0.82632,-5.76287 1.86634,-8.56238 0.37754,-1.01865 0.8192,-2.01593 2.0658,-4.70147 3.45486,-7.45112 4.98641,-11.94602 5.38532,-15.81404 0.0499,-0.44878 0.0926,-0.82632 0.0997,-0.84057 0.0499,-0.057 1.70962,1.09701 2.19402,1.52442 1.06851,0.94029 1.63839,1.37482 2.10854,1.62414 1.7951,0.94029 3.99625,0.87618 6.0763,-0.17096 0.3063,-0.15671 1.03289,-0.577 1.60989,-0.94029 0.72659,-0.4559 1.29647,-0.74796 1.85922,-0.96167 1.57428,-0.59837 2.62855,-1.26084 3.40501,-2.12991 0.22794,-0.24932 0.41315,-0.44165 0.42028,-0.43452 0.008,0.008 0.15672,0.53425 0.34192,1.16111 z"
       id="path4-7"
       style="stroke-width:0.00712344"
       sodipodi:nodetypes="ccccccccccccccccsccccccccccsccccccccccccccccccccccsccccccccccccccccssscccccccccsccccccsscccccscccccccccccccsccccsccccccccccccccccccssccccccccscccscccccccccccsss" />
    <path
       d="m 104.02999,61.239494 c -2.21539,0.17096 -4.245569,0.66248 -5.812729,1.41044 -2.33649,1.10413 -3.94638,2.68554 -5.08614,4.98641 -0.90468,1.83072 -1.39619,3.7398 -1.63127,6.37547 -0.11397,1.18962 -0.0926,4.69435 0.0356,6.55357 0.17808,2.74965 0.20658,4.86531 0.0712,6.05493 -0.39178,3.36226 -1.18961,5.79136 -2.77813,8.462646 -0.59837,0.997284 -1.08277,1.666891 -2.25814,3.127192 -5.58478,6.923998 -9.23198,13.997568 -10.1794,19.753308 -0.24932,1.53866 -0.32768,2.97047 -0.22082,4.35243 l 0.0926,1.2181 -0.4559,0.47015 c -0.25644,0.26356 -0.84057,0.99015 -1.30359,1.61702 -1.35346,1.83072 -1.62415,2.03018 -3.70419,2.77814 -1.74525,0.62686 -2.34361,0.96879 -3.09157,1.78799 -1.16112,1.26796 -1.3677,2.5217 -0.93318,5.54916 0.13535,0.95454 0.21371,1.78798 0.21371,2.29374 0,0.72659 -0.0214,0.86907 -0.24932,1.55291 -0.49152,1.46031 -0.63398,2.17977 -0.63398,3.24117 -0.008,0.72659 0.0285,1.05427 0.12109,1.35345 0.37754,1.19674 1.2466,2.02306 2.62855,2.50033 0.80495,0.27069 1.78799,0.46302 3.49049,0.66961 5.16449,0.63398 6.05492,0.84769 8.46265,1.99456 2.87787,1.37483 4.68723,1.86634 7.06645,1.93757 0.86194,0.0285 1.53155,0.007 1.91621,-0.0427 2.32224,-0.34192 4.18146,-1.53154 5.15737,-3.29815 l 0.26357,-0.48439 h 0.4274 c 0.52001,0 0.96879,-0.0641 3.15569,-0.46303 4.259819,-0.77645 5.848339,-0.84769 8.904299,-0.39178 2.24388,0.32767 3.29103,0.4274 4.65873,0.46302 l 1.23236,0.0285 0.16384,0.46302 c 0.44877,1.28222 1.63126,2.82801 2.74252,3.58309 3.25541,2.20827 7.86428,1.37483 11.71806,-2.11566 0.31343,-0.27782 0.96879,-0.96167 1.46031,-1.50305 1.71675,-1.90908 2.74965,-2.61431 6.70315,-4.58749 2.15129,-1.07565 2.56445,-1.30359 3.31953,-1.86635 0.81919,-0.61261 1.2751,-1.21098 1.5173,-2.00881 0.44877,-1.43893 -0.19946,-3.08445 -2.11567,-5.36395 -0.98303,-1.18249 -1.17536,-1.6099 -1.73099,-3.93926 -0.15672,-0.6696 -0.37043,-1.46743 -0.47015,-1.78086 -0.46302,-1.43181 -1.21098,-2.37211 -2.4006,-2.99897 -0.37754,-0.19946 -0.47727,-0.28494 -0.44166,-0.37042 0.14247,-0.35617 0.61262,-2.37923 0.71947,-3.11294 0.16385,-1.06852 0.18522,-4.06037 0.0427,-5.05765 -0.47015,-3.15568 -1.23948,-5.59189 -2.75677,-8.69059 -1.52442,-3.10583 -3.89652,-6.66043 -6.48233,-9.723508 -1.07564,-1.275101 -2.71403,-3.433499 -3.5261,-4.651608 -1.67401,-2.49321 -2.57157,-4.75846 -2.84938,-7.13769 -0.0356,-0.35617 -0.0713,-2.24388 -0.0713,-4.23844 0,-5.42807 -0.19945,-7.80018 -0.89043,-10.59969 -1.54579,-6.27575 -5.15025,-9.58815 -11.00572,-10.12241 -0.7622,-0.0713 -2.46471,-0.0855 -3.20555,-0.0285 z m 4.72284,12.75808 c 1.55291,0.55563 2.79952,2.17265 3.2198,4.18146 0.15672,0.74796 0.16383,2.24389 0.008,2.92774 -0.18521,0.86193 -0.72659,2.12278 -1.11125,2.57868 l -0.13535,0.16384 -0.98304,-0.38467 c -0.54138,-0.2137 -1.05427,-0.41315 -1.13975,-0.43452 l -0.15671,-0.0499 0.20658,-0.33481 c 0.68385,-1.1255 0.7622,-2.98472 0.17809,-4.14584 -0.54139,-1.06852 -1.37483,-1.45318 -2.22965,-1.02577 -0.43452,0.2137 -0.72659,0.52713 -1.01152,1.097 -0.32055,0.63399 -0.42741,1.13975 -0.42741,2.00881 0,0.42029 -0.0142,0.76933 -0.0285,0.76933 -0.0142,0 -0.22795,-0.0926 -0.47727,-0.20657 -0.24932,-0.11398 -0.69097,-0.27782 -0.97591,-0.3633 -0.27781,-0.0855 -0.53426,-0.1852 -0.55563,-0.22083 -0.0926,-0.14959 -0.0356,-1.90195 0.0784,-2.45046 0.31343,-1.49592 1.16112,-2.87787 2.21539,-3.59733 0.41316,-0.28495 1.0044,-0.55563 1.39619,-0.64112 0.4844,-0.0997 1.46031,-0.0356 1.93046,0.12823 z m -11.703819,0.80495 c 0.34193,0.0855 0.85482,0.42028 1.21811,0.7907 0.96167,0.98303 1.56004,2.72828 1.56004,4.55188 v 0.47727 l -0.26357,0.0926 c -0.30631,0.0926 -1.37482,0.61262 -1.47455,0.71235 -0.13535,0.1211 -0.14959,0.057 -0.15672,-0.59837 -0.0214,-1.99457 -1.27509,-3.40501 -2.26525,-2.54307 -0.98304,0.86906 -0.90468,3.66145 0.12822,4.62311 0.0997,0.0997 0.18521,0.19946 0.18521,0.22796 0,0.057 -0.97591,0.77645 -1.0614,0.77645 -0.14959,0 -0.61261,-0.65536 -0.94029,-1.31784 -0.52001,-1.06851 -0.66248,-1.74524 -0.6696,-3.13431 0,-0.96879 0.0285,-1.23235 0.16384,-1.73812 0.3348,-1.22523 0.87618,-2.10141 1.61702,-2.60718 0.60549,-0.42029 1.18249,-0.51288 1.95894,-0.31343 z m 15.415129,15.20855 c 0.7266,2.55732 1.65976,5.228603 2.92774,8.398538 1.23235,3.070198 1.79511,4.316808 3.38363,7.479618 1.61702,3.22692 2.19402,4.55188 2.92061,6.73165 0.44166,1.31072 1.0614,3.63296 1.1825,4.38092 l 0.0427,0.29206 0.7907,0.0926 c 1.31783,0.15671 1.18961,0.19234 1.37482,-0.39179 0.97592,-3.09157 0.51289,-6.64617 -1.33208,-10.272 -0.80495,-1.57428 -1.7025,-2.8565 -2.86363,-4.09598 -0.77645,-0.82633 -0.95453,-1.10414 -0.80494,-1.25373 0.0926,-0.0855 0.14246,-0.0713 0.38466,0.12109 0.71234,0.56988 2.15128,2.29376 3.11295,3.75407 1.78085,2.68554 2.79951,5.20011 3.24829,8.04948 0.14246,0.87619 0.12109,3.1272 -0.0356,3.98913 -0.0712,0.39179 -0.13534,0.74796 -0.14247,0.7907 0,0.0499 0.50577,0.34193 1.13263,0.65536 2.56444,1.28934 3.91789,2.46471 4.32393,3.74693 0.11398,0.34193 0.13535,0.56276 0.10685,1.04002 -0.0499,0.82633 -0.0641,0.85481 -0.47727,0.85481 h -0.34192 l 0.0356,-0.59124 c 0.0285,-0.48439 0.008,-0.65535 -0.1211,-0.99728 -0.32768,-0.86194 -1.4888,-1.83073 -3.24829,-2.68554 -2.69266,-1.32495 -4.64448,-1.64551 -5.98369,-0.99728 -0.81208,0.39179 -1.28934,1.09701 -1.50304,2.22964 l -0.11398,0.59124 -0.577,0.29919 c -1.1255,0.577 -1.90196,1.38907 -2.50033,2.6143 -0.84769,1.73812 -1.20386,3.76118 -1.4603,8.3273 -0.0926,1.6384 -0.37042,2.99185 -1.11839,5.49218 l -0.12822,0.42741 -0.81919,0.5485 c -0.97592,0.65535 -2.85651,1.63127 -3.98913,2.08005 -2.34362,0.91179 -4.48065,1.32496 -6.85275,1.32496 -2.94198,-0.007 -5.556289,-0.74796 -8.092229,-2.30088 -0.5485,-0.32767 -0.63398,-0.42028 -1.08276,-1.07564 -0.2707,-0.39891 -0.8477,-1.17536 -1.28222,-1.73812 -0.42741,-0.56275 -0.78358,-1.03289 -0.78358,-1.05426 0,-0.0142 0.13534,-0.0285 0.30631,-0.0285 0.39891,0 1.1255,-0.17809 1.48168,-0.3633 1.04002,-0.52713 1.48167,-1.63127 1.17536,-2.93486 -0.16384,-0.69097 -0.70522,-1.78798 -1.29647,-2.6143 -0.61974,-0.86906 -2.56444,-2.81376 -3.69706,-3.68994 -0.47015,-0.3633 -1.65264,-1.19674 -2.63568,-1.85209 -1.57427,-1.04003 -1.87346,-1.27511 -2.60718,-2.0017 -1.16824,-1.16824 -1.82359,-2.20114 -2.2795,-3.5902 -1.29646,-3.96776 -0.0142,-8.88294 4.11735,-15.81404 0.37042,-0.61263 0.6981,-1.11839 0.74084,-1.11839 0.22083,0 -0.0784,0.70522 -1.4603,3.45487 -0.63399,1.25372 -1.26798,2.60718 -1.41757,3.00609 -1.4603,4.03899 -1.56715,7.28728 -0.3348,10.09392 0.27069,0.60549 0.98303,1.8236 1.07564,1.8236 0.0214,0 0.0641,-0.44165 0.0855,-0.98303 0.1211,-2.51458 0.82632,-5.76287 1.86634,-8.56238 0.37754,-1.01865 0.8192,-2.01593 2.0658,-4.70147 3.45486,-7.451127 4.98641,-11.94603 5.38532,-15.814046 0.0499,-0.44878 0.0926,-0.82632 0.0997,-0.84057 0.0499,-0.057 1.70962,1.09701 2.19402,1.52442 1.06851,0.94029 1.63839,1.37482 2.10854,1.62414 1.795099,0.940289 3.996249,0.876179 6.076299,-0.17096 0.3063,-0.15671 1.03289,-0.577 1.60989,-0.94029 0.72659,-0.4559 1.29647,-0.74796 1.85922,-0.96167 1.57428,-0.59837 2.62855,-1.26084 3.40501,-2.12991 0.22794,-0.24932 0.41315,-0.44165 0.42028,-0.43452 0.008,0.008 0.15672,0.53425 0.34192,1.16111 z"
       id="path4-5"
       style="stroke-width:0.00712344"
       sodipodi:nodetypes="ccccccccccccccccsccccccccccsccccccccccccccccccccccsccccccccccccccccssscccccccccsccccccsscccccscccccccccccccsccccsccccccccccccccccccssccccccccscccscccccccccccsss" />
    <path
       d="m 171.05499,12.212918 c -2.21539,0.17096 -4.24557,0.66248 -5.81273,1.410441 -2.33649,1.10413 -3.94638,2.68554 -5.08614,4.98641 -0.90468,1.83072 -1.39619,3.7398 -1.63127,6.37547 -0.11397,1.18962 -0.0926,4.69435 0.0356,6.55357 0.17808,2.74965 0.20658,4.86531 0.0712,6.05493 -0.39178,3.36226 -1.18961,5.79136 -2.77813,8.46265 -0.59837,0.99728 -1.08277,1.66689 -2.25814,3.12719 -5.58478,6.92399 -9.23198,13.99756 -10.1794,19.7533 -0.24932,1.53866 -0.32768,2.97047 -0.22082,4.35243 l 0.0926,1.2181 -0.4559,0.47015 c -0.25644,0.26356 -0.84057,0.99015 -1.30359,1.61702 -1.35346,1.83072 -1.62415,2.03018 -3.70419,2.77814 -1.74525,0.62686 -2.34361,0.96879 -3.09157,1.78799 -1.16112,1.26796 -1.3677,2.5217 -0.93318,5.54916 0.13535,0.95454 0.21371,1.78798 0.21371,2.29374 0,0.72659 -0.0214,0.86907 -0.24932,1.55291 -0.49152,1.46031 -0.63398,2.17977 -0.63398,3.24117 -0.008,0.72659 0.0285,1.05427 0.12109,1.35345 0.37754,1.19674 1.2466,2.02306 2.62855,2.50033 0.80495,0.27069 1.78799,0.46302 3.49049,0.66961 5.16449,0.63398 6.05492,0.84769 8.46265,1.994561 2.87787,1.37484 4.68723,1.86635 7.06645,1.93758 0.86194,0.0285 1.53155,0.007 1.91621,-0.0427 2.32224,-0.34192 4.18146,-1.53155 5.15737,-3.298161 l 0.26357,-0.48439 h 0.4274 c 0.52001,0 0.96879,-0.0641 3.15569,-0.46303 4.25982,-0.77645 5.84834,-0.84769 8.9043,-0.39178 2.24388,0.32767 3.29103,0.4274 4.65873,0.46302 l 1.23236,0.0285 0.16384,0.46302 c 0.44877,1.28222 1.63126,2.828011 2.74252,3.583101 3.25541,2.20828 7.86428,1.37484 11.71806,-2.115671 0.31343,-0.27782 0.96879,-0.96167 1.46031,-1.50305 1.71675,-1.90908 2.74965,-2.61431 6.70315,-4.58749 2.15129,-1.07565 2.56445,-1.30359 3.31953,-1.86635 0.81919,-0.61261 1.2751,-1.21098 1.5173,-2.00881 0.44877,-1.43893 -0.19946,-3.08445 -2.11567,-5.36395 -0.98303,-1.18249 -1.17536,-1.6099 -1.73099,-3.93926 -0.15672,-0.6696 -0.37043,-1.46743 -0.47015,-1.78086 -0.46302,-1.43181 -1.21098,-2.37211 -2.4006,-2.99897 -0.37754,-0.19946 -0.47727,-0.28494 -0.44166,-0.37042 0.14247,-0.35617 0.61262,-2.37923 0.71947,-3.11294 0.16385,-1.06852 0.18522,-4.06037 0.0427,-5.05765 -0.47015,-3.15568 -1.23948,-5.59189 -2.75677,-8.69059 -1.52442,-3.10583 -3.89652,-6.66042 -6.48233,-9.7235 -1.07564,-1.2751 -2.71403,-3.4335 -3.5261,-4.65161 -1.67401,-2.49321 -2.57157,-4.75846 -2.84938,-7.13769 -0.0356,-0.35617 -0.0713,-2.24388 -0.0713,-4.23844 0,-5.42807 -0.19945,-7.80018 -0.89043,-10.59969 -1.54579,-6.27575 -5.15025,-9.588151 -11.00572,-10.122411 -0.7622,-0.0713 -2.46471,-0.0855 -3.20555,-0.0285 z m 4.72284,12.758081 c 1.55291,0.55563 2.79952,2.17265 3.2198,4.18146 0.15672,0.74796 0.16383,2.24389 0.008,2.92774 -0.18521,0.86193 -0.72659,2.12278 -1.11125,2.57868 l -0.13535,0.16384 -0.98304,-0.38467 c -0.54138,-0.2137 -1.05427,-0.41315 -1.13975,-0.43452 l -0.15671,-0.0499 0.20658,-0.33481 c 0.68385,-1.1255 0.7622,-2.98472 0.17809,-4.14584 -0.54139,-1.06852 -1.37483,-1.45318 -2.22965,-1.02577 -0.43452,0.2137 -0.72659,0.52713 -1.01152,1.097 -0.32055,0.63399 -0.42741,1.13975 -0.42741,2.00881 0,0.42029 -0.0142,0.76933 -0.0285,0.76933 -0.0142,0 -0.22795,-0.0926 -0.47727,-0.20657 -0.24932,-0.11398 -0.69097,-0.27782 -0.97591,-0.3633 -0.27781,-0.0855 -0.53426,-0.1852 -0.55563,-0.22083 -0.0926,-0.14959 -0.0356,-1.90195 0.0784,-2.45046 0.31343,-1.49592 1.16112,-2.87787 2.21539,-3.59733 0.41316,-0.28495 1.0044,-0.55563 1.39619,-0.64112 0.4844,-0.0997 1.46031,-0.0356 1.93046,0.12823 z m -11.70382,0.80495 c 0.34193,0.0855 0.85482,0.42028 1.21811,0.7907 0.96167,0.98303 1.56004,2.72828 1.56004,4.55188 v 0.47727 l -0.26357,0.0926 c -0.30631,0.0926 -1.37482,0.61262 -1.47455,0.71235 -0.13535,0.1211 -0.14959,0.057 -0.15672,-0.59837 -0.0214,-1.99457 -1.27509,-3.40501 -2.26525,-2.54307 -0.98304,0.86906 -0.90468,3.66145 0.12822,4.62311 0.0997,0.0997 0.18521,0.19946 0.18521,0.22796 0,0.057 -0.97591,0.77645 -1.0614,0.77645 -0.14959,0 -0.61261,-0.65536 -0.94029,-1.31784 -0.52001,-1.06851 -0.66248,-1.74524 -0.6696,-3.13431 0,-0.96879 0.0285,-1.23235 0.16384,-1.73812 0.3348,-1.22523 0.87618,-2.10141 1.61702,-2.60718 0.60549,-0.42029 1.18249,-0.51288 1.95894,-0.31343 z m 15.41513,15.20855 c 0.7266,2.55732 1.65976,5.2286 2.92774,8.39854 1.23235,3.0702 1.79511,4.3168 3.38363,7.47961 1.61702,3.22692 2.19402,4.55188 2.92061,6.73165 0.44166,1.31072 1.0614,3.63296 1.1825,4.38092 l 0.0427,0.29206 0.7907,0.0926 c 1.31783,0.15671 1.18961,0.19234 1.37482,-0.39179 0.97592,-3.09157 0.51289,-6.64617 -1.33208,-10.272 -0.80495,-1.57428 -1.7025,-2.8565 -2.86363,-4.09598 -0.77645,-0.82632 -0.95453,-1.10413 -0.80494,-1.25372 0.0926,-0.0855 0.14246,-0.0713 0.38466,0.12109 0.71234,0.56988 2.15128,2.29375 3.11295,3.75406 1.78085,2.68554 2.79951,5.20011 3.24829,8.04948 0.14246,0.87619 0.12109,3.1272 -0.0356,3.98913 -0.0712,0.39179 -0.13534,0.74796 -0.14247,0.7907 0,0.0499 0.50577,0.34193 1.13263,0.65536 2.56444,1.28934 3.91789,2.46471 4.32393,3.74693 0.11398,0.34193 0.13535,0.56276 0.10685,1.04002 -0.0499,0.82633 -0.0641,0.85481 -0.47727,0.85481 h -0.34192 l 0.0356,-0.59124 c 0.0285,-0.48439 0.008,-0.65535 -0.1211,-0.99728 -0.32768,-0.86194 -1.4888,-1.83073 -3.24829,-2.68554 -2.69266,-1.32495 -4.64448,-1.64551 -5.98369,-0.99728 -0.81208,0.39179 -1.28934,1.09701 -1.50304,2.22964 l -0.11398,0.59124 -0.577,0.29919 c -1.1255,0.577 -1.90196,1.38907 -2.50033,2.6143 -0.84769,1.73812 -1.20386,3.76118 -1.4603,8.3273 -0.0926,1.6384 -0.37042,2.99185 -1.11839,5.49218 l -0.12822,0.42741 -0.81919,0.5485 c -0.97592,0.65535 -2.85651,1.63127 -3.98913,2.08005 -2.34362,0.91179 -4.48065,1.32496 -6.85275,1.32496 -2.94198,-0.007 -5.55629,-0.74796 -8.09223,-2.30088 -0.5485,-0.32767 -0.63398,-0.42028 -1.08276,-1.07564 -0.2707,-0.39891 -0.8477,-1.17536 -1.28222,-1.73812 -0.42741,-0.56275 -0.78358,-1.03289 -0.78358,-1.05426 0,-0.0142 0.13534,-0.0285 0.30631,-0.0285 0.39891,0 1.1255,-0.17809 1.48168,-0.3633 1.04002,-0.52713 1.48167,-1.63127 1.17536,-2.93486 -0.16384,-0.69097 -0.70522,-1.78798 -1.29647,-2.6143 -0.61974,-0.86906 -2.56444,-2.81376 -3.69706,-3.68994 -0.47015,-0.3633 -1.65264,-1.19674 -2.63568,-1.85209 -1.57427,-1.04003 -1.87346,-1.27511 -2.60718,-2.0017 -1.16824,-1.16824 -1.82359,-2.20114 -2.2795,-3.5902 -1.29646,-3.96776 -0.0142,-8.88294 4.11735,-15.81404 0.37042,-0.61263 0.6981,-1.11839 0.74084,-1.11839 0.22083,0 -0.0784,0.70522 -1.4603,3.45487 -0.63399,1.25372 -1.26798,2.60718 -1.41757,3.00609 -1.4603,4.03899 -1.56715,7.28728 -0.3348,10.09392 0.27069,0.60549 0.98303,1.8236 1.07564,1.8236 0.0214,0 0.0641,-0.44165 0.0855,-0.98303 0.1211,-2.51458 0.82632,-5.76287 1.86634,-8.56238 0.37754,-1.01865 0.8192,-2.01593 2.0658,-4.70147 3.45486,-7.45112 4.98641,-11.94602 5.38532,-15.81404 0.0499,-0.44878 0.0926,-0.82632 0.0997,-0.84057 0.0499,-0.057 1.70962,1.09701 2.19402,1.52442 1.06851,0.94029 1.63839,1.37482 2.10854,1.62414 1.7951,0.94029 3.99625,0.87618 6.0763,-0.17096 0.3063,-0.15671 1.03289,-0.577 1.60989,-0.94029 0.72659,-0.4559 1.29647,-0.74796 1.85922,-0.96167 1.57428,-0.59837 2.62855,-1.26084 3.40501,-2.12991 0.22794,-0.24932 0.41315,-0.44165 0.42028,-0.43452 0.008,0.008 0.15672,0.53425 0.34192,1.16111 z"
       id="path4-62"
       style="stroke-width:0.00712344"
       sodipodi:nodetypes="ccccccccccccccccsccccccccccsccccccccccccccccccccccsccccccccccccccccssscccccccccsccccccsscccccscccccccccccccsccccsccccccccccccccccccssccccccccscccscccccccccccsss" />
    <path
       d="m 42.590346,10.583176 c -2.21539,0.17096 -4.24557,0.66248 -5.81273,1.410441 -2.33649,1.10413 -3.94638,2.68554 -5.08614,4.98641 -0.90468,1.83072 -1.39619,3.7398 -1.63127,6.37547 -0.11397,1.18962 -0.0926,4.69435 0.0356,6.55357 0.17808,2.74965 0.20658,4.86531 0.0712,6.05493 -0.39178,3.36226 -1.18961,5.79136 -2.77813,8.46265 -0.59837,0.99728 -1.08277,1.66689 -2.25814,3.12719 -5.58478,6.92399 -9.23198,13.99756 -10.1794,19.7533 -0.24932,1.53866 -0.32768,2.97047 -0.22082,4.35243 l 0.0926,1.2181 -0.4559,0.47015 c -0.25644,0.26356 -0.84057,0.99015 -1.30359,1.61702 -1.35346,1.83072 -1.62415,2.03018 -3.7041896,2.77814 -1.74525,0.62686 -2.34361,0.96879 -3.09157,1.78799 -1.16112,1.26796 -1.3677,2.5217 -0.93318,5.54916 0.13535,0.95454 0.21371,1.78798 0.21371,2.29374 0,0.72659 -0.0214,0.86907 -0.24932,1.55291 -0.49152,1.46031 -0.63398,2.17977 -0.63398,3.24117 -0.008,0.72659 0.0285,1.05427 0.12109,1.35345 0.37754,1.19674 1.2466,2.02306 2.62855,2.50033 0.80495,0.27069 1.78799,0.46302 3.4904896,0.66961 5.16449,0.63398 6.05492,0.84769 8.46265,1.99456 2.87787,1.374833 4.68723,1.866343 7.06645,1.937573 0.86194,0.0285 1.53155,0.007 1.91621,-0.0427 2.32224,-0.34192 4.18146,-1.531543 5.15737,-3.298153 l 0.26357,-0.48439 h 0.4274 c 0.52001,0 0.96879,-0.0641 3.15569,-0.46303 4.25982,-0.77645 5.84834,-0.84769 8.9043,-0.39178 2.24388,0.32767 3.29103,0.4274 4.65873,0.46302 l 1.23236,0.0285 0.16384,0.46302 c 0.44877,1.28222 1.63126,2.82801 2.74252,3.583093 3.25541,2.20828 7.86428,1.37484 11.71806,-2.115663 0.31343,-0.27782 0.96879,-0.96167 1.46031,-1.50305 1.71675,-1.90908 2.74965,-2.61431 6.70315,-4.58749 2.15129,-1.07565 2.56445,-1.30359 3.31953,-1.86635 0.81919,-0.61261 1.2751,-1.21098 1.5173,-2.00881 0.44877,-1.43893 -0.19946,-3.08445 -2.11567,-5.36395 -0.98303,-1.18249 -1.17536,-1.6099 -1.73099,-3.93926 -0.15672,-0.6696 -0.37043,-1.46743 -0.47015,-1.78086 -0.46302,-1.43181 -1.21098,-2.37211 -2.4006,-2.99897 -0.37754,-0.19946 -0.47727,-0.28494 -0.44166,-0.37042 0.14247,-0.35617 0.61262,-2.37923 0.71947,-3.11294 0.16385,-1.06852 0.18522,-4.06037 0.0427,-5.05765 -0.47015,-3.15568 -1.23948,-5.59189 -2.75677,-8.69059 -1.52442,-3.10583 -3.89652,-6.66042 -6.48233,-9.7235 -1.07564,-1.2751 -2.71403,-3.4335 -3.5261,-4.65161 -1.67401,-2.49321 -2.57157,-4.75846 -2.84938,-7.13769 -0.0356,-0.35617 -0.0713,-2.24388 -0.0713,-4.23844 0,-5.42807 -0.19945,-7.80018 -0.89043,-10.59969 -1.54579,-6.27575 -5.15025,-9.588151 -11.00572,-10.122411 -0.7622,-0.0713 -2.46471,-0.0855 -3.20555,-0.0285 z m 4.72284,12.758081 c 1.55291,0.55563 2.79952,2.17265 3.2198,4.18146 0.15672,0.74796 0.16383,2.24389 0.008,2.92774 -0.18521,0.86193 -0.72659,2.12278 -1.11125,2.57868 l -0.13535,0.16384 -0.98304,-0.38467 c -0.54138,-0.2137 -1.05427,-0.41315 -1.13975,-0.43452 l -0.15671,-0.0499 0.20658,-0.33481 c 0.68385,-1.1255 0.7622,-2.98472 0.17809,-4.14584 -0.54139,-1.06852 -1.37483,-1.45318 -2.22965,-1.02577 -0.43452,0.2137 -0.72659,0.52713 -1.01152,1.097 -0.32055,0.63399 -0.42741,1.13975 -0.42741,2.00881 0,0.42029 -0.0142,0.76933 -0.0285,0.76933 -0.0142,0 -0.22795,-0.0926 -0.47727,-0.20657 -0.24932,-0.11398 -0.69097,-0.27782 -0.97591,-0.3633 -0.27781,-0.0855 -0.53426,-0.1852 -0.55563,-0.22083 -0.0926,-0.14959 -0.0356,-1.90195 0.0784,-2.45046 0.31343,-1.49592 1.16112,-2.87787 2.21539,-3.59733 0.41316,-0.28495 1.0044,-0.55563 1.39619,-0.64112 0.4844,-0.0997 1.46031,-0.0356 1.93046,0.12823 z m -11.70382,0.80495 c 0.34193,0.0855 0.85482,0.42028 1.21811,0.7907 0.96167,0.98303 1.56004,2.72828 1.56004,4.55188 v 0.47727 l -0.26357,0.0926 c -0.30631,0.0926 -1.37482,0.61262 -1.47455,0.71235 -0.13535,0.1211 -0.14959,0.057 -0.15672,-0.59837 -0.0214,-1.99457 -1.27509,-3.40501 -2.26525,-2.54307 -0.98304,0.86906 -0.90468,3.66145 0.12822,4.62311 0.0997,0.0997 0.18521,0.19946 0.18521,0.22796 0,0.057 -0.97591,0.77645 -1.0614,0.77645 -0.14959,0 -0.61261,-0.65536 -0.94029,-1.31784 -0.52001,-1.06851 -0.66248,-1.74524 -0.6696,-3.13431 0,-0.96879 0.0285,-1.23235 0.16384,-1.73812 0.3348,-1.22523 0.87618,-2.10141 1.61702,-2.60718 0.60549,-0.42029 1.18249,-0.51288 1.95894,-0.31343 z m 15.41513,15.20855 c 0.7266,2.55732 1.65976,5.2286 2.92774,8.39854 1.23235,3.0702 1.79511,4.3168 3.38363,7.47961 1.61702,3.22692 2.19402,4.55188 2.92061,6.73165 0.44166,1.31072 1.0614,3.63296 1.1825,4.38092 l 0.0427,0.29206 0.7907,0.0926 c 1.31783,0.15671 1.18961,0.19234 1.37482,-0.39179 0.97592,-3.09157 0.51289,-6.64617 -1.33208,-10.272 -0.80495,-1.57428 -1.7025,-2.8565 -2.86363,-4.09598 -0.77645,-0.82632 -0.95453,-1.10413 -0.80494,-1.25372 0.0926,-0.0855 0.14246,-0.0713 0.38466,0.12109 0.71234,0.56988 2.15128,2.29375 3.11295,3.75406 1.78085,2.68554 2.79951,5.20011 3.24829,8.04948 0.14246,0.87619 0.12109,3.1272 -0.0356,3.98913 -0.0712,0.39179 -0.13534,0.74796 -0.14247,0.7907 0,0.0499 0.50577,0.34193 1.13263,0.65536 2.56444,1.28934 3.91789,2.46471 4.32393,3.74693 0.11398,0.34193 0.13535,0.56276 0.10685,1.04002 -0.0499,0.82633 -0.0641,0.85481 -0.47727,0.85481 h -0.34192 l 0.0356,-0.59124 c 0.0285,-0.48439 0.008,-0.65535 -0.1211,-0.99728 -0.32768,-0.86194 -1.4888,-1.83073 -3.24829,-2.68554 -2.69266,-1.32495 -4.64448,-1.64551 -5.98369,-0.99728 -0.81208,0.39179 -1.28934,1.09701 -1.50304,2.22964 l -0.11398,0.59124 -0.577,0.29919 c -1.1255,0.577 -1.90196,1.38907 -2.50033,2.6143 -0.84769,1.73812 -1.20386,3.76118 -1.4603,8.3273 -0.0926,1.6384 -0.37042,2.99185 -1.11839,5.49218 l -0.12822,0.42741 -0.81919,0.5485 c -0.97592,0.65535 -2.85651,1.63127 -3.98913,2.08005 -2.34362,0.91179 -4.48065,1.32496 -6.85275,1.32496 -2.94198,-0.007 -5.55629,-0.74796 -8.09223,-2.30088 -0.5485,-0.32767 -0.63398,-0.42028 -1.08276,-1.07564 -0.2707,-0.39891 -0.8477,-1.17536 -1.28222,-1.73812 -0.42741,-0.56275 -0.78358,-1.03289 -0.78358,-1.05426 0,-0.0142 0.13534,-0.0285 0.30631,-0.0285 0.39891,0 1.1255,-0.17809 1.48168,-0.3633 1.04002,-0.52713 1.48167,-1.63127 1.17536,-2.93486 -0.16384,-0.69097 -0.70522,-1.78798 -1.29647,-2.6143 -0.61974,-0.86906 -2.56444,-2.81376 -3.69706,-3.68994 -0.47015,-0.3633 -1.65264,-1.19674 -2.63568,-1.85209 -1.57427,-1.04003 -1.87346,-1.27511 -2.60718,-2.0017 -1.16824,-1.16824 -1.82359,-2.20114 -2.2795,-3.5902 -1.29646,-3.96776 -0.0142,-8.88294 4.11735,-15.81404 0.37042,-0.61263 0.6981,-1.11839 0.74084,-1.11839 0.22083,0 -0.0784,0.70522 -1.4603,3.45487 -0.63399,1.25372 -1.26798,2.60718 -1.41757,3.00609 -1.4603,4.03899 -1.56715,7.28728 -0.3348,10.09392 0.27069,0.60549 0.98303,1.8236 1.07564,1.8236 0.0214,0 0.0641,-0.44165 0.0855,-0.98303 0.1211,-2.51458 0.82632,-5.76287 1.86634,-8.56238 0.37754,-1.01865 0.8192,-2.01593 2.0658,-4.70147 3.45486,-7.45112 4.98641,-11.94602 5.38532,-15.81404 0.0499,-0.44878 0.0926,-0.82632 0.0997,-0.84057 0.0499,-0.057 1.70962,1.09701 2.19402,1.52442 1.06851,0.94029 1.63839,1.37482 2.10854,1.62414 1.7951,0.94029 3.99625,0.87618 6.0763,-0.17096 0.3063,-0.15671 1.03289,-0.577 1.60989,-0.94029 0.72659,-0.4559 1.29647,-0.74796 1.85922,-0.96167 1.57428,-0.59837 2.62855,-1.26084 3.40501,-2.12991 0.22794,-0.24932 0.41315,-0.44165 0.42028,-0.43452 0.008,0.008 0.15672,0.53425 0.34192,1.16111 z"
       id="path4-1"
       style="stroke-width:0.00712344"
       sodipodi:nodetypes="ccccccccccccccccsccccccccccsccccccccccccccccccccccsccccccccccccccccssscccccccccsccccccsscccccscccccccccccccsccccsccccccccccccccccccssccccccccscccscccccccccccsss" />
    <path
       d="m 169.58085,105.52142 c -2.21539,0.17096 -4.24557,0.66248 -5.81273,1.41044 -2.33649,1.10413 -3.94638,2.68554 -5.08614,4.98641 -0.90468,1.83072 -1.39619,3.7398 -1.63127,6.37547 -0.11397,1.18962 -0.0926,4.69435 0.0356,6.55357 0.17808,2.74965 0.20658,4.86531 0.0712,6.05493 -0.39178,3.36226 -1.18961,5.79136 -2.77813,8.46265 -0.59837,0.99728 -1.08277,1.66689 -2.25814,3.12719 -5.58478,6.92399 -9.23198,13.99756 -10.1794,19.7533 -0.24932,1.53866 -0.32768,2.97047 -0.22082,4.35243 l 0.0926,1.2181 -0.4559,0.47015 c -0.25644,0.26356 -0.84057,0.99015 -1.30359,1.61702 -1.35346,1.83072 -1.62415,2.03018 -3.70419,2.77814 -1.74525,0.62686 -2.34361,0.96879 -3.09157,1.78799 -1.16112,1.26796 -1.3677,2.5217 -0.93318,5.54916 0.13535,0.95454 0.21371,1.78798 0.21371,2.29374 0,0.72659 -0.0214,0.86907 -0.24932,1.55291 -0.49152,1.46031 -0.63398,2.17977 -0.63398,3.24117 -0.008,0.72659 0.0285,1.05427 0.12109,1.35345 0.37754,1.19674 1.2466,2.02306 2.62855,2.50033 0.80495,0.27069 1.78799,0.46302 3.49049,0.66961 5.16449,0.63398 6.05492,0.84769 8.46265,1.99456 2.87787,1.37483 4.68723,1.86634 7.06645,1.93757 0.86194,0.0285 1.53155,0.007 1.91621,-0.0427 2.32224,-0.34192 4.18146,-1.53154 5.15737,-3.29815 l 0.26357,-0.48439 h 0.4274 c 0.52001,0 0.96879,-0.0641 3.15569,-0.46303 4.25982,-0.77645 5.84834,-0.84769 8.9043,-0.39178 2.24388,0.32767 3.29103,0.4274 4.65873,0.46302 l 1.23236,0.0285 0.16384,0.46302 c 0.44877,1.28222 1.63126,2.82801 2.74252,3.58309 3.25541,2.20827 7.86428,1.37483 11.71806,-2.11566 0.31343,-0.27782 0.96879,-0.96167 1.46031,-1.50305 1.71675,-1.90908 2.74965,-2.61431 6.70315,-4.58749 2.15129,-1.07565 2.56445,-1.30359 3.31953,-1.86635 0.81919,-0.61261 1.2751,-1.21098 1.5173,-2.00881 0.44877,-1.43893 -0.19946,-3.08445 -2.11567,-5.36395 -0.98303,-1.18249 -1.17536,-1.6099 -1.73099,-3.93926 -0.15672,-0.6696 -0.37043,-1.46743 -0.47015,-1.78086 -0.46302,-1.43181 -1.21098,-2.37211 -2.4006,-2.99897 -0.37754,-0.19946 -0.47727,-0.28494 -0.44166,-0.37042 0.14247,-0.35617 0.61262,-2.37923 0.71947,-3.11294 0.16385,-1.06852 0.18522,-4.06037 0.0427,-5.05765 -0.47015,-3.15568 -1.23948,-5.59189 -2.75677,-8.69059 -1.52442,-3.10583 -3.89652,-6.66042 -6.48233,-9.7235 -1.07564,-1.2751 -2.71403,-3.4335 -3.5261,-4.65161 -1.67401,-2.49321 -2.57157,-4.75846 -2.84938,-7.13769 -0.0356,-0.35617 -0.0713,-2.24388 -0.0713,-4.23844 0,-5.42807 -0.19945,-7.80018 -0.89043,-10.59969 -1.54579,-6.27575 -5.15025,-9.58815 -11.00572,-10.12241 -0.7622,-0.0713 -2.46471,-0.0855 -3.20555,-0.0285 z m 4.72284,12.75808 c 1.55291,0.55563 2.79952,2.17265 3.2198,4.18146 0.15672,0.74796 0.16383,2.24389 0.008,2.92774 -0.18521,0.86193 -0.72659,2.12278 -1.11125,2.57868 l -0.13535,0.16384 -0.98304,-0.38467 c -0.54138,-0.2137 -1.05427,-0.41315 -1.13975,-0.43452 l -0.15671,-0.0499 0.20658,-0.33481 c 0.68385,-1.1255 0.7622,-2.98472 0.17809,-4.14584 -0.54139,-1.06852 -1.37483,-1.45318 -2.22965,-1.02577 -0.43452,0.2137 -0.72659,0.52713 -1.01152,1.097 -0.32055,0.63399 -0.42741,1.13975 -0.42741,2.00881 0,0.42029 -0.0142,0.76933 -0.0285,0.76933 -0.0142,0 -0.22795,-0.0926 -0.47727,-0.20657 -0.24932,-0.11398 -0.69097,-0.27782 -0.97591,-0.3633 -0.27781,-0.0855 -0.53426,-0.1852 -0.55563,-0.22083 -0.0926,-0.14959 -0.0356,-1.90195 0.0784,-2.45046 0.31343,-1.49592 1.16112,-2.87787 2.21539,-3.59733 0.41316,-0.28495 1.0044,-0.55563 1.39619,-0.64112 0.4844,-0.0997 1.46031,-0.0356 1.93046,0.12823 z m -11.70382,0.80495 c 0.34193,0.0855 0.85482,0.42028 1.21811,0.7907 0.96167,0.98303 1.56004,2.72828 1.56004,4.55188 v 0.47727 l -0.26357,0.0926 c -0.30631,0.0926 -1.37482,0.61262 -1.47455,0.71235 -0.13535,0.1211 -0.14959,0.057 -0.15672,-0.59837 -0.0214,-1.99457 -1.27509,-3.40501 -2.26525,-2.54307 -0.98304,0.86906 -0.90468,3.66145 0.12822,4.62311 0.0997,0.0997 0.18521,0.19946 0.18521,0.22796 0,0.057 -0.97591,0.77645 -1.0614,0.77645 -0.14959,0 -0.61261,-0.65536 -0.94029,-1.31784 -0.52001,-1.06851 -0.66248,-1.74524 -0.6696,-3.13431 0,-0.96879 0.0285,-1.23235 0.16384,-1.73812 0.3348,-1.22523 0.87618,-2.10141 1.61702,-2.60718 0.60549,-0.42029 1.18249,-0.51288 1.95894,-0.31343 z M 178.015,134.293 c 0.7266,2.55732 1.65976,5.2286 2.92774,8.39854 1.23235,3.0702 1.79511,4.3168 3.38363,7.47961 1.61702,3.22692 2.19402,4.55188 2.92061,6.73165 0.44166,1.31072 1.0614,3.63296 1.1825,4.38092 l 0.0427,0.29206 0.7907,0.0926 c 1.31783,0.15671 1.18961,0.19234 1.37482,-0.39179 0.97592,-3.09157 0.51289,-6.64617 -1.33208,-10.272 -0.80495,-1.57428 -1.7025,-2.8565 -2.86363,-4.09598 -0.77645,-0.82632 -0.95453,-1.10413 -0.80494,-1.25372 0.0926,-0.0855 0.14246,-0.0713 0.38466,0.12109 0.71234,0.56988 2.15128,2.29375 3.11295,3.75406 1.78085,2.68554 2.79951,5.20011 3.24829,8.04948 0.14246,0.87619 0.12109,3.1272 -0.0356,3.98913 -0.0712,0.39179 -0.13534,0.74796 -0.14247,0.7907 0,0.0499 0.50577,0.34193 1.13263,0.65536 2.56444,1.28934 3.91789,2.46471 4.32393,3.74693 0.11398,0.34193 0.13535,0.56276 0.10685,1.04002 -0.0499,0.82633 -0.0641,0.85481 -0.47727,0.85481 h -0.34192 l 0.0356,-0.59124 c 0.0285,-0.48439 0.008,-0.65535 -0.1211,-0.99728 -0.32768,-0.86194 -1.4888,-1.83073 -3.24829,-2.68554 -2.69266,-1.32495 -4.64448,-1.64551 -5.98369,-0.99728 -0.81208,0.39179 -1.28934,1.09701 -1.50304,2.22964 l -0.11398,0.59124 -0.577,0.29919 c -1.1255,0.577 -1.90196,1.38907 -2.50033,2.6143 -0.84769,1.73812 -1.20386,3.76118 -1.4603,8.3273 -0.0926,1.6384 -0.37042,2.99185 -1.11839,5.49218 l -0.12822,0.42741 -0.81919,0.5485 c -0.97592,0.65535 -2.85651,1.63127 -3.98913,2.08005 -2.34362,0.91179 -4.48065,1.32496 -6.85275,1.32496 -2.94198,-0.007 -5.55629,-0.74796 -8.09223,-2.30088 -0.5485,-0.32767 -0.63398,-0.42028 -1.08276,-1.07564 -0.2707,-0.39891 -0.8477,-1.17536 -1.28222,-1.73812 -0.42741,-0.56275 -0.78358,-1.03289 -0.78358,-1.05426 0,-0.0142 0.13534,-0.0285 0.30631,-0.0285 0.39891,0 1.1255,-0.17809 1.48168,-0.3633 1.04002,-0.52713 1.48167,-1.63127 1.17536,-2.93486 -0.16384,-0.69097 -0.70522,-1.78798 -1.29647,-2.6143 -0.61974,-0.86906 -2.56444,-2.81376 -3.69706,-3.68994 -0.47015,-0.3633 -1.65264,-1.19674 -2.63568,-1.85209 -1.57427,-1.04003 -1.87346,-1.27511 -2.60718,-2.0017 -1.16824,-1.16824 -1.82359,-2.20114 -2.2795,-3.5902 -1.29646,-3.96776 -0.0142,-8.88294 4.11735,-15.81404 0.37042,-0.61263 0.6981,-1.11839 0.74084,-1.11839 0.22083,0 -0.0784,0.70522 -1.4603,3.45487 -0.63399,1.25372 -1.26798,2.60718 -1.41757,3.00609 -1.4603,4.03899 -1.56715,7.28728 -0.3348,10.09392 0.27069,0.60549 0.98303,1.8236 1.07564,1.8236 0.0214,0 0.0641,-0.44165 0.0855,-0.98303 0.1211,-2.51458 0.82632,-5.76287 1.86634,-8.56238 0.37754,-1.01865 0.8192,-2.01593 2.0658,-4.70147 3.45486,-7.45112 4.98641,-11.94602 5.38532,-15.81404 0.0499,-0.44878 0.0926,-0.82632 0.0997,-0.84057 0.0499,-0.057 1.70962,1.09701 2.19402,1.52442 1.06851,0.94029 1.63839,1.37482 2.10854,1.62414 1.7951,0.94029 3.99625,0.87618 6.0763,-0.17096 0.3063,-0.15671 1.03289,-0.577 1.60989,-0.94029 0.72659,-0.4559 1.29647,-0.74796 1.85922,-0.96167 1.57428,-0.59837 2.62855,-1.26084 3.40501,-2.12991 0.22794,-0.24932 0.41315,-0.44165 0.42028,-0.43452 0.008,0.008 0.15672,0.53425 0.34192,1.16111 z"
       id="path4-35"
       style="stroke-width:0.00712344"
       sodipodi:nodetypes="ccccccccccccccccsccccccccccsccccccccccccccccccccccsccccccccccccccccssscccccccccsccccccsscccccscccccccccccccsccccsccccccccccccccccccssccccccccscccscccccccccccsss" />
  </g>
</svg>
