<?xml version="1.0" encoding="UTF-8" standalone="no"?>
<!-- Created with Inkscape (http://www.inkscape.org/) -->

<svg
   inkscape:version="1.2.2 (b0a8486541, 2022-12-01)"
   sodipodi:docname="SLFTest.svg"
   id="svg5"
   version="1.1"
   viewBox="0 0 150.27599 75.752266"
   height="75.752266mm"
   width="150.27599mm"
   xmlns:inkscape="http://www.inkscape.org/namespaces/inkscape"
   xmlns:sodipodi="http://sodipodi.sourceforge.net/DTD/sodipodi-0.dtd"
   xmlns="http://www.w3.org/2000/svg"
   xmlns:svg="http://www.w3.org/2000/svg">
  <sodipodi:namedview
     id="namedview7"
     pagecolor="#ffffff"
     bordercolor="#666666"
     borderopacity="1.0"
     inkscape:pageshadow="2"
     inkscape:pageopacity="0.0"
     inkscape:pagecheckerboard="0"
     inkscape:document-units="mm"
     showgrid="false"
     inkscape:zoom="1.2334019"
     inkscape:cx="289.44337"
     inkscape:cy="59.996665"
     inkscape:window-width="1920"
     inkscape:window-height="1008"
     inkscape:window-x="0"
     inkscape:window-y="0"
     inkscape:window-maximized="1"
     inkscape:current-layer="layer1"
     units="mm"
     width="215.9mm"
     inkscape:showpageshadow="2"
     inkscape:deskcolor="#d1d1d1" />
  <defs
     id="defs2" />
  <g
     inkscape:label="Layer 1"
     inkscape:groupmode="layer"
     id="layer1"
     transform="translate(13.196153,-115.13306)">
    <path
       d="m -10.980839,124.21907 0.761999,-0.16002 0.800099,-0.8001 0.355599,-0.84455 0.1651,-0.9525 0.0762,-1.32079 -0.0762,-1.2446 -0.2921,-1.1938 -0.393699,-0.762 -0.634999,-0.4826 -0.571499,-0.2032 -0.469899,0.0381 -0.761999,0.4445 -0.520699,0.7239 -0.36195,1.1557 -0.12065,1.2065 -0.03937,1.1938 0.16002,1.11759 0.400049,1.12395 0.4826,0.51943 0.482599,0.40005 0.558799,0.0406"
       style="fill:none;stroke:#000000;stroke-width:0.00273431in;stroke-linecap:round;stroke-linejoin:round"
       id="path7524" />
    <path
       d="m -4.376847,116.86451 -1.320798,0.0381 1.358898,-0.5207 v 7.67714 h -2.006597 3.962394"
       style="fill:none;stroke:#000000;stroke-width:0.00273431in;stroke-linecap:round;stroke-linejoin:round"
       id="path7526" />
    <path
       d="m -0.381432,117.37251 0.52578,-0.508 0.634999,-0.4064 0.800098,-0.2032 0.685799,0.127 0.711199,0.3556 0.4445,0.5969 0.203199,0.889 -0.0508,0.7493 -0.393699,0.9271 -0.723899,1.0414 -0.876299,1.07949 -0.800098,0.8382 -0.723899,0.8001 -0.35687,0.40005 h 4.522463"
       style="fill:none;stroke:#000000;stroke-width:0.00273431in;stroke-linecap:round;stroke-linejoin:round"
       id="path7528" />
    <path
       d="m 6.17938,117.14391 0.645159,-0.4826 0.838199,-0.3683 h 0.673099 l 0.723899,0.2032 0.596899,0.4826 0.279399,0.635 0.127,0.762 -0.2032,0.6858 -0.685798,0.5207 -0.749299,0.3937 -0.647699,0.127 h -0.4826 0.6096 l 0.634999,0.0762 0.634999,0.2413 0.685798,0.5207 0.3175,0.48259 0.127,0.5588 -0.0381,0.5969 -0.127,0.4826 -0.393699,0.55753 -0.571499,0.35941 -0.711199,0.19939 H 7.700838 L 6.976939,123.97904 6.25939,123.57899 5.819971,123.1764"
       style="fill:none;stroke:#000000;stroke-width:0.00273431in;stroke-linecap:round;stroke-linejoin:round"
       id="path7530" />
    <path
       d="m 15.701827,124.25844 v -7.80033 l -3.718554,5.20699 h 5.039352"
       style="fill:none;stroke:#000000;stroke-width:0.00273431in;stroke-linecap:round;stroke-linejoin:round"
       id="path7532" />
    <path
       d="m 18.545355,123.21958 0.521969,0.43942 0.558799,0.32004 0.634999,0.24003 0.609599,0.0394 0.914399,-0.23876 0.634999,-0.5207 0.520699,-0.75438 0.2032,-0.889 -0.1143,-1.04139 -0.4445,-0.8001 -0.914398,-0.5207 -0.927099,-0.0762 -0.673099,0.1651 -0.685799,0.3556 -0.0762,-0.1143 0.241299,-3.3655 h 3.276595"
       style="fill:none;stroke:#000000;stroke-width:0.00273431in;stroke-linecap:round;stroke-linejoin:round"
       id="path7534" />
    <path
       d="m 25.226816,121.09361 0.596899,-0.635 0.723899,-0.5588 0.723899,-0.2413 h 0.800099 l 0.596899,0.2794 0.444499,0.4064 0.3175,0.7493 0.114299,0.88899 -0.190499,0.9144 -0.4445,0.762 -0.685798,0.48006 -0.800099,0.11938 -0.711199,-0.23876 -0.647699,-0.48006 -0.520699,-0.79502 -0.23622,-1.1303 -0.08128,-1.19379 0.16002,-1.524 0.28448,-0.9144 0.355599,-0.7239 0.596899,-0.5969 0.761999,-0.3175 0.761999,-0.0508 0.723899,0.2413 0.520699,0.4445"
       style="fill:none;stroke:#000000;stroke-width:0.00273431in;stroke-linecap:round;stroke-linejoin:round"
       id="path7536" />
    <path
       d="m 33.316706,124.21907 0.152399,-2.12217 0.3175,-1.52399 0.444499,-1.3208 0.558799,-1.0287 0.596899,-0.9652 0.609599,-0.8382 h -4.603742"
       style="fill:none;stroke:#000000;stroke-width:0.00273431in;stroke-linecap:round;stroke-linejoin:round"
       id="path7538" />
    <path
       d="m 40.631896,120.38241 0.800099,-0.6477 0.482599,-0.7112 0.1143,-0.6858 -0.0381,-0.7239 -0.520699,-0.8382 -0.800099,-0.4318 -0.634999,-0.0508 -0.965198,0.2794 -0.634999,0.6477 -0.1651,0.7239 0.203199,0.9906 0.634999,0.6096 1.130299,0.5969 1.028698,0.5588 0.685799,0.5207 0.3175,0.72389 -0.0762,0.8763 -0.2413,0.63754 -0.761999,0.60071 -0.952498,0.19939 -0.761999,-0.11938 -0.800099,-0.36068 -0.603249,-0.64008 -0.19939,-0.6858 0.07874,-0.9906 0.634999,-0.88899 0.520699,-0.3556 0.685799,-0.3175"
       style="fill:none;stroke:#000000;stroke-width:0.00273431in;stroke-linecap:round;stroke-linejoin:round"
       id="path7540" />
    <path
       d="m 44.355532,123.49898 0.44196,0.44069 0.723898,0.23876 0.749299,0.08 0.800099,-0.39878 0.761999,-0.75946 0.444499,-1.1557 0.2032,-1.40969 v -1.3208 l -0.2794,-1.2319 -0.482599,-0.9652 -0.761999,-0.5588 -0.876298,-0.1651 -0.927099,0.3302 -0.558799,0.5588 -0.31877,0.7112 -0.08001,0.7239 0.04064,0.8001 0.43434,0.8382 0.800098,0.5207 0.965199,0.127 1.041398,-0.4445 0.634999,-0.5969 0.4064,-0.5207"
       style="fill:none;stroke:#000000;stroke-width:0.00273431in;stroke-linecap:round;stroke-linejoin:round"
       id="path7542" />
    <path
       d="m 51.083984,119.02351 0.838198,-0.4826 0.711199,-0.2032 0.723899,-0.0762 0.558799,0.2032 0.482599,0.4318 0.3175,0.6477 0.0381,0.8763 v 2.67969 1.07823 l -0.0381,-1.07823 -0.520699,0.35814 -0.558799,0.40132 -0.634999,0.2794 -0.723899,0.11938 -0.596899,-0.19939 -0.4826,-0.32004 -0.360679,-0.51943 v -0.76708 l 0.28448,-0.5969 0.634999,-0.5207 0.634999,-0.24129 0.761998,-0.2413 0.723899,-0.1143 0.4445,-0.0381 h 0.355599"
       style="fill:none;stroke:#000000;stroke-width:0.00273431in;stroke-linecap:round;stroke-linejoin:round"
       id="path7544" />
    <path
       d="m 57.764175,115.34051 v 8.91793 -1.08204 l 0.444499,0.36322 0.6731,0.43942 0.7239,0.19939 0.7112,0.0406 0.8509,-0.48006 0.52069,-0.56261 0.3937,-0.8001 0.1651,-1.0033 -0.0508,-0.99059 -0.1905,-0.9271 -0.5969,-0.762 -0.52069,-0.2794 -0.7239,-0.1524 -0.762,0.1524 -0.762,0.4064 -0.8001,0.635"
       style="fill:none;stroke:#000000;stroke-width:0.00273431in;stroke-linecap:round;stroke-linejoin:round"
       id="path7546" />
    <path
       d="m 68.609959,123.53962 -0.6477,0.48006 -0.9525,0.19939 -0.88899,-0.12065 -0.9144,-0.59944 -0.5207,-0.84328 -0.20066,-0.9906 v -1.04139 l 0.31496,-0.9652 0.6477,-0.762 0.762,-0.4318 0.83819,-0.127 0.7112,0.127 0.4826,0.2286 0.2032,0.2413"
       style="fill:none;stroke:#000000;stroke-width:0.00273431in;stroke-linecap:round;stroke-linejoin:round"
       id="path7548" />
    <path
       d="m 74.921859,115.37861 v 8.79982 -1.20523 l -0.5588,0.56642 -0.762,0.51943 -0.762,0.19939 -0.63499,-0.11938 -0.6477,-0.2794 -0.635,-0.68326 -0.40132,-0.9144 -0.0813,-1.11759 0.2794,-1.3208 0.6858,-1.0033 0.9525,-0.4826 0.76199,-0.0762 0.8001,0.2794 0.5207,0.3175 0.5207,0.4826"
       style="fill:none;stroke:#000000;stroke-width:0.00273431in;stroke-linecap:round;stroke-linejoin:round"
       id="path7550" />
    <path
       d="m 77.680299,121.09361 h 4.40435 v -0.7112 l -0.2032,-0.9271 -0.5969,-0.7112 -0.6096,-0.4064 -0.8382,-0.0381 -0.83819,0.2413 -0.7239,0.5969 -0.2794,0.5969 -0.31496,0.762 -0.08,0.80009 0.19939,0.9652 0.36068,0.8763 0.7239,0.72136 0.6731,0.31877 0.83819,0.08 0.7239,-0.19939 0.6858,-0.36068"
       style="fill:none;stroke:#000000;stroke-width:0.00273431in;stroke-linecap:round;stroke-linejoin:round"
       id="path7552" />
    <path
       d="m 84.675449,124.21907 v -5.75436 h -0.95377 2.47776 -1.56209 v -1.7653 l 0.127,-0.5969 0.3937,-0.6096 0.5969,-0.2286 0.52069,0.0762 0.3683,0.1524"
       style="fill:none;stroke:#000000;stroke-width:0.00273431in;stroke-linecap:round;stroke-linejoin:round"
       id="path7554" />
    <path
       d="m 88.802949,123.93967 -0.5969,0.55943 -0.40132,0.68009 -0.0813,0.71501 0.5588,0.6096 0.9271,0.3937 1.07949,0.127 0.9525,-0.2413 0.9652,-0.6477 0.3556,-0.5969 -0.0381,-0.67945 -0.3556,-0.64008 -0.889,-0.24003 h -2.43839 l -0.5207,-0.35941 -0.2413,-0.55753 0.127,-0.5207 0.6731,-0.762 0.4445,0.2794 0.68579,0.1143 0.8382,-0.2794 0.5969,-0.5588 0.2794,-0.67309 v -0.8001 l -0.3175,-0.7239 -0.2413,-0.3175 -0.5588,-0.3556 h 1.9177 -1.9177 l -0.5969,-0.127 -0.92709,0.0762 -0.635,0.5207 -0.3683,0.7239 -0.0381,0.8001 0.1651,0.635 0.3175,0.40639 0.3556,0.3175"
       style="fill:none;stroke:#000000;stroke-width:0.00273431in;stroke-linecap:round;stroke-linejoin:round"
       id="path7556" />
    <path
       d="m 94.721139,124.17843 v -8.79982 4.445 l 0.5969,-0.6477 0.5207,-0.4826 0.76199,-0.3175 0.762,-0.0762 0.8763,0.4826 0.3175,0.5588 0.1651,0.9144 v 3.96366"
       style="fill:none;stroke:#000000;stroke-width:0.00273431in;stroke-linecap:round;stroke-linejoin:round"
       id="path7558" />
    <path
       d="m 101.75693,124.25844 v -5.88263 m -0.36068,-2.4384 v 0.635 h 0.64008 v -0.635 h -0.64008"
       style="fill:none;stroke:#000000;stroke-width:0.00273431in;stroke-linecap:round;stroke-linejoin:round"
       id="path7560" />
    <path
       d="m 103.23711,126.8213 h 0.08 l 0.44005,0.1143 0.60071,-0.0381 0.52324,-0.3556 0.1524,-0.6477 v -7.55649 m -0.3556,-2.3622 v 0.5969 h 0.635 v -0.5969 h -0.635"
       style="fill:none;stroke:#000000;stroke-width:0.00273431in;stroke-linecap:round;stroke-linejoin:round"
       id="path7562" />
    <path
       d="m 108.23392,124.25844 v -8.91793 m 3.51789,3.0353 -3.47979,4.20369 m 1.63829,-2.00659 2.286,3.68553"
       style="fill:none;stroke:#000000;stroke-width:0.00273431in;stroke-linecap:round;stroke-linejoin:round"
       id="path7564" />
    <path
       d="m 114.46961,115.37861 v 8.28039 l 0.0762,0.28067 0.127,0.15875 0.2032,0.12065 h 0.2794"
       style="fill:none;stroke:#000000;stroke-width:0.00273431in;stroke-linecap:round;stroke-linejoin:round"
       id="path7566" />
    <path
       d="m -12.542936,140.13448 v -5.88263 1.3208 l 0.558799,-0.4826 0.520699,-0.4318 0.482599,-0.3175 0.596899,-0.1651 0.520699,0.0762 0.3556,0.1651 0.406399,0.3937 0.2794,0.6858 0.0762,0.8382 v 3.79983 -4.43483 l 0.165099,-0.3302 0.838199,-0.7493 0.634999,-0.3302 0.520699,-0.1524 0.558799,0.1524 0.3683,0.2032 0.431799,0.5207 0.2032,1.0414 v 4.03986"
       style="fill:none;stroke:#000000;stroke-width:0.00273431in;stroke-linecap:round;stroke-linejoin:round"
       id="path7570" />
    <path
       d="m -1.90035,140.13448 v -5.92073 1.4351 l 0.5588,-0.5588 0.520699,-0.4699 0.406399,-0.2413 0.596899,-0.1651 0.3937,-0.0381 0.609599,0.1651 0.355599,0.2286 0.2794,0.4064 0.241299,0.5588 v 4.59993"
       style="fill:none;stroke:#000000;stroke-width:0.00273431in;stroke-linecap:round;stroke-linejoin:round"
       id="path7572" />
    <path
       d="m 7.230938,140.09511 h 0.0381 l 0.800099,-0.19939 0.761999,-0.5207 0.469899,-0.80518 0.2032,-0.8763 0.0381,-0.83819 -0.1143,-0.762 -0.2794,-0.6731 -0.406399,-0.5207 -0.558799,-0.4826 -0.596899,-0.2032 -0.558799,-0.0381 -0.647699,0.1143 -0.596899,0.3683 -0.5207,0.5969 -0.279399,0.5588 -0.23622,0.8382 v 0.64769 l 0.07874,0.7493 0.19558,0.6858 0.482599,0.64008 0.558799,0.44069 0.609599,0.23876 0.558799,0.0406"
       style="fill:none;stroke:#000000;stroke-width:0.00273431in;stroke-linecap:round;stroke-linejoin:round"
       id="path7574" />
    <path
       d="m 12.272833,142.81164 v -8.59789 1.2827 l 0.673098,-0.6858 0.800099,-0.4318 0.685799,-0.127 h 0.838199 l 0.647699,0.3683 0.558799,0.8001 0.279399,0.9144 v 1.04139 l -0.126999,0.8763 -0.4318,0.92202 -0.647699,0.60071 -0.482599,0.24003 -0.749299,0.0394 -0.609599,-0.11938 -0.673099,-0.36068 -0.647699,-0.43942"
       style="fill:none;stroke:#000000;stroke-width:0.00273431in;stroke-linecap:round;stroke-linejoin:round"
       id="path7576" />
    <path
       d="m 23.474217,142.77354 v -8.52169 0.8763 l -0.723899,-0.508 -0.761998,-0.3302 -0.952499,-0.0762 -0.888999,0.3556 -0.596899,0.7239 -0.398779,0.8763 -0.16002,0.7239 0.04064,0.72389 0.08001,0.762 0.32385,0.75565 0.520699,0.51943 0.558799,0.32004 0.761999,0.16002 0.838198,-0.23876 0.761999,-0.48006 0.558799,-0.47752"
       style="fill:none;stroke:#000000;stroke-width:0.00273431in;stroke-linecap:round;stroke-linejoin:round"
       id="path7578" />
    <path
       d="m 26.636514,140.09511 v -5.88136 1.8034 l 0.3683,-0.7239 0.558799,-0.7239 0.596899,-0.2794 0.558799,-0.0762 0.3556,0.0381"
       style="fill:none;stroke:#000000;stroke-width:0.00273431in;stroke-linecap:round;stroke-linejoin:round"
       id="path7580" />
    <path
       d="m 30.15568,139.33438 0.722629,0.48133 0.800098,0.23876 0.634999,0.08 0.800099,-0.2794 0.596899,-0.48006 0.2032,-0.71628 -0.1524,-0.7239 -0.723899,-0.5969 -1.003298,-0.40639 -0.914399,-0.3937 -0.520699,-0.5207 -0.12192,-0.5969 0.19812,-0.5715 0.647699,-0.5588 0.787399,-0.1143 0.812798,0.1651 0.673099,0.3937"
       style="fill:none;stroke:#000000;stroke-width:0.00273431in;stroke-linecap:round;stroke-linejoin:round"
       id="path7582" />
    <path
       d="m 38.549098,139.85508 -0.431799,0.19939 H 37.5458 l -0.508,-0.15875 -0.444499,-0.5207 -0.0762,-0.88138 v -4.11479 h -1.165858 3.083555 -1.917697 v -1.8034"
       style="fill:none;stroke:#000000;stroke-width:0.00273431in;stroke-linecap:round;stroke-linejoin:round"
       id="path7584" />
    <path
       d="m 44.391091,134.28995 v 5.80516 -1.52527 l -0.4318,0.52578 -0.520699,0.51943 -0.723899,0.40005 -0.685799,0.11938 -0.711199,-0.19939 -0.482599,-0.40005 -0.279399,-0.5207 -0.0381,-1.0033 v -3.72109"
       style="fill:none;stroke:#000000;stroke-width:0.00273431in;stroke-linecap:round;stroke-linejoin:round"
       id="path7586" />
    <path
       d="m 46.708839,134.17565 2.203446,5.95883 h 0.1524 l 2.209797,-5.95883"
       style="fill:none;stroke:#000000;stroke-width:0.00273431in;stroke-linecap:round;stroke-linejoin:round"
       id="path7588" />
    <path
       d="m 52.632112,134.21375 1.753867,6.00138 h 0.1651 l 1.676397,-6.00138 h 0.2413 l 1.689098,6.00138 h 0.1524 l 1.7272,-6.00138"
       style="fill:none;stroke:#000000;stroke-width:0.00273431in;stroke-linecap:round;stroke-linejoin:round"
       id="path7590" />
    <path
       d="m 61.426854,140.21513 3.995415,-6.03948 m -3.755385,0 4.034785,6.03948"
       style="fill:none;stroke:#000000;stroke-width:0.00273431in;stroke-linecap:round;stroke-linejoin:round"
       id="path7592" />
    <path
       d="m 66.990719,134.25185 2.40665,6.04329 m 2.07009,-6.00519 -2.47649,7.04595 -0.2794,0.59944 -0.3937,0.4445 -0.4826,0.2794 h -0.84455"
       style="fill:none;stroke:#000000;stroke-width:0.00273431in;stroke-linecap:round;stroke-linejoin:round"
       id="path7594" />
    <path
       d="m 73.154019,134.41695 h 3.55853 l -3.75919,5.51814 h 4.03859"
       style="fill:none;stroke:#000000;stroke-width:0.00273431in;stroke-linecap:round;stroke-linejoin:round"
       id="path7596" />
    <path
       d="m 78.071459,140.13448 2.99719,-8.20673 1.7653,5.1689 h -3.60679 3.60679 l 1.0795,3.03783"
       style="fill:none;stroke:#000000;stroke-width:0.00273431in;stroke-linecap:round;stroke-linejoin:round"
       id="path7598" />
    <path
       d="m 86.148649,139.97446 v -7.84351 h 2.32409 l 0.6731,0.0381 0.6858,0.2794 0.5588,0.5207 0.1651,0.6096 v 0.7112 l -0.2794,0.6477 -0.6096,0.4318 -0.5207,0.2413 -0.7112,0.127 h -2.20979 2.24789 l 0.6731,0.1143 0.8001,0.2032 0.6477,0.4445 0.3556,0.3937 0.127,0.55879 v 0.8001 l -0.3302,0.762 -0.5588,0.48133 -0.9906,0.40005 -0.7239,0.0787 h -2.24789"
       style="fill:none;stroke:#000000;stroke-width:0.00273431in;stroke-linecap:round;stroke-linejoin:round"
       id="path7600" />
    <path
       d="m 98.759729,139.09562 -0.8382,0.64008 -1.1303,0.39878 -1.1176,-0.16002 -1.04139,-0.5588 -0.8001,-0.96012 -0.3937,-1.0033 -0.12192,-1.51129 0.12192,-1.4097 0.5207,-1.1557 0.8001,-0.8763 0.91439,-0.4445 1.0414,-0.0762 0.9271,0.1905 0.635,0.4064 0.2032,0.2413"
       style="fill:none;stroke:#000000;stroke-width:0.00273431in;stroke-linecap:round;stroke-linejoin:round"
       id="path7602" />
    <path
       d="m 101.31243,139.93509 v -7.80414 h 2.24789 l 0.9144,0.2413 0.6858,0.3683 0.4699,0.4699 0.5715,0.9271 0.1905,1.0414 v 0.635 l -0.0381,0.8382 -0.1143,0.96519 -0.3175,0.6731 -0.5715,0.84455 -0.8763,0.51943 -0.8382,0.2413 -0.635,0.0394 h -1.65099"
       style="fill:none;stroke:#000000;stroke-width:0.00273431in;stroke-linecap:round;stroke-linejoin:round"
       id="path7604" />
    <path
       d="m 113.51711,139.93509 h -4.24179 v -4.12114 h 3.53059 -3.53059 v -3.6449 h 4.08939"
       style="fill:none;stroke:#000000;stroke-width:0.00273431in;stroke-linecap:round;stroke-linejoin:round"
       id="path7606" />
    <path
       d="m 116.12061,140.09511 v -4.15416 h 3.56869 -3.56869 v -3.7719 H 120.21"
       style="fill:none;stroke:#000000;stroke-width:0.00273431in;stroke-linecap:round;stroke-linejoin:round"
       id="path7608" />
    <path
       d="m 125.20109,136.33465 h 2.2098 v 2.96036 l -0.5207,0.35941 -1.1176,0.40005 -0.8001,0.0406 -0.8001,-0.16002 -0.72389,-0.40005 -0.8382,-0.9652 -0.56388,-1.1938 -0.11938,-1.39699 0.16256,-1.3589 0.5207,-1.2065 0.8382,-0.9144 0.83819,-0.4064 0.9652,-0.1651 1.0414,0.1651 0.635,0.3556 0.4445,0.3683"
       style="fill:none;stroke:#000000;stroke-width:0.00273431in;stroke-linecap:round;stroke-linejoin:round"
       id="path7610" />
    <path
       d="m 130.40809,140.05447 v -7.99972 3.7211 h 5.07999 v -3.683 7.96162"
       style="fill:none;stroke:#000000;stroke-width:0.00273431in;stroke-linecap:round;stroke-linejoin:round"
       id="path7612" />
    <path
       d="m -12.428637,155.97009 v -8.04036"
       style="fill:none;stroke:#000000;stroke-width:0.00273431in;stroke-linecap:round;stroke-linejoin:round"
       id="path7616" />
    <path
       d="m -9.70068,154.92742 0.39624,0.4826 0.482599,0.36068 0.634999,0.23876 0.800099,-0.11938 0.761999,-0.51943 0.368299,-0.76073 0.0762,-0.5969 v -6.12139"
       style="fill:none;stroke:#000000;stroke-width:0.00273431in;stroke-linecap:round;stroke-linejoin:round"
       id="path7618" />
    <path
       d="m -2.827449,155.97009 v -8.07846 m 4.559293,0.0762 -4.432293,5.0038 m 1.917697,-2.159 2.997195,5.15746"
       style="fill:none;stroke:#000000;stroke-width:0.00273431in;stroke-linecap:round;stroke-linejoin:round"
       id="path7620" />
    <path
       d="m 4.576642,147.89163 v 7.91844 h 4.000494"
       style="fill:none;stroke:#000000;stroke-width:0.00273431in;stroke-linecap:round;stroke-linejoin:round"
       id="path7622" />
    <path
       d="m 10.774234,156.00946 v -8.11783 h 0.4064 l 2.590796,7.07897 2.603496,-7.04087 h 0.279399 v 8.04036"
       style="fill:none;stroke:#000000;stroke-width:0.00273431in;stroke-linecap:round;stroke-linejoin:round"
       id="path7624" />
    <path
       d="m 20.019822,155.92945 v -7.96162 h 0.2794 l 4.762493,7.96162 v -7.99972"
       style="fill:none;stroke:#000000;stroke-width:0.00273431in;stroke-linecap:round;stroke-linejoin:round"
       id="path7626" />
    <path
       d="m 30.979908,155.92945 1.041399,-0.15875 1.041398,-0.68072 0.711199,-1.07696 0.368299,-1.40969 v -1.3081 l -0.203199,-1.0795 -0.3937,-0.889 -0.647699,-0.8382 -0.876298,-0.5207 -0.888999,-0.1651 -0.749299,0.127 -0.850898,0.3175 -0.787399,0.6858 -0.609599,1.1557 -0.19685,0.9144 -0.03937,1.3716 0.16002,1.04139 0.393699,0.9525 0.571499,0.76073 0.634999,0.5207 0.685799,0.24003 0.634999,0.0394"
       style="fill:none;stroke:#000000;stroke-width:0.00273431in;stroke-linecap:round;stroke-linejoin:round"
       id="path7628" />
    <path
       d="m 37.050501,156.00946 v -8.04163 h 2.844796 l 0.723899,0.2032 0.520699,0.3937 0.393699,0.5207 0.1651,0.8001 -0.0381,0.7239 -0.330199,0.8001 -0.596899,0.4826 -0.838199,0.3175 -0.952499,0.0381 h -1.930397"
       style="fill:none;stroke:#000000;stroke-width:0.00273431in;stroke-linecap:round;stroke-linejoin:round"
       id="path7630" />
    <path
       d="m 46.905687,156.00946 0.876299,-0.19939 0.914399,-0.48006 0.761998,-0.79629 0.4445,-1.1176 0.165099,-0.96519 v -1.1176 l -0.165099,-1.1684 -0.3175,-0.8001 -0.723899,-0.8763 -0.914398,-0.5207 -0.850899,-0.2032 -0.876299,0.1651 -0.838198,0.3556 -0.723899,0.7239 -0.431799,0.762 -0.28448,1.1938 -0.11938,0.9271 0.08001,0.8763 0.28575,1.04139 0.431799,0.8763 0.558799,0.60452 0.685799,0.43942 0.673099,0.19939 0.368299,0.0406 0.3556,0.72009 0.520699,0.5207 0.558799,0.32004 0.723899,0.2032 0.634999,0.0381 0.596899,-0.127"
       style="fill:none;stroke:#000000;stroke-width:0.00273431in;stroke-linecap:round;stroke-linejoin:round"
       id="path7632" />
    <path
       d="m 52.900081,155.97009 v -8.00226 h 2.679696 l 0.647699,0.2032 0.711199,0.3556 0.520699,0.8001 v 0.6858 l -0.1143,0.762 -0.482599,0.6731 -0.596899,0.3683 -0.965198,0.2286 h -2.362197 2.285997 l 2.324096,3.92556"
       style="fill:none;stroke:#000000;stroke-width:0.00273431in;stroke-linecap:round;stroke-linejoin:round"
       id="path7634" />
    <path
       d="m 59.628534,154.85122 0.67564,0.5588 0.6477,0.32004 0.8001,0.16002 0.91439,0.0394 1.0033,-0.40005 0.673105,-0.60198 0.2413,-0.8001 -0.0381,-0.7112 -0.4318,-0.72389 -0.927105,-0.5969 -1.63829,-0.7239 -0.9144,-0.5969 -0.4826,-0.6477 -0.0381,-0.8001 0.3175,-0.8382 0.9144,-0.5588 0.88899,-0.127 0.8382,0.0889 0.635,0.3175 0.596905,0.4445"
       style="fill:none;stroke:#000000;stroke-width:0.00273431in;stroke-linecap:round;stroke-linejoin:round"
       id="path7636" />
    <path
       d="m 69.029059,155.92945 v -7.96162 h -2.7597 5.5664"
       style="fill:none;stroke:#000000;stroke-width:0.00273431in;stroke-linecap:round;stroke-linejoin:round"
       id="path7638" />
    <path
       d="m 74.223359,147.89163 v 5.56259 l 0.127,0.7112 0.3556,0.762 0.4826,0.52197 0.72389,0.40005 0.6731,0.16002 0.8382,-0.11938 0.8509,-0.44069 0.5969,-0.72517 0.2794,-0.635 0.0762,-0.8763 v -5.28319"
       style="fill:none;stroke:#000000;stroke-width:0.00273431in;stroke-linecap:round;stroke-linejoin:round"
       id="path7640" />
    <path
       d="m 81.476319,147.89163 2.67842,8.07846 2.6797,-8.04036"
       style="fill:none;stroke:#000000;stroke-width:0.00273431in;stroke-linecap:round;stroke-linejoin:round"
       id="path7642" />
    <path
       d="m 88.270809,147.89163 1.87833,8.07846 0.1651,-0.0406 2.08279,-7.99972 h 0.1524 l 2.1209,8.04036 h 0.1651 l 1.7907,-8.07846"
       style="fill:none;stroke:#000000;stroke-width:0.00273431in;stroke-linecap:round;stroke-linejoin:round"
       id="path7644" />
    <path
       d="m 98.197119,155.97009 4.804401,-8.07846 m -4.564371,-0.0381 4.716771,8.11656"
       style="fill:none;stroke:#000000;stroke-width:0.00273431in;stroke-linecap:round;stroke-linejoin:round"
       id="path7646" />
    <path
       d="m 104.47599,147.89163 2.43713,4.8387 v 3.19912 -3.23722 l 2.40029,-4.7625"
       style="fill:none;stroke:#000000;stroke-width:0.00273431in;stroke-linecap:round;stroke-linejoin:round"
       id="path7648" />
    <path
       d="m 111.19302,147.96783 h 4.80059 l -5.08253,7.88161 h 5.23493"
       style="fill:none;stroke:#000000;stroke-width:0.00273431in;stroke-linecap:round;stroke-linejoin:round"
       id="path7650" />
    <path
       d="m 119.51151,147.65033 v 6.12139 m -0.2794,1.55829 v 0.64008 h 0.5969 v -0.64008 h -0.5969"
       style="fill:none;stroke:#000000;stroke-width:0.00273431in;stroke-linecap:round;stroke-linejoin:round"
       id="path7652" />
    <path
       d="m 122.0769,147.40903 0.0381,2.5654 m 1.71449,-2.5654 0.0762,2.5654"
       style="fill:none;stroke:#000000;stroke-width:0.00273431in;stroke-linecap:round;stroke-linejoin:round"
       id="path7654" />
    <path
       d="m 127.9951,147.96783 -1.0033,8.04163 m 3.27659,-8.04163 -1.0033,8.04163 m -2.91464,-5.47623 h 4.79424 m -5.03554,2.55269 h 4.75614"
       style="fill:none;stroke:#000000;stroke-width:0.00273431in;stroke-linecap:round;stroke-linejoin:round"
       id="path7656" />
    <path
       d="m 136.75808,148.84413 -0.6477,-0.5588 -0.6731,-0.1524 -0.4064,-0.0381 v -1.3716 1.3716 l -0.83819,0.1524 -0.635,0.5969 -0.2413,0.6858 0.0381,0.8382 0.3175,0.5969 0.635,0.4826 1.40969,0.7239 0.5588,0.4318 0.4318,0.44449 0.2413,0.7239 v 0.5969 l -0.1905,0.76073 -0.6858,0.56134 -0.8382,0.2794 h -0.2032 v 1.31953 -1.31953 l -0.63499,-0.08 -0.8001,-0.32004 -0.60325,-0.48006"
       style="fill:none;stroke:#000000;stroke-width:0.00273431in;stroke-linecap:round;stroke-linejoin:round"
       id="path7658" />
    <path
       d="m 5.789596,168.47831 0.596899,-0.1143 0.482599,-0.3937 0.3175,-0.6477 0.1651,-0.8763 0.0381,-0.6477 -0.2032,-0.8763 -0.3175,-0.6731 -0.393699,-0.4064 -0.482599,-0.2032 -0.520699,0.0381 -0.596899,0.3683 -0.36322,0.5588 -0.16002,0.6731 -0.04064,1.3716 0.11938,0.7112 0.2794,0.5588 0.406399,0.3683 0.3175,0.1524 0.355599,0.0381 m 5.600691,3.44677 0.596899,-0.12065 0.4445,-0.43942 0.355599,-0.60071 0.127,-0.8763 0.0381,-0.6477 -0.1651,-0.91439 -0.317499,-0.6858 -0.3937,-0.3937 -0.520699,-0.2032 -0.520699,0.0762 -0.558799,0.3302 -0.4064,0.5588 -0.114299,0.6731 -0.0889,1.35889 0.165099,0.762 0.2794,0.52197 0.355599,0.36068 0.3683,0.19939 0.355599,0.0406 m -5.079992,0.04 4.559293,-8.40168"
       style="fill:none;stroke:#000000;stroke-width:0.00273431in;stroke-linecap:round;stroke-linejoin:round"
       id="path7662" />
    <path
       d="m 20.953376,171.80443 -0.927099,-0.40005 -1.003298,-0.84328 -1.041398,-0.9906 -0.673099,-0.85089 -0.838199,-1.3208 -0.406399,-0.9525 -0.1143,-1.2446 0.1143,-0.7112 0.444499,-0.5715 0.634999,-0.2413 0.761999,0.127 0.444499,0.3937 0.2032,0.6477 -0.127,0.6731 -0.3937,0.6858 -0.520699,0.4445 -1.523997,1.1557 -0.5207,0.4826 -0.480059,0.63499 -0.240029,0.6858 0.120649,0.762 0.39624,0.83439 0.800099,0.48006 1.003298,0.19939 0.761999,-0.19939 0.876298,-0.51943 0.647699,-0.75692 0.558799,-0.762 0.4318,-1.00329 0.330199,-0.8763"
       style="fill:none;stroke:#000000;stroke-width:0.00273431in;stroke-linecap:round;stroke-linejoin:round"
       id="path7664" />
    <path
       d="m 22.947275,163.28401 0.0762,2.5654"
       style="fill:none;stroke:#000000;stroke-width:0.00273431in;stroke-linecap:round;stroke-linejoin:round"
       id="path7666" />
    <path
       d="m 27.658968,173.9647 -0.634999,-1.20015 -0.558799,-1.55956 -0.2032,-0.96139 -0.114299,-1.39699 v -1.3208 l 0.190499,-1.1557 0.2921,-1.1303 0.431799,-1.1938 0.3556,-0.6858 0.292099,-0.3937"
       style="fill:none;stroke:#000000;stroke-width:0.00273431in;stroke-linecap:round;stroke-linejoin:round"
       id="path7668" />
    <path
       d="m 29.259167,174.0028 0.685799,-1.27762 0.520699,-1.36017 0.228599,-1.32461 0.1651,-1.63829 -0.203199,-1.6002 -0.1524,-1.0414 -0.2794,-0.9525 -0.482599,-0.9652 -0.482599,-0.9144"
       style="fill:none;stroke:#000000;stroke-width:0.00273431in;stroke-linecap:round;stroke-linejoin:round"
       id="path7670" />
    <path
       d="m 34.059761,165.88751 0.876299,-1.2827 1.435098,-0.4826 -1.435098,0.4826 v -1.524 1.524 l -1.441448,-0.4826 1.441448,0.4826 1.003298,1.3208"
       style="fill:none;stroke:#000000;stroke-width:0.00273431in;stroke-linecap:round;stroke-linejoin:round"
       id="path7672" />
    <path
       d="m 40.816152,165.04931 v 5.47369 m -2.442206,-2.75589 h 4.994902"
       style="fill:none;stroke:#000000;stroke-width:0.00273431in;stroke-linecap:round;stroke-linejoin:round"
       id="path7674" />
    <path
       d="m 45.819946,171.76506 h -0.482599 v -0.64008 h 0.482599 l 0.2032,0.72009 -0.0508,0.60071 -0.2413,0.51943 -0.317499,0.32004 -0.35687,0.32385"
       style="fill:none;stroke:#000000;stroke-width:0.00273431in;stroke-linecap:round;stroke-linejoin:round"
       id="path7676" />
    <path
       d="M 47.898934,168.77041 H 50.49354"
       style="fill:none;stroke:#000000;stroke-width:0.00273431in;stroke-linecap:round;stroke-linejoin:round"
       id="path7678" />
    <path
       d="m 52.583958,171.16562 v 0.63881 h 0.640079 v -0.63881 h -0.640079"
       style="fill:none;stroke:#000000;stroke-width:0.00273431in;stroke-linecap:round;stroke-linejoin:round"
       id="path7680" />
    <path
       d="m 55.066805,173.8885 3.796029,-10.80769"
       style="fill:none;stroke:#000000;stroke-width:0.00273431in;stroke-linecap:round;stroke-linejoin:round"
       id="path7682" />
    <path
       d="m 60.584954,166.31931 v 0.6096 h 0.60198 v -0.6096 h -0.60198 m 0,4.84631 v 0.59944 h 0.60198 v -0.59944 h -0.60198"
       style="fill:none;stroke:#000000;stroke-width:0.00273431in;stroke-linecap:round;stroke-linejoin:round"
       id="path7684" />
    <path
       d="m 63.747244,166.31931 v 0.6477 h 0.640085 v -0.6477 h -0.640085 m 0.563885,5.44575 h -0.482605 v -0.64008 h 0.482605 l 0.2032,0.72009 -0.0508,0.60071 -0.1905,0.51943 -0.368305,0.32004 -0.35687,0.32385"
       style="fill:none;stroke:#000000;stroke-width:0.00273431in;stroke-linecap:round;stroke-linejoin:round"
       id="path7686" />
    <path
       d="m 71.346919,169.761 -5.03554,-2.03199 5.03554,-2.0447"
       style="fill:none;stroke:#000000;stroke-width:0.00273431in;stroke-linecap:round;stroke-linejoin:round"
       id="path7688" />
    <path
       d="m 72.672799,166.48441 h 5.07491 m -5.07491,2.56539 h 5.07491"
       style="fill:none;stroke:#000000;stroke-width:0.00273431in;stroke-linecap:round;stroke-linejoin:round"
       id="path7690" />
    <path
       d="m 79.153599,169.761 4.9949,-2.07009 -4.9949,-2.0066"
       style="fill:none;stroke:#000000;stroke-width:0.00273431in;stroke-linecap:round;stroke-linejoin:round"
       id="path7692" />
    <path
       d="m 86.917099,171.16562 v 0.63881 h 0.635 v -0.63881 h -0.635 m 0.2413,-1.64592 0.0762,-0.74929 0.3175,-0.8001 0.88899,-1.2065 0.5207,-0.8382 0.1143,-0.7239 -0.1524,-0.7112 -0.4064,-0.5715 -0.4826,-0.3175 -0.67309,-0.0762 -0.6858,0.1143 -0.5588,0.2794 -0.47879,0.4445"
       style="fill:none;stroke:#000000;stroke-width:0.00273431in;stroke-linecap:round;stroke-linejoin:round"
       id="path7694" />
    <path
       d="m 31.220254,182.71499 -0.520699,3.04799 -0.634999,0.635 -0.647699,0.32258 -0.761999,0.0394 -0.673099,-0.51435 -0.203199,-0.8509 0.241299,-1.26999 0.673099,-1.0033 0.927099,-0.4826 0.800098,0.1651 0.3937,0.3556 0.241299,0.4826 -0.355599,2.19709 0.0762,0.4826 0.685799,0.51816 0.914398,-0.08 0.761999,-0.64135 0.520699,-0.8382 0.1651,-1.04139 -0.0381,-1.0795 -0.330199,-1.1557 -0.5588,-0.8509 -0.711198,-0.635 -1.168399,-0.3937 -1.231898,-0.0889 -1.092198,0.2032 -1.231898,0.635 -0.876299,0.8509 -0.609599,0.9144 -0.476249,1.2065 -0.16002,1.02869 v 0.889 l 0.28067,1.19634 0.482599,0.96076 0.990599,0.87947 0.888998,0.40005 1.231898,0.24638 1.168398,-0.0508 1.079499,-0.55499"
       style="fill:none;stroke:#000000;stroke-width:0.00273431in;stroke-linecap:round;stroke-linejoin:round"
       id="path7698" />
    <path
       d="m 38.179847,189.52218 h -1.676398 v -10.43939 h 1.676398"
       style="fill:none;stroke:#000000;stroke-width:0.00273431in;stroke-linecap:round;stroke-linejoin:round"
       id="path7700" />
    <path
       d="m 39.272046,178.99389 3.797294,10.76959"
       style="fill:none;stroke:#000000;stroke-width:0.00273431in;stroke-linecap:round;stroke-linejoin:round"
       id="path7702" />
    <path
       d="m 44.18821,189.48408 h 1.675127 V 179.04469 H 44.18821"
       style="fill:none;stroke:#000000;stroke-width:0.00273431in;stroke-linecap:round;stroke-linejoin:round"
       id="path7704" />
    <path
       d="m 48.797034,183.99769 1.879597,-4.5974 1.917697,4.7244"
       style="fill:none;stroke:#000000;stroke-width:0.00273431in;stroke-linecap:round;stroke-linejoin:round"
       id="path7706" />
    <path
       d="m 54.275807,189.00021 h 6.002007"
       style="fill:none;stroke:#000000;stroke-width:0.00273431in;stroke-linecap:round;stroke-linejoin:round"
       id="path7708" />
    <path
       d="m 63.427424,178.95579 1.168395,1.5621"
       style="fill:none;stroke:#000000;stroke-width:0.00273431in;stroke-linecap:round;stroke-linejoin:round"
       id="path7710" />
    <path
       d="m 71.085509,189.52218 -0.60959,0.0381 -0.635,-0.3175 -0.2794,-0.64262 0.1651,-3.35788 -0.1651,-0.4445 -0.3175,-0.31749 -0.28448,-0.127 -0.51943,-0.0381 0.63881,-0.1524 0.4826,-0.2794 0.0762,-0.5207 -0.0381,-3.3655 0.127,-0.5588 0.5588,-0.3556 h 0.80009"
       style="fill:none;stroke:#000000;stroke-width:0.00273431in;stroke-linecap:round;stroke-linejoin:round"
       id="path7712" />
    <path
       d="M 73.168309,190.75408 V 178.56209"
       style="fill:none;stroke:#000000;stroke-width:0.00273431in;stroke-linecap:round;stroke-linejoin:round"
       id="path7714" />
    <path
       d="m 75.442879,189.52218 0.76073,-0.0381 0.5588,-0.28448 0.1651,-0.75946 -0.0889,-3.12166 0.1651,-0.59689 0.3175,-0.2794 0.4826,-0.1651 h 0.2032 l -0.4826,-0.1524 -0.4445,-0.1651 -0.1905,-0.4445 v -1.1557 l 0.1143,-2.4003 -0.3556,-0.6858 -0.52578,-0.2286 h -0.64008"
       style="fill:none;stroke:#000000;stroke-width:0.00273431in;stroke-linecap:round;stroke-linejoin:round"
       id="path7716" />
    <path
       d="m 79.767219,183.84529 0.43688,-0.5207 0.5207,-0.2413 h 0.6477 l 0.5969,0.5207 0.67309,0.5207 0.4064,0.1524 0.4826,-0.0762 0.3556,-0.3175 0.3556,-0.3683"
       style="fill:none;stroke:#000000;stroke-width:0.00273431in;stroke-linecap:round;stroke-linejoin:round"
       id="path7718" />
  </g>
</svg>
