<?xml version="1.0" encoding="UTF-8" standalone="no"?>
<!-- Created with Inkscape (http://www.inkscape.org/) -->

<svg
   width="300mm"
   height="180mm"
   viewBox="0 0 300 180"
   version="1.1"
   id="svg11316"
   inkscape:version="1.2.2 (b0a8486541, 2022-12-01)"
   sodipodi:docname="cap_on_bed.svg"
   xmlns:inkscape="http://www.inkscape.org/namespaces/inkscape"
   xmlns:sodipodi="http://sodipodi.sourceforge.net/DTD/sodipodi-0.dtd"
   xmlns="http://www.w3.org/2000/svg"
   xmlns:svg="http://www.w3.org/2000/svg">
  <sodipodi:namedview
     id="namedview11318"
     pagecolor="#ffffff"
     bordercolor="#000000"
     borderopacity="0.25"
     inkscape:showpageshadow="2"
     inkscape:pageopacity="0.0"
     inkscape:pagecheckerboard="0"
     inkscape:deskcolor="#d1d1d1"
     inkscape:document-units="mm"
     showgrid="false"
     inkscape:zoom="9.6557572"
     inkscape:cx="116.14832"
     inkscape:cy="506.53718"
     inkscape:window-width="1920"
     inkscape:window-height="1008"
     inkscape:window-x="0"
     inkscape:window-y="0"
     inkscape:window-maximized="1"
     inkscape:current-layer="layer1" />
  <defs
     id="defs11313" />
  <g
     inkscape:label="Layer 1"
     inkscape:groupmode="layer"
     id="layer1"
     transform="translate(-112.41862,-127.74612)">
    <path
       id="path12-7-3"
       style="vector-effect:non-scaling-stroke;fill:none;stroke:#000000;stroke-width:0.264583;stroke-dasharray:none;-inkscape-stroke:hairline"
       d="m 154.08657,260.47323 a 11.503491,11.503491 0 0 1 -11.5035,11.50351 11.503491,11.503491 0 0 1 -11.5035,-11.50351 11.503491,11.503491 0 0 1 11.5035,-11.5035 11.503491,11.503491 0 0 1 11.5035,11.5035 z" />
    <path
       id="circle12077-5"
       style="vector-effect:non-scaling-stroke;fill:none;stroke:#000000;stroke-width:0.264583;stroke-dasharray:none;-inkscape-stroke:hairline"
       d="m 153.57019,260.47323 a 10.987129,10.987129 0 0 1 -10.98712,10.98716 10.987129,10.987129 0 0 1 -10.98711,-10.98716 10.987129,10.987129 0 0 1 10.98711,-10.98711 10.987129,10.987129 0 0 1 10.98712,10.98711 z" />
    <path
       style="vector-effect:non-scaling-stroke;fill:none;fill-opacity:1;stroke:#000000;stroke-width:0.264583;stroke-dasharray:none;stroke-opacity:1;-inkscape-stroke:hairline"
       d="m 137.22471,266.12424 c -0.0733,-0.0259 -0.16433,-0.0829 -0.20226,-0.1267 -0.0379,-0.0437 -0.403,-0.69295 -0.81127,-1.44268 -0.40827,-0.74973 -0.75355,-1.37505 -0.76728,-1.38959 -0.0137,-0.0145 -0.11355,0.0398 -0.22182,0.12068 -0.21907,0.16373 -0.3102,0.20097 -0.47684,0.19484 -0.25466,-0.009 -0.48464,-0.29994 -0.48002,-0.6065 0.004,-0.27905 0.0621,-0.34293 0.74654,-0.82333 0.37387,-0.26243 0.40079,-0.27557 0.56445,-0.27557 0.16569,0 0.32506,0.07 0.44006,0.19315 0.0463,0.0496 0.31277,0.51001 0.59226,1.02322 0.63558,1.16707 0.63661,1.16879 0.66651,1.1117 0.0269,-0.0515 0.78534,-2.09681 1.3882,-4.12531 0.23151,-0.77898 0.4935,-1.65627 0.58221,-1.94953 0.0887,-0.29327 0.2391,-0.79564 0.33422,-1.1164 0.0951,-0.32076 0.23015,-0.77065 0.30007,-0.99976 0.0699,-0.22911 0.22113,-0.72906 0.33604,-1.111 0.11491,-0.38194 0.2377,-0.73103 0.27288,-0.77574 0.0352,-0.0447 0.12192,-0.11088 0.19277,-0.14703 4.53952,0 4.79088,-0.0203 9.89652,-0.0203 0.40042,0.1673 0.42467,0.80901 0.039,1.03234 0,0 -6.10367,0.065 -9.28196,0.0719 l -0.0419,0.1333 c -0.023,0.0733 -0.12493,0.41074 -0.22645,0.74982 -0.40794,1.36251 -0.69906,2.33673 -1.02071,3.41584 -0.18575,0.62319 -0.40548,1.35801 -0.48829,1.63294 -0.0828,0.27494 -0.17716,0.58986 -0.20967,0.69983 -0.52325,1.77009 -1.41609,4.23544 -1.46538,4.3133 -0.0635,0.1003 -0.15423,0.16984 -0.29016,0.22241 -0.13404,0.0518 -0.20795,0.0507 -0.36777,-0.006 z"
       id="path23591-2-7-35"
       sodipodi:nodetypes="ssssssssssssssssssccccsssscsss" />
    <path
       style="vector-effect:non-scaling-stroke;fill:none;fill-opacity:1;stroke:#000000;stroke-width:0.264583;stroke-dasharray:none;stroke-opacity:1;-inkscape-stroke:hairline"
       d="m 140.70366,265.89277 c -0.22993,-0.28492 -0.28256,-0.0555 0.70325,-3.06544 0.82285,-2.5123 0.88172,-2.67916 1.00125,-2.83871 0.25999,-0.34696 0.6036,-0.59505 1.05777,-0.76373 l 0.27432,-0.10189 0.23604,-0.64393 c 0.29242,-0.79774 0.43794,-1.10847 0.73703,-1.57379 0.21803,-0.3392 0.23654,-0.38087 0.2653,-0.59709 0.017,-0.12785 0.0629,-0.29811 0.1019,-0.37836 0.06,-0.12344 0.0622,-0.15504 0.0144,-0.20506 -0.12913,-0.13507 0.0918,-0.36074 0.34012,-0.34744 0.18107,0.01 1.17358,0.33563 1.3281,0.43614 0.0643,0.0419 0.13566,0.12731 0.1585,0.18991 0.0505,0.1384 0.002,0.32076 -0.0786,0.29442 -0.0456,-0.0149 -0.059,0.009 -0.078,0.13758 -0.0126,0.0856 -0.0264,0.17176 -0.0306,0.19151 -0.004,0.0197 -0.0604,0.12497 -0.12493,0.23386 -0.11133,0.18786 -0.11759,0.21422 -0.12291,0.5163 -0.01,0.55043 -0.19897,1.50569 -0.45064,2.27408 l -0.0981,0.29942 0.192,0.27523 c 0.24128,0.34587 0.37523,0.63714 0.40326,0.87687 0.0218,0.18634 0.0204,0.19084 -0.88735,2.9625 l -0.90917,2.77588 -0.13488,0.0928 c -0.0742,0.0511 -0.22969,0.10673 -0.34555,0.12375 l -0.21066,0.0309 -1.6155,-0.52912 -1.61551,-0.52912 z"
       id="path47236-8-76"
       sodipodi:nodetypes="sssscsssssssssscssscssscsscccs" />
    <path
       style="vector-effect:non-scaling-stroke;fill:none;fill-opacity:1;stroke:#000000;stroke-width:0.264583;stroke-dasharray:none;stroke-opacity:1;-inkscape-stroke:hairline"
       d="m 147.63789,258.3404 c -0.26921,0.0717 -0.50456,-0.0957 -0.62858,-0.44703 -0.0272,-0.0785 -0.0334,-0.10113 -0.037,-0.14647 -0.009,-0.11804 -0.004,-0.17899 0.0463,-0.51383 0.0426,-0.28419 0.0503,-0.34715 0.0588,-0.47843 0.011,-0.17218 0.007,-0.34685 -0.0106,-0.49303 -0.002,-0.0176 -0.002,-0.0313 -0.001,-0.0304 0.002,8.6e-4 0.0249,0.0343 0.0515,0.0743 0.0609,0.0916 0.13185,0.17944 0.22149,0.27411 0.0906,0.0957 0.15052,0.14935 0.3525,0.31576 0.25096,0.20675 0.3043,0.26094 0.36028,0.36611 0.0233,0.0437 0.032,0.0678 0.0529,0.14573 0.0399,0.1484 0.0498,0.27338 0.0315,0.39367 -0.0259,0.16972 -0.10545,0.30621 -0.23836,0.40894 -0.0536,0.0415 -0.19846,0.11424 -0.25998,0.13062 z"
       id="path51748-8-6" />
    <path
       style="vector-effect:non-scaling-stroke;fill:none;fill-opacity:1;stroke:#000000;stroke-width:0.264583;stroke-linecap:butt;stroke-linejoin:miter;stroke-dasharray:none;stroke-opacity:1;-inkscape-stroke:hairline"
       d="m 141.27134,264.14261 c 0,0 0.80347,-3.14054 1.07832,-2.93134 0.69304,0.27643 -0.53511,4.01906 -1.07832,2.93134 z"
       id="path69750-2-58"
       sodipodi:nodetypes="ccc" />
    <path
       id="path69926-9-25"
       style="vector-effect:non-scaling-stroke;fill:none;fill-opacity:1;stroke:#000000;stroke-width:0.264583;stroke-dasharray:none;stroke-opacity:1;-inkscape-stroke:hairline"
       d="m 142.79702,260.74639 a 0.1871973,0.29827377 17.18576 0 1 -0.26601,0.23318 0.1871973,0.29827377 17.18576 0 1 -0.0935,-0.33786 0.1871973,0.29827377 17.18576 0 1 0.26601,-0.23318 0.1871973,0.29827377 17.18576 0 1 0.0935,0.33786 z" />
    <path
       style="vector-effect:non-scaling-stroke;fill:none;fill-opacity:1;stroke:#000000;stroke-width:0.245831;stroke-linecap:butt;stroke-linejoin:miter;stroke-dasharray:none;stroke-opacity:1;-inkscape-stroke:hairline"
       d="m 141.3821,263.93845 c 0,0 0.6839,-2.67315 0.91784,-2.49509 0.5899,0.23529 -0.45547,3.42093 -0.91784,2.49509 z"
       id="path12079"
       sodipodi:nodetypes="ccc" />
    <path
       style="vector-effect:non-scaling-stroke;fill:none;fill-opacity:1;stroke:#000000;stroke-width:0.264583;stroke-linecap:butt;stroke-linejoin:miter;stroke-dasharray:none;stroke-opacity:1;-inkscape-stroke:hairline"
       d="m 141.50277,263.71315 c 0,0 0.55193,-2.15737 0.74074,-2.01366 0.47608,0.18989 -0.36759,2.76086 -0.74074,2.01366 z"
       id="path12083"
       sodipodi:nodetypes="ccc" />
    <path
       style="vector-effect:non-scaling-stroke;fill:none;fill-opacity:1;stroke:#000000;stroke-width:0.264583;stroke-linecap:butt;stroke-linejoin:miter;stroke-dasharray:none;stroke-opacity:1;-inkscape-stroke:hairline"
       d="m 141.65013,263.44377 c 0,0 0.39416,-1.54068 0.529,-1.43805 0.33999,0.13561 -0.26251,1.97166 -0.529,1.43805 z"
       id="path12089"
       sodipodi:nodetypes="ccc" />
    <path
       style="vector-effect:non-scaling-stroke;fill:none;fill-opacity:1;stroke:#000000;stroke-width:0.264583;stroke-linecap:butt;stroke-linejoin:miter;stroke-dasharray:none;stroke-opacity:1;-inkscape-stroke:hairline"
       d="m 141.81318,263.14737 c 0,0 0.22056,-0.86213 0.29601,-0.8047 0.19026,0.0759 -0.14689,1.1033 -0.29601,0.8047 z"
       id="path12093"
       sodipodi:nodetypes="ccc" />
    <path
       style="vector-effect:non-scaling-stroke;fill:none;fill-opacity:1;stroke:#000000;stroke-width:0.264583;stroke-linecap:butt;stroke-linejoin:miter;stroke-dasharray:none;stroke-opacity:1;-inkscape-stroke:hairline"
       d="m 141.96462,262.88223 c 0,0 0.0653,-0.25514 0.0876,-0.23814 0.0563,0.0225 -0.0435,0.32651 -0.0876,0.23814 z"
       id="path12097"
       sodipodi:nodetypes="ccc" />
    <path
       id="ellipse12101"
       style="vector-effect:non-scaling-stroke;fill:none;fill-opacity:1;stroke:#000000;stroke-width:0.285772;stroke-dasharray:none;stroke-opacity:1;-inkscape-stroke:hairline"
       d="m 142.74754,260.73198 a 0.13566694,0.21616708 17.18576 0 1 -0.19279,0.16899 0.13566694,0.21616708 17.18576 0 1 -0.0677,-0.24485 0.13566694,0.21616708 17.18576 0 1 0.19279,-0.16899 0.13566694,0.21616708 17.18576 0 1 0.0677,0.24485 z" />
    <path
       id="ellipse12103"
       style="vector-effect:non-scaling-stroke;fill:none;fill-opacity:1;stroke:#000000;stroke-width:0.224067;stroke-dasharray:none;stroke-opacity:1;-inkscape-stroke:hairline"
       d="m 142.69177,260.71574 a 0.07756979,0.12359704 17.18576 0 1 -0.11023,0.0966 0.07756979,0.12359704 17.18576 0 1 -0.0387,-0.14 0.07756979,0.12359704 17.18576 0 1 0.11023,-0.0966 0.07756979,0.12359704 17.18576 0 1 0.0387,0.14 z" />
    <path
       id="ellipse12107"
       style="vector-effect:non-scaling-stroke;fill:none;fill-opacity:1;stroke:#000000;stroke-width:0.264583;stroke-dasharray:none;stroke-opacity:1;-inkscape-stroke:hairline"
       d="m 142.64537,260.70223 a 0.02925925,0.0466207 17.18576 0 1 -0.0416,0.0365 0.02925925,0.0466207 17.18576 0 1 -0.0146,-0.0528 0.02925925,0.0466207 17.18576 0 1 0.0416,-0.0365 0.02925925,0.0466207 17.18576 0 1 0.0146,0.0528 z" />
  </g>
</svg>
