<?xml version="1.0" encoding="UTF-8" standalone="no"?>
<!-- Created with Inkscape (http://www.inkscape.org/) -->

<svg
   inkscape:version="1.2.2 (b0a8486541, 2022-12-01)"
   sodipodi:docname="Hearts.svg"
   id="svg5"
   version="1.1"
   viewBox="0 0 38.589059 37.553173"
   height="37.553173mm"
   width="38.589058mm"
   xml:space="preserve"
   xmlns:inkscape="http://www.inkscape.org/namespaces/inkscape"
   xmlns:sodipodi="http://sodipodi.sourceforge.net/DTD/sodipodi-0.dtd"
   xmlns="http://www.w3.org/2000/svg"
   xmlns:svg="http://www.w3.org/2000/svg"><sodipodi:namedview
     id="namedview7"
     pagecolor="#ffffff"
     bordercolor="#666666"
     borderopacity="1.0"
     inkscape:pageshadow="2"
     inkscape:pageopacity="0.0"
     inkscape:pagecheckerboard="0"
     inkscape:document-units="mm"
     showgrid="false"
     inkscape:zoom="2.3045484"
     inkscape:cx="263.60913"
     inkscape:cy="106.74542"
     inkscape:window-width="1920"
     inkscape:window-height="1008"
     inkscape:window-x="0"
     inkscape:window-y="0"
     inkscape:window-maximized="1"
     inkscape:current-layer="layer1"
     units="mm"
     width="215.9mm"
     inkscape:showpageshadow="2"
     inkscape:deskcolor="#d1d1d1" /><defs
     id="defs2" /><g
     inkscape:label="Layer 1"
     inkscape:groupmode="layer"
     id="layer1"
     transform="translate(7.6483576,-120.47533)"><path
       style="fill:none;stroke:#000000;stroke-width:0.0926536"
       d="m 2.7178788,156.36156 c 2.171626,-1.55055 2.5018,-1.90347 2.513642,-2.68682 0.01015,-0.67114 -0.562147,-1.15527 -1.365657,-1.15527 -0.993173,0 -1.912916,0.89415 -2.265104,2.20208 -0.05809,0.21572 -0.135279,0.3921 -0.171534,0.39195 -0.03625,-1.9e-4 -0.226338,-0.34111 -0.422406,-0.75768 -0.96402395,-2.04819 -2.897121,-2.75743 -3.986605,-1.46266 -0.417513,0.49619 -0.435664,1.04159 -0.05257,1.5796 0.357006,0.50137 3.90603505,3.09772 4.121398,3.01508 0.06113,-0.0235 0.794105,-0.53029 1.628833,-1.12628 z"
       id="path1730" /><path
       style="fill:none;stroke:#000000;stroke-width:0.0926536"
       d="m 0.15880985,157.41785 c -1.30938705,-0.88523 -2.86201905,-2.07621 -3.18244905,-2.44116 -0.694462,-0.79094 -0.740368,-1.61944 -0.134917,-2.43491 0.3344,-0.4504 0.838896,-0.67088 1.535064,-0.67088 1.08163005,0 2.03728505,0.68473 2.695283,1.93118 l 0.325143,0.61593 0.10372,-0.27753 c 0.502221,-1.34384 1.295712,-2.02622 2.3643,-2.03322 0.986205,-0.006 1.623852,0.61955 1.619403,1.58985 -0.0027,0.57711 -0.245829,1.08969 -0.749925,1.58068 -0.3605,0.35113 -3.578101,2.70585 -3.695413,2.70439 -0.02548,-2.8e-4 -0.42157395,-0.25427 -0.88020895,-0.56433 z"
       id="path732" /><path
       style="fill:none;stroke:#000000;stroke-width:0.0926536"
       d="m 23.041769,154.27766 c -0.1356,-0.45259 -0.80719,-1.15263 -1.94691,-2.02942 -1.394614,-1.07288 -2.021484,-2.26141 -1.766036,-3.34837 0.143604,-0.61105 0.716879,-1.22306 1.237074,-1.32064 0.863422,-0.16198 1.756452,0.48305 2.290892,1.65471 0.17388,0.3812 0.34074,0.69452 0.3708,0.69627 0.0301,0.002 0.11231,-0.17149 0.18276,-0.38497 0.44122,-1.33691 1.61489,-2.23423 2.52811,-1.93284 0.76922,0.25387 1.1668,0.87213 1.17022,1.81976 0.004,1.03908 -0.6121,1.93623 -2.1261,3.09724 -0.92488,0.70924 -1.34275,1.15664 -1.57778,1.68922 -0.10682,0.24206 -0.20651,0.4401 -0.22154,0.4401 -0.015,0 -0.0787,-0.17148 -0.14149,-0.38106 z"
       id="path728" /><path
       style="fill:none;stroke:#000000;stroke-width:0.0926536"
       d="m 1.1294188,123.04065 c 0.03587,-0.0615 0.0013,-0.38719 -0.07673,-0.72382 -0.19981295,-0.86157 -0.18564695,-1.39073 0.04336,-1.61974 0.219593,-0.21959 0.279147,-0.22629 0.510149,-0.0574 0.120592,0.0882 0.176474,0.24643 0.179852,0.5093 0.0027,0.20976 0.01907,0.38151 0.03638,0.38167 0.01731,1.6e-4 0.103219,-0.0883 0.190906,-0.19659 0.308384,-0.38084 0.935789,-0.19293 0.935789,0.28027 0,0.38161 -0.215707,0.60478 -0.898949,0.93007 -0.346409,0.16492 -0.709967,0.36918 -0.807906,0.45392 -0.09794,0.0847 -0.148723,0.10377 -0.112854,0.0423 z"
       id="path1130" /><path
       style="fill:none;stroke:#000000;stroke-width:0.0926536"
       d="m -6.0832922,139.87209 c -1.217169,-2.73945 -1.520218,-3.54198 -1.518733,-4.02185 0.0049,-1.59368 1.906682,-2.41008 3.12412,-1.34116 0.181578,0.15943 0.388561,0.42969 0.459962,0.60057 0.09958,0.23832 0.166513,0.29482 0.287323,0.2425 0.832263,-0.36039 1.592382,-0.23215 2.194842,0.37031 0.73409705,0.7341 0.76998705,1.79312 0.08641,2.54975 -0.317217,0.35112 -0.793221,0.58731 -3.631662,1.80201 l -0.766681,0.3281 z"
       id="path1128" /><path
       style="fill:none;stroke:#000000;stroke-width:0.0926536"
       d="m 21.372691,129.10225 c -1.4177,-0.86204 -2.74111,-2.11213 -3.21091,-3.03303 -0.45965,-0.901 -0.42484,-1.7749 0.0995,-2.49879 0.35993,-0.49688 0.90383,-0.76386 1.56889,-0.77012 0.9762,-0.009 1.66761,0.58172 2.18978,1.8715 0.1453,0.35889 0.29221,0.65304 0.32647,0.65367 0.0343,6.5e-4 0.11293,-0.15521 0.1748,-0.34631 0.47061,-1.45363 1.23884,-2.17273 2.32113,-2.17273 1.24158,0 2.19448,1.16547 1.97312,2.41329 -0.14945,0.8425 -0.96438,1.94755 -2.15397,2.92079 -0.73787,0.60367 -2.09782,1.44816 -2.3321,1.44816 -0.0862,0 -0.51676,-0.21889 -0.95675,-0.48643 z"
       id="path1124" /><path
       style="fill:none;stroke:#000000;stroke-width:0.0926536"
       d="m 12.623193,138.12093 c 0.75037,-2.0561 0.85173,-2.45701 0.76589,-3.02942 -0.0485,-0.32327 -0.1541,-0.5272 -0.41523,-0.80171 -0.65795,-0.69164 -0.95274,-0.41986 -1.00765,0.92899 -0.0235,0.57728 0.0144,1.11808 0.11021,1.5714 0.0842,0.39835 0.11148,0.72577 0.0644,0.77279 -0.0449,0.0449 -0.21671,0.0882 -0.38186,0.0964 -0.28124,0.0138 -0.31039,-0.0146 -0.45998,-0.4485 -0.25955,-0.75284 -0.61466,-1.38427 -1.11998,-1.99147 -0.4872802,-0.58553 -0.9779402,-0.95929 -1.1332802,-0.86328 -0.0483,0.0298 -0.0665,0.28902 -0.0404,0.57599 0.0887,0.97841 1.3009202,3.20587 2.3977702,4.406 0.25806,0.28236 0.49629,0.51274 0.5294,0.51194 0.0331,-8.3e-4 0.34392,-0.77888 0.6907,-1.72909 z"
       id="path1654" /><path
       style="fill:none;stroke:#000000;stroke-width:0.0926536"
       d="m 11.007193,139.96255 c -0.97972,-1.03094 -1.6316602,-1.97541 -2.2356702,-3.23882 -0.595406,-1.24539 -0.689188,-1.91141 -0.320995,-2.2796 0.28404,-0.28404 0.914895,-0.46534 1.341035,-0.38539 0.2101502,0.0394 0.4931202,0.22977 0.8376402,0.56346 0.28615,0.27716 0.52816,0.50393 0.53779,0.50393 0.01,0 0.046,-0.15202 0.0809,-0.33783 0.0942,-0.50231 0.28624,-0.73329 0.78957,-0.94981 0.59466,-0.25582 1.09511,-0.25063 1.49348,0.0155 0.49395,0.32999 0.65837,0.73629 0.60853,1.50378 -0.0342,0.52638 -0.19272,1.05006 -0.84152,2.7796 -0.43967,1.17207 -0.78226,2.20151 -0.76133,2.28764 0.0363,0.14927 -0.33301,0.35299 -0.63988,0.35299 -0.063,0 -0.46334,-0.36695 -0.88955,-0.81545 z"
       id="path1122" /><path
       style="fill:none;stroke:#000000;stroke-width:0.0926536"
       d="m -2.1345122,130.51575 c -0.205579,-0.46949 -1.007897,-1.21419 -2.087561,-1.93763 -0.555353,-0.37212 -1.193815,-0.86067 -1.418804,-1.08565 -0.797457,-0.79746 -1.063248,-1.84653 -0.681087,-2.68823 0.296667,-0.65341 0.928008,-0.92187 1.704361,-0.72475 0.584841,0.1485 1.053875,0.54512 1.365812,1.15496 l 0.256151,0.50078 0.05405,-0.36487 c 0.205608,-1.38801 0.399346,-1.80438 1.013969,-2.17916 0.598582,-0.365 1.36720305,-0.12936 1.67179605,0.51252 0.414575,0.87365 0.234713,2.03734 -0.596513,3.85939 -0.44947405,0.98525 -0.90601905,2.226 -1.08048805,2.93645 l -0.07502,0.30548 z"
       id="path1116" /><path
       style="fill:none;stroke:#000000;stroke-width:0.0926536"
       d="m 9.0863628,129.80092 c 0.18811,-0.1472 0.61303,-0.38549 0.9442662,-0.52954 1.859339,-0.8086 2.659511,-1.71415 2.459019,-2.78286 -0.07505,-0.40004 -0.546705,-0.91833 -0.921245,-1.01234 -0.548525,-0.13767 -1.243588,0.40062 -1.7126342,1.32634 -0.295133,0.58248 -0.448287,0.51923 -0.398815,-0.16471 0.05501,-0.76045 -0.124025,-1.34371 -0.54019,-1.75988 -0.578413,-0.57841 -1.366709,-0.66195 -1.887129,-0.2 -0.265205,0.23542 -0.515817,0.85173 -0.515415,1.26754 5.56e-4,0.54048 0.353177,1.48872 0.874189,2.35058 0.449712,0.74391 1.207323,1.77251 1.305531,1.77251 0.02772,0 0.204313,-0.12044 0.392423,-0.26764 z"
       id="path1422" /><path
       style="fill:none;stroke:#000000;stroke-width:0.0926536"
       d="m 8.3930968,130.18438 c -1.248812,-1.44375 -2.157641,-3.18859 -2.159648,-4.14625 -0.0024,-1.13662 0.975069,-2.03933 1.963845,-1.81367 0.840172,0.19175 1.425933,0.82708 1.523711,1.65266 l 0.0576,0.48639 0.4322942,-0.40436 c 0.73602,-0.68846 1.602213,-0.8031 2.144262,-0.28378 0.529668,0.50745 0.581398,1.26997 0.137538,2.02735 -0.325162,0.55485 -0.692695,0.81993 -2.124407,1.53221 -0.8800002,0.4378 -1.2499812,0.67272 -1.3534482,0.85937 -0.119878,0.21626 -0.122202,0.26951 -0.0147,0.33684 0.124979,0.0783 0.07201,0.28599 -0.07293,0.28599 -0.04031,0 -0.280662,-0.23974 -0.534117,-0.53275 z"
       id="path1036" /><path
       style="fill:none;stroke:#000000;stroke-width:0.0926536"
       d="m 26.433192,139.36874 c 0.19419,-0.27322 0.41417,-0.9497 0.30882,-0.9497 -0.18097,0 -0.76063,0.4987 -0.81047,0.69727 -0.12968,0.51673 0.19697,0.6811 0.50165,0.25243 z"
       id="path1322" /><path
       style="fill:none;stroke:#000000;stroke-width:0.0926536"
       d="m 26.449992,143.27273 c 0.73891,-0.2275 1.59364,-0.53557 1.89939,-0.6846 1.84286,-0.89821 2.63882,-2.55571 1.87767,-3.91 -0.42663,-0.75907 -1.55127,-1.0917 -2.526,-0.74708 -0.44754,0.15822 -0.46503,0.17794 -0.52305,0.58963 -0.0746,0.52963 -0.27969,0.93563 -0.59968,1.18733 -0.29544,0.23239 -0.74525,0.25086 -0.97809,0.0401 -0.39461,-0.35712 -0.0715,-1.01456 0.72933,-1.48387 0.38263,-0.22423 0.41148,-0.26679 0.36001,-0.53094 -0.0856,-0.43927 -0.52021,-0.99348 -1.02273,-1.30416 -0.38151,-0.23587 -0.56684,-0.28533 -1.17248,-0.31286 -0.61283,-0.0279 -0.79389,0.001 -1.22288,0.19783 -1.12233,0.51382 -1.70919,1.401 -1.60472,2.42588 0.0684,0.67054 0.72062,2.07244 1.42416,3.06086 0.70375,0.98873 1.68783,2.01341 1.86662,1.94363 0.0819,-0.032 0.75353,-0.24428 1.49245,-0.47179 z"
       id="path1320" /><path
       style="fill:none;stroke:#000000;stroke-width:0.0926536"
       d="m 23.995252,143.48431 c -1.12659,-1.14501 -2.0548,-2.52417 -2.5065,-3.72423 -0.2859,-0.75957 -0.30542,-1.66977 -0.048,-2.23682 0.51868,-1.14238 2.17221,-1.9482 3.49565,-1.70355 0.99166,0.18332 1.98966,0.97269 2.13246,1.68667 0.061,0.30523 0.0524,0.30318 0.53925,0.12777 0.59252,-0.21346 1.49416,-0.1782 2.03837,0.0797 0.90184,0.4274 1.24605,0.99249 1.24789,2.04865 10e-4,0.84055 -0.27934,1.46079 -0.96397,2.1292 -0.65797,0.64239 -1.46533,1.03747 -3.41939,1.67327 -0.87442,0.28451 -1.64381,0.53967 -1.70974,0.56702 -0.0684,0.0284 -0.41455,-0.24977 -0.80607,-0.64769 z"
       id="path1030" /><path
       style="fill:none;stroke:#000000;stroke-width:0.0926536"
       d="m 4.0214328,139.89823 c -0.39734,-0.47221 -0.27587,-0.96312 0.14424,-0.58292 0.15462,0.13993 0.18505,0.1394 0.40855,-0.007 0.28258,-0.18515 0.50449,-0.13179 0.50449,0.12131 0,0.17156 -0.56865,0.75373 -0.73622,0.75373 -0.0447,0 -0.18913,-0.12828 -0.32106,-0.28507 z"
       id="path1024" /><path
       style="fill:none;stroke:#000000;stroke-width:0.0926536"
       d="m 11.273476,149.05309 c -0.676811,-0.69874 -1.219305,-1.51723 -1.3862582,-2.09153 -0.326976,-1.12476 0.2332702,-1.9687 1.3069132,-1.9687 0.36333,0 0.479318,0.0506 0.797902,0.34772 0.287689,0.26835 0.384819,0.43753 0.425553,0.74123 0.06095,0.45437 0.131229,0.48908 0.310836,0.15348 0.270525,-0.50548 1.193079,-0.74593 1.752345,-0.45672 0.897226,0.46397 0.950775,1.57003 0.11654,2.40718 -0.376431,0.37774 -2.02534,1.23171 -2.531508,1.31106 -0.28521,0.0447 -0.359533,0.003 -0.792323,-0.44372 z"
       id="path1006" /><path
       style="fill:none;stroke:#000000;stroke-width:0.0926536"
       d="m 1.8258828,144.19056 c -0.89896995,-0.93725 -1.27957995,-1.58 -1.35217995,-2.28349 -0.0436,-0.42273 -0.0221,-0.52481 0.14589,-0.69284 0.21796,-0.21796 0.64729995,-0.25855 0.96752995,-0.0915 0.11131,0.0581 0.39865,0.2874 0.63852,0.5096 0.23987,0.2222 0.50225,0.404 0.58305,0.404 0.0808,0 0.34318,-0.18045 0.58306,-0.401 0.62057,-0.57057 0.85451,-0.71085 1.18548,-0.71085 0.49642,0 1.0574,0.60048 1.0574,1.13184 0,0.46843 -0.54781,1.23039 -1.39032,1.93384 -0.43655,0.3645 -1.45708,1.01108 -1.59583,1.01108 -0.0247,0 -0.39492,-0.36482 -0.8226,-0.81072 z"
       id="path1004" /><path
       style="fill:none;stroke:#000000;stroke-width:0.0926536"
       d="m 0.12997785,145.82805 c -0.366968,-0.43611 -0.263853,-0.95224 0.120715,-0.60421 0.20636,0.18675 0.27824,0.1856 0.49205,-0.008 0.15667,-0.14178 0.18555,-0.14272 0.31793995,-0.0103 0.20224,0.20224 0.0899,0.48719 -0.28291995,0.71761 -0.169,0.10445 -0.32992,0.1899 -0.3576,0.1899 -0.0277,0 -0.158255,-0.12828 -0.290185,-0.28507 z"
       id="path998" /></g></svg>
