<?xml version="1.0" encoding="utf-8"?>
<!-- Generator: Adobe Illustrator 27.5.0, SVG Export Plug-In . SVG Version: 6.00 Build 0)  -->
<svg version="1.1" xmlns="http://www.w3.org/2000/svg" xmlns:xlink="http://www.w3.org/1999/xlink" x="0px" y="0px"
	 viewBox="0 0 750 500" style="enable-background:new 0 0 750 500;" xml:space="preserve">
<g id="BACKGROUND">
	<rect style="fill:#F6D19D;" width="750" height="500"/>
</g>
<g id="OBJECTS">
	<rect x="66.609" y="59.918" style="fill:#ED924E;" width="613.386" height="380.164"/>
	<g>
		<path style="fill:#3A1E22;" d="M482.993,425.25H267.008c-0.552,0-1-0.447-1-1c0-7.086-5.721-12.852-12.752-12.852
			c-0.552,0-1-0.447-1-1V92.094c0-0.552,0.448-1,1-1c7.031,0,12.752-5.766,12.752-12.852c0-0.552,0.448-1,1-1h215.985
			c0.552,0,1,0.448,1,1c0,7.086,5.721,12.852,12.752,12.852c0.552,0,1,0.448,1,1v318.304c0,0.553-0.448,1-1,1
			c-7.031,0-12.752,5.766-12.752,12.852C483.993,424.803,483.545,425.25,482.993,425.25z M267.974,423.25h214.052
			c0.49-7.392,6.378-13.32,13.719-13.817V93.061c-7.341-0.497-13.229-6.426-13.719-13.818H267.974
			c-0.49,7.392-6.378,13.321-13.719,13.818v316.372C261.597,409.93,267.484,415.858,267.974,423.25z"/>
		<g>
			<path style="fill:#3A1E22;" d="M650.842,427.115H539.667c-0.552,0-1-0.447-1-1c0-6.789-5.523-12.311-12.312-12.311
				c-0.552,0-1-0.447-1-1V91.554c0-0.552,0.448-1,1-1c6.789,0,12.312-5.523,12.312-12.312c0-0.552,0.448-1,1-1h111.175
				c0.552,0,1,0.448,1,1c0,6.789,5.522,12.312,12.311,12.312c0.552,0,1,0.448,1,1v321.25c0,0.553-0.448,1-1,1
				c-6.789,0-12.311,5.522-12.311,12.311C651.842,426.668,651.394,427.115,650.842,427.115z M540.633,425.115h109.244
				c0.492-7.096,6.181-12.785,13.276-13.277V92.519c-7.096-0.492-12.784-6.181-13.276-13.277H540.633
				c-0.492,7.096-6.181,12.785-13.277,13.277v319.319C534.452,412.33,540.14,418.02,540.633,425.115z"/>
			<g>
				<path style="fill:#C4492D;" d="M530.689,79.242c0-2.393-1.94-4.333-4.333-4.333c-2.393,0-4.333,1.94-4.333,4.333
					c0,2.393,1.94,4.333,4.333,4.333C528.749,83.576,530.689,81.636,530.689,79.242z"/>
				<path style="fill:#3A1E22;" d="M526.356,84.576c-2.94,0-5.333-2.393-5.333-5.333c0-2.94,2.393-5.333,5.333-5.333
					c2.941,0,5.333,2.393,5.333,5.333C531.689,82.183,529.297,84.576,526.356,84.576z M526.356,75.909
					c-1.838,0-3.333,1.495-3.333,3.333c0,1.838,1.495,3.333,3.333,3.333s3.333-1.496,3.333-3.333
					C529.689,77.404,528.193,75.909,526.356,75.909z"/>
			</g>
			<g>
				<circle style="fill:#C4492D;" cx="664.153" cy="79.242" r="4.333"/>
				<path style="fill:#3A1E22;" d="M664.153,84.576c-2.94,0-5.333-2.393-5.333-5.333c0-2.94,2.393-5.333,5.333-5.333
					c2.94,0,5.333,2.393,5.333,5.333C669.486,82.183,667.093,84.576,664.153,84.576z M664.153,75.909
					c-1.838,0-3.333,1.495-3.333,3.333c0,1.838,1.495,3.333,3.333,3.333s3.333-1.496,3.333-3.333
					C667.486,77.404,665.991,75.909,664.153,75.909z"/>
			</g>
			<g>
				<path style="fill:#C4492D;" d="M530.689,421.758c0-2.393-1.94-4.333-4.333-4.333c-2.393,0-4.333,1.94-4.333,4.333
					c0,2.393,1.94,4.333,4.333,4.333C528.749,426.091,530.689,424.151,530.689,421.758z"/>
				<path style="fill:#3A1E22;" d="M526.356,427.091c-2.94,0-5.333-2.393-5.333-5.333s2.393-5.333,5.333-5.333
					c2.941,0,5.333,2.393,5.333,5.333S529.297,427.091,526.356,427.091z M526.356,418.425c-1.838,0-3.333,1.495-3.333,3.333
					c0,1.838,1.495,3.333,3.333,3.333s3.333-1.495,3.333-3.333C529.689,419.92,528.193,418.425,526.356,418.425z"/>
			</g>
			<g>
				<circle style="fill:#C4492D;" cx="664.153" cy="421.758" r="4.333"/>
				<path style="fill:#3A1E22;" d="M664.153,427.091c-2.94,0-5.333-2.393-5.333-5.333s2.393-5.333,5.333-5.333
					c2.94,0,5.333,2.393,5.333,5.333S667.093,427.091,664.153,427.091z M664.153,418.425c-1.838,0-3.333,1.495-3.333,3.333
					c0,1.838,1.495,3.333,3.333,3.333s3.333-1.495,3.333-3.333C667.486,419.92,665.991,418.425,664.153,418.425z"/>
			</g>
		</g>
		<g>
			<path style="fill:#3A1E22;" d="M209.768,427.115H98.593c-0.552,0-1-0.447-1-1c0-6.789-5.523-12.311-12.312-12.311
				c-0.552,0-1-0.447-1-1V91.554c0-0.552,0.448-1,1-1c6.789,0,12.312-5.523,12.312-12.312c0-0.552,0.448-1,1-1h111.175
				c0.552,0,1,0.448,1,1c0,6.789,5.523,12.312,12.311,12.312c0.552,0,1,0.448,1,1v321.25c0,0.553-0.448,1-1,1
				c-6.789,0-12.311,5.522-12.311,12.311C210.768,426.668,210.32,427.115,209.768,427.115z M99.558,425.115h109.244
				c0.492-7.096,6.181-12.785,13.276-13.277V92.519c-7.096-0.492-12.784-6.181-13.276-13.277H99.558
				c-0.492,7.096-6.181,12.785-13.277,13.277v319.319C93.378,412.33,99.066,418.02,99.558,425.115z"/>
			<g>
				<circle style="fill:#C4492D;" cx="85.282" cy="79.242" r="4.333"/>
				<path style="fill:#3A1E22;" d="M85.281,84.576c-2.94,0-5.333-2.393-5.333-5.333c0-2.94,2.393-5.333,5.333-5.333
					c2.941,0,5.333,2.393,5.333,5.333C90.615,82.183,88.222,84.576,85.281,84.576z M85.281,75.909c-1.838,0-3.333,1.495-3.333,3.333
					c0,1.838,1.495,3.333,3.333,3.333c1.838,0,3.333-1.496,3.333-3.333C88.615,77.404,87.119,75.909,85.281,75.909z"/>
			</g>
			<g>
				<path style="fill:#C4492D;" d="M227.412,79.242c0-2.393-1.94-4.333-4.333-4.333c-2.393,0-4.333,1.94-4.333,4.333
					c0,2.393,1.94,4.333,4.333,4.333C225.472,83.576,227.412,81.636,227.412,79.242z"/>
				<path style="fill:#3A1E22;" d="M223.079,84.576c-2.941,0-5.333-2.393-5.333-5.333c0-2.94,2.393-5.333,5.333-5.333
					c2.94,0,5.333,2.393,5.333,5.333C228.412,82.183,226.019,84.576,223.079,84.576z M223.079,75.909
					c-1.838,0-3.333,1.495-3.333,3.333c0,1.838,1.496,3.333,3.333,3.333c1.838,0,3.333-1.496,3.333-3.333
					C226.412,77.404,224.917,75.909,223.079,75.909z"/>
			</g>
			<g>
				<circle style="fill:#C4492D;" cx="85.282" cy="421.758" r="4.333"/>
				<path style="fill:#3A1E22;" d="M85.281,427.091c-2.94,0-5.333-2.393-5.333-5.333s2.393-5.333,5.333-5.333
					c2.941,0,5.333,2.393,5.333,5.333S88.222,427.091,85.281,427.091z M85.281,418.425c-1.838,0-3.333,1.495-3.333,3.333
					c0,1.838,1.495,3.333,3.333,3.333c1.838,0,3.333-1.495,3.333-3.333C88.615,419.92,87.119,418.425,85.281,418.425z"/>
			</g>
			<g>
				<path style="fill:#C4492D;" d="M227.412,421.758c0-2.393-1.94-4.333-4.333-4.333c-2.393,0-4.333,1.94-4.333,4.333
					c0,2.393,1.94,4.333,4.333,4.333C225.472,426.091,227.412,424.151,227.412,421.758z"/>
				<path style="fill:#3A1E22;" d="M223.079,427.091c-2.941,0-5.333-2.393-5.333-5.333s2.393-5.333,5.333-5.333
					c2.94,0,5.333,2.393,5.333,5.333S226.019,427.091,223.079,427.091z M223.079,418.425c-1.838,0-3.333,1.495-3.333,3.333
					c0,1.838,1.496,3.333,3.333,3.333c1.838,0,3.333-1.495,3.333-3.333C226.412,419.92,224.917,418.425,223.079,418.425z"/>
			</g>
		</g>
		<g>
			<g>
				<path style="fill:#89832E;" d="M259.421,417.424c0,0-9.074-1.588-10.334,8.666C261.54,428.028,259.421,417.424,259.421,417.424z
					"/>
				<path style="fill:#3A1E22;" d="M251.918,427.327c-0.926,0-1.921-0.083-2.985-0.248c-0.533-0.083-0.905-0.574-0.839-1.11
					c0.432-3.511,1.777-6.125,3.999-7.772c3.315-2.456,7.332-1.787,7.5-1.758c0.406,0.071,0.728,0.385,0.808,0.789
					c0.039,0.194,0.916,4.777-1.93,7.748C256.973,426.541,254.776,427.327,251.918,427.327z M250.232,425.233
					c3.141,0.334,5.421-0.213,6.788-1.632c1.556-1.616,1.599-4.051,1.508-5.255c-1.13-0.047-3.382,0.069-5.26,1.47
					C251.714,420.975,250.695,422.793,250.232,425.233z"/>
			</g>
			<g>
				<path style="fill:#89832E;" d="M491.646,417.424c0,0,9.073-1.588,10.334,8.666C489.526,428.028,491.646,417.424,491.646,417.424
					z"/>
				<path style="fill:#3A1E22;" d="M499.148,427.327c-2.858,0-5.055-0.786-6.553-2.35c-2.845-2.971-1.969-7.554-1.93-7.748
					c0.08-0.404,0.402-0.718,0.808-0.789c0.169-0.03,4.185-0.698,7.5,1.758c2.222,1.646,3.567,4.261,3.999,7.772
					c0.066,0.536-0.306,1.027-0.839,1.11C501.07,427.244,500.074,427.327,499.148,427.327z M492.54,418.347
					c-0.091,1.203-0.048,3.638,1.508,5.255c1.367,1.419,3.648,1.967,6.787,1.632c-0.463-2.44-1.482-4.26-3.036-5.417
					C495.922,418.418,493.674,418.302,492.54,418.347z"/>
			</g>
			<g>
				<path style="fill:#89832E;" d="M259.421,82.649c0,0-9.074,1.588-10.334-8.666C261.54,72.046,259.421,82.649,259.421,82.649z"/>
				<path style="fill:#3A1E22;" d="M258.118,83.739c-1.504,0-3.908-0.294-6.026-1.863c-2.222-1.646-3.567-4.26-3.999-7.771
					c-0.066-0.536,0.306-1.027,0.839-1.11c4.348-0.674,7.555,0.032,9.538,2.102c2.846,2.971,1.969,7.555,1.93,7.748
					c-0.081,0.405-0.402,0.718-0.808,0.789C259.532,83.645,258.969,83.739,258.118,83.739z M250.232,74.84
					c0.465,2.448,1.489,4.271,3.051,5.429c1.888,1.4,4.121,1.509,5.244,1.462c0.092-1.202,0.05-3.641-1.507-5.259
					C255.653,75.053,253.373,74.507,250.232,74.84z"/>
			</g>
			<g>
				<path style="fill:#89832E;" d="M491.646,82.649c0,0,9.073,1.588,10.334-8.666C489.526,72.046,491.646,82.649,491.646,82.649z"/>
				<path style="fill:#3A1E22;" d="M492.948,83.739c-0.851,0-1.414-0.094-1.475-0.105c-0.406-0.071-0.728-0.384-0.808-0.789
					c-0.039-0.193-0.915-4.778,1.93-7.748c1.983-2.071,5.191-2.778,9.538-2.102c0.533,0.083,0.905,0.575,0.839,1.11
					c-0.432,3.511-1.777,6.125-3.999,7.771C496.857,83.445,494.452,83.739,492.948,83.739z M492.54,81.728
					c1.131,0.05,3.381-0.069,5.259-1.47c1.553-1.158,2.572-2.977,3.036-5.417c-3.136-0.334-5.42,0.212-6.787,1.632
					C492.492,78.088,492.448,80.523,492.54,81.728z"/>
			</g>
		</g>
		<path style="fill:#3A1E22;" d="M401.593,432.457h-53.187c-0.552,0-1-0.447-1-1c0-0.553,0.448-1,1-1h53.187c0.552,0,1,0.447,1,1
			C402.593,432.01,402.146,432.457,401.593,432.457z"/>
		<path style="fill:#3A1E22;" d="M401.593,73.058h-53.187c-0.552,0-1-0.448-1-1c0-0.552,0.448-1,1-1h53.187c0.552,0,1,0.448,1,1
			C402.593,72.61,402.146,73.058,401.593,73.058z"/>
		<path style="fill:#3A1E22;" d="M440.363,175.887H309.637c-0.552,0-1-0.448-1-1c0-0.552,0.448-1,1-1h130.727c0.552,0,1,0.448,1,1
			C441.363,175.439,440.916,175.887,440.363,175.887z"/>
		<g>
			<path style="fill:#3A1E22;" d="M303.804,162.246h-29.475c-0.552,0-1-0.448-1-1c0-0.552,0.448-1,1-1h29.475c0.552,0,1,0.448,1,1
				C304.804,161.798,304.356,162.246,303.804,162.246z"/>
			<path style="fill:#3A1E22;" d="M475.671,162.246h-29.475c-0.552,0-1-0.448-1-1c0-0.552,0.448-1,1-1h29.475c0.552,0,1,0.448,1,1
				C476.671,161.798,476.223,162.246,475.671,162.246z"/>
		</g>
		<g>
			<path style="fill:#3A1E22;" d="M288.9,168.566h-35.645c-0.552,0-1-0.448-1-1c0-0.552,0.448-1,1-1H288.9c0.552,0,1,0.448,1,1
				C289.9,168.118,289.452,168.566,288.9,168.566z"/>
			<path style="fill:#3A1E22;" d="M496.745,168.566H461.1c-0.552,0-1-0.448-1-1c0-0.552,0.448-1,1-1h35.645c0.552,0,1,0.448,1,1
				C497.745,168.118,497.297,168.566,496.745,168.566z"/>
		</g>
		<g>
			<path style="fill:#3A1E22;" d="M210.667,307.549H95.693c-0.552,0-1-0.447-1-1c0-0.553,0.448-1,1-1h114.973c0.552,0,1,0.447,1,1
				C211.667,307.102,211.219,307.549,210.667,307.549z"/>
			<path style="fill:#3A1E22;" d="M210.667,313.16H95.693c-0.552,0-1-0.447-1-1c0-0.553,0.448-1,1-1h114.973c0.552,0,1,0.447,1,1
				C211.667,312.713,211.219,313.16,210.667,313.16z"/>
		</g>
		<g>
			<path style="fill:#3A1E22;" d="M653.391,350.567H538.419c-0.552,0-1-0.447-1-1c0-0.553,0.448-1,1-1h114.973c0.552,0,1,0.447,1,1
				C654.391,350.12,653.943,350.567,653.391,350.567z"/>
			<path style="fill:#3A1E22;" d="M653.391,356.179H538.419c-0.552,0-1-0.447-1-1s0.448-1,1-1h114.973c0.552,0,1,0.447,1,1
				S653.943,356.179,653.391,356.179z"/>
		</g>
		<g>
			<path style="fill:#3A1E22;" d="M653.391,245.434H538.419c-0.552,0-1-0.448-1-1c0-0.552,0.448-1,1-1h114.973c0.552,0,1,0.448,1,1
				C654.391,244.986,653.943,245.434,653.391,245.434z"/>
			<path style="fill:#3A1E22;" d="M653.391,251.045H538.419c-0.552,0-1-0.447-1-1c0-0.552,0.448-1,1-1h114.973c0.552,0,1,0.448,1,1
				C654.391,250.598,653.943,251.045,653.391,251.045z"/>
		</g>
	</g>
	<g>
		<path style="fill:#C8763C;" d="M288.903,197.748c1.602,1.703,4.514,1.69,6.418,0.333c1.904-1.357,2.87-3.746,3.003-6.08
			c0.223-3.894-4.414-6.604-7.838-4.648C287.305,189.169,286.41,195.098,288.903,197.748z"/>
		<path style="fill:#C8763C;" d="M333.601,228.108c-2.278,0.527-3.731,3.051-3.517,5.379c0.214,2.328,1.794,4.365,3.744,5.655
			c3.253,2.152,7.928-0.492,7.961-4.434C341.818,231.044,337.145,227.288,333.601,228.108z"/>
		<path style="fill:#C8763C;" d="M300.055,207.445c-0.405,1.236,0.336,2.781,1.461,3.487c1.125,0.707,2.504,0.681,3.647,0.226
			c1.906-0.759,2.025-3.836,0.232-5.215C303.728,204.662,300.685,205.523,300.055,207.445z"/>
		<path style="fill:#C8763C;" d="M267.827,251.361c-0.405,1.236,0.336,2.781,1.461,3.487c1.125,0.707,2.504,0.681,3.647,0.226
			c1.906-0.759,2.025-3.836,0.232-5.215C271.5,248.577,268.458,249.438,267.827,251.361z"/>
		<path style="fill:#C8763C;" d="M262.966,329.438c1.062,1.231,2.641,1.912,4.234,2.237c3.623,0.74,7.656-0.319,10.177-3.024
			c2.521-2.706,3.249-7.054,1.421-10.268c-2.376-4.176-7.015-4.613-11.116-3.032c-3.164,1.22-4.741,3.876-5.711,7.07
			C261.268,324.737,261.309,327.516,262.966,329.438z"/>
		<path style="fill:#C8763C;" d="M307.229,347.672c1.189,0.161,2.46-0.259,3.261-1.152c2.754-3.07-1.215-7.808-4.79-6.266
			C301.95,341.871,303.588,347.178,307.229,347.672z"/>
		<path style="fill:#C8763C;" d="M260.541,367.789c-0.005,2.799,2.398,5.039,4.93,6.232c1.361,0.641,2.835,1.096,4.339,1.109
			c3.317,0.03,6.508-2.316,7.5-5.481c0.992-3.165-0.273-6.894-2.967-8.829c-2.334-1.677-6.242-2.136-8.723-0.448
			C263.378,361.898,260.546,364.915,260.541,367.789z"/>
		<path style="fill:#C8763C;" d="M343.48,407.025c1.041,1.26,2.418,2.239,3.949,2.809c0.993,0.37,2.096,0.568,3.113,0.269
			c0.964-0.283,1.754-0.985,2.379-1.771c0.796-1.002,1.392-2.276,1.164-3.534c-0.185-1.021-0.878-1.868-1.584-2.629
			c-0.669-0.72-1.395-1.424-2.299-1.813C346.306,398.68,340.084,402.916,343.48,407.025z"/>
		<path style="fill:#C8763C;" d="M330.577,415.588c1.162,0.911,2.899,1.28,4.112,0.438c0.404-0.28,0.72-0.67,0.979-1.087
			c0.909-1.46,1.122-3.446,0.172-4.879c-1.216-1.835-4.517-3.352-6.253-1.355C327.842,410.711,328.631,414.064,330.577,415.588z"/>
		<path style="fill:#C8763C;" d="M469.547,388.878c0.165,1.393,0.878,2.722,2.199,3.801c2.521,2.058,6.096,2.871,9.169,1.8
			c3.073-1.07,5.434-4.124,5.399-7.378c-0.036-3.328-2.653-6.361-5.736-7.383c-1.591-0.527-3.559-0.628-4.943,0.445
			c-1.382,1.071-3.085,2.232-4.258,3.563C469.99,385.301,469.341,387.139,469.547,388.878z"/>
		<path style="fill:#C8763C;" d="M463.988,407.124c1.8-0.061,3.806-0.662,4.614-2.272c0.412-0.822,0.441-1.795,0.249-2.694
			c-0.893-4.172-6.827-6.356-10.154-3.447c-1.397,1.222-1.547,3.679-0.871,5.297C458.839,406.432,461.571,407.206,463.988,407.124z"
			/>
		<path style="fill:#C8763C;" d="M472.078,296.493c-0.776,4.048,1.849,8.405,5.719,9.824c0.933,0.342,1.944,0.533,2.926,0.38
			c1.369-0.213,2.564-1.074,3.486-2.108c2.838-3.182,3.281-8.262,1.036-11.886c-0.828-1.338-2.004-2.491-3.449-3.115
			C477.162,287.586,472.896,292.227,472.078,296.493z"/>
		<path style="fill:#C8763C;" d="M454.133,261.833c1.2,1.143,3.113,1.02,4.714,0.592c1.032-0.276,2.087-0.681,2.772-1.501
			c0.652-0.781,0.878-1.858,0.767-2.869c-0.111-1.011-0.532-1.966-1.053-2.839c-0.276-0.463-0.594-0.921-1.043-1.22
			c-1.622-1.081-5.186-0.951-6.268,0.828C452.915,256.641,452.453,260.231,454.133,261.833z"/>
		<path style="fill:#C8763C;" d="M424.543,245.726c-0.552,0.641-1.104,1.352-1.196,2.194c-0.112,1.021,0.483,1.988,1.178,2.744
			c1.616,1.759,3.839,2.838,6.09,3.634c2.404,0.851,5.309,1.349,7.317-0.223c0.891-0.697,1.472-1.72,1.884-2.774
			c0.841-2.154,1.043-4.601,0.296-6.79c-0.747-2.189-2.506-4.069-4.728-4.71C430.929,238.517,427.11,242.743,424.543,245.726z"/>
		<path style="fill:#C8763C;" d="M402.485,198.567c0.647,1.438,1.78,2.7,3.248,3.274c1.777,0.695,3.789,0.32,5.603-0.273
			c1.655-0.541,3.37-1.361,4.189-2.898c0.832-1.559,0.529-3.497-0.166-5.122c-0.685-1.6-1.753-3.067-3.202-4.03
			c-1.449-0.963-3.3-1.38-4.978-0.921c-2.039,0.558-4.28,2.551-5.244,4.426C401.107,194.636,401.78,196.999,402.485,198.567z"/>
		<path style="fill:#C8763C;" d="M416.881,208.913c0.563,0.429,1.237,0.7,1.932,0.832c0.485,0.092,0.99,0.119,1.471,0.008
			c1.466-0.34,2.358-1.858,2.691-3.326c0.251-1.104,0.221-2.418-0.62-3.176c-0.316-0.285-0.715-0.459-1.107-0.628
			c-0.514-0.222-1.028-0.444-1.542-0.666c-0.266-0.115-0.545-0.232-0.833-0.205c-0.257,0.024-0.489,0.16-0.706,0.3
			C415.791,203.589,413.934,206.663,416.881,208.913z"/>
		<path style="fill:#C8763C;" d="M328.854,191.381c-0.524,2.159,0.054,4.497,1.275,6.353c1.22,1.857,3.034,3.266,5.001,4.297
			c1.423,0.746,3.051,1.32,4.618,0.964c1.192-0.271,2.206-1.054,3.061-1.929c1.728-1.768,3.003-4.137,2.882-6.607
			c-0.09-1.825-0.92-3.528-1.852-5.099c-0.734-1.238-1.56-2.453-2.683-3.352c-1.124-0.899-2.593-1.454-4.011-1.21
			C334.195,185.307,329.588,188.36,328.854,191.381z"/>
	</g>
	<g>
		<g>
			<g>
				<path style="fill:#605D26;" d="M475.457,106.047c3.071-1.157,6.457-1.048,9.732-0.841c-1.559,2.354-3.538,4.395-5.505,6.421
					c-0.792,0.816-1.595,1.64-2.557,2.247c-1.038,0.654-2.222,1.03-3.391,1.399c-1.656,0.523-3.334,1.18-5.023,1.553
					c-0.793-1.355,0.595-4.286,1.228-5.645C471.055,108.788,472.975,106.982,475.457,106.047z"/>
				<path style="fill:#3A1E22;" d="M468.714,117.827c-0.35,0-0.681-0.184-0.863-0.495c-0.964-1.647,0.09-4.221,1.153-6.505
					c1.255-2.695,3.411-4.702,6.102-5.716l0,0c3.24-1.222,6.789-1.117,10.148-0.903c0.356,0.022,0.673,0.233,0.832,0.553
					c0.159,0.32,0.135,0.7-0.062,0.998c-1.615,2.438-3.651,4.536-5.62,6.565c-0.822,0.847-1.672,1.723-2.742,2.397
					c-1.152,0.726-2.408,1.123-3.623,1.507c-0.5,0.158-1.002,0.328-1.506,0.499c-1.168,0.396-2.377,0.806-3.602,1.077
					C468.858,117.819,468.785,117.827,468.714,117.827z M475.81,106.982L475.81,106.982c-2.23,0.841-3.946,2.439-4.962,4.622
					c-0.863,1.854-1.321,3.185-1.38,4.002c0.809-0.227,1.625-0.503,2.421-0.773c0.518-0.175,1.033-0.35,1.546-0.512
					c1.094-0.346,2.225-0.703,3.159-1.292c0.867-0.546,1.632-1.335,2.372-2.097c1.492-1.537,3.024-3.116,4.344-4.824
					C480.685,106.001,478.147,106.102,475.81,106.982z"/>
				<path style="fill:#3A1E22;" d="M468.713,117.827c-0.132,0-0.266-0.026-0.395-0.082c-0.507-0.218-0.742-0.805-0.524-1.313
					c0.09-0.209,2.24-5.144,6.011-7.229c3.529-1.953,10.275-4.632,10.561-4.746c0.515-0.204,1.095,0.048,1.298,0.561
					c0.204,0.514-0.048,1.095-0.561,1.298c-0.069,0.027-6.913,2.746-10.33,4.636c-3.165,1.751-5.122,6.224-5.142,6.269
					C469.469,117.6,469.1,117.827,468.713,117.827z"/>
			</g>
			<g>
				<path style="fill:#605D26;" d="M456.966,130.15c5.061-7.029,14.189-7.659,21.464-11.019c2.476-1.144,5.098-2.812,7.716-2.046
					c-0.485,3.464-0.585,7.291-1.492,10.665c-0.704,2.621-3.101,4.99-5.152,6.662c-2.81,2.291-6.079,3.936-9.32,5.562
					c-4.801,2.409-9.61,5.257-14.586,7.214C454.361,142.034,453.704,134.675,456.966,130.15z"/>
				<path style="fill:#3A1E22;" d="M455.596,148.189c-0.159,0-0.318-0.038-0.462-0.113c-0.256-0.134-0.443-0.372-0.51-0.654
					c-0.85-3.55-2.403-12.397,1.531-17.856c3.726-5.176,9.48-7.039,15.044-8.841c2.297-0.744,4.673-1.514,6.812-2.501
					c0.381-0.176,0.766-0.365,1.154-0.556c2.194-1.076,4.68-2.296,7.261-1.543c0.477,0.139,0.779,0.607,0.71,1.099
					c-0.158,1.126-0.272,2.273-0.393,3.487c-0.244,2.439-0.495,4.962-1.123,7.299c-0.618,2.299-2.463,4.714-5.485,7.178
					c-2.907,2.371-6.26,4.054-9.503,5.681c-1.47,0.738-2.941,1.517-4.417,2.298c-3.321,1.758-6.754,3.577-10.252,4.953
					C455.844,148.166,455.72,148.189,455.596,148.189z M484.754,117.89c-1.501,0-3.068,0.769-4.708,1.573
					c-0.402,0.197-0.801,0.393-1.196,0.576c-2.248,1.038-4.682,1.827-7.035,2.588c-5.5,1.781-10.694,3.463-14.038,8.107
					c0,0,0,0-0.001,0c-3.101,4.303-2.239,11.321-1.462,15.082c3.029-1.274,6.04-2.869,8.963-4.417
					c1.489-0.789,2.973-1.574,4.456-2.318c3.146-1.579,6.4-3.212,9.137-5.443c2.69-2.193,4.31-4.262,4.817-6.147
					c0.586-2.179,0.829-4.619,1.064-6.979c0.086-0.862,0.174-1.746,0.279-2.613C484.939,117.893,484.846,117.89,484.754,117.89z
					 M456.966,130.15h0.01H456.966z"/>
				<path style="fill:#3A1E22;" d="M455.597,148.189c-0.054,0-0.109-0.005-0.164-0.014c-0.545-0.09-0.914-0.604-0.824-1.149
					c0.086-0.525,2.231-12.921,11.996-18.126c9.253-4.933,18.822-12.522,18.917-12.598c0.432-0.343,1.061-0.272,1.405,0.16
					c0.344,0.432,0.272,1.061-0.159,1.405c-0.097,0.077-9.81,7.78-19.223,12.798c-8.882,4.735-10.943,16.568-10.963,16.687
					C456.501,147.841,456.077,148.189,455.597,148.189z"/>
			</g>
			<g>
				<path style="fill:#605D26;" d="M451.81,113.927c0.933-5.347,5.908-8.197,9.092-12.08c1.084-1.322,2.106-2.979,3.792-3.262
					c0.673,2.086,1.663,4.271,2.073,6.422c0.319,1.671-0.385,3.662-1.084,5.165c-0.958,2.06-2.353,3.881-3.736,5.684
					c-2.049,2.671-3.982,5.591-6.254,8.054C453.589,121.34,451.207,117.37,451.81,113.927z"/>
				<path style="fill:#3A1E22;" d="M455.694,124.91c-0.01,0-0.02,0-0.029,0c-0.289-0.008-0.561-0.142-0.744-0.366
					c-1.482-1.81-4.849-6.483-4.096-10.788l0,0c0.708-4.058,3.488-6.724,6.177-9.303c1.134-1.087,2.206-2.115,3.128-3.24
					c0.165-0.201,0.329-0.41,0.493-0.621c0.985-1.261,2.102-2.689,3.906-2.993c0.495-0.08,0.965,0.208,1.118,0.679
					c0.219,0.678,0.472,1.366,0.727,2.06c0.535,1.456,1.087,2.962,1.378,4.481c0.299,1.566-0.081,3.454-1.16,5.774
					c-1.008,2.168-2.452,4.05-3.849,5.871c-0.626,0.815-1.24,1.654-1.857,2.496c-1.398,1.908-2.844,3.88-4.454,5.628
					C456.24,124.793,455.973,124.91,455.694,124.91z M464.076,99.874c-0.679,0.414-1.266,1.166-1.878,1.949
					c-0.174,0.223-0.348,0.445-0.522,0.658c-0.998,1.217-2.163,2.335-3.29,3.415c-2.569,2.463-4.996,4.79-5.59,8.203
					c-0.001,0-0.001,0.001-0.001,0.001c-0.514,2.94,1.515,6.304,2.95,8.247c1.236-1.444,2.398-3.028,3.527-4.569
					c0.626-0.854,1.249-1.704,1.883-2.531c1.331-1.734,2.707-3.528,3.622-5.497c0.884-1.899,1.223-3.432,1.009-4.555
					c-0.26-1.359-0.784-2.787-1.29-4.167C464.352,100.641,464.212,100.256,464.076,99.874z M451.81,113.927h0.01H451.81z"/>
				<path style="fill:#3A1E22;" d="M455.693,124.909c-0.431,0-0.829-0.281-0.958-0.715c-0.097-0.327-2.324-8.075,1.867-13.826
					c3.85-5.283,7.157-12.147,7.189-12.216c0.239-0.498,0.836-0.707,1.334-0.469c0.498,0.239,0.708,0.836,0.469,1.335
					c-0.138,0.287-3.42,7.098-7.377,12.528c-3.603,4.943-1.586,12.01-1.565,12.081c0.156,0.529-0.147,1.085-0.676,1.241
					C455.882,124.896,455.787,124.909,455.693,124.909z"/>
			</g>
		</g>
		<g>
			<g>
				<path style="fill:#605D26;" d="M274.543,106.047c-3.071-1.157-6.457-1.048-9.732-0.841c1.559,2.354,3.538,4.395,5.505,6.421
					c0.792,0.816,1.595,1.64,2.557,2.247c1.038,0.654,2.222,1.03,3.391,1.399c1.656,0.523,3.334,1.18,5.023,1.553
					c0.793-1.355-0.595-4.286-1.228-5.645C278.945,108.788,277.025,106.982,274.543,106.047z"/>
				<path style="fill:#3A1E22;" d="M281.287,117.827c-0.071,0-0.144-0.008-0.216-0.023c-1.226-0.271-2.435-0.681-3.604-1.077
					c-0.503-0.171-1.005-0.341-1.505-0.499c-1.215-0.384-2.471-0.781-3.623-1.507c-1.07-0.675-1.92-1.55-2.741-2.397
					c-1.969-2.028-4.005-4.125-5.621-6.565c-0.197-0.298-0.221-0.678-0.062-0.998c0.159-0.319,0.476-0.53,0.832-0.553
					c3.358-0.214,6.907-0.319,10.148,0.903l0,0c2.691,1.015,4.847,3.021,6.07,5.649c0.798,1.713,2.229,4.785,1.185,6.572
					C281.968,117.643,281.637,117.827,281.287,117.827z M266.689,106.107c1.321,1.709,2.853,3.287,4.344,4.823
					c0.74,0.763,1.504,1.551,2.372,2.098c0.934,0.589,2.065,0.946,3.159,1.292c0.513,0.162,1.028,0.337,1.545,0.512
					c0.797,0.271,1.614,0.547,2.423,0.774c-0.058-0.814-0.51-2.132-1.351-3.938c-1.045-2.246-2.761-3.844-4.991-4.685l0,0
					C271.854,106.102,269.315,106.002,266.689,106.107z"/>
				<path style="fill:#3A1E22;" d="M281.287,117.827c-0.387,0-0.756-0.227-0.919-0.605c-0.02-0.045-1.976-4.518-5.142-6.269
					c-3.418-1.89-10.261-4.609-10.33-4.636c-0.513-0.204-0.765-0.785-0.561-1.298c0.204-0.513,0.783-0.765,1.298-0.561
					c0.285,0.113,7.031,2.793,10.56,4.746c3.772,2.086,5.922,7.021,6.012,7.229c0.218,0.507-0.017,1.095-0.524,1.313
					C281.553,117.8,281.419,117.827,281.287,117.827z"/>
			</g>
			<g>
				<path style="fill:#605D26;" d="M293.034,130.15c-5.061-7.029-14.189-7.659-21.464-11.019c-2.476-1.144-5.098-2.812-7.716-2.046
					c0.485,3.464,0.585,7.291,1.492,10.665c0.704,2.621,3.101,4.99,5.152,6.662c2.81,2.291,6.079,3.936,9.32,5.562
					c4.801,2.409,9.61,5.257,14.586,7.214C295.639,142.034,296.296,134.675,293.034,130.15z"/>
				<path style="fill:#3A1E22;" d="M294.404,148.189c-0.124,0-0.248-0.023-0.366-0.069c-3.499-1.376-6.932-3.195-10.253-4.953
					c-1.476-0.782-2.946-1.56-4.415-2.297c-3.245-1.629-6.599-3.313-9.503-5.682c-3.022-2.464-4.868-4.879-5.485-7.178
					c-0.628-2.337-0.88-4.86-1.124-7.3c-0.121-1.213-0.236-2.36-0.393-3.486c-0.069-0.492,0.233-0.959,0.71-1.099
					c2.578-0.752,5.066,0.467,7.261,1.543c0.388,0.19,0.773,0.379,1.155,0.556c2.139,0.988,4.515,1.757,6.812,2.501
					c5.564,1.802,11.318,3.665,15.044,8.841c3.935,5.46,2.381,14.306,1.531,17.856c-0.067,0.282-0.254,0.52-0.51,0.654
					C294.722,148.151,294.564,148.189,294.404,148.189z M264.968,117.899c0.105,0.867,0.193,1.75,0.279,2.612
					c0.235,2.359,0.479,4.8,1.065,6.98c0.506,1.885,2.127,3.953,4.817,6.146c2.734,2.23,5.989,3.864,9.137,5.444
					c1.482,0.744,2.966,1.529,4.454,2.317c2.923,1.548,5.935,3.143,8.964,4.418c0.777-3.76,1.639-10.778-1.462-15.082c0,0,0,0,0,0
					c-3.343-4.644-8.538-6.326-14.037-8.107c-2.353-0.762-4.787-1.55-7.035-2.589c-0.396-0.183-0.795-0.379-1.197-0.576
					C268.213,118.609,266.557,117.798,264.968,117.899z"/>
				<path style="fill:#3A1E22;" d="M294.404,148.189c-0.48,0-0.904-0.347-0.986-0.837c-0.02-0.119-2.082-11.952-10.963-16.687
					c-9.413-5.017-19.126-12.721-19.223-12.798c-0.432-0.344-0.504-0.973-0.16-1.405c0.344-0.432,0.973-0.503,1.405-0.16
					c0.096,0.076,9.67,7.668,18.918,12.598c9.765,5.205,11.91,17.601,11.996,18.126c0.09,0.545-0.279,1.059-0.824,1.149
					C294.512,148.184,294.458,148.189,294.404,148.189z"/>
			</g>
			<g>
				<path style="fill:#605D26;" d="M298.19,113.927c-0.933-5.347-5.908-8.197-9.092-12.08c-1.084-1.322-2.106-2.979-3.792-3.262
					c-0.673,2.086-1.663,4.271-2.073,6.422c-0.319,1.671,0.385,3.662,1.084,5.165c0.958,2.06,2.353,3.881,3.736,5.684
					c2.049,2.671,3.982,5.591,6.254,8.054C296.411,121.34,298.793,117.37,298.19,113.927z"/>
				<path style="fill:#3A1E22;" d="M294.306,124.91c-0.279,0-0.545-0.117-0.735-0.322c-1.611-1.748-3.058-3.721-4.456-5.629
					c-0.617-0.841-1.231-1.68-1.856-2.494c-1.396-1.821-2.84-3.703-3.849-5.871c-1.08-2.32-1.458-4.209-1.16-5.774
					c0.291-1.52,0.843-3.025,1.378-4.482c0.255-0.694,0.507-1.382,0.726-2.059c0.152-0.472,0.623-0.762,1.118-0.679
					c1.804,0.304,2.92,1.732,3.906,2.993c0.164,0.211,0.328,0.42,0.493,0.622c0.922,1.124,1.993,2.152,3.128,3.239
					c2.689,2.579,5.469,5.245,6.177,9.303c0.726,4.15-2.254,8.54-4.096,10.788c-0.183,0.224-0.454,0.357-0.744,0.366
					C294.326,124.91,294.316,124.91,294.306,124.91z M285.924,99.874c-0.135,0.381-0.276,0.766-0.418,1.151
					c-0.507,1.381-1.031,2.809-1.29,4.168c-0.215,1.123,0.124,2.656,1.008,4.555c0.916,1.969,2.292,3.763,3.622,5.498
					c0.634,0.826,1.257,1.676,1.882,2.529c1.129,1.541,2.291,3.126,3.527,4.57c1.435-1.942,3.464-5.307,2.95-8.247
					c0,0,0-0.001,0-0.001c-0.595-3.412-3.021-5.739-5.59-8.203c-1.127-1.081-2.292-2.198-3.29-3.415
					c-0.175-0.213-0.348-0.435-0.522-0.658C287.19,101.04,286.603,100.289,285.924,99.874z"/>
				<path style="fill:#3A1E22;" d="M294.307,124.909c-0.094,0-0.189-0.013-0.284-0.041c-0.529-0.156-0.832-0.712-0.676-1.241
					c0.021-0.071,2.037-7.138-1.565-12.081c-3.957-5.43-7.239-12.241-7.378-12.528c-0.239-0.498-0.029-1.095,0.469-1.334
					c0.499-0.239,1.095-0.029,1.334,0.469c0.033,0.069,3.344,6.937,7.19,12.216c4.191,5.751,1.964,13.498,1.867,13.826
					C295.136,124.628,294.738,124.909,294.307,124.909z"/>
			</g>
		</g>
	</g>
	<g>
		<g>
			<path style="fill:#C4492D;" d="M366.987,337.592c-0.853,8.48,0.716,16.761,3.485,24.829c2.808,8.207,6.855,16.166,10.834,23.85
				c2.938,5.661,7.331,12.187,13.688,11.656c1.967-0.166,3.806-1.044,5.758-1.301c5.755-0.765,10.693,3.741,16.072,5.903
				c12.038,4.848,25.462-2.371,35.445-10.663c9.869-8.205,18.802-18.008,23.747-29.864c2.256-5.416,3.585-11.313,3.75-17.188
				c0.22-6.981-1.193-13.941-4.622-20.012c-3.904-6.915-11.82-14.662-19.124-17.929c-8.675-3.887-18.558-0.311-27.619-2.148
				c-6.164-1.248-11.593-4.83-17.595-6.703c-9.097-2.861-16.756-2.269-23.02,1.08c-6.228,3.334-11.084,9.376-14.617,17.45
				C370.238,323.285,367.716,330.292,366.987,337.592z"/>
			<path style="opacity:0.2;fill:#3A1E22;" d="M370.472,362.422c2.808,8.207,6.855,16.166,10.834,23.85
				c2.938,5.661,7.331,12.187,13.688,11.656c1.967-0.166,3.806-1.044,5.758-1.301c5.755-0.765,10.693,3.741,16.072,5.903
				c12.038,4.848,25.462-2.371,35.445-10.663c9.869-8.205,18.802-18.008,23.747-29.864c2.256-5.416,3.585-11.313,3.75-17.188
				c-3.461,9.433-10.629,17.764-18.386,24.452c-7.483,6.456-16.079,12.144-25.821,13.865c-7.172,1.264-14.583,0.306-21.696-1.307
				C398.305,378.305,383.481,371.641,370.472,362.422z"/>
			<path style="opacity:0.2;fill:#3A1E22;" d="M439.279,316.31c-2.671,0.445-5.418-0.019-8.098-0.482
				c-2.236-0.387-4.473-0.773-6.709-1.16c-2.352-0.407-4.743-0.825-6.885-1.864c-2.142-1.039-4.04-2.805-4.621-5.047
				c-0.068-0.261-0.113-0.55,0.019-0.784c0.215-0.38,0.759-0.41,1.21-0.392c6.964,0.276,13.929,0.552,20.893,0.828
				c2.825,0.112,7.888,0.235,9.363,3.192C446.058,313.826,442.007,315.855,439.279,316.31z"/>
			<path style="fill:#3A1E22;" d="M436.979,317.488c-2.063,0-4.104-0.354-5.968-0.676l-6.709-1.159
				c-2.392-0.414-4.865-0.843-7.151-1.949c-2.673-1.297-4.551-3.373-5.153-5.696c-0.064-0.248-0.235-0.906,0.117-1.527
				c0.546-0.963,1.733-0.913,2.121-0.897l21.109,0.836c3.104,0.121,8.3,0.324,10.001,3.736c0.606,1.216,0.626,2.446,0.059,3.559
				c-0.996,1.955-3.712,3.208-5.961,3.582l0,0C438.626,317.433,437.8,317.488,436.979,317.488z M413.953,307.579
				c0.477,1.727,1.956,3.299,4.07,4.325c2.032,0.984,4.364,1.388,6.619,1.778l6.708,1.159c2.569,0.444,5.227,0.904,7.764,0.481h0
				c1.751-0.292,3.861-1.25,4.508-2.518c0.279-0.547,0.257-1.105-0.068-1.758c-1.173-2.353-5.802-2.534-8.289-2.631l-21.111-0.836
				C414.074,307.578,414.008,307.575,413.953,307.579z"/>
			<path style="fill:#605D26;" d="M391.298,263.99c0.513,0.066,1.079,0.143,1.696,0.216c10.169,1.324,20.478,3.437,28.914,8.654
				c1.357,0.85,2.698,1.796,3.535,3.107c0.92,1.446,1.147,3.207,1.35,4.901c0.534,4.332,1.063,8.651,1.578,12.975
				c-0.015,0.005-0.03,0.011-0.049,0.003c-7.52,1.434-15.038-1.421-20.469-5.885c-4.326-3.566-7.548-8.063-10.468-12.656
				c-2.172-3.384-4.189-6.12-7.144-8.931C387.575,263.847,388.626,263.685,391.298,263.99z"/>
			<path style="opacity:0.2;fill:#3A1E22;" d="M391.298,263.99c0.513,0.066,1.079,0.143,1.696,0.216
				c10.169,1.324,20.478,3.437,28.914,8.654c1.357,0.85,2.698,1.796,3.535,3.107c0.92,1.446,1.147,3.207,1.35,4.901
				c0.534,4.332,1.063,8.651,1.578,12.975c-0.015,0.005-0.03,0.011-0.049,0.003c-3.899-4.188-7.778-8.413-11.803-12.164
				c-2.312-2.163-4.658-4.328-7.475-5.945c-1.854-1.057-3.902-1.863-5.785-2.908c-1.869-1.052-3.539-2.341-5.214-3.644
				C395.788,267.451,393.553,265.724,391.298,263.99z"/>
			<path style="opacity:0.2;fill:#3A1E22;" d="M384.496,359.598c0.607-0.183,1.255,0.04,1.849,0.261
				c1.526,0.567,3.053,1.134,4.579,1.701c0.307,0.114,0.626,0.236,0.851,0.473c0.717,0.755,0.058,1.973-0.602,2.778
				c-0.904,1.102-1.947,2.285-3.361,2.467c-1.029,0.132-2.083-0.33-2.796-1.083C383.825,364.937,381.711,360.436,384.496,359.598z"
				/>
			<path style="opacity:0.2;fill:#3A1E22;" d="M398.368,356.175c0.044,0.883-0.708,1.703-1.583,1.827
				c-0.876,0.125-1.778-0.388-2.212-1.158c-0.414-0.735-0.381-1.77,0.257-2.323c0.375-0.326,0.898-0.441,1.394-0.41
				C397.426,354.186,398.304,354.899,398.368,356.175z"/>
			<path style="opacity:0.2;fill:#3A1E22;" d="M389.919,353.194c-1.042,1-2.452,1.642-3.897,1.642c-1.444,0-2.901-0.679-3.731-1.861
				c-0.785-1.117-0.964-2.603-0.6-3.919c0.237-0.858,0.693-1.656,1.313-2.296c0.291-0.301,0.622-0.57,1.007-0.736
				c1.678-0.723,5-0.455,6.271,1.028C391.765,348.782,391.496,351.68,389.919,353.194z"/>
			<path style="opacity:0.2;fill:#3A1E22;" d="M436.091,373.35c-1.302,1.249-3.063,2.05-4.868,2.051
				c-1.804,0-3.623-0.848-4.661-2.324c-0.981-1.396-1.204-3.252-0.749-4.896c0.296-1.072,0.866-2.068,1.64-2.868
				c0.363-0.375,0.778-0.712,1.257-0.919c2.096-0.904,6.245-0.568,7.834,1.285C438.397,367.84,438.062,371.46,436.091,373.35z"/>
			<path style="opacity:0.2;fill:#3A1E22;" d="M473.579,346.698c-0.51,2.248-1.838,4.422-3.921,5.41
				c-0.416,0.197-0.891,0.346-1.333,0.217c-0.323-0.095-0.586-0.327-0.82-0.568c-1.875-1.93-2.54-4.821-2.18-7.488
				c0.271-2.004,1.151-4.024,2.81-5.18c1.355-0.945,4.566-1.475,5.461,0.406c0.366,0.77,0.233,2.116,0.273,2.94
				C473.937,343.86,473.896,345.3,473.579,346.698z"/>
			<path style="opacity:0.2;fill:#3A1E22;" d="M470.396,331.705c0.251,0.788,0.194,1.724-0.353,2.344
				c-0.449,0.508-1.146,0.722-1.82,0.795c-0.434,0.047-0.883,0.042-1.297-0.097c-0.532-0.179-0.973-0.572-1.292-1.034
				c-0.632-0.917-0.776-2.234-0.11-3.126c0.323-0.433,0.796-0.726,1.266-0.993C468.762,328.472,469.808,329.858,470.396,331.705z"/>
			<path style="opacity:0.2;fill:#3A1E22;" d="M453.4,348.886c-1.398,0.491-2.938,0.717-4.363,0.311
				c-1.811-0.516-3.195-1.971-4.306-3.491c-0.674-0.922-1.301-1.94-1.412-3.077c-0.161-1.645,0.822-3.243,2.154-4.221
				c1.332-0.978,2.97-1.437,4.587-1.781c1.289-0.274,2.703-0.472,3.868,0.144c0.536,0.284,0.976,0.721,1.348,1.2
				c1.221,1.57,1.77,3.878,1.862,5.849C457.258,346.391,455.729,348.069,453.4,348.886z"/>
			<path style="fill:#3A1E22;" d="M425.115,405.095c-3.421,0.001-6.309-0.688-8.665-1.638c-1.731-0.695-3.417-1.625-5.046-2.524
				c-3.541-1.953-6.884-3.798-10.521-3.314c-0.838,0.11-1.663,0.348-2.537,0.599c-1.042,0.301-2.121,0.61-3.269,0.707
				c-7.165,0.599-11.795-6.672-14.659-12.191c-4.331-8.364-8.139-15.941-10.893-23.986c-3.16-9.21-4.316-17.472-3.534-25.253l0,0
				c0.799-8.001,3.765-15.607,6.26-21.341c3.743-8.553,8.81-14.585,15.062-17.933c6.749-3.607,14.753-3.995,23.792-1.152
				c2.605,0.813,5.117,1.947,7.546,3.043c3.348,1.511,6.511,2.938,9.947,3.634c3.69,0.748,7.647,0.564,11.472,0.386
				c5.463-0.256,11.113-0.52,16.357,1.831c7.151,3.199,15.389,10.917,19.585,18.351c3.345,5.921,4.988,13.023,4.75,20.534
				c-0.165,5.861-1.488,11.929-3.826,17.542c-4.412,10.578-12.273,20.472-24.031,30.247
				C441.412,402.184,432.142,405.095,425.115,405.095z M402.065,395.54c3.704,0,7.054,1.848,10.305,3.642
				c1.577,0.87,3.207,1.77,4.826,2.42c6.694,2.695,18.101,3.063,34.433-10.505c11.504-9.564,19.179-19.206,23.463-29.479
				c2.245-5.39,3.515-11.21,3.673-16.832c0.226-7.149-1.328-13.889-4.493-19.491c-4.01-7.102-11.858-14.465-18.661-17.509
				c-4.811-2.155-9.976-1.915-15.447-1.659c-3.947,0.185-8.03,0.376-11.962-0.422c-3.657-0.741-7.071-2.281-10.373-3.772
				c-2.375-1.071-4.831-2.18-7.321-2.958c-8.509-2.676-15.995-2.337-22.25,1.008c-5.847,3.13-10.615,8.84-14.173,16.97
				c-2.435,5.597-5.331,13.014-6.103,20.739l0,0c-0.753,7.489,0.371,15.472,3.436,24.405c2.709,7.916,6.483,15.423,10.776,23.714
				c4.134,7.966,8.182,11.484,12.716,11.12c0.951-0.081,1.89-0.351,2.883-0.637c0.907-0.261,1.844-0.53,2.829-0.659
				C401.109,395.57,401.59,395.54,402.065,395.54z M366.987,337.593h0.01H366.987z"/>
			<path style="fill:#3A1E22;" d="M424.305,295.222c-5.902,0-11.946-2.262-17.088-6.488c-4.592-3.784-7.974-8.64-10.677-12.892
				c-2.07-3.226-4.053-5.948-6.989-8.743c-1.443-1.368-2.19-2.353-1.733-3.331c0.523-1.123,2.155-0.938,3.595-0.771
				c0.005,0,0.01,0.001,0.015,0.001l0.356,0.047c0.412,0.054,0.855,0.112,1.329,0.168c9.461,1.232,20.334,3.239,29.322,8.796
				c1.448,0.908,2.913,1.947,3.852,3.42c1.063,1.672,1.305,3.694,1.5,5.32c0.534,4.33,1.063,8.65,1.578,12.976
				c0.053,0.449-0.202,0.879-0.621,1.047c-0.09,0.035-0.19,0.059-0.293,0.067C427.085,295.096,425.698,295.222,424.305,295.222z
				 M390.178,264.891c0.179,0.198,0.422,0.447,0.749,0.758c3.083,2.934,5.147,5.767,7.297,9.117
				c2.621,4.122,5.888,8.818,10.263,12.424c5.565,4.574,12.517,6.713,18.776,5.819c-0.478-4.005-0.969-8.006-1.464-12.019
				c-0.18-1.502-0.384-3.2-1.201-4.487c-0.685-1.074-1.784-1.895-3.222-2.796c-8.66-5.354-19.273-7.307-28.512-8.51
				c-0.471-0.056-0.922-0.114-1.341-0.169l-0.347-0.046C390.758,264.935,390.432,264.906,390.178,264.891z"/>
			<path style="fill:#3A1E22;" d="M427.721,294.201c-0.31,0-0.615-0.144-0.811-0.413c-0.046-0.063-4.702-6.435-11.494-11.771
				c-5.671-4.456-17.325-12.179-21.713-15.086c-1.335-0.885-1.63-1.082-1.726-1.155c-0.438-0.336-0.52-0.964-0.184-1.402
				c0.336-0.438,0.964-0.52,1.402-0.183c0.103,0.074,0.688,0.461,1.613,1.074c4.406,2.919,16.109,10.675,21.843,15.181
				c7.021,5.516,11.683,11.901,11.878,12.17c0.324,0.447,0.225,1.072-0.223,1.396C428.13,294.14,427.924,294.201,427.721,294.201z"
				/>
			<path style="fill:#605D26;" d="M464.805,280.878c-0.233,0.321-0.492,0.674-0.768,1.063c-4.625,6.361-9.833,12.527-16.443,16.292
				c-1.07,0.602-2.2,1.158-3.39,1.239c-1.311,0.088-2.58-0.405-3.796-0.891c-3.113-1.231-6.215-2.46-9.316-3.701
				c0.002-0.012,0.003-0.024,0.016-0.034c1.795-5.591,6.478-9.604,11.478-11.623c3.989-1.604,8.2-2.122,12.365-2.402
				c3.076-0.22,5.659-0.574,8.637-1.531C466.269,278.424,465.992,279.191,464.805,280.878z"/>
			<path style="opacity:0.2;fill:#3A1E22;" d="M464.805,280.878c-0.233,0.321-0.492,0.674-0.768,1.063
				c-4.625,6.361-9.833,12.527-16.443,16.292c-1.07,0.602-2.2,1.158-3.39,1.239c-1.311,0.088-2.58-0.405-3.796-0.891
				c-3.113-1.231-6.215-2.46-9.316-3.701c0.002-0.012,0.003-0.024,0.016-0.034c4.251-1.088,8.521-2.149,12.524-3.482
				c2.305-0.762,4.625-1.547,6.748-2.851c1.392-0.86,2.687-1.943,4.082-2.828c1.394-0.872,2.876-1.523,4.368-2.173
				C460.827,282.631,462.81,281.76,464.805,280.878z"/>
			<path style="fill:#3A1E22;" d="M443.9,300.482c-1.426,0-2.767-0.535-3.861-0.972c-3.111-1.229-6.215-2.46-9.317-3.701
				c-0.436-0.175-0.692-0.63-0.615-1.093c0.013-0.077,0.036-0.155,0.068-0.231c1.742-5.36,6.125-9.801,12.037-12.189
				c4.266-1.715,8.8-2.213,12.673-2.474c2.915-0.208,5.461-0.54,8.398-1.485c1.241-0.399,2.506-0.72,3.139,0.14
				c0.663,0.9-0.113,2.003-0.798,2.976c-0.003,0.004-0.005,0.008-0.008,0.012l-0.171,0.235c-0.185,0.254-0.383,0.526-0.59,0.819
				c-4.32,5.941-9.684,12.55-16.764,16.583c-1.168,0.656-2.434,1.273-3.817,1.368C444.148,300.478,444.023,300.482,443.9,300.482z
				 M432.361,294.31c2.801,1.119,5.604,2.23,8.416,3.342c1.056,0.422,2.254,0.909,3.36,0.822c0.932-0.064,1.861-0.49,2.968-1.113
				c6.745-3.842,11.936-10.248,16.124-16.008c0.205-0.29,0.408-0.569,0.598-0.83l0.165-0.228c0.026-0.037,0.052-0.073,0.076-0.108
				c-0.055,0.017-0.112,0.035-0.172,0.054c-3.128,1.007-5.809,1.358-8.873,1.577c-3.72,0.251-8.059,0.724-12.064,2.333
				C437.976,286.164,434.076,289.922,432.361,294.31z M464.805,280.878h0.01H464.805z"/>
			<path style="fill:#3A1E22;" d="M431.762,295.68c-0.495,0-0.925-0.368-0.99-0.872c-0.071-0.548,0.316-1.049,0.864-1.12
				c0.06-0.007,6.029-0.801,12.085-3.401c5.058-2.172,14.518-7.173,18.08-9.056c0.858-0.454,1.39-0.733,1.462-0.764
				c0.505-0.221,1.096,0.007,1.318,0.513c0.222,0.505-0.007,1.095-0.513,1.317c-0.09,0.044-0.574,0.301-1.333,0.701
				c-3.581,1.894-13.093,6.922-18.225,9.126c-6.322,2.715-12.364,3.515-12.618,3.548C431.848,295.677,431.805,295.68,431.762,295.68
				z"/>
			<path style="fill:#3A1E22;" d="M467.422,321.974c-0.293,0-0.583-0.128-0.781-0.375c-3.832-4.787-9.163-7.83-10.254-7.978
				c-0.487,0.055-0.971-0.251-1.097-0.748c-0.135-0.535,0.189-1.079,0.725-1.214c1.649-0.424,8.015,3.477,12.188,8.689
				c0.345,0.431,0.275,1.061-0.156,1.405C467.862,321.902,467.641,321.974,467.422,321.974z M456.351,313.617L456.351,313.617
				L456.351,313.617z"/>
			<path style="fill:#F9E0BC;" d="M395.595,308.503c1.378,7.488-14.591,26.014-17.916,18.086
				C374.354,318.66,393.506,297.149,395.595,308.503z"/>
			<path style="fill:#3A1E22;" d="M430.446,276.777c0.502-0.912,1.131-1.873,2.127-2.174c0.595-0.179,1.233-0.091,1.848-0.002
				c1.67,0.243,3.34,0.486,5.011,0.729c0.326,0.047,0.68,0.109,0.9,0.355c0.393,0.439,0.117,1.125-0.167,1.642
				c-2.531,4.607-4.534,9.501-5.977,14.555c-1.829,6.406-2.141,13.377-3.014,19.965c-0.019,0.14-0.043,0.292-0.144,0.39
				c-0.104,0.102-0.263,0.12-0.408,0.133c-0.802,0.069-1.605,0.138-2.407,0.207c-0.444,0.038-0.919,0.07-1.308-0.148
				c-0.637-0.358-0.765-1.203-0.835-1.93c-0.277-2.867-1.102-5.729-1.278-8.57c-0.168-2.714,0.346-5.501,0.63-8.195
				C426.046,287.835,427.574,281.994,430.446,276.777z"/>
		</g>
		<path style="fill:#3A1E22;" d="M435.117,397.412c-0.383,0-0.749-0.221-0.914-0.594c-0.225-0.504,0.002-1.096,0.507-1.32
			c0.13-0.058,13.057-5.868,20.745-14.175c0.375-0.406,1.008-0.431,1.413-0.054c0.405,0.375,0.43,1.008,0.055,1.413
			c-7.972,8.612-20.855,14.401-21.4,14.644C435.391,397.385,435.253,397.412,435.117,397.412z"/>
		<path style="fill:#3A1E22;" d="M386.539,382.952c-0.293,0-0.584-0.128-0.781-0.375c-12.188-15.213-13.409-37.963-13.456-38.924
			c-0.026-0.552,0.399-1.02,0.951-1.047c0.525-0.046,1.02,0.399,1.047,0.951c0.011,0.229,1.243,23.071,13.018,37.77
			c0.346,0.431,0.276,1.061-0.155,1.405C386.98,382.881,386.759,382.952,386.539,382.952z"/>
		<path style="fill:#3A1E22;" d="M438.924,322.277c-5.657,0-12.026-2.126-12.4-2.253c-0.523-0.178-0.803-0.745-0.626-1.268
			c0.178-0.523,0.746-0.805,1.268-0.627c3.352,1.135,12.916,3.538,16.858,1.08c0.469-0.292,1.085-0.15,1.378,0.319
			c0.292,0.469,0.149,1.086-0.319,1.378C443.463,321.917,441.254,322.277,438.924,322.277z"/>
		<path style="fill:#3A1E22;" d="M438.696,389.161c-0.435,0-0.836-0.286-0.961-0.726c-0.151-0.531,0.156-1.084,0.687-1.236
			c0.038-0.011,3.851-1.121,7.379-3.768c0.442-0.331,1.069-0.241,1.4,0.199c0.332,0.442,0.242,1.069-0.2,1.4
			c-3.836,2.879-7.862,4.045-8.032,4.093C438.879,389.149,438.787,389.161,438.696,389.161z"/>
	</g>
	<g>
		<g>
			<path style="fill:#C4492D;" d="M280.969,307.608c3.392,5.281,8.089,9.338,13.381,12.723c5.378,3.447,11.357,6.183,17.171,8.792
				c4.287,1.919,9.809,3.671,13.232,0.453c1.059-0.996,1.717-2.346,2.725-3.387c2.969-3.077,7.88-2.74,11.972-3.957
				c9.163-2.717,13.598-13.028,15.557-22.383c1.933-9.251,2.596-18.996,0.017-28.098c-1.18-4.156-3.114-8.166-5.709-11.63
				c-3.07-4.127-7.073-7.493-11.831-9.424c-5.419-2.2-13.531-3.042-19.24-1.581c-6.783,1.732-10.845,8.32-16.911,11.41
				c-4.126,2.103-8.897,2.524-13.217,4.192c-6.557,2.517-10.702,6.366-12.781,11.166c-2.065,4.775-2.098,10.484-0.438,16.758
				C276.292,297.868,278.046,303.064,280.969,307.608z"/>
			<path style="opacity:0.2;fill:#3A1E22;" d="M294.35,320.33c5.378,3.447,11.357,6.183,17.171,8.792
				c4.287,1.919,9.809,3.671,13.232,0.453c1.059-0.996,1.717-2.346,2.725-3.387c2.969-3.077,7.88-2.74,11.972-3.957
				c9.163-2.717,13.598-13.028,15.557-22.383c1.933-9.251,2.596-18.996,0.017-28.098c-1.18-4.156-3.114-8.166-5.709-11.63
				c2.325,7.025,2.006,15.112,0.596,22.522c-1.359,7.15-3.711,14.367-8.541,19.821c-3.557,4.014-8.27,6.855-13.11,9.183
				C317.676,316.743,306.075,319.69,294.35,320.33z"/>
			<path style="opacity:0.2;fill:#3A1E22;" d="M311.905,267.276c-1.073,1.379-2.566,1.93-4.028,2.459
				c-1.219,0.441-2.439,0.882-3.658,1.323c-1.283,0.464-2.588,0.93-4.039,0.725c-1.45-0.205-3.093-1.18-4.314-3.077
				c-0.142-0.22-0.286-0.476-0.322-0.743c-0.059-0.434,0.186-0.658,0.406-0.803c3.405-2.245,6.811-4.49,10.216-6.735
				c1.382-0.911,3.825-2.616,5.77-0.37C314.057,262.506,313.001,265.868,311.905,267.276z"/>
			<path style="fill:#3A1E22;" d="M300.893,272.833c-0.278,0-0.563-0.018-0.853-0.06c-1.919-0.271-3.746-1.557-5.014-3.526
				c-0.186-0.287-0.409-0.68-0.472-1.148c-0.056-0.417-0.021-1.199,0.845-1.772l10.321-6.804c1.346-0.892,4.499-2.975,6.972-0.121
				c2.401,2.772,1.447,6.632,0.002,8.487l0,0c-1.264,1.623-2.971,2.24-4.477,2.785l-3.658,1.323
				C303.465,272.394,302.25,272.833,300.893,272.833z M296.579,267.944c0.025,0.051,0.065,0.122,0.127,0.219
				c0.954,1.482,2.271,2.44,3.614,2.63c1.211,0.17,2.353-0.24,3.559-0.676l3.658-1.323c1.313-0.475,2.67-0.965,3.579-2.133l0,0
				c0.774-0.993,1.864-3.871,0.064-5.95c-1.112-1.284-2.39-0.82-4.357,0.48l-0.105,0.07L296.579,267.944z"/>
			<path style="fill:#3A1E22;" d="M319.834,332.369c-3.004,0.001-6.192-1.201-8.722-2.333c-6.34-2.846-12.017-5.477-17.302-8.864
				c-6.073-3.885-10.549-8.146-13.682-13.023l0,0c-3.224-5.012-5.005-10.781-6.197-15.248c-1.775-6.706-1.611-12.563,0.486-17.412
				c2.268-5.239,6.756-9.176,13.34-11.703c1.888-0.729,3.864-1.228,5.774-1.71c2.608-0.658,5.072-1.28,7.347-2.439
				c2.441-1.244,4.528-3.066,6.737-4.995c3.058-2.67,6.22-5.431,10.381-6.493c5.638-1.444,13.992-0.761,19.863,1.623
				c4.686,1.901,8.925,5.274,12.257,9.754c2.607,3.478,4.637,7.613,5.869,11.953c2.313,8.164,2.312,17.511-0.001,28.576
				c-1.866,8.909-6.201,20.156-16.252,23.138c-1.332,0.396-2.737,0.633-4.096,0.862c-2.892,0.487-5.625,0.948-7.44,2.829
				c-0.419,0.433-0.781,0.94-1.164,1.477c-0.471,0.661-0.959,1.345-1.595,1.944C323.833,331.814,321.876,332.369,319.834,332.369z
				 M324.761,249.385c-2.265,0-4.423,0.227-6.269,0.7c-3.7,0.944-6.547,3.431-9.56,6.062c-2.205,1.925-4.484,3.915-7.145,5.27
				c-2.475,1.262-5.165,1.941-7.766,2.598c-1.853,0.468-3.768,0.951-5.545,1.637c-6.065,2.328-10.177,5.904-12.224,10.631
				c-1.914,4.427-2.045,9.845-0.388,16.104c1.153,4.324,2.872,9.902,5.945,14.68c0,0,0,0,0,0.001
				c2.974,4.631,7.252,8.693,13.079,12.42c5.17,3.314,10.776,5.911,17.041,8.724c5.921,2.65,9.78,2.854,12.137,0.637
				c0.493-0.464,0.903-1.04,1.337-1.648c0.409-0.573,0.832-1.166,1.354-1.706c2.272-2.354,5.462-2.892,8.546-3.412
				c1.3-0.219,2.644-0.445,3.859-0.808c9.106-2.7,13.109-13.253,14.863-21.63c2.245-10.741,2.256-19.775,0.035-27.62
				c-1.166-4.106-3.084-8.015-5.548-11.303c-3.115-4.189-7.059-7.333-11.406-9.097C333.524,250.169,328.962,249.385,324.761,249.385
				z"/>
			<path style="fill:none;stroke:#3A1E22;stroke-width:2;stroke-linecap:round;stroke-linejoin:round;stroke-miterlimit:10;" d="
				M321.019,252.326"/>
			<path style="fill:#F9E0BC;" d="M340.645,261.364c-1.461,6.025-20.754,4.212-20.717-3.777
				C319.966,249.598,342.861,252.229,340.645,261.364z"/>
			<path style="fill:#3A1E22;" d="M289.713,243.472c-0.128-0.756-0.206-1.598,0.231-2.228c0.261-0.376,0.669-0.617,1.065-0.847
				c1.074-0.625,2.149-1.25,3.223-1.875c0.21-0.122,0.442-0.248,0.681-0.207c0.427,0.073,0.583,0.596,0.656,1.023
				c0.65,3.816,1.737,7.556,3.219,11.131c1.879,4.532,4.891,8.695,7.406,12.894c0.054,0.089,0.109,0.188,0.096,0.291
				c-0.013,0.107-0.096,0.19-0.175,0.263c-0.431,0.407-0.862,0.814-1.293,1.221c-0.239,0.225-0.498,0.461-0.822,0.513
				c-0.531,0.085-0.992-0.343-1.366-0.73c-1.473-1.527-3.259-2.799-4.662-4.357c-1.34-1.488-2.32-3.331-3.389-5.014
				C292.24,251.865,290.446,247.796,289.713,243.472z"/>
			<g>
				<path style="fill:#605D26;" d="M313.488,244.335c5.466-7.357,3.045-18.005,6.784-26.374c0.98-2.194,2.386-4.232,2.891-6.582
					c-5.907,1.716-10.207,6.698-13.966,11.567c-3.383,4.381-6.649,8.916-8.88,13.981c-1.185,2.691-2.062,5.534-2.475,8.448
					c-0.21,1.48-0.304,2.977-0.25,4.471c0.062,1.701-0.24,2.924,1.406,2.937c2.3,0.017,5.856-2.036,7.863-3.084
					C309.404,248.373,311.764,246.656,313.488,244.335z"/>
				<path style="fill:#3A1E22;" d="M299.027,253.784c-0.012,0-0.024,0-0.037,0c-2.378-0.017-2.384-1.992-2.388-3.172
					c0-0.23-0.001-0.473-0.011-0.728c-0.054-1.491,0.033-3.055,0.259-4.649c0.405-2.856,1.263-5.787,2.551-8.71
					c2.151-4.886,5.155-9.206,9.003-14.189c3.712-4.809,8.199-10.091,14.479-11.916c0.337-0.096,0.703-0.012,0.96,0.229
					c0.257,0.24,0.37,0.598,0.296,0.942c-0.37,1.723-1.17,3.257-1.943,4.741c-0.348,0.667-0.708,1.358-1.012,2.039
					c-1.571,3.517-2.025,7.587-2.465,11.523c-0.586,5.251-1.192,10.682-4.429,15.039l0,0c-1.649,2.22-3.928,4.07-6.967,5.656
					l-0.74,0.392C304.358,252.164,301.313,253.784,299.027,253.784z M298.694,251.758c0.024,0,0.125,0.025,0.335,0.026
					c1.785,0,4.69-1.546,6.615-2.571l0.754-0.399c2.766-1.443,4.822-3.103,6.287-5.075c2.915-3.923,3.465-8.852,4.047-14.069
					c0.457-4.088,0.928-8.315,2.627-12.116c0.329-0.737,0.703-1.454,1.065-2.148c0.423-0.812,0.833-1.597,1.165-2.392
					c-4.783,2.093-8.473,6.494-11.601,10.544c-3.759,4.867-6.686,9.072-8.756,13.772c-1.214,2.756-2.021,5.51-2.4,8.186
					c-0.21,1.478-0.29,2.922-0.241,4.295c0.01,0.278,0.011,0.544,0.012,0.794c0.001,0.42,0.003,0.992,0.086,1.153
					C298.69,251.759,298.691,251.758,298.694,251.758z M313.488,244.335h0.01H313.488z"/>
				<path style="fill:#3A1E22;" d="M297.832,253.27c-0.286,0-0.569-0.122-0.767-0.358c-0.354-0.423-0.299-1.054,0.124-1.408
					c0.083-0.069,8.267-7.003,10.796-15.393c0.372-1.233,0.725-2.516,1.086-3.823c2.241-8.137,4.782-17.359,13.643-21.802
					c0.495-0.247,1.095-0.047,1.342,0.446c0.248,0.494,0.048,1.095-0.446,1.342c-8.066,4.044-10.482,12.81-12.612,20.545
					c-0.364,1.323-0.722,2.621-1.098,3.869c-2.705,8.971-11.073,16.052-11.428,16.349
					C298.286,253.193,298.058,253.27,297.832,253.27z"/>
			</g>
			<path style="opacity:0.2;fill:#3A1E22;" d="M299.145,311.34c0.973,0.658,2.031,1.231,3.186,1.444
				c1.942,0.358,4.051-0.412,5.306-1.937c1.254-1.525,1.603-3.743,0.877-5.58c-0.418-1.057-1.151-1.962-1.967-2.753
				c-1.674-1.622-3.748-2.828-5.986-3.482c-1.675-0.489-3.538-0.655-5.119,0.081C289.638,301.817,296.102,309.282,299.145,311.34z"
				/>
			<path style="opacity:0.2;fill:#3A1E22;" d="M313.091,310.957c0.095,0.297,0.25,0.581,0.483,0.788
				c0.275,0.244,0.642,0.365,1.008,0.402c1.191,0.123,2.415-0.674,2.783-1.813c0.1-0.31,0.142-0.646,0.06-0.961
				c-0.066-0.256-0.211-0.486-0.38-0.691C315.358,306.633,312.3,308.485,313.091,310.957z"/>
			<path style="opacity:0.2;fill:#3A1E22;" d="M341.911,277.06c-0.333,1.251-0.619,2.544-0.487,3.832
				c0.103,1.002,0.462,1.976,1.035,2.805c0.454,0.656,1.116,1.256,1.914,1.291c0.698,0.031,1.344-0.381,1.837-0.876
				c1.302-1.309,1.825-3.204,2.041-5.038c0.253-2.139,0.138-4.392-0.84-6.311c-0.678-1.33-2.444-2.525-3.646-1.113
				C342.696,272.904,342.326,275.5,341.911,277.06z"/>
			<path style="opacity:0.2;fill:#3A1E22;" d="M287.947,295.911c0.711,0.81,1.708,1.46,2.786,1.425
				c1.174-0.038,2.175-0.866,2.913-1.78c1.352-1.674,2.147-4.043,1.241-5.995c-0.638-1.374-2.074-2.316-3.584-2.449
				C286.189,286.661,285.117,292.688,287.947,295.911z"/>
		</g>
		<path style="fill:none;stroke:#3A1E22;stroke-width:2;stroke-linecap:round;stroke-linejoin:round;stroke-miterlimit:10;" d="
			M348.127,298.132"/>
		<path style="fill:none;stroke:#3A1E22;stroke-width:2;stroke-linecap:round;stroke-linejoin:round;stroke-miterlimit:10;" d="
			M345.484,303.928"/>
		<path style="fill:#3A1E22;" d="M294.644,314.716c-0.181,0-0.364-0.049-0.529-0.152c-6.068-3.794-10.92-10.358-14.031-18.982
			c-2.335-6.471-2.875-11.753-2.896-11.975c-0.054-0.549,0.347-1.038,0.896-1.093c0.558-0.045,1.04,0.348,1.094,0.897
			c0.021,0.208,2.219,20.841,15.998,29.457c0.468,0.293,0.61,0.909,0.317,1.378C295.303,314.55,294.978,314.716,294.644,314.716z"/>
	</g>
	<g>
		<g>
			<path style="fill:#F9E0BC;" d="M351.577,369.799c-4.35,19.99-30.7,39.83-50.98,31.05c-5.35-2.32-10.03-5.92-14.48-9.69
				c-1.65-1.38-3.29-2.83-4.4-4.67c-1.11-1.84-1.62-4.17-0.84-6.17c0.26-0.67,0.65-1.28,1.12-1.84c0.46-0.57,1-1.1,1.54-1.61
				c5.74-5.39,12.22-9.66,18.9-13.68c7.12-4.27,14.46-8.24,21.33-12.9c0.5-0.33,1-0.67,1.49-1.01c6.64-4.63,13.57-10.33,21.25-13.28
				c0.61-0.24,1.23-0.46,1.85-0.66C353.407,345.179,353.887,359.169,351.577,369.799z"/>
			<path style="fill:#F6D19D;" d="M325.477,363.739c-0.15,0.88-0.33,1.79-0.83,2.52c-0.81,1.18-2.28,1.66-3.65,2.07
				c-5.27,1.59-10.7,3.19-16.19,2.76c-0.92-0.07-1.88-0.22-2.61-0.78c-0.91-0.7-1.27-1.94-1.19-3.09c0.08-1.14,0.55-2.22,1.05-3.26
				c0.12-0.26,0.25-0.52,0.38-0.77c7.12-4.27,14.46-8.24,21.33-12.9c0.03,0.05,0.06,0.1,0.09,0.15c0.83,1.41,1.58,2.89,1.97,4.49
				C326.527,357.799,326.007,360.819,325.477,363.739z"/>
			<path style="fill:#C4492D;" d="M351.577,369.799c-4.35,19.99-30.7,39.83-50.98,31.05c-5.35-2.32-10.03-5.92-14.48-9.69
				c-1.65-1.38-3.29-2.83-4.4-4.67c-1.11-1.84-1.62-4.17-0.84-6.17c0.26-0.67,0.65-1.28,1.12-1.84c3.56,5.24,7.72,10.23,13.61,12.26
				c8.38,2.88,17.42-1.14,25.27-5.23c8.02-4.19,16.26-8.85,21.23-16.41c3.99-6.04,5.49-13.46,5.5-20.7c0.01-4.16-0.45-8.29-1.1-12.4
				c0.61-0.24,1.23-0.46,1.85-0.66C353.407,345.179,353.887,359.169,351.577,369.799z"/>
			<path style="fill:#3A1E22;" d="M311.17,403.982c-3.853,0-7.551-0.735-10.971-2.215c-5.595-2.427-10.385-6.166-14.729-9.846
				c-1.676-1.401-3.418-2.94-4.61-4.916c-1.393-2.311-1.736-4.946-0.915-7.05c0.281-0.726,0.714-1.439,1.286-2.12
				c0.202-0.239,0.505-0.375,0.816-0.355c0.313,0.017,0.6,0.178,0.776,0.438c3.228,4.751,7.31,9.877,13.108,11.876
				c8.096,2.782,16.881-1.212,24.482-5.172c8.258-4.315,16.069-8.79,20.856-16.072c3.48-5.268,5.324-12.235,5.336-20.151
				c0.008-3.605-0.337-7.496-1.088-12.243c-0.073-0.463,0.185-0.915,0.621-1.087c0.629-0.248,1.27-0.475,1.91-0.681
				c0.466-0.151,0.974,0.059,1.197,0.494c5.673,11.056,5.328,25.833,3.307,35.129c0,0.001,0,0.001,0,0.001
				c-2.494,11.463-12.315,23.343-24.439,29.563C322.406,402.503,316.634,403.982,311.17,403.982z M282.004,380.248
				c-0.074,0.145-0.139,0.289-0.195,0.433c-0.597,1.531-0.311,3.509,0.764,5.292c1.032,1.712,2.633,3.122,4.185,4.42
				c4.231,3.584,8.88,7.217,14.236,9.54c7.708,3.335,17.016,2.578,26.208-2.138c11.62-5.961,21.022-17.298,23.397-28.208l0,0
				c1.903-8.758,2.282-22.525-2.751-33.022c-0.077,0.027-0.153,0.055-0.23,0.082c0.682,4.495,0.996,8.248,0.988,11.754
				c-0.012,8.308-1.971,15.656-5.665,21.249c-5.046,7.675-13.438,12.48-21.602,16.745c-7.97,4.153-17.21,8.333-26.058,5.289
				C289.434,389.669,285.288,384.909,282.004,380.248z M351.576,369.799h0.01H351.576z"/>
		</g>
		<path style="fill:#3A1E22;" d="M311.17,403.982c-3.853,0-7.551-0.735-10.971-2.215c-5.595-2.427-10.385-6.166-14.729-9.846
			c-1.676-1.401-3.418-2.94-4.61-4.916c-1.393-2.311-1.736-4.946-0.915-7.05c0.281-0.726,0.714-1.439,1.286-2.12
			c0.49-0.607,1.069-1.174,1.619-1.694c7.746-7.268,16.953-12.619,25.857-17.795c5.336-3.103,10.855-6.311,15.977-9.888
			c1.372-0.956,2.755-1.958,4.155-2.971c5.456-3.951,11.098-8.037,17.31-10.423c0.621-0.245,1.261-0.472,1.901-0.678
			c0.466-0.151,0.974,0.059,1.197,0.494c5.673,11.056,5.328,25.833,3.307,35.129c0,0.001,0,0.001,0,0.001
			c-2.494,11.463-12.315,23.343-24.439,29.563C322.406,402.503,316.634,403.982,311.17,403.982z M347.849,336.565
			c-0.327,0.115-0.653,0.236-0.976,0.364c-5.975,2.295-11.509,6.303-16.862,10.178c-1.41,1.021-2.802,2.029-4.183,2.992
			c-5.19,3.624-10.745,6.853-16.117,9.976c-8.807,5.12-17.913,10.414-25.491,17.523c-0.497,0.469-1.018,0.978-1.446,1.509
			c-0.443,0.527-0.764,1.052-0.966,1.573c-0.597,1.531-0.311,3.509,0.764,5.292c1.032,1.712,2.633,3.122,4.185,4.42
			c4.231,3.584,8.88,7.217,14.236,9.54c7.708,3.335,17.016,2.578,26.208-2.138c11.62-5.961,21.022-17.298,23.397-28.208l0,0
			C352.502,360.829,352.881,347.061,347.849,336.565z M351.576,369.799h0.01H351.576z"/>
		<path style="fill:#3A1E22;" d="M313.372,363.615c0.005,0.362,0.091,0.74,0.334,1.009c0.402,0.445,1.085,0.46,1.683,0.422
			c0.651-0.041,1.301-0.104,1.948-0.19c0.15-0.02,0.304-0.043,0.433-0.122c0.228-0.14,0.322-0.419,0.393-0.677
			c0.332-1.2,1.84-6.959-0.913-6.326c-0.973,0.224-1.713,1.642-2.253,2.372C314.241,361.125,313.352,362.278,313.372,363.615z"/>
		<path style="fill:#3A1E22;" d="M307.41,363.508c-0.481,0.364-0.952,0.838-1.008,1.439c-0.041,0.444,0.166,0.892,0.493,1.195
			s0.763,0.474,1.205,0.536c0.603,0.086,1.251-0.028,1.736-0.396c0.419-0.317,0.686-0.79,0.941-1.249
			c0.463-0.831,0.925-1.663,1.388-2.494c0.091-0.163,0.177-0.383,0.049-0.52c-0.055-0.059-0.138-0.084-0.217-0.102
			C310.535,361.586,308.525,362.663,307.41,363.508z"/>
		<path style="fill:#3A1E22;" d="M316.341,400.124c-0.457,0-0.869-0.314-0.974-0.778c-0.123-0.538,0.215-1.074,0.753-1.196
			c5.992-1.364,11.634-4.189,16.318-8.169c0.42-0.358,1.051-0.306,1.41,0.114c0.357,0.421,0.306,1.052-0.115,1.409
			c-4.928,4.189-10.865,7.16-17.17,8.595C316.489,400.116,316.415,400.124,316.341,400.124z"/>
		<path style="fill:#3A1E22;" d="M335.456,389.513c-0.298,0-0.594-0.133-0.791-0.388c-0.338-0.436-0.259-1.065,0.178-1.402
			c0.943-0.731,1.851-1.522,2.698-2.353c0.395-0.387,1.027-0.38,1.414,0.016c0.387,0.395,0.38,1.027-0.015,1.414
			c-0.903,0.883-1.869,1.726-2.873,2.503C335.886,389.444,335.671,389.513,335.456,389.513z"/>
		<path style="fill:#3A1E22;" d="M299.407,387.416c-0.569,0-1.136-0.043-1.696-0.131c-2.628-0.415-5.117-1.819-6.829-3.854
			c-0.355-0.422-0.301-1.053,0.121-1.409c0.422-0.355,1.053-0.303,1.409,0.122c1.406,1.671,3.451,2.825,5.61,3.166
			c2.156,0.338,4.458-0.131,6.311-1.29c0.467-0.294,1.084-0.151,1.378,0.317c0.293,0.468,0.151,1.085-0.317,1.378
			C303.619,386.825,301.507,387.416,299.407,387.416z"/>
	</g>
	<g>
		<g>
			<path style="fill:#F9E0BC;" d="M406.978,247.86c-18.585,8.55-50.285-0.564-55.471-22.046c-1.365-5.669-1.304-11.573-0.97-17.396
				c0.11-2.148,0.281-4.331,1.084-6.324c0.802-1.993,2.357-3.803,4.423-4.383c0.692-0.195,1.414-0.251,2.144-0.212
				c0.732,0.025,1.48,0.137,2.213,0.262c7.759,1.343,15.068,3.951,22.297,6.869c7.694,3.119,15.281,6.594,23.136,9.279
				c0.564,0.201,1.137,0.396,1.703,0.583c7.693,2.519,16.415,4.626,23.392,8.986c0.559,0.343,1.107,0.706,1.64,1.081
				C427.746,234.511,416.86,243.311,406.978,247.86z"/>
			<path style="fill:#F6D19D;" d="M396.119,223.365c-0.793,0.409-1.629,0.813-2.512,0.853c-1.43,0.063-2.698-0.823-3.849-1.67
				c-4.44-3.253-8.985-6.628-11.944-11.273c-0.497-0.777-0.955-1.634-0.947-2.554c0.012-1.148,0.786-2.182,1.753-2.809
				c0.959-0.622,2.104-0.896,3.236-1.122c0.28-0.061,0.566-0.113,0.844-0.16c7.694,3.119,15.281,6.594,23.136,9.279
				c-0.022,0.054-0.044,0.108-0.066,0.162c-0.627,1.511-1.358,3.001-2.402,4.274C401.496,220.631,398.77,222.032,396.119,223.365z"
				/>
			<path style="fill:#C4492D;" d="M406.978,247.86c-18.585,8.55-50.285-0.564-55.471-22.046c-1.365-5.669-1.304-11.573-0.97-17.396
				c0.11-2.148,0.281-4.331,1.084-6.324c0.802-1.993,2.357-3.803,4.423-4.383c0.692-0.195,1.414-0.251,2.144-0.212
				c-2.044,5.996-3.528,12.321-1.606,18.247c2.74,8.427,11.39,13.23,19.379,17.04c8.172,3.886,16.851,7.665,25.88,7.088
				c7.225-0.446,14.055-3.712,19.844-8.059c3.329-2.495,6.351-5.346,9.244-8.338c0.559,0.343,1.107,0.706,1.64,1.081
				C427.746,234.511,416.86,243.311,406.978,247.86z"/>
			<path style="fill:#3A1E22;" d="M391.09,252.018c-7.405,0-15.192-1.683-22.011-4.989c-9.844-4.771-16.429-12.223-18.543-20.98
				c-1.428-5.929-1.322-12.005-0.996-17.688c0.112-2.184,0.293-4.501,1.154-6.641c1.007-2.503,2.907-4.361,5.081-4.972
				c0.749-0.211,1.579-0.296,2.467-0.248c0.313,0.017,0.6,0.179,0.775,0.439c0.176,0.259,0.22,0.586,0.118,0.883
				c-1.853,5.437-3.494,11.782-1.602,17.616c2.646,8.138,11.122,12.756,18.858,16.446c8.414,4.001,16.694,7.548,25.385,6.992
				c6.302-0.389,12.977-3.107,19.308-7.86c2.885-2.161,5.784-4.777,9.126-8.234c0.325-0.337,0.841-0.403,1.242-0.157
				c0.576,0.354,1.142,0.729,1.692,1.115c0.401,0.282,0.539,0.813,0.325,1.254c-5.418,11.182-17.432,19.796-26.073,23.774
				c0,0,0,0,0,0.001C402.666,250.945,396.999,252.018,391.09,252.018z M356.78,198.568c-0.159,0.028-0.313,0.063-0.464,0.105
				c-1.582,0.444-2.99,1.862-3.767,3.794c-0.747,1.855-0.905,3.898-1.013,6.002c-0.318,5.536-0.423,11.436,0.943,17.111
				c1.971,8.165,8.176,15.143,17.472,19.649c11.752,5.697,26.464,6.389,36.609,1.722c8.14-3.748,19.366-11.727,24.724-22.061
				c-0.068-0.045-0.136-0.09-0.205-0.134c-3.181,3.248-5.99,5.757-8.795,7.859c-6.643,4.988-13.691,7.843-20.382,8.256
				c-9.164,0.591-18.053-3.227-26.371-7.183c-8.112-3.869-17.008-8.741-19.9-17.634C353.723,210.172,355.031,203.996,356.78,198.568
				z M406.978,247.86h0.01H406.978z"/>
		</g>
		<path style="fill:#3A1E22;" d="M391.09,252.018c-7.405,0-15.192-1.683-22.011-4.989c-9.844-4.771-16.429-12.223-18.543-20.98
			c-1.428-5.929-1.322-12.005-0.996-17.688c0.112-2.184,0.293-4.501,1.154-6.641c1.007-2.503,2.907-4.361,5.081-4.972
			c0.749-0.211,1.579-0.296,2.467-0.248c0.78,0.026,1.581,0.148,2.327,0.274c10.465,1.816,20.278,5.951,29.768,9.95
			c5.689,2.397,11.572,4.876,17.512,6.816c1.588,0.52,3.22,1.023,4.871,1.531c6.439,1.982,13.097,4.032,18.74,7.558
			c0.57,0.35,1.136,0.725,1.686,1.111c0.401,0.282,0.539,0.813,0.325,1.254c-5.418,11.182-17.432,19.796-26.073,23.774
			c0,0,0,0,0,0.001C402.666,250.945,396.999,252.018,391.09,252.018z M357.761,198.487c-0.532,0-1.004,0.061-1.445,0.186
			c-1.582,0.444-2.99,1.862-3.767,3.794c-0.747,1.855-0.905,3.898-1.013,6.002c-0.318,5.536-0.423,11.436,0.943,17.111
			c1.971,8.165,8.176,15.143,17.472,19.649c11.752,5.697,26.464,6.389,36.609,1.722c8.14-3.748,19.366-11.727,24.724-22.061
			c-0.289-0.192-0.582-0.38-0.878-0.561c-5.428-3.392-11.959-5.403-18.275-7.347c-1.663-0.512-3.305-1.018-4.904-1.541
			c-6.018-1.966-11.94-4.461-17.667-6.874c-9.387-3.955-19.093-8.044-29.33-9.821c-0.674-0.115-1.396-0.225-2.076-0.248
			C358.02,198.491,357.888,198.487,357.761,198.487z M406.978,247.86h0.01H406.978z"/>
		<path style="fill:#3A1E22;" d="M388.936,213.62c-0.286,0.222-0.536,0.518-0.605,0.874c-0.113,0.589,0.285,1.143,0.675,1.598
			c0.424,0.496,0.866,0.977,1.323,1.442c0.106,0.108,0.217,0.217,0.358,0.273c0.249,0.098,0.528,0.005,0.777-0.093
			c1.159-0.456,6.666-2.717,4.504-4.535c-0.764-0.643-2.342-0.381-3.25-0.373C391.448,212.818,389.992,212.801,388.936,213.62z"/>
		<path style="fill:#3A1E22;" d="M385.436,208.794c-0.58-0.165-1.242-0.256-1.756,0.061c-0.38,0.235-0.612,0.669-0.658,1.113
			c-0.046,0.444,0.081,0.894,0.296,1.285c0.294,0.534,0.775,0.982,1.361,1.148c0.505,0.144,1.044,0.073,1.564,0.001
			c0.942-0.13,1.885-0.261,2.827-0.391c0.185-0.026,0.413-0.089,0.445-0.273c0.014-0.08-0.016-0.161-0.049-0.235
			C388.851,210.134,386.781,209.177,385.436,208.794z"/>
		<path style="fill:#3A1E22;" d="M379.127,246.688c-0.073,0-0.146-0.008-0.22-0.024c-6.309-1.417-12.255-4.372-17.195-8.545
			c-0.422-0.356-0.475-0.987-0.118-1.409c0.356-0.422,0.987-0.475,1.409-0.118c4.694,3.966,10.346,6.774,16.342,8.122
			c0.539,0.121,0.877,0.656,0.756,1.195C379.997,246.372,379.584,246.688,379.127,246.688z"/>
		<path style="fill:#3A1E22;" d="M385.948,248.004c-0.05,0-0.101-0.003-0.152-0.011c-1.254-0.191-2.508-0.457-3.728-0.789
			c-0.533-0.146-0.847-0.695-0.702-1.228c0.145-0.532,0.694-0.844,1.228-0.702c1.146,0.313,2.324,0.562,3.502,0.741
			c0.546,0.084,0.921,0.593,0.838,1.139C386.859,247.65,386.433,248.004,385.948,248.004z"/>
		<path style="fill:#3A1E22;" d="M366.841,220.608c-0.119,0-0.24-0.021-0.358-0.067c-2.484-0.952-4.626-2.845-5.876-5.193
			c-1.25-2.348-1.625-5.181-1.029-7.773c0.124-0.539,0.659-0.873,1.199-0.751c0.538,0.124,0.874,0.661,0.751,1.199
			c-0.49,2.129-0.182,4.457,0.846,6.385c1.026,1.929,2.786,3.484,4.826,4.266c0.516,0.198,0.773,0.776,0.576,1.292
			C367.622,220.363,367.242,220.608,366.841,220.608z"/>
	</g>
	<g>
		<path style="fill:#833924;" d="M371.012,279.399c-0.9,1.296-1.706,2.762-1.686,4.34c0.023,1.854,1.214,3.536,2.716,4.622
			c1.502,1.086,3.297,1.677,5.059,2.253c0.812-0.78,0.982-1.997,1.085-3.118c0.196-2.149,1.691-10.432,0.043-11.94
			C375.701,273.243,372.052,277.901,371.012,279.399z"/>
		<path style="fill:#3A1E22;" d="M377.101,291.614c-0.104,0-0.208-0.017-0.31-0.05c-1.731-0.565-3.693-1.205-5.335-2.393
			c-1.935-1.398-3.104-3.425-3.13-5.42c-0.024-1.948,0.983-3.654,1.865-4.923c0.95-1.37,3.444-4.588,6.085-4.884
			c0.979-0.108,1.885,0.192,2.628,0.872c1.454,1.331,1.276,5.094,0.478,11.143c-0.091,0.686-0.165,1.251-0.2,1.626
			c-0.117,1.281-0.331,2.732-1.388,3.748C377.605,291.517,377.355,291.614,377.101,291.614z M376.67,275.923
			c-0.056,0-0.112,0.003-0.171,0.01c-1.397,0.157-3.35,2.141-4.665,4.037h0c-0.711,1.024-1.525,2.376-1.507,3.757
			c0.017,1.365,0.878,2.795,2.302,3.824c1.203,0.87,2.658,1.409,4.111,1.892c0.291-0.553,0.384-1.302,0.452-2.037
			c0.036-0.394,0.114-0.987,0.208-1.706c0.746-5.652,0.798-8.817,0.155-9.406C377.277,276.041,376.999,275.923,376.67,275.923z
			 M371.012,279.399h0.01H371.012z"/>
		<path style="fill:#3A1E22;" d="M377.261,291.54c-0.326,0-0.645-0.159-0.837-0.451c-2.292-3.493-3.214-6.586-2.819-9.455
			c0.347-2.521,1.71-4.699,2.912-6.621c0.292-0.469,0.91-0.61,1.378-0.317c0.468,0.293,0.61,0.91,0.317,1.378
			c-1.095,1.752-2.337,3.736-2.626,5.834c-0.326,2.369,0.495,5.014,2.51,8.084c0.303,0.462,0.174,1.082-0.287,1.385
			C377.64,291.487,377.449,291.54,377.261,291.54z"/>
	</g>
	<g>
		<path style="fill:#833924;" d="M479.975,268.726c1.578,0.024,3.244-0.124,4.543-1.02c1.526-1.053,2.258-2.979,2.323-4.832
			c0.064-1.853-0.446-3.672-0.951-5.456c-1.1-0.239-2.206,0.298-3.193,0.838c-1.893,1.035-9.602,4.413-9.935,6.622
			C472.25,268.266,478.152,268.698,479.975,268.726z"/>
		<path style="fill:#3A1E22;" d="M480.294,269.728c-0.113,0-0.225-0.001-0.334-0.003l0,0c-1.667-0.025-5.73-0.302-7.448-2.329
			c-0.634-0.748-0.891-1.671-0.74-2.668c0.294-1.947,3.517-3.898,8.985-6.61c0.618-0.307,1.129-0.56,1.459-0.739
			c1.129-0.616,2.455-1.249,3.886-0.939c0.361,0.079,0.649,0.35,0.749,0.705c0.496,1.75,1.059,3.734,0.989,5.762
			c-0.082,2.387-1.112,4.487-2.754,5.621C483.596,269.557,481.783,269.728,480.294,269.728z M485.119,258.371
			c-0.621,0.067-1.294,0.407-1.943,0.762c-0.346,0.189-0.881,0.456-1.53,0.777c-5.11,2.533-7.767,4.255-7.896,5.117
			c-0.065,0.432,0.024,0.764,0.288,1.076c0.909,1.072,3.645,1.588,5.953,1.622c0,0,0,0,0.001,0c1.243,0.021,2.822-0.06,3.959-0.844
			c1.123-0.775,1.83-2.287,1.891-4.043C485.892,261.353,485.528,259.846,485.119,258.371z"/>
		<path style="fill:#3A1E22;" d="M473.232,266.603c-0.537,0-0.981-0.427-0.999-0.967c-0.018-0.553,0.414-1.015,0.967-1.032
			c2.066-0.068,4.409-0.145,6.306-1.073c2.148-1.051,3.886-3.207,5.312-6.592c0.214-0.509,0.8-0.745,1.31-0.533
			c0.509,0.215,0.748,0.801,0.533,1.31c-1.622,3.85-3.674,6.339-6.276,7.611c-2.283,1.116-4.853,1.2-7.12,1.275
			C473.254,266.603,473.242,266.603,473.232,266.603z"/>
	</g>
	<g>
		<path style="fill:#833924;" d="M275.877,216.076c0.14,1.572,0.461,3.214,1.487,4.412c1.206,1.408,3.198,1.937,5.047,1.808
			c1.849-0.129,3.606-0.825,5.327-1.513c0.123-1.119-0.526-2.163-1.166-3.089c-1.226-1.775-5.388-9.092-7.619-9.193
			C275.531,208.345,275.715,214.26,275.877,216.076z"/>
		<path style="fill:#3A1E22;" d="M281.868,223.315c-2.142,0-4.078-0.792-5.263-2.176c-1.267-1.479-1.587-3.435-1.724-4.974l0,0
			c-0.148-1.661-0.294-5.731,1.542-7.65c0.678-0.709,1.559-1.055,2.577-1.014c1.969,0.09,4.244,3.093,7.51,8.251
			c0.369,0.583,0.673,1.064,0.886,1.373c0.731,1.058,1.498,2.309,1.337,3.767c-0.041,0.367-0.28,0.682-0.623,0.819
			c-1.69,0.675-3.606,1.441-5.629,1.582C282.275,223.308,282.07,223.315,281.868,223.315z M278.819,209.498
			c-0.392,0-0.688,0.125-0.952,0.401c-0.972,1.015-1.2,3.79-0.995,6.089l0,0c0.111,1.242,0.353,2.802,1.25,3.851
			c0.889,1.037,2.463,1.578,4.219,1.46c1.481-0.103,2.943-0.622,4.368-1.183c-0.131-0.61-0.539-1.245-0.96-1.854
			c-0.224-0.324-0.544-0.829-0.931-1.44c-3.051-4.819-5.04-7.283-5.911-7.323C278.878,209.498,278.849,209.498,278.819,209.498z"/>
		<path style="fill:#3A1E22;" d="M287.814,221.624c-0.096,0-0.194-0.014-0.29-0.043c-3.997-1.212-6.687-2.995-8.223-5.451
			c-1.349-2.158-1.699-4.703-2.008-6.948c-0.075-0.547,0.307-1.052,0.854-1.127c0.546-0.077,1.051,0.307,1.127,0.855
			c0.281,2.046,0.601,4.366,1.723,6.16c1.268,2.028,3.593,3.532,7.107,4.598c0.529,0.16,0.827,0.719,0.667,1.247
			C288.639,221.346,288.242,221.624,287.814,221.624z"/>
	</g>
	<g>
		<path style="fill:#833924;" d="M456.853,235.023c-1.186-0.717-2.54-1.386-3.903-1.132c-1.638,0.305-2.729,1.818-3.645,3.21
			c-0.639,0.971-1.286,1.958-1.628,3.069c-0.341,1.111-0.341,2.382,0.27,3.37c0.872,1.411,2.678,1.872,4.312,2.157
			c2.717,0.474,13.091,3.168,13.32-1.547C465.762,240.395,459.491,236.617,456.853,235.023z"/>
		<path style="fill:#3A1E22;" d="M460.694,247.886c-2.611,0-5.529-0.59-7.464-0.981c-0.458-0.093-0.846-0.171-1.142-0.223
			c-1.87-0.326-3.924-0.892-4.99-2.616c-0.706-1.142-0.843-2.669-0.374-4.19c0.386-1.256,1.109-2.355,1.748-3.325
			c1.032-1.567,2.299-3.271,4.297-3.643c1.7-0.316,3.279,0.459,4.603,1.259l-0.518,0.855l0.545-0.839
			c3.048,1.843,9.391,5.677,9.18,10.015c-0.051,1.05-0.501,1.933-1.299,2.555C464.194,247.598,462.518,247.886,460.694,247.886z
			 M453.55,234.836c-0.141,0-0.279,0.012-0.416,0.037c-1.227,0.229-2.151,1.497-2.993,2.777c-0.592,0.899-1.205,1.83-1.507,2.813
			c-0.299,0.97-0.239,1.899,0.164,2.551c0.648,1.048,2.129,1.436,3.633,1.698c0.31,0.054,0.716,0.136,1.194,0.233
			c2.547,0.515,8.51,1.721,10.426,0.23c0.343-0.267,0.506-0.598,0.529-1.073c0.153-3.146-5.928-6.823-8.217-8.207l-0.028-0.017
			C455.466,235.352,454.475,234.836,453.55,234.836z"/>
		<path style="fill:#3A1E22;" d="M465.163,246.432c-0.265,0-0.529-0.104-0.725-0.312c-1.16-1.223-3.392-3.447-5.31-4.596
			c-1.373-0.822-2.929-1.754-4.52-1.754c0,0-0.001,0-0.001,0c-2.239,0-4.198,1.802-6.013,3.648c-0.387,0.394-1.02,0.4-1.414,0.012
			c-0.394-0.387-0.399-1.02-0.012-1.414c2.112-2.148,4.427-4.246,7.438-4.246c0.001,0,0.001,0,0.003,0
			c2.143,0.001,4.03,1.13,5.546,2.039c2.017,1.208,4.232,3.351,5.734,4.936c0.38,0.401,0.363,1.034-0.038,1.413
			C465.657,246.341,465.41,246.432,465.163,246.432z"/>
	</g>
	<g>
		<path style="fill:#833924;" d="M280.463,341.328c-1.103,0.84-2.223,1.852-2.487,3.213c-0.318,1.636,0.688,3.206,1.645,4.57
			c0.668,0.951,1.348,1.916,2.256,2.642c0.908,0.726,2.09,1.193,3.234,0.988c1.633-0.292,2.725-1.802,3.591-3.217
			c1.44-2.353,7.759-11.009,3.458-12.956C288.734,335.018,282.916,339.461,280.463,341.328z"/>
		<path style="fill:#3A1E22;" d="M284.565,353.789c-1.118,0-2.292-0.439-3.313-1.255c-1.024-0.819-1.749-1.851-2.449-2.848
			c-0.834-1.189-2.229-3.176-1.809-5.337c0.33-1.695,1.632-2.881,2.863-3.817l0.606,0.796l-0.584-0.813
			c2.835-2.158,8.735-6.649,12.692-4.858c0.958,0.434,1.614,1.176,1.898,2.147c0.94,3.211-2.461,8.448-4.289,11.262
			c-0.254,0.392-0.47,0.724-0.627,0.98c-0.991,1.618-2.273,3.321-4.268,3.679C285.05,353.768,284.809,353.789,284.565,353.789z
			 M290.521,337.238c-3.035,0-7.573,3.455-9.43,4.869c0,0-0.022,0.017-0.022,0.017c-0.931,0.708-1.91,1.571-2.111,2.608
			c-0.238,1.223,0.601,2.55,1.482,3.805c0.62,0.882,1.262,1.794,2.063,2.436c0.793,0.634,1.679,0.924,2.432,0.784
			c1.213-0.217,2.118-1.452,2.915-2.754c0.164-0.268,0.39-0.616,0.655-1.025c1.415-2.179,4.729-7.281,4.047-9.611
			c-0.122-0.417-0.37-0.69-0.804-0.887C291.379,337.314,290.966,337.238,290.521,337.238z M280.463,341.328l-0.606-0.796
			c0.001,0,0.001,0,0.001,0L280.463,341.328z"/>
		<path style="fill:#3A1E22;" d="M284.32,353.501c-0.383,0-0.749-0.222-0.915-0.595c-1.222-2.755-2.322-5.679-1.213-8.48
			c0.789-1.994,2.533-3.333,3.935-4.408c1.862-1.43,4.67-2.703,6.698-3.519c0.512-0.205,1.095,0.042,1.301,0.555
			c0.206,0.512-0.042,1.095-0.555,1.301c-1.565,0.63-4.455,1.889-6.226,3.249c-1.269,0.975-2.707,2.078-3.293,3.559
			c-0.824,2.082,0.132,4.566,1.182,6.934c0.224,0.505-0.004,1.096-0.509,1.319C284.593,353.474,284.455,353.501,284.32,353.501z"/>
	</g>
	<g>
		<path style="fill:#89832E;" d="M371.024,382.822c2.576,3.77,5.314,7.943,6.22,12.497c0.372,1.87-0.217,4.072-0.439,5.969
			c-0.292,2.501-0.74,4.984-1.342,7.429c-4.512-1.468-8.719-4.022-11.817-7.615c-3.098-3.594-5.03-8.257-5-13.002
			c0.016-2.512,0.492-5.002,1.079-7.435c0.328-1.363,1.165-7.15,2.456-7.766C365.041,371.532,370.065,381.418,371.024,382.822z"/>
		<path style="fill:#3A1E22;" d="M375.464,409.716c-0.104,0-0.208-0.017-0.31-0.049c-4.949-1.61-9.19-4.347-12.265-7.913
			c-3.362-3.9-5.273-8.88-5.243-13.662c0.018-2.778,0.569-5.433,1.107-7.663c0.061-0.251,0.138-0.657,0.234-1.155
			c0.838-4.353,1.496-6.673,2.764-7.278c2.966-1.42,6.386,3.914,9.357,9.023c0.335,0.577,0.591,1.02,0.742,1.24
			c2.836,4.15,5.458,8.258,6.375,12.865c0.31,1.561,0.047,3.203-0.208,4.792c-0.082,0.509-0.162,1.009-0.218,1.488
			c-0.296,2.538-0.755,5.079-1.364,7.552c-0.066,0.27-0.242,0.5-0.485,0.635C375.8,409.673,375.633,409.716,375.464,409.716z
			 M362.819,373.757c-0.085,0-0.152,0.018-0.205,0.043c-0.408,0.349-0.982,2.326-1.662,5.852c-0.103,0.537-0.189,0.976-0.253,1.246
			c-0.511,2.119-1.035,4.632-1.051,7.208c-0.027,4.305,1.707,8.804,4.757,12.342c2.623,3.043,6.182,5.436,10.341,6.962
			c0.465-2.053,0.823-4.147,1.067-6.238c0.059-0.507,0.143-1.034,0.229-1.572c0.227-1.415,0.461-2.878,0.221-4.085
			c-0.843-4.238-3.35-8.154-6.065-12.127l0,0c-0.166-0.243-0.45-0.728-0.819-1.364C365.209,374.85,363.483,373.757,362.819,373.757z
			"/>
		<path style="fill:#3A1E22;" d="M375.286,409.289c-0.296,0-0.589-0.131-0.786-0.381c-2.848-3.617-6.076-7.717-7.71-12.464
			c-0.671-1.949-1.065-3.977-1.447-5.936l-3.313-17.032c-0.105-0.543,0.249-1.067,0.791-1.173c0.542-0.109,1.067,0.248,1.172,0.79
			l3.313,17.031c0.369,1.895,0.75,3.853,1.376,5.67c1.524,4.427,4.506,8.214,7.39,11.876c0.342,0.435,0.267,1.064-0.167,1.405
			C375.721,409.219,375.503,409.289,375.286,409.289z"/>
	</g>
	<g>
		<path style="fill:#89832E;" d="M440.259,197.809c3.246-3.211,6.86-6.654,11.177-8.363c1.773-0.702,4.045-0.517,5.95-0.64
			c2.513-0.162,5.035-0.167,7.549-0.014c-0.634,4.702-2.391,9.3-5.37,12.993c-2.979,3.693-7.22,6.431-11.893,7.253
			c-2.474,0.435-5.009,0.414-7.508,0.274c-1.4-0.078-7.243,0.137-8.081-1.022C430.227,205.722,439.05,199.005,440.259,197.809z"/>
		<path style="fill:#3A1E22;" d="M443.045,210.403c-1.03,0-2.018-0.042-2.938-0.093c-0.257-0.015-0.672-0.018-1.18-0.023
			c-4.432-0.043-6.832-0.273-7.655-1.411c-1.928-2.667,2.703-6.985,7.195-10.824c0.508-0.434,0.897-0.765,1.088-0.953l0,0
			c3.575-3.536,7.146-6.854,11.512-8.582c1.479-0.585,3.142-0.621,4.751-0.656c0.516-0.011,1.022-0.021,1.504-0.053
			c2.546-0.164,5.128-0.169,7.674-0.014c0.277,0.017,0.536,0.148,0.712,0.363c0.177,0.214,0.256,0.493,0.219,0.769
			c-0.696,5.157-2.626,9.821-5.582,13.487c-3.233,4.008-7.789,6.782-12.498,7.61C446.207,210.311,444.579,210.403,443.045,210.403z
			 M440.962,198.52L440.962,198.52c-0.209,0.207-0.636,0.574-1.195,1.052c-7.114,6.08-7.177,7.712-6.873,8.132
			c0.415,0.339,2.464,0.548,6.054,0.583c0.547,0.005,0.994,0.01,1.272,0.026c2.176,0.123,4.742,0.188,7.279-0.26
			c4.24-0.746,8.355-3.259,11.288-6.896c2.521-3.126,4.236-7.057,4.992-11.423c-2.107-0.089-4.229-0.066-6.328,0.07
			c-0.51,0.033-1.045,0.044-1.59,0.056c-1.432,0.031-2.912,0.063-4.057,0.516C447.788,191.965,444.384,195.135,440.962,198.52z"/>
		<path style="fill:#3A1E22;" d="M432.315,208.405c-0.4,0-0.777-0.242-0.932-0.636c-0.201-0.515,0.053-1.095,0.567-1.296
			l16.16-6.317c1.795-0.702,3.651-1.428,5.331-2.372c4.079-2.292,7.27-5.907,10.356-9.402c0.365-0.413,0.997-0.453,1.412-0.087
			c0.414,0.365,0.453,0.998,0.088,1.412c-3.047,3.451-6.502,7.363-10.876,9.821c-1.801,1.013-3.723,1.764-5.582,2.491l-16.16,6.317
			C432.559,208.382,432.436,208.405,432.315,208.405z"/>
	</g>
	<g>
		<path style="fill:#89832E;" d="M474.24,231.935c0.722-2.848,1.185-6.002,2.396-8.665c1.286-2.828,2.998-5.242,3.283-8.446
			c0.153-1.722-0.098-3.453-0.391-5.158c-0.406-2.363-0.895-4.711-1.464-7.039c-0.378-1.547-0.848-3.179-2.04-4.233
			c-2.681,2.9-5.352,5.851-7.379,9.24s-3.392,7.281-3.222,11.226c0.248,5.779,4.513,8.778,7.01,13.427
			c0.195,0.364,0.474,0.77,0.887,0.774C473.845,233.066,474.111,232.444,474.24,231.935z"/>
		<path style="fill:#3A1E22;" d="M473.324,234.061c-0.004,0-0.009,0-0.014,0c-1.065-0.01-1.586-0.982-1.758-1.301
			c-0.789-1.467-1.791-2.803-2.761-4.095c-2.059-2.744-4.188-5.58-4.368-9.762c-0.162-3.761,1.001-7.835,3.363-11.782
			c2.02-3.377,4.593-6.257,7.503-9.406c0.369-0.399,0.989-0.43,1.397-0.07c1.4,1.238,1.929,3.023,2.349,4.745
			c0.573,2.343,1.07,4.734,1.478,7.107c0.295,1.711,0.569,3.54,0.402,5.416c-0.228,2.571-1.302,4.662-2.339,6.685
			c-0.35,0.682-0.704,1.37-1.029,2.086c-0.833,1.833-1.31,3.98-1.771,6.057c-0.183,0.825-0.365,1.644-0.566,2.439c0,0,0,0,0,0
			C474.78,233.872,473.759,234.061,473.324,234.061z M474.24,231.935h0.01H474.24z M475.999,199.897
			c-2.52,2.749-4.748,5.329-6.496,8.251c-2.16,3.611-3.226,7.3-3.081,10.669c0.153,3.563,2.007,6.033,3.97,8.648
			c0.994,1.324,2.021,2.693,2.872,4.254c0.003-0.01,0.005-0.02,0.008-0.03c0.197-0.776,0.374-1.576,0.552-2.381
			c0.483-2.177,0.982-4.428,1.903-6.452c0.338-0.745,0.706-1.462,1.07-2.171c0.994-1.938,1.933-3.767,2.126-5.949
			c0.146-1.637-0.108-3.318-0.38-4.899c-0.4-2.328-0.888-4.674-1.449-6.972C476.835,201.809,476.536,200.731,475.999,199.897z"/>
		<path style="fill:#3A1E22;" d="M473.376,233.094c-0.435,0-0.835-0.287-0.961-0.725c-1.232-4.312-2.628-9.199-2.302-14.083
			c0.256-3.837,1.529-7.448,2.761-10.94l2.992-8.486c0.183-0.521,0.755-0.795,1.275-0.61c0.521,0.184,0.794,0.754,0.61,1.275
			l-2.992,8.486c-1.186,3.365-2.413,6.844-2.651,10.409c-0.303,4.537,0.984,9.042,2.229,13.4c0.152,0.531-0.156,1.085-0.687,1.236
			C473.56,233.081,473.467,233.094,473.376,233.094z"/>
	</g>
	<g>
		<path style="fill:#3A1E22;" d="M553.381,374.985c0.994-0.193,2.065-0.127,3.574-0.278c0.75-0.074,1.515-0.147,2.252,0.011
			c1.187,0.255,2.172,1.082,2.969,1.997c1.436,1.647,2.434,3.672,2.866,5.813c1.208-0.009,2.418,0.093,3.608,0.304
			c-1.518,1.454-3.037,2.907-4.556,4.361c-2.015-1.605-4.44-2.693-6.979-3.131c1.043-0.249,2.087-0.497,3.13-0.746
			c-0.371-1.96-1.487-5.87-4.178-5.496c-0.953,0.133-2.53,1.679-3.26,2.288c-0.376,0.313-2.471,3.04-2.654,3.031
			c-1.513-0.075-3.039,0.14-4.472,0.631C546.814,380.078,549.277,375.781,553.381,374.985z"/>
		<path style="fill:#3A1E22;" d="M571.359,396.111c-0.266,0.977-0.798,1.909-1.328,3.33c-0.265,0.706-0.536,1.424-1.003,2.016
			c-0.752,0.953-1.929,1.471-3.102,1.783c-2.112,0.561-4.369,0.564-6.481,0.006c-0.526,1.088-1.151,2.128-1.865,3.103
			c-0.634-2.004-1.268-4.008-1.902-6.013c2.33-1.1,4.376-2.795,5.89-4.88c-0.237,1.046-0.475,2.092-0.712,3.138
			c1.923,0.532,5.924,1.257,6.776-1.324c0.302-0.914-0.39-3.012-0.614-3.935c-0.115-0.475-1.638-3.559-1.549-3.719
			c0.735-1.324,1.216-2.789,1.408-4.291C569.687,387.97,572.456,392.077,571.359,396.111z"/>
		<path style="fill:#3A1E22;" d="M543.851,400.784c-0.698-0.734-1.219-1.672-2.159-2.862c-0.466-0.592-0.94-1.197-1.203-1.903
			c-0.425-1.137-0.258-2.412,0.084-3.577c0.615-2.097,1.783-4.028,3.356-5.545c-0.658-1.013-1.223-2.087-1.687-3.203
			c2.043,0.497,4.085,0.994,6.128,1.491c-0.268,2.563,0.121,5.191,1.119,7.567c-0.771-0.745-1.542-1.49-2.314-2.236
			c-1.452,1.368-4.146,4.414-2.381,6.48c0.625,0.732,2.777,1.228,3.684,1.515c0.466,0.148,3.892,0.445,3.983,0.604
			c0.751,1.315,1.754,2.486,2.939,3.428C551.679,403.576,546.732,403.814,543.851,400.784z"/>
	</g>
	<g>
		<path style="fill:#3A1E22;" d="M583.626,377.591c-0.239,0.872-0.085,4.428-0.657,5.657c-0.572,1.229-2.854,2.282-3.381,4.389
			c-0.527,2.107,0,14.747,0,16.327c0,1.58,11.969,1.81,11.601,0.096c-0.368-1.713,0.381-15.019,0.008-16.424
			c-0.373-1.405-3.182-3.336-3.182-4.389c0-1.053-0.351-4.819-0.351-5.657C587.664,376.752,584.069,375.972,583.626,377.591z"/>
		<path style="fill:#3A1E22;" d="M583.283,373.56c-0.126,0.592-0.209,4.418,0,4.875c0.209,0.457,4.396,0.66,4.687,0
			c0.29-0.66-0.207-4.52-0.29-5.129C587.596,372.697,583.47,372.682,583.283,373.56z"/>
	</g>
	<g>
		<rect x="603.044" y="371.7" style="fill:#F9E0BC;" width="51.244" height="34.649"/>
		<rect x="608.592" y="375.864" style="fill:#3A1E22;" width="2.102" height="25.826"/>
		<rect x="613.585" y="375.864" style="fill:#3A1E22;" width="2.102" height="25.826"/>
		<rect x="618.578" y="375.864" style="fill:#3A1E22;" width="2.102" height="25.826"/>
		<rect x="642.044" y="375.864" style="fill:#3A1E22;" width="2.102" height="25.826"/>
		<rect x="646.475" y="375.864" style="fill:#3A1E22;" width="2.102" height="25.826"/>
		<rect x="623.57" y="375.864" style="fill:#3A1E22;" width="1.051" height="25.826"/>
		<rect x="632.939" y="375.864" style="fill:#3A1E22;" width="1.051" height="25.826"/>
		<rect x="630.521" y="375.864" style="fill:#3A1E22;" width="1.051" height="25.826"/>
		<rect x="639.89" y="375.864" style="fill:#3A1E22;" width="1.051" height="25.826"/>
	</g>
	<g>
		<path style="fill:#3A1E22;" d="M154.18,194.342c-23.003,0-41.718-18.714-41.718-41.718c0-23.003,18.714-41.717,41.718-41.717
			c23.003,0,41.717,18.714,41.717,41.717C195.898,175.628,177.183,194.342,154.18,194.342z M154.18,112.907
			c-21.9,0-39.718,17.817-39.718,39.717s17.817,39.718,39.718,39.718s39.717-17.817,39.717-39.718S176.081,112.907,154.18,112.907z"
			/>
		<path style="fill:#3A1E22;" d="M154.18,187.463c-19.21,0-34.838-15.628-34.838-34.838c0-19.21,15.628-34.838,34.838-34.838
			c19.21,0,34.838,15.628,34.838,34.838C189.018,171.835,173.39,187.463,154.18,187.463z M154.18,119.787
			c-18.107,0-32.838,14.731-32.838,32.838s14.731,32.838,32.838,32.838c18.107,0,32.838-14.732,32.838-32.838
			S172.287,119.787,154.18,119.787z"/>
		<g>
			<path style="fill:#C4492D;" d="M173.417,156.193c-0.544,3.38-2.089,6.454-3.754,9.364c-0.009,0-0.009,0.01-0.009,0.01
				c-1.833,3.197-4.046,6.448-7.3,7.793c-1.063,0.438-2.239,0.654-3.365,0.458c-1.018-0.188-1.949-0.69-2.941-1.025
				c-1.639-0.548-3.415-0.596-5.077-0.119c-1.562,0.437-3.091,1.332-4.697,1.145c-1.171-0.146-2.213-0.851-3.175-1.597
				c-5.045-3.881-8.299-8.661-9.31-15.209c-0.625-4.054-0.346-8.298,1.566-11.672c0.779-1.371,1.832-2.6,3.205-3.611
				c3.285-2.41,7.691-2.935,11.383-1.346c0.902,0.395,1.807,0.917,2.785,0.92c1.45-0.005,2.659-1.1,3.927-1.845
				c1.313-0.765,2.794-1.181,4.289-1.196c2.419-0.031,4.78,0.984,6.731,2.523C172.034,144.239,174.355,150.452,173.417,156.193z"/>
			<path style="opacity:0.2;fill:#3A1E22;" d="M169.663,165.558c-0.009,0-0.009,0.01-0.009,0.01c-1.833,3.197-4.046,6.448-7.3,7.793
				c-1.063,0.438-2.239,0.654-3.365,0.458c-1.018-0.188-1.949-0.69-2.941-1.025c-1.639-0.548-3.415-0.596-5.077-0.119
				c-1.562,0.437-3.091,1.332-4.697,1.145c-1.171-0.146-2.213-0.851-3.175-1.597c-5.045-3.881-8.299-8.661-9.31-15.209
				c-0.625-4.054-0.346-8.298,1.566-11.672c-0.339,4.48,0.266,9.042,1.771,13.237c0.49,1.369,1.097,2.727,2.071,3.765
				c0.965,1.029,2.37,1.689,3.707,1.402c0.985-0.202,1.846-0.891,2.84-1.064c0.995-0.173,2.264,0.577,2.07,1.635
				c-0.059,0.304-0.228,0.57-0.333,0.865c-0.411,1.121,0.241,2.438,1.21,3.037c0.968,0.589,2.156,0.598,3.259,0.433
				c1.103-0.175,2.195-0.506,3.31-0.545c1.893-0.061,3.725,0.728,5.611,0.823c2.621,0.141,5.151-1.064,7.416-2.5
				C168.746,166.14,169.195,165.839,169.663,165.558z"/>
			<path style="fill:#3A1E22;" d="M150.317,137.45c-0.176-0.79-0.353-1.584-0.405-2.395c-0.086-1.341,0.179-2.706,0.757-3.898
				c0.235-0.484,0.527-0.948,0.93-1.279c0.956-0.786,2.287-0.665,3.479-0.5c0.326,0.045,0.683,0.109,0.892,0.382
				c0.041,0.054-0.884,1.962-0.964,2.188c-0.274,0.776-0.491,1.576-0.648,2.389c-0.316,1.626-0.397,3.305-0.237,4.957
				c0.08,0.825,0.22,1.644,0.421,2.445c0.164,0.654,0.798,1.775,0.354,2.38c-0.853,1.162-2.477,0.434-2.994-0.597
				C151.012,141.751,150.75,139.394,150.317,137.45z"/>
			<path style="opacity:0.2;fill:#3A1E22;" d="M144.678,158.19c-0.053-0.762-0.279-1.486-0.465-2.216
				c-0.21-0.823-0.369-1.663-0.478-2.513c-0.063-0.488-0.121-1.01-0.433-1.368c-0.307-0.352-0.816-0.472-1.292-0.393
				c-0.475,0.079-0.919,0.337-1.308,0.648c-1.269,1.015-2.032,2.677-1.958,4.261c0.077,1.633,1.019,4.223,2.615,4.834
				C143.262,162.173,144.803,159.974,144.678,158.19z"/>
			<path style="opacity:0.2;fill:#3A1E22;" d="M149.876,164.026c-0.24,0.405-0.342,0.939-0.146,1.37
				c0.179,0.394,0.563,0.626,0.938,0.797c0.523,0.239,1.107,0.408,1.657,0.251c0.948-0.269,1.473-1.581,1.054-2.535
				C152.652,162.253,150.654,162.713,149.876,164.026z"/>
			<path style="opacity:0.2;fill:#3A1E22;" d="M158.711,161.015c-0.66,0.261-1.143,0.819-1.485,1.409
				c-0.274,0.474-0.48,1.022-0.347,1.534c0.207,0.799,1.123,1.203,1.948,1.479c0.967,0.324,2.065,0.608,3.018,0.19
				C165.222,164.146,161.437,159.937,158.711,161.015z"/>
			<path style="fill:#3A1E22;" d="M159.846,174.891c-0.351,0-0.695-0.029-1.029-0.087c-0.767-0.141-1.447-0.417-2.104-0.685
				c-0.325-0.132-0.651-0.265-0.984-0.377c-1.465-0.491-3.015-0.527-4.481-0.106c-0.446,0.125-0.882,0.287-1.318,0.448
				c-1.182,0.437-2.405,0.889-3.771,0.729c-1.416-0.177-2.601-0.97-3.672-1.8c-5.526-4.25-8.695-9.435-9.686-15.847
				c-0.517-3.353-0.643-8.211,1.685-12.318c0.883-1.553,2.055-2.872,3.483-3.923c3.593-2.638,8.333-3.197,12.37-1.459
				c0.18,0.078,0.353,0.159,0.527,0.239c0.662,0.307,1.287,0.597,1.866,0.599c0.801-0.003,1.614-0.54,2.476-1.108
				c0.313-0.207,0.626-0.413,0.942-0.599c1.47-0.856,3.123-1.316,4.785-1.334c2.436-0.034,5.083,0.94,7.361,2.738
				c4.651,3.684,7.106,10.255,6.109,16.353c-0.577,3.585-2.203,6.78-3.873,9.7c-0.012,0.021-0.025,0.042-0.039,0.062
				c-1.855,3.228-4.229,6.711-7.757,8.169C161.761,174.686,160.779,174.891,159.846,174.891z M153.31,171.344
				c1.027,0,2.057,0.167,3.055,0.502c0.374,0.126,0.737,0.273,1.1,0.42c0.591,0.24,1.149,0.467,1.705,0.569
				c0.842,0.148,1.814,0.009,2.803-0.399c2.982-1.232,5.037-4.268,6.814-7.366l0,0.001c0.01-0.018,0.021-0.036,0.032-0.053
				c1.568-2.744,3.086-5.73,3.61-8.983c0-0.001,0-0.002,0-0.003c0.883-5.404-1.277-11.216-5.376-14.461
				c-1.918-1.514-4.098-2.368-6.098-2.308c-1.318,0.014-2.63,0.38-3.798,1.061c-0.283,0.166-0.566,0.354-0.85,0.541
				c-1.018,0.672-2.173,1.435-3.577,1.439c-1.023-0.003-1.918-0.418-2.708-0.784c-0.161-0.074-0.322-0.149-0.482-0.219
				c-3.383-1.456-7.366-0.982-10.39,1.236c-1.2,0.882-2.186,1.992-2.928,3.298c-2.045,3.606-1.916,7.986-1.448,11.025
				c0.921,5.961,3.759,10.59,8.932,14.569c0.849,0.658,1.759,1.281,2.689,1.397c0.883,0.1,1.832-0.248,2.838-0.62
				c0.487-0.18,0.975-0.359,1.465-0.496C151.555,171.466,152.432,171.344,153.31,171.344z M169.663,165.558h0.01H169.663z"/>
			<path style="fill:#605D26;" d="M152.933,135.563c0,0,0.288,6.261,8.658,9.15c8.37,2.889,7.452,10.112,7.452,10.112
				s5.733-8.599,2.178-15.707C167.667,132.008,152.933,135.563,152.933,135.563z"/>
			<path style="fill:#3A1E22;" d="M169.043,155.825c-0.117,0-0.235-0.021-0.349-0.063c-0.435-0.163-0.701-0.603-0.643-1.063
				c0.031-0.259,0.676-6.465-6.787-9.04c-8.909-3.075-9.317-9.767-9.331-10.05c-0.022-0.479,0.299-0.906,0.765-1.018
				c0.632-0.153,15.551-3.652,19.418,4.08c3.77,7.541-1.994,16.339-2.241,16.709C169.686,155.664,169.37,155.825,169.043,155.825z
				 M154.072,136.346c0.405,1.665,1.957,5.39,7.844,7.422c5.146,1.776,7.067,5.132,7.766,7.706c1.307-2.96,2.716-7.767,0.645-11.909
				C167.643,134.196,157.222,135.742,154.072,136.346z"/>
		</g>
	</g>
	<g>
		<path style="fill:#3A1E22;" d="M116.678,331.905c0-1.245-1.01-2.255-2.255-2.255s-2.255,1.01-2.255,2.255s1.01,2.255,2.255,2.255
			S116.678,333.15,116.678,331.905z"/>
		<path style="fill:#3A1E22;" d="M116.678,347.219c0-1.245-1.01-2.255-2.255-2.255s-2.255,1.009-2.255,2.255
			c0,1.245,1.01,2.255,2.255,2.255S116.678,348.464,116.678,347.219z"/>
		<circle style="fill:#3A1E22;" cx="114.424" cy="362.534" r="2.255"/>
		<path style="fill:#3A1E22;" d="M116.678,377.848c0-1.245-1.01-2.255-2.255-2.255s-2.255,1.01-2.255,2.255
			c0,1.245,1.01,2.255,2.255,2.255S116.678,379.094,116.678,377.848z"/>
		<circle style="fill:#3A1E22;" cx="114.424" cy="393.163" r="2.255"/>
	</g>
</g>
<g id="TEXTS">
	
		<text transform="matrix(1 0 0 1 306.3064 142.9568)" style="fill:#FFFFFF; font-family:'Oswald-Bold'; font-size:52.0414px; letter-spacing:1;">Cider</text>
	
		<text transform="matrix(1 0 0 1 324.3509 166.0564)" style="fill:#3A1E22; font-family:'MartelSans-ExtraBold'; font-size:13.6891px; letter-spacing:3;">hard apple</text>
	<rect x="539.744" y="177.524" style="fill:none;" width="111.021" height="62.91"/>
	<text transform="matrix(1 0 0 1 539.8785 183.9138)"><tspan x="0" y="0" style="fill:#3A1E22; font-family:'Oswald-Regular'; font-size:9px;">Lorem ipsum dolor sit amet, </tspan><tspan x="8.234" y="10.8" style="fill:#3A1E22; font-family:'Oswald-Regular'; font-size:9px;">consectetuer adipiscing </tspan><tspan x="7.704" y="21.6" style="fill:#3A1E22; font-family:'Oswald-Regular'; font-size:9px;">elit, sed diam nonummy </tspan><tspan x="3.793" y="32.4" style="fill:#3A1E22; font-family:'Oswald-Regular'; font-size:9px;">nibh euismod tincidunt ut </tspan><tspan x="12.789" y="43.2" style="fill:#3A1E22; font-family:'Oswald-Regular'; font-size:9px;">laoreet dolore magna </tspan></text>
	<rect x="539.744" y="283.528" style="fill:none;" width="111.021" height="60.989"/>
	<text transform="matrix(1 0 0 1 539.8785 289.9183)"><tspan x="0" y="0" style="fill:#3A1E22; font-family:'Oswald-Regular'; font-size:9px;">Lorem ipsum dolor sit amet, </tspan><tspan x="8.234" y="10.8" style="fill:#3A1E22; font-family:'Oswald-Regular'; font-size:9px;">consectetuer adipiscing </tspan><tspan x="7.704" y="21.6" style="fill:#3A1E22; font-family:'Oswald-Regular'; font-size:9px;">elit, sed diam nonummy </tspan><tspan x="3.793" y="32.4" style="fill:#3A1E22; font-family:'Oswald-Regular'; font-size:9px;">nibh euismod tincidunt ut </tspan><tspan x="12.789" y="43.2" style="fill:#3A1E22; font-family:'Oswald-Regular'; font-size:9px;">laoreet dolore magna </tspan></text>
	<rect x="98.046" y="238.27" style="fill:none;" width="111.021" height="62.658"/>
	<text transform="matrix(1 0 0 1 98.1808 244.6601)"><tspan x="0" y="0" style="fill:#3A1E22; font-family:'Oswald-Regular'; font-size:9px;">Lorem ipsum dolor sit amet, </tspan><tspan x="8.234" y="10.8" style="fill:#3A1E22; font-family:'Oswald-Regular'; font-size:9px;">consectetuer adipiscing </tspan><tspan x="7.704" y="21.6" style="fill:#3A1E22; font-family:'Oswald-Regular'; font-size:9px;">elit, sed diam nonummy </tspan><tspan x="3.793" y="32.4" style="fill:#3A1E22; font-family:'Oswald-Regular'; font-size:9px;">nibh euismod tincidunt ut </tspan><tspan x="12.789" y="43.2" style="fill:#3A1E22; font-family:'Oswald-Regular'; font-size:9px;">laoreet dolore magna </tspan></text>
	<text transform="matrix(1 0 0 1 575.9544 108.0858)" style="fill:#3A1E22; font-family:'Oswald-Regular'; font-size:13.9605px;">apple</text>
	<text transform="matrix(1 0 0 1 545.4022 275.92)" style="fill:#3A1E22; font-family:'Oswald-Bold'; font-size:13.9605px;">organic drink</text>
	<text transform="matrix(1.0776 0 0 1 538.0867 166.8438)" style="fill:#3A1E22; font-family:'Oswald-Light'; font-size:20.903px;">new drink</text>
	<text transform="matrix(1 0 0 1 555.8375 141.5547)" style="fill:#3A1E22; font-family:'Oswald-Bold'; font-size:29.8619px;">cider</text>
	<path id="SVGID_x5F_1_x5F_" style="fill:none;" d="M186.382,119.506c18.291,17.785,18.702,47.03,0.917,65.321
		s-47.029,18.702-65.321,0.917c-18.291-17.785-18.702-47.029-0.917-65.321C138.846,102.132,168.091,101.721,186.382,119.506z"/>
	<text>	<textPath  xlink:href="#SVGID_x5F_1_x5F_" startOffset="75.3257%">
<tspan  style="fill:#3A1E22; font-family:'Oswald-SemiBold'; font-size:12px; letter-spacing:200;">Lorem ipsum dolor sit amet, </tspan>	</textPath>
</text>
	<text transform="matrix(1 0 0 1 110.3012 229.2646)" style="fill:#3A1E22; font-family:'Oswald-SemiBold'; font-size:13.9605px;">Lorem ipsum</text>
	<text transform="matrix(1 0 0 1 121.5969 335.3388)" style="fill:#3A1E22; font-family:'Oswald-Regular'; font-size:9px;">Lorem ipsum dolor</text>
	<text transform="matrix(1 0 0 1 121.5969 350.6533)" style="fill:#3A1E22; font-family:'Oswald-Regular'; font-size:9px;">Lorem ipsum dolor</text>
	<text transform="matrix(1 0 0 1 121.5969 365.9679)" style="fill:#3A1E22; font-family:'Oswald-Regular'; font-size:9px;">Lorem ipsum dolor</text>
	<text transform="matrix(1 0 0 1 121.5969 381.2824)" style="fill:#3A1E22; font-family:'Oswald-Regular'; font-size:9px;">Lorem ipsum dolor</text>
	<text transform="matrix(1 0 0 1 121.5969 396.597)" style="fill:#3A1E22; font-family:'Oswald-Regular'; font-size:9px;">Lorem ipsum dolor</text>
</g>
</svg>
